<?xml version="1.0" encoding="UTF-8"?>
<svg id="Layer_2" data-name="Layer 2" xmlns="http://www.w3.org/2000/svg" xmlns:xlink="http://www.w3.org/1999/xlink" viewBox="0 0 769.67 338.56">
  <defs>
    <style>
      .cls-1 {
        fill: #2e7ae3;
      }

      .cls-1, .cls-2, .cls-3, .cls-4, .cls-5, .cls-6, .cls-7 {
        stroke-width: 0px;
      }

      .cls-2 {
        fill: #57a1ff;
      }

      .cls-3 {
        fill: url(#radial-gradient);
      }

      .cls-4 {
        fill: #89c4ff;
      }

      .cls-5 {
        fill: #2658cc;
      }

      .cls-6 {
        fill: #e2ffff;
      }

      .cls-7 {
        fill: #1676d9;
      }
    </style>
    <radialGradient id="radial-gradient" cx="416.54" cy="147" fx="416.54" fy="147" r="152.21" gradientTransform="translate(880.71 -245.68) rotate(93.01) scale(1 3.01)" gradientUnits="userSpaceOnUse">
      <stop offset=".38" stop-color="#96ccff"/>
      <stop offset=".51" stop-color="#91c9ff"/>
      <stop offset=".65" stop-color="#85c1ff"/>
      <stop offset=".8" stop-color="#6fb3ff"/>
      <stop offset=".94" stop-color="#52a1ff"/>
      <stop offset="1" stop-color="#4599ff"/>
    </radialGradient>
  </defs>
  <g id="Dolphin">
    <g>
      <g>
        <path class="cls-1" d="m437.93,312.96c7.92,8.07,16.38,15.62,25.31,22.56,1.36,1.05,2.83,2.14,4.55,2.24,1.58.1,3.07-.66,4.44-1.44,12.46-7.12,22.36-18.63,27.53-32.03"/>
        <path class="cls-3" d="m101.79,149c-20.66-3.38-43.08-3.72-63.3,1.75C18.29,156.22.56,170.09,0,191.02c13.71-3.52,22.98,1.4,33.82,8.28,5.63,3.58,13.66,8.18,19.75,10.92,13.85,6.24,30.54,1.46,42.87-7.4,9.16-6.58,21.27-15.31,31.88-26.42,4.23-4.43,32.99.85,48.63,11.57,19.77,13.54,31.53,24.31,45.65,36.96,47.06,42.15,101.88,73.63,164.07,84.76,66.04,11.82,128.04,5.82,181.23-29.33,7.13-4.71,13.68-10.53,21.69-13.53,7.78-2.92,16.24-3.67,24.55-3.77,47.57-.55,80.04-6.91,119.77-18.37,9.13-2.63,21.62-8.67,28.31-15.43s10.43-17.4,4.49-24.82c-5.56-6.95-16.24-7.45-24.6-4.4s-18.35,10.96-26.32,14.94c-37.08,18.52-70.08,1.52-92.48-28.59-13.68-18.39-29.6-38.89-54.71-50.16-30.95-13.9-80.61-8.95-111.18,5.61-36.33,17.3-68.82,34.89-107.14,47.18-44.81,14.37-93.57,8.48-129.15-9.37-13.98-7.02-27.8-16.85-41.84-23.75-14.04-6.9-27.58-8.39-44.36-6.4-16-21.4-32.32-46.28-37.95-72.4-4.27,20.41-14.2,30.51-13.89,45.9.3,15.39,10.87,29.77,26.02,32.5"/>
        <g>
          <path class="cls-4" d="m419.44,253.72c-16.99,9.83-29.37,27.28-33.04,46.56-2.31,12.1-1.32,24.55-.21,36.81,13.6-1.92,27.35-3.87,40.17-8.8,7.27-2.8,14.18-6.53,20.51-11.09,8.85-6.38,16.76-14.73,20.14-25.1s1.37-22.96-6.88-30.11"/>
          <path class="cls-2" d="m418.69,252.42c-10.08,5.87-18.57,14.3-24.67,24.24-6.6,10.77-9.92,22.91-10.43,35.5-.34,8.33.35,16.65,1.11,24.94.1,1.06.88,1.59,1.9,1.45,9.74-1.37,19.51-2.75,29.04-5.25s17.92-5.92,26-10.82c13.85-8.4,27.57-21.51,28.41-38.71.41-8.41-2.42-17.16-8.85-22.82-1.44-1.27-3.57.84-2.12,2.12,5.4,4.75,7.95,11.79,8,18.88.06,7.66-2.91,14.84-7.41,20.95-4.84,6.57-11.35,11.84-18.21,16.16-7.7,4.85-16.06,8.42-24.81,10.85-10.09,2.81-20.49,4.28-30.85,5.74l1.9,1.45c-1.24-13.7-2.37-27.78,1.26-41.23,2.93-10.88,8.67-20.96,16.43-29.12,4.37-4.6,9.34-8.55,14.82-11.74,1.67-.97.16-3.57-1.51-2.59h0Z"/>
        </g>
        <path class="cls-7" d="m558.25,211.46c.49-3.33,1.21-6.72,2.79-9.72s4.13-5.21,7.19-6.83c3.31-1.76,6.91-3.5,10.57-4.36s7.4-.37,10.94.74c2.1.66,4.13,1.53,6.11,2.5.95.47,1.9.95,2.83,1.45.82.44,2.15.88,2.75,1.59l-.44-1.06.03.29.44-1.06-.1.11,1.06-.44.92.56-.23,1.82.08-.1c1.24-1.47-.87-3.6-2.12-2.12l-.08.1c-.42.5-.61,1.23-.23,1.82,1.08,1.71,3.87.71,3.19-1.37-.34-1.04-1.47-1.49-2.35-1.97-1.06-.58-2.13-1.15-3.2-1.69-4.22-2.14-8.66-3.96-13.4-4.48-4.98-.54-9.44,1.02-13.92,3.03-3.98,1.79-8.04,3.68-10.8,7.2-2.97,3.78-4.21,8.53-4.91,13.21-.28,1.89,2.61,2.7,2.89.8h0Z"/>
        <g>
          <path class="cls-5" d="m500.86,141.31c-3.56.87-5.62,4.1-4.22,6.63s5.96,3.84,9.36,2.68c4.5-1.53,5.39-6.12,3.52-9.46-.72-1.28-1.84-2.54-3.57-3.11s-4.16-.18-4.9,1.1"/>
          <path class="cls-7" d="m500.46,139.86c-3.26.84-6.31,3.74-5.66,7.36.61,3.43,4.57,5.02,7.63,5.29,3.32.29,6.97-1.1,8.59-4.16,1.46-2.74,1.11-6.17-.67-8.68-1.26-1.79-3.06-3.04-5.26-3.32-1.95-.24-4.23.29-5.34,2.04-1.04,1.63,1.55,3.14,2.59,1.51.07-.11.14-.16.3-.25.27-.15.24-.13.55-.22.55-.15,1.08-.2,1.73-.1.97.14,2.12.91,2.75,1.71.74.95,1.04,1.68,1.24,2.86.05.28-.02-.35.01.12.01.15.02.3.03.44,0,.25,0,.49-.02.74-.03.46.03-.16-.01.11-.02.12-.04.24-.07.36-.06.29-.15.57-.25.85.1-.27-.08.17-.09.18-.04.09-.09.18-.14.26-.1.18-.34.54-.39.6-.28.35-.73.75-1.11,1-.99.63-2.14.94-3.24.98-1.26.04-2.38-.13-3.57-.64.19.08-.31-.15-.26-.13-.1-.05-.2-.1-.3-.16-.14-.08-.28-.16-.42-.25.02.01-.41-.29-.21-.14-.49-.38-.71-.65-.92-1.04-.17-.3-.11-.21-.21-.62s0,.25-.02-.17c0-.14,0-.29,0-.43-.02.31.03-.14.04-.18.03-.14.08-.29.12-.43.15-.43-.13.22.09-.2.07-.14.15-.27.23-.4.22-.34.7-.85,1.07-1.11.64-.45,1.26-.7,2-.9,1.87-.48,1.08-3.38-.8-2.89h0Z"/>
        </g>
      </g>
      <circle class="cls-6" cx="503.21" cy="125" r="6"/>
      <circle class="cls-6" cx="487.71" cy="95.5" r="8.5"/>
      <circle class="cls-6" cx="507.71" cy="54.5" r="11.5"/>
      <circle class="cls-6" cx="492.71" cy="28.5" r="4.5"/>
      <circle class="cls-6" cx="498.71" cy="5.5" r="5.5"/>
    </g>
  </g>
</svg>