<svg width="2065" height="139" viewBox="0 0 2065 139" fill="none" xmlns="http://www.w3.org/2000/svg">
<g clip-path="url(#clip0_11_66)">
<path d="M-22.55 92.5C66.45 49.5 260.81 62.81 334.45 76.5C463.17 100.44 566.25 136.76 640.45 126.5C857.45 96.5 948.63 32.39 1200.47 98.33C1326.7 131.38 1426.07 142.43 1555.45 125.5C1607.53 118.68 1693.63 102.17 1739.45 76.5C1905.45 -16.5 2008.05 95.42 2144.75 96.77" fill="#CDEFFF"/>
<path d="M-21.79 93.79C35.59 66.56 105.37 64.66 167.7 64.72C227.45 64.78 287.71 68.9 346.43 80.29C424.66 95.47 502.1 120.13 581.57 128.09C614.85 131.42 646.24 127.56 679.08 122.13C714.16 116.33 749 109.2 783.77 101.76C847.01 88.24 910.33 74.26 975.17 71.61C1057.44 68.24 1136.83 83.98 1216.21 103.92C1299.32 124.8 1383.96 137.45 1469.82 134.32C1545.79 131.56 1624.63 120.58 1696.88 96.21C1733.03 84.02 1764.71 62.41 1801.35 51.43C1836.48 40.91 1873.27 38.72 1909.52 43.83C1974.34 52.97 2033.98 82.65 2098.34 93.82C2113.68 96.48 2129.16 98.01 2144.74 98.25C2146.67 98.28 2146.67 95.28 2144.74 95.25C2077.01 94.19 2015.36 65.49 1950.74 49.08C1919.26 41.09 1886.87 36.41 1854.34 38.66C1816.86 41.26 1780.76 53 1747.58 70.36C1681 105.21 1604.99 119.02 1530.76 126.9C1442.46 136.27 1354.59 130.94 1267.74 112.74C1222.27 103.22 1177.72 89.88 1132.06 81.23C1094.9 74.19 1057.25 69.52 1019.43 68.36C955.51 66.4 892.66 75.84 830.25 88.78C796.71 95.73 763.3 103.25 729.69 109.86C693.63 116.95 656.18 125.61 619.36 126.65C584.77 127.62 550.21 121.44 516.46 114.54C475.19 106.1 434.3 95.88 393.15 86.89C331.11 73.33 269.58 64.71 206.07 62.41C141.77 60.09 74.3 60.87 11.88 78.24C-0.189995 81.6 -12 85.79 -23.33 91.16C-25.07 91.99 -23.55 94.57 -21.82 93.75L-21.79 93.79Z" fill="#E2FFFF"/>
<path d="M2086.37 69.13C2031.74 144.21 1987.21 146.1 1896.45 126.49C1805.69 106.88 1717.08 55.9 1624.45 49.49C1554.19 44.63 1422.29 78.04 1353.65 93.81C1209.9 126.82 1059.27 158.02 916.48 121.07C826.05 97.67 743.61 47.88 652.05 29.4C576.15 14.08 495.83 21.38 423.93 50.13C376.22 69.21 331.97 97.52 282.1 109.88C221.77 124.84 79.45 121.5 -8.55005 86.5C-65.07 64.02 -36.24 67.82 -94.55 50.5" fill="#CDEFFF"/>
<path d="M2085.08 68.37C2067 92.97 2045.38 117.14 2016.13 128.23C1989.88 138.18 1961.12 136.35 1933.9 132.11C1852.6 119.45 1778.94 83.52 1700.2 61.79C1666.25 52.42 1631.42 46.29 1596.11 47.83C1564.14 49.22 1532.31 54.28 1500.88 60.05C1432.24 72.65 1364.68 90.35 1296.49 105.08C1207.74 124.25 1116.96 139.86 1025.82 135.59C980.59 133.47 935.82 126.12 892.56 112.68C852.2 100.14 813.37 83.34 774.24 67.54C735.24 51.79 695.64 36.88 654.35 28.35C613.74 19.96 571.85 17.97 530.61 22.32C489.37 26.67 451.33 36.75 414.27 52.52C374.82 69.31 337.57 91.4 296.5 104.27C269.03 112.88 240.3 115.54 211.64 116.47C177.68 117.57 143.59 116.01 109.83 112.15C74.95 108.17 39.99 101.75 6.67998 90.49C-15.91 82.86 -35.83 71.4 -57.27 61.64C-69.07 56.27 -81.78 52.76 -94.16 49.06C-96.01 48.51 -96.81 51.4 -94.96 51.95C-81.82 55.88 -68.13 59.49 -55.81 65.65C-48.82 69.14 -42.23 73.32 -35.18 76.7C-5.57002 90.9 25.84 100.62 57.99 107.09C121.92 119.95 190.16 124.43 255 116.22C331.79 106.5 395.18 56.43 469.12 36.71C556.9 13.31 645.27 22.91 729.84 53.58C811.74 83.28 889.15 122.59 976.53 134.22C1063.91 145.85 1153.45 135.88 1240.02 119.61C1313.86 105.73 1386.53 86.63 1460.03 71.18C1528.96 56.69 1599.37 42.86 1669.41 57.38C1752.52 74.6 1828.7 114.86 1912.13 131.28C1938.97 136.56 1967.08 141.13 1994.4 136.96C2018.86 133.23 2040.25 121.26 2058.1 104.36C2069.12 93.93 2078.68 82.09 2087.64 69.88C2088.78 68.32 2086.18 66.82 2085.05 68.37H2085.08Z" fill="#E2FFFF"/>
<path d="M7.70996 -0.679932C58.98 35.2801 99.05 55.8701 161.45 50.5001C223.84 45.1301 312.87 15.1001 375.34 19.4701C440.32 24.0101 503.09 48.1401 568.22 49.1701C662.94 50.6701 755.17 3.24007 849.18 14.9701C908.03 22.3201 962.32 52.4701 1021.3 58.7001C1104.72 67.5201 1185.9 27.7301 1269.75 24.9801C1330.5 22.9901 1390.32 40.5101 1451.07 42.1901C1505.48 43.6901 1628.04 89.5601 1682.44 91.5101C1878.44 98.5101 1883.44 39.5101 2067.23 5.56007" fill="#CDEFFF"/>
<path d="M6.95998 0.610049C33.85 19.4001 62.03 37.44 93.91 46.3601C125.79 55.2801 156.27 53.62 187.51 48.71C258.88 37.48 328.62 13.47 401.59 23.7701C442.14 29.5 481.69 40.61 522.19 46.6C560.25 52.22 597.77 51.1701 635.67 44.8601C714.78 31.69 792.92 2.77005 873.77 20.82C912.26 29.41 948.74 45.0001 987.08 54.1501C1024.02 62.97 1061.11 62.83 1098.51 56.92C1138.33 50.63 1177.16 39.4001 1216.85 32.4001C1260.43 24.7101 1302.86 25.82 1346.56 31.75C1365.95 34.3801 1385.28 37.4901 1404.71 39.8801C1422.55 42.0801 1440.37 42.6101 1458.24 44.09C1485.05 46.3101 1511.59 53.66 1537.53 60.43C1592.23 74.72 1646.29 92.79 1703.27 93.5C1760.25 94.21 1814.81 88.19 1868.09 69.57C1917.05 52.46 1964.06 31.49 2014.5 18.6C2032.08 14.11 2049.83 10.32 2067.66 6.99005C2069.56 6.64005 2068.75 3.74005 2066.86 4.10005C2008.91 14.93 1954.26 33.0701 1899.54 54.5501C1851.93 73.2501 1804.36 86.22 1753.06 89.4C1721.86 91.34 1689.38 92.51 1658.44 87.25C1630.42 82.49 1602.89 74.82 1575.47 67.46C1547.36 59.91 1519.27 52.0101 1490.75 46.1601C1462.27 40.3201 1433.49 40.43 1404.71 36.89C1363.68 31.84 1322.87 23.5501 1281.39 23.3301C1242.56 23.1201 1204.49 31.2401 1166.81 39.7901C1127.43 48.7201 1087.64 58.3601 1047.02 58.4701C1006.4 58.5801 968.5 46.51 930.42 34.1101C893.86 22.2001 857.3 11.67 818.53 11.61C780.77 11.56 743.52 19.1301 706.8 27.18C667.66 35.76 628.4 45.23 588.25 47.2901C545.71 49.48 504.13 40.9501 462.75 32.2001C426.69 24.5801 389.73 16.2301 352.65 17.7401C319.12 19.1001 285.95 26.13 253.19 32.92C219.57 39.88 185.52 48.26 151.09 49.67C116.27 51.09 83.34 42.6301 52.79 26.1101C37.4 17.7901 22.83 8.05005 8.49998 -1.96995C6.90998 -3.07995 5.40998 -0.47995 6.98998 0.62005L6.95998 0.610049Z" fill="#E2FFFF"/>
<path d="M2018.95 20.98C2020.75 20.82 2021.49 20.58 2021.58 20.39C2019.91 20.62 2018.54 20.83 2018.95 20.98Z" fill="#EEFFFF"/>
<path d="M1978.37 21.29C1979.24 21.29 1979.97 21.29 1980.76 21.28C1979.84 21.15 1978.92 21.11 1978.37 21.29Z" fill="#EEFFFF"/>
<path d="M84.51 38.58C84.61 38.48 84.54 38.38 84.59 38.29C84.08 38.32 83.91 38.4 84.51 38.58Z" fill="#EEFFFF"/>
<path d="M1904.2 23.7101C1904.34 23.7101 1904.39 23.7101 1904.53 23.7201C1906.47 23.4101 1905.37 23.5101 1904.2 23.7101Z" fill="#EEFFFF"/>
<path d="M1233.32 11.1401C1241.19 10.6301 1221.63 16.2301 1233.32 14.8701C1232.08 14.4901 1242.95 9.67007 1233.32 11.1401Z" fill="#EEFFFF"/>
<path d="M1233.33 14.88L1234.53 14.74C1234.03 14.8 1233.75 14.83 1233.32 14.88H1233.33Z" fill="#EEFFFF"/>
<path d="M1735.59 50.8301C1735.94 51.0801 1736.6 51.2601 1737.29 51.3701C1737.21 51.2101 1736.82 51.0601 1735.59 50.8301Z" fill="#EEFFFF"/>
<path d="M1860.88 29.8L1857.71 29.76C1858.97 29.84 1859.99 29.83 1860.88 29.8Z" fill="#EEFFFF"/>
<path d="M1674.32 39.04C1672.74 38.32 1672.26 37.89 1669.96 37.28C1670.14 37.44 1670.32 37.57 1670.57 37.72C1671.45 37.8 1672.56 38.1 1674.33 39.03L1674.32 39.04Z" fill="#EEFFFF"/>
<path d="M1604.74 29.4701C1605.12 29.5701 1605.62 29.6301 1606.06 29.7101C1606.75 29.6301 1607.56 29.5301 1608.27 29.4501L1604.74 29.4701Z" fill="#EEFFFF"/>
<path d="M293.78 29.05C292.24 28.85 291.24 28.5 290.43 28.12C291.67 29.11 281.97 31.33 293.78 29.05Z" fill="#EEFFFF"/>
<path d="M1667.07 50.54C1665.41 49.87 1663.77 49.25 1662.12 48.64C1660.47 48 1658.83 47.45 1657.19 46.88C1659.95 47.9 1663.54 49.23 1667.06 50.54H1667.07Z" fill="#EEFFFF"/>
<path d="M778.68 18.77L776.28 19.26C777.22 19.19 778.07 19.04 778.68 18.77Z" fill="#EEFFFF"/>
<path d="M1627.47 42.03C1625.65 41.41 1623.69 41.03 1621.65 40.77C1621.22 40.9 1620.73 40.98 1620.45 41.2L1627.47 42.03Z" fill="#EEFFFF"/>
<path d="M290.41 28.11L290.44 28.12C290.44 28.12 290.44 28.11 290.41 28.11Z" fill="#EEFFFF"/>
<path d="M220.82 47.22C231.23 45.2 225.26 44.11 227.21 42.43C239.35 39.22 233.23 42.82 237.65 43.03C245.18 40.77 250.52 37.43 256.18 36.23C256.68 36.49 257.81 36.37 256.62 37.11C260.42 35.33 266.34 33.96 272.39 32.56C278.45 31.14 284.64 29.77 289.09 27.8C289.82 27.87 290.2 27.99 290.4 28.12C288.69 27.3 288.25 26.24 288.41 25.39C292.96 24.5 296.66 22.5 298.62 23.65C295.81 24.07 295.67 24.69 294.44 25.35L299.12 23.94C303.75 25.29 292.71 25.71 292.98 27.27C302.11 24.89 312.8 21.78 320.06 21.81C320.89 22.76 316.72 23.26 313.57 23.77C311.99 24 310.67 24.24 310.35 24.44C310.03 24.65 310.71 24.79 313.13 24.99C309.44 25.15 305.73 25.37 302.02 25.68C310.88 27.62 295.33 26.44 303.53 28.71C307.14 28.3 309.93 28 312.32 27.62C314.71 27.32 316.7 26.95 318.69 26.65C320.68 26.38 322.67 26.03 325.06 25.86C326.25 25.77 327.55 25.68 328.99 25.62C330.43 25.58 332.02 25.6 333.8 25.62C337.01 24.43 332.71 23.93 335.94 22.79C346.24 21.83 350.23 23.62 353.37 25.12C356.55 26.7 358.91 28.01 366.39 28.06C370.4 27.55 372.52 25.2 382.71 29.39C381.31 29.8 379.91 30.21 378.53 30.65C385.32 32.59 387.52 32.4 389.76 32.34C392.01 32.28 394.25 32.44 401.39 35.24C398.52 35.39 390.21 32.87 392.24 33.73C396.7 35.96 398.49 36.11 400.05 35.97C401.61 35.83 402.95 35.39 406.65 36.36L407.69 38.73C415.37 40.52 423.79 41.77 432.55 42.08C441.32 42.31 450.18 41.57 458.86 40.32C457.98 41.06 455.02 42.01 459.21 42.16C481.28 38.51 505.06 32 525.05 28.3C527.41 27.12 529.78 25.93 532.16 24.8C533.92 24.42 535.58 24.84 533.76 25.6C541.55 24.64 533.92 24.42 537.47 22.97C541.84 21.98 543.43 22.88 540.77 23.9C544.07 22.87 548.1 21.85 552.54 20.95C556.97 20.11 561.81 19.47 566.67 19.25C571.54 19.02 576.41 19.33 580.89 20.03C585.36 20.7 589.41 21.94 592.76 23.32L589.94 23.13C595.2 24.84 598.51 24.96 601.74 25.15C604.98 25.36 608.08 25.69 613.02 28.16L610.93 27.81C616.92 29.97 623.29 32.02 629.95 33.47C633.27 34.17 636.71 34.75 640.08 35.06C640.92 35.14 641.77 35.23 642.6 35.31C643.44 35.36 644.27 35.41 645.1 35.46C646.77 35.58 648.41 35.62 650.05 35.66C656.58 35.81 662.85 35.56 668.72 35.32C674.59 35.08 680.07 34.83 685.03 34.82C686.72 33.34 693.03 32.69 699.05 31.86C705.07 31.03 710.77 30 711.25 28.12C725.83 27.2 721.91 28.54 742.09 25.88C747.44 25.03 749.6 22.21 756.12 20.69L756.6 22.48C759.45 21.33 762.31 20.2 765.18 19.09L770.23 20.57C772.24 20.14 774.26 19.68 776.27 19.29C773.83 19.46 770.99 19.16 771.28 18.57C776.02 17.47 781.91 17.12 786.56 17.37C787.73 17.4 788.8 17.53 789.78 17.63C790.76 17.74 791.61 17.85 792.38 18.01C793.89 18.31 794.82 18.6 794.89 18.84C802.56 18.21 810.24 17.52 817.94 16.93C817.43 17.62 813.56 17.98 810.51 18.49C816.66 17.45 817.22 17.91 817.65 18.44C818.08 18.96 818.37 19.49 824 18.75C822.5 18.3 824.83 17.67 825.09 17.3C827.89 17.92 832.48 18.3 837.55 18.5C840.09 18.55 842.73 18.76 845.34 18.87C847.95 18.99 850.51 19.06 852.87 19.09L850.98 20.25C853.1 20.42 855.25 20.58 857.42 20.72C858.51 20.79 859.6 20.85 860.7 20.92C861.79 21.03 862.9 21.13 864 21.24C868.43 21.66 872.95 22.05 877.54 22.43C879.84 22.58 882.13 22.95 884.44 23.21C886.75 23.5 889.08 23.8 891.41 24.09C892.58 24.24 893.75 24.39 894.92 24.55L896.68 24.79L898.43 25.09C900.77 25.51 903.11 25.93 905.46 26.35C898.84 24.53 900.74 22.63 906.33 23.44L908.18 25.77C911.98 25.24 902.54 23.98 910.15 23.88C913.66 24.62 914.73 25.46 914.4 26C914.08 26.54 912.37 26.85 910.29 26.81C913.18 27.07 916.06 27.54 918.95 27.91C919.33 28.59 917.27 28.46 916.6 29.08C918.47 28.86 922.04 30.13 925.81 31.33C929.59 32.54 933.58 33.81 936.34 33.37L936.69 34.05C941.39 35.15 945.46 36.09 949.14 36.95C952.85 37.79 956.16 38.52 959.43 39.2C965.95 40.56 972.03 41.83 979.84 43.46C980.51 41.85 986.51 43.65 991.48 43.12C994.34 43.8 997.27 44.53 1000.28 45.3C1001.03 45.49 1001.79 45.69 1002.55 45.88C1003.32 46.05 1004.09 46.22 1004.87 46.39C1006.43 46.72 1008.01 47.06 1009.6 47.4C1012.8 48.07 1016.08 48.73 1019.44 49.35C1022.82 49.84 1026.28 50.26 1029.82 50.6C1039.84 50.82 1032.86 49.49 1037.41 48.96C1037.99 50.62 1052.16 51.31 1044.74 51.97C1053.26 52.36 1058.7 52.74 1064.69 52.56C1067.69 52.52 1070.83 52.45 1074.56 52.34C1076.42 52.28 1078.44 52.21 1080.66 52.14C1082.89 51.97 1085.33 51.79 1088.04 51.58C1085.68 51 1083.05 50.78 1084.4 50.23C1088.3 49.9 1093.31 50.69 1092.78 51.44L1091.75 51.62C1103.82 50.01 1117.77 49.88 1131.16 48.96C1144.52 48.03 1157.23 46.37 1166.29 42.8L1165.27 43.18C1171.63 41.19 1177.96 39.19 1184.24 37.06C1193.17 35.17 1179.2 39.47 1185.99 38.8C1206.11 31.15 1218.7 30.55 1235.11 24.48C1238.66 24.71 1243.29 24.09 1248.54 23.03C1249.85 22.78 1251.2 22.49 1252.57 22.19C1253.94 21.89 1255.38 21.52 1256.76 21.26C1258.16 20.96 1259.58 20.66 1261.02 20.35C1261.74 20.19 1262.46 20.03 1263.19 19.87C1263.92 19.74 1264.66 19.61 1265.4 19.48C1268.36 18.97 1271.34 18.36 1274.35 18.04C1275.85 17.86 1277.34 17.67 1278.81 17.49C1280.29 17.36 1281.76 17.28 1283.2 17.19C1284.64 17.11 1286.05 17.02 1287.44 17C1288.83 17 1290.18 17.03 1291.49 17.08C1292.8 17.13 1294.06 17.19 1295.27 17.31C1296.48 17.46 1297.64 17.63 1298.73 17.83L1297.73 16.74C1300.02 16.26 1301.4 16.43 1302.62 16.76C1303.84 17.11 1304.9 17.66 1306.57 17.86C1306.14 17.01 1301.66 16.64 1304.52 16.21C1323.97 16.3 1344.04 20.08 1363.94 25.04C1383.87 30.01 1403.76 36.25 1423.77 41.46C1431.1 43.32 1433.51 42.46 1436.33 41.95C1439.16 41.43 1442.35 41.36 1451.47 44.5L1445.75 45.35C1453.37 46.36 1461.09 47.45 1468.83 48.6C1470.77 48.86 1472.72 49.12 1474.67 49.39L1477.59 49.8L1480.52 50.15L1486.39 50.86L1492.29 51.43C1494.25 51.64 1496.22 51.79 1498.2 51.91C1500.17 52.04 1502.14 52.19 1504.11 52.28C1508.06 52.38 1511.99 52.59 1515.93 52.45C1517.9 52.4 1519.85 52.4 1521.81 52.29C1523.77 52.14 1525.72 52 1527.67 51.86C1529.62 51.73 1531.53 51.45 1533.44 51.2C1535.34 50.93 1537.25 50.7 1539.12 50.35C1537.38 51.02 1537.37 51.57 1534.4 51.84C1537.7 52.33 1543.62 51.65 1548.66 50.68C1551.17 50.17 1553.47 49.61 1555.14 49.11C1556.79 48.58 1557.82 48.11 1557.8 47.82C1562.42 47.24 1559.03 48.71 1561.96 48.86C1568.36 48.71 1577.26 44.54 1580.75 45.45C1581.34 45.59 1579.09 46.18 1577.98 46.48C1579.95 45.8 1584.6 45.16 1588.26 44.52C1591.91 43.94 1594.57 43.4 1592.55 42.83C1593.92 42.75 1595.26 42.63 1596.59 42.49C1597.91 42.38 1599.22 42.25 1600.5 42.1C1601.79 41.95 1603.05 41.79 1604.3 41.62C1605.55 41.46 1606.78 41.35 1607.99 41.21C1612.84 40.62 1617.42 40.36 1621.67 40.78C1623.04 40.34 1624.88 40.19 1626.87 40.18C1627.37 40.18 1627.88 40.18 1628.39 40.19C1628.9 40.22 1629.41 40.28 1629.93 40.32C1630.96 40.43 1632 40.54 1633 40.64C1634.01 40.75 1634.98 40.84 1635.9 40.91C1636.81 41 1637.64 41.12 1638.4 41.15C1639.9 41.22 1641.04 41.06 1641.58 40.47C1641.29 41.12 1642.27 41.72 1643.97 42.3C1645.64 42.99 1648.04 43.67 1650.69 44.27C1655.99 45.65 1662.35 47.39 1665.81 47.94C1663.37 47.91 1671.14 50.82 1668.21 50.94C1675.56 53.66 1682.71 55.92 1681.89 54.09C1688.26 58.27 1695.77 60.3 1702.64 61.63C1709.54 62.98 1715.62 63.65 1719.97 66.14C1726.54 66.42 1733.2 65.91 1739.22 64.76C1745.28 63.64 1750.99 62.11 1756.5 60.45C1762.01 58.78 1767.32 56.96 1772.51 55.14C1775.09 54.23 1777.66 53.32 1780.22 52.42C1782.72 51.58 1785.2 50.7 1787.71 49.96C1787.71 50.68 1786.31 51.38 1784.28 52.21C1783.26 52.62 1782.09 53.04 1780.83 53.45C1779.54 53.88 1778.17 54.34 1776.82 54.8C1771.38 56.61 1766.03 58.3 1766.88 59.53C1771.78 57.79 1776.05 56.06 1780.02 54.43C1781.96 53.65 1783.83 52.89 1785.67 52.15C1787.53 51.46 1789.35 50.76 1791.19 50.12C1798.57 47.57 1806.17 45.54 1816.01 44.31C1818.58 44.12 1817.9 44.52 1816.38 45.05C1814.86 45.59 1812.52 46.31 1811.7 46.68C1821.39 44.46 1831.01 43.39 1840.39 42.57C1849.78 41.72 1858.92 41.21 1867.91 39.92C1867.87 40.17 1865.94 40.57 1864.11 40.89C1867.66 40.58 1872.41 40.78 1871.93 39.57L1868.48 40.12C1862.7 38.69 1882.4 35.52 1882.98 34.54C1877.14 38.43 1900.86 34.32 1891.52 39.36C1893.85 38.98 1896.75 38.22 1896.17 37.43C1899.66 37.45 1900.79 37.87 1897.32 39.02C1910.02 37.57 1905.42 36.54 1916.97 35.85C1916.97 36.45 1914.65 36.82 1913.49 37.59C1919.27 36.07 1925.08 34.55 1934.86 34.45C1934.29 34.84 1935.45 35.24 1932.54 35.41C1949.28 34.2 1960.92 30.56 1979.36 30.55C1974.08 33.47 1985.66 31.02 1986.76 33.19L1996.61 31.91L1992.58 31.07C2001.24 30.57 2008.8 28.47 2016.28 28.75L2009.9 30.07L2026.1 28.64L2016.87 28.36C2025.57 26.67 2015.77 25.59 2027.33 25.5C2025 25.87 2035.99 24.99 2040.58 26.03H2040.55C2044.79 25.05 2049.16 24.03 2055.59 24.19C2057.29 24.8 2054.39 26.75 2055.5 27.15C2059.62 25.02 2075.75 25.38 2080.98 23.06C2079.22 23.64 2079.19 24.82 2079.79 25.02L2083.25 23.28C2087.29 23.52 2087.89 23.72 2087.29 24.69C2099.37 24.22 2083.3 22.09 2097.68 22.43C2096.56 22.62 2097.11 22.82 2094.78 23.19C2109.2 22.94 2122.51 20.51 2135.76 20.44C2139.78 22.45 2124.25 21.7 2128.82 23.33C2147.85 21.75 2168.12 18.2 2186.58 17.59L2183.13 17.55C2185.51 14.22 2196.95 18.27 2206.19 16.2C2203.92 16.58 2203.3 18.15 2203.89 17.76C2216.54 17.49 2229.66 15.39 2248.73 13.21L2246.41 14.17C2253.89 14.44 2266.03 13.38 2274.09 13.26C2276.43 12.3 2281.03 12.15 2278.17 11.13C2303.21 14.25 2325.3 5.72001 2347.5 8.24001C2344.87 8.41001 2341.27 9.34001 2343.37 9.22001L2362.06 7.31001C2360.5 6.02001 2359.56 6.62001 2355.56 5.79001C2357.88 4.82001 2363.14 3.86001 2367.78 3.57001C2359.41 5.01001 2367.98 5.79001 2371.66 6.34001C2371.03 5.95001 2372.25 5.41001 2371.91 5.00001C2381.83 6.86001 2373.39 2.11001 2386.84 2.95001L2386.17 3.72001C2391.15 3.04001 2395.7 1.79001 2401.1 1.67001C2403.43 3.13001 2395.82 2.75001 2395.55 4.08001C2403.12 3.52001 2410.32 0.12001 2417.26 1.30001C2414.07 1.94001 2409.44 2.24001 2406.25 2.88001C2413.82 4.30001 2414.66 3.77001 2420.22 3.72001H2419.67L2432.54 3.77001L2429.25 3.46001C2438.49 -1.29999 2448.5 1.51001 2461.11 -2.01999C2448.85 1.33001 2459.14 -0.399989 2458.29 1.48001C2461.58 1.78001 2466.56 2.04001 2465.18 2.64001C2471.13 0.800011 2475.32 3.17001 2483.71 0.510012C2484.12 1.07001 2490.17 0.170011 2488.89 1.72001C2496.71 0.780011 2486.98 0.820012 2487.6 0.0400124C2499.58 -2.69999 2516.15 0.710011 2533.39 -3.09999C2548.32 -5.14999 2550.99 -7.28999 2564.85 -9.12999C2569.6 -8.48999 2561.12 -6.75999 2561.12 -6.75999C2568.75 -6.36999 2574.44 -6.87999 2581.54 -7.98999C2580.12 -7.38999 2581.64 -7.04999 2583.85 -6.52999C2589.57 -7.03999 2587.56 -8.88999 2595.17 -8.49999C2593.91 -7.76999 2592.3 -6.61999 2589.58 -5.79999C2596.3 -6.74999 2602.91 -8.25999 2609.87 -9.20999C2611.78 -8.30999 2605.74 -7.40999 2603.31 -6.58999C2611.14 -7.52999 2623.61 -8.76999 2625.95 -10.53L2620.88 -10.79C2623.74 -11.04 2622.43 -9.49999 2620.33 -9.06999C2613.67 -7.38999 2610.59 -9.02999 2610.17 -9.58999L2615.13 -10.27C2609.82 -13.38 2595.17 -8.48999 2585.13 -8.06999L2589.17 -10.82L2579.01 -8.11999C2576.79 -8.62999 2575.21 -9.92999 2580.14 -10.61C2572.89 -11.4 2573.83 -9.32999 2567.58 -10.32C2566.89 -10.49 2567.19 -10.63 2567.81 -10.77L2560.83 -9.58999C2562.18 -10.2 2559.56 -11.28 2563.9 -11.18C2551.22 -11.84 2543.69 -8.05999 2538.84 -9.64999L2539.88 -9.86999C2522.45 -7.94999 2538.29 -7.93999 2525.3 -4.97999L2516.22 -8.94999L2514.6 -7.01999C2512.79 -6.96999 2509.22 -6.88999 2509.84 -7.65999C2503.2 -5.98999 2511.03 -6.93999 2507.2 -5.50999C2498.43 -6.63999 2483.31 -3.24999 2481.19 -6.04999C2478.15 -4.46999 2489.55 -5.48999 2480.34 -3.94999C2477.52 -6.91999 2469.66 -2.74999 2461.65 -3.69999C2463.99 -5.46999 2471.56 -5.06999 2463.54 -6.02999C2458.91 -2.99999 2448.06 -5.67999 2441.4 -4.73999C2441.21 -2.53999 2426.91 -2.92999 2415.72 -1.51999C2416.39 -2.29999 2394.53 -1.40999 2384.05 -1.55999L2384.34 -1.93999C2382.44 0.380011 2371.65 0.630012 2363.83 1.57001C2364.06 0.230011 2365.45 -0.369987 2369.66 -1.21999L2362.29 -0.749989C2360.59 0.0600119 2358.31 0.580012 2353.54 1.12001L2355.3 -0.639988C2345.49 0.0600119 2335.65 2.52001 2322.96 2.20001C2322.34 3.78001 2333.24 5.85001 2319.95 7.70001C2319.41 6.90001 2318.84 5.51001 2322.31 4.96001C2321.17 5.14001 2318.27 5.90001 2315.94 5.69001L2321.2 3.97001C2315.42 3.71001 2318.26 5.32001 2313.65 5.48001C2313.67 4.29001 2310.2 4.85001 2310.81 3.87001C2311.98 3.68001 2314.85 4.11001 2316.58 3.54001C2311.38 3.65001 2305.08 3.33001 2302.96 2.57001C2303.45 3.21001 2303.05 4.16001 2299.26 4.55001C2289.45 5.24001 2295.82 3.33001 2290.06 3.08001C2287.73 4.05001 2281.42 3.58001 2281.36 5.36001C2278.49 5.53001 2277.91 4.74001 2276.77 4.33001C2271.74 5.42001 2253.06 6.02001 2258.89 7.54001L2260.2 7.58001C2259.96 7.63001 2259.67 7.65001 2259.37 7.71001C2242.82 10.5 2224.74 8.84001 2208.26 10.62V10.03C2198.43 11.31 2186.33 11.78 2179.36 13.49C2176.44 13.67 2172.42 12.84 2173.62 12.05C2166.11 12.96 2165.3 13.68 2154.36 13.37C2161.88 11.87 2151.69 12.62 2162.08 12.13C2152.26 12.22 2149.99 11.41 2139.56 13.68C2143.05 11.94 2132.08 12.23 2127.45 12.97L2134.37 13.63C2129.15 14.17 2124.56 14.32 2119.91 14.48L2122.31 12.33C2102.13 11.14 2086.4 18.69 2070.92 15.57C2065.7 17.29 2081.86 15.88 2077.21 17.8C2067.98 18.1 2058.21 15.83 2055.33 16C2042.64 15.68 2043.71 19.64 2030.46 19.7C2032.19 20.31 2033.89 22.1 2024.05 23.38C2014.81 23.69 2012.54 21.1 2018.34 20.17C2020.55 19.97 2021.63 20.13 2021.55 20.38C2024.52 19.94 2028.41 19.39 2024.71 18.85L2023.55 19.63C2018.93 19.19 2006.25 20.05 2009.16 18.7C2002.23 19.81 2006.24 20.05 2011.43 20.1C1999.54 19.8 1992.94 21.21 1980.73 21.27C1982.69 21.54 1984.52 22.27 1982.59 22.38C1964.68 22.6 1974.8 24.21 1962.71 25.27C1955.77 24.61 1965.03 22.53 1952.9 24.19C1945.42 23.92 1951.22 22.4 1954.14 21.64C1943.12 23.7 1933.35 22.02 1927 22.16L1932.81 21.23C1929.33 21.79 1926.47 21.95 1923.55 22.13L1926.97 23.35C1923.52 23.31 1920.62 23.49 1920.65 22.89C1917.16 24.04 1923.49 25.09 1916.54 26.79C1911.92 26.35 1902.65 28.43 1900.96 26.64C1915.39 26.39 1899.26 24.84 1911.43 23.79C1909.09 24.16 1906.23 24.33 1902.77 24.29C1902.24 24.11 1903.24 23.87 1904.17 23.7C1890.3 22.86 1897.96 26.22 1883.68 27.06C1885.43 25.88 1880.26 25.25 1877.94 25.62C1883.69 25.29 1880.79 27.22 1875.56 28.36C1866.36 28.1 1865.65 29.59 1860.84 29.78L1866.34 29.84C1864.55 31.03 1859.96 31.14 1853.57 31.89C1852.97 31.1 1859.35 30.95 1857.04 30.73C1850.06 33.04 1840.79 29.87 1830.93 32.19C1826.24 31.99 1830.27 30.25 1826.14 30.23C1820.61 31.59 1817.54 31.68 1814.37 31.76C1811.21 31.86 1807.93 31.94 1802.15 33.65C1803.98 34.01 1805.02 34.11 1804.61 34.45C1804.2 34.78 1802.33 35.42 1798.37 36.95C1804.67 35.26 1811.04 33.81 1817.43 32.55C1815.41 33.19 1813.4 33.84 1811.4 34.54C1809.4 35.21 1807.41 35.92 1805.43 36.65C1811.19 35.56 1817.5 33.71 1821.02 33.49C1815.3 35.46 1815.87 35.05 1818.8 35.81C1814.7 35.32 1810.81 36.24 1806.83 37.39C1802.84 38.5 1798.78 39.87 1794.1 40.19L1793.57 36.68C1790.04 37.11 1786.77 37.85 1783.61 38.83C1782.02 39.29 1780.47 39.86 1778.91 40.44C1778.13 40.74 1777.35 41.03 1776.57 41.33C1775.81 41.64 1775.05 41.95 1774.28 42.26C1768.15 44.74 1761.58 47.51 1753.03 49.23C1754.89 48.97 1756.75 48.69 1758.61 48.38C1757.67 49.38 1755.06 50.15 1752.02 50.83C1748.98 51.52 1745.53 52.1 1742.83 52.88C1743.13 51.62 1739.63 51.81 1737.25 51.37C1737.45 51.79 1734.4 52.18 1731.18 52.52C1729.58 52.62 1727.93 52.81 1726.57 53.06C1725.2 53.24 1724.12 53.57 1723.7 54.14C1723.08 53.97 1722.47 53.83 1721.86 53.64L1720.04 53.03C1718.83 52.6 1717.64 52.27 1716.45 51.75C1709.87 50.31 1705.9 49.93 1701.87 49.65C1697.86 49.32 1693.83 48.9 1687.45 46.29C1691.78 46.52 1686.25 43.61 1695.13 45.86C1690.87 44.34 1687.1 42.65 1686.74 43.39C1684.51 41.77 1674.23 40.24 1670.53 37.73C1669.52 37.63 1668.75 37.82 1667.61 37.82C1666.47 37.82 1665.01 37.56 1662.5 36.71C1662.02 36.31 1662.7 36.16 1662.7 36.16C1662.6 36.43 1660.56 35.99 1659.06 35.82C1657.54 35.67 1656.57 35.8 1658.59 37.06C1656.99 36.12 1655.18 35.23 1653.17 34.45C1651.14 33.75 1648.95 33.1 1646.65 32.49C1642.03 31.48 1636.99 30.79 1632.01 30.59C1630.77 30.53 1629.52 30.41 1628.3 30.4C1627.07 30.4 1625.85 30.38 1624.65 30.38C1623.45 30.36 1622.26 30.34 1621.1 30.32C1619.94 30.29 1618.8 30.35 1617.69 30.35C1615.47 30.37 1613.35 30.28 1611.39 30.21C1609.44 30.15 1607.63 30 1606.02 29.73C1595.78 30.96 1583.71 33.16 1574.65 34.69C1575.18 34.25 1574.59 34.1 1576.32 33.95C1563.63 34.84 1569.17 38.59 1554.77 39.56C1547.25 38.75 1562.14 37.39 1557.52 37.36C1556.88 36.47 1555.5 36.23 1553.64 36.34C1551.78 36.44 1549.44 36.88 1546.86 37.41C1541.72 38.44 1535.62 39.65 1530.81 38.87L1533.07 38.44C1529.4 38.15 1525.09 38.72 1520.14 39.4C1517.66 39.66 1515.02 39.97 1512.26 40.18C1509.5 40.29 1506.61 40.35 1503.64 40.16C1503.64 40.16 1504.23 39.85 1503.74 39.58C1501.69 39.95 1499.18 40.2 1496.39 40.38C1493.6 40.51 1490.52 40.48 1487.34 40.43C1484.16 40.27 1480.88 40.11 1477.67 39.84C1474.47 39.52 1471.33 39.27 1468.45 38.9C1472.25 38 1473.76 38.89 1471.84 37.06C1466.7 36.46 1472.96 39.79 1462.65 38.49C1459.47 37.07 1452.27 34.96 1451.63 33.11C1454.82 33.76 1458.02 34.28 1461.21 34.87C1456.71 31.87 1448.84 32.57 1443.88 31.1L1444.72 30.33C1430.07 27.42 1429.33 29.62 1413.67 25.66L1415.12 26.74C1405.98 26.91 1408.24 23.7 1399.26 23.28L1397.23 20.34C1391.42 19.5 1376.79 17.72 1366.44 15.96C1372.63 15.46 1384.82 17.38 1392.44 18.18C1389.63 17.48 1384.82 16.38 1380.31 15.52C1375.79 14.67 1371.58 14.07 1369.97 14.31C1372.31 14.59 1375.31 14.69 1377.49 15.56C1370.12 15.78 1360.8 14.63 1349.43 12.48C1350.14 11.44 1348.65 10.51 1345.89 9.62001C1344.51 9.18001 1342.79 8.79001 1340.88 8.39001C1338.97 7.99001 1336.86 7.59001 1334.65 7.26001C1332.44 6.92001 1330.15 6.56001 1327.9 6.21001C1325.63 5.90001 1323.4 5.57001 1321.32 5.21001C1317.14 4.56001 1313.55 3.82001 1311.47 2.77001C1300.99 2.91001 1290.64 2.68001 1279.76 3.11001C1274.33 3.34001 1268.77 3.73001 1263.06 4.51001C1260.19 4.80001 1257.33 5.43001 1254.4 5.95001C1253.67 6.09001 1252.93 6.23001 1252.2 6.37001C1251.47 6.52001 1250.77 6.70001 1250.04 6.87001C1248.6 7.22001 1247.15 7.57001 1245.69 7.93001C1254.82 9.42001 1238.88 9.67001 1241.23 12.92C1235.9 14.51 1233.84 14.99 1233.3 14.89L1216.51 17.11C1212.39 17.11 1221.39 14.96 1220.68 14.3C1208.9 17.18 1215.37 14.12 1207.38 15.26C1209.3 16.11 1203.8 18.17 1197.04 19.43L1206.83 18.59C1198.93 21.7 1195.2 21.89 1191.48 22.04C1187.75 22.2 1184.02 22.37 1176.04 25.28L1180.96 22.9C1178.9 23.57 1175.92 24.4 1172.5 25.28C1169.08 26.14 1165.22 27.11 1161.36 28.07C1157.5 29 1153.67 30.04 1150.3 31.06C1146.93 32.05 1144.04 33.1 1142.08 34.2C1140.5 34.06 1138.35 33.44 1142.04 32.49C1131.87 34 1120.68 36.51 1109.92 38.04C1104.55 38.95 1099.28 39.39 1094.37 39.8C1089.45 40.08 1084.88 39.98 1080.9 39.64L1082.45 38.71C1080.56 38.91 1078.86 39.23 1077.06 39.49C1075.26 39.73 1073.33 39.82 1070.93 39.32C1071.19 38.95 1072.5 38.46 1070.72 38.37C1069.7 38.5 1067.13 38.85 1064.18 39.07C1062.7 39.18 1061.13 39.27 1059.61 39.29C1058.09 39.29 1056.63 39.15 1055.36 38.95C1056.83 38.69 1058.29 38.49 1059.75 38.19C1054.75 37.64 1050.33 37.32 1046.23 37.27C1044.18 37.23 1042.21 37.25 1040.3 37.29C1038.38 37.34 1036.53 37.27 1034.69 37.31C1031.01 37.36 1027.42 37.4 1023.7 37.45C1022.77 37.45 1021.82 37.46 1020.87 37.43C1019.92 37.37 1018.96 37.32 1017.98 37.26C1016.03 37.13 1014.01 36.95 1011.9 36.71C1012.12 35.39 1008.34 34.01 1003.58 32.59C998.83 31.08 993.08 29.69 989.25 28.73L989.59 28.42C966.79 23.33 950.17 21.24 928.3 17.4C925.09 15.98 920.63 14.57 915.43 13.17C910.17 11.94 904.17 10.66 897.87 9.52001C894.71 9.03001 891.48 8.52001 888.24 8.02001C885 7.54001 881.77 6.93001 878.55 6.60001C875.34 6.21001 872.19 5.80001 869.15 5.36001C867.63 5.13001 866.14 4.91001 864.68 4.69001C863.22 4.46001 861.8 4.21001 860.41 4.05001C863.77 4.74001 859.68 6.07001 855.73 6.08001C850.55 5.22001 841.26 7.01001 842.2 4.64001L844.05 4.80001C843.1 4.16001 841.71 3.62001 840.03 3.30001C838.35 2.99001 836.38 2.80001 834.28 2.68001C830.06 2.44001 825.28 2.48001 821.09 2.35001L819.69 5.49001C816.97 4.80001 814.03 4.52001 810.95 4.28001C807.87 4.05001 804.65 3.96001 801.36 3.95001C798.07 3.95001 794.72 4.02001 791.37 4.15001C789.66 4.25001 787.91 4.38001 786.2 4.54001C784.5 4.73001 782.8 4.89001 781.15 5.12001C767.91 6.89001 756.45 9.59001 750.2 8.58001C745.16 10.29 738.77 11.49 733.84 13.25L733.79 11.53C726.64 12.69 721.3 13.56 715.57 14.58C709.84 15.6 703.73 16.79 695.07 18.42L698.42 16.63C693.51 17.41 690.62 19.09 687.8 20.77C686.39 21.61 684.99 22.46 683.38 23.15C681.77 23.86 679.94 24.43 677.66 24.72C676.65 23.99 675.64 23.27 674.64 22.52C666.1 23.45 657.47 23.5 649.17 22.98C645.03 22.71 640.94 22.37 637.01 21.82C633.04 21.31 628.99 20.63 624.82 20.04C625.18 19.74 625.87 19.22 628.49 19.78C626.61 19.3 623.86 18.39 620.8 17.33C617.74 16.28 614.35 15.03 611.21 14.01C604.93 11.92 599.56 10.83 600.57 12.95C600.8 11.85 596.33 10.37 590.34 9.38001C588.85 9.14001 587.25 8.94001 585.63 8.78001C584 8.66001 582.36 8.54001 580.75 8.47001C579.14 8.46001 577.57 8.45001 576.08 8.43001C574.6 8.49001 573.21 8.55001 571.95 8.60001L573.6 7.02001C572.52 7.23001 571.57 7.40001 570.73 7.60001C569.89 7.81001 569.13 8.00001 568.43 8.17001C567.05 8.50001 565.86 8.77001 564.58 9.08001C562.03 9.64001 559.08 9.98001 553.41 10.86C550.68 10.91 550.88 9.77001 554.55 9.83001C552.26 9.83001 550.68 9.99001 549.44 10.26C548.2 10.52 547.29 10.83 546.33 11.17C544.41 11.88 542.27 12.57 536.83 13.16L540.64 11.37C531.47 12.96 532.34 13.48 527.67 15.78C522.19 17.71 510.74 19.65 509.04 18.56C508.09 19.77 503.6 22.28 498.33 23.25C497.49 22.89 499.27 22.04 500.17 21.61C492.7 23.05 487.41 24.93 482.64 26.51C477.88 28.09 473.63 29.4 468.43 29.51C468.12 29 467.42 28.85 466.56 28.84C472.36 27.86 477.6 26.69 481.28 25.87C484.96 25.05 487.09 24.54 486.67 24.71C486.28 23.25 476.93 25.21 483.81 21.37C480.23 22.84 475.4 24.93 470.27 26.64C465.15 28.34 459.7 29.6 455.12 29.71C454.66 29.6 454.22 29.5 453.87 29.3L454.79 29.04C453.74 29.06 452.75 29.16 451.81 29.3C450.87 29.41 449.97 29.56 449.1 29.75C447.65 29.73 446.47 29.65 445.31 29.59C444.15 29.53 443 29.55 441.63 29.49C441.1 28.83 438.49 28.69 435.47 28.44C432.44 28.26 428.98 27.95 426.72 27.58C426.87 29.34 420.86 28.07 426.3 30.36C425.58 30.12 427.21 30.32 430.29 30.61C430.99 30.63 431.81 30.69 432.28 30.64C432.19 30.68 432.07 30.72 431.95 30.76C434.99 31.04 438.95 31.19 443.48 31.14C439.83 32 435.85 32.68 430.8 31.17C429.55 31.61 428.22 31.97 427 32.28C425.78 32.59 424.67 32.86 423.87 32.97C420.82 31.29 416.34 29.42 412.47 27.68C408.6 25.91 405.31 24.3 404.66 23.37C397.48 21.89 389.03 19.49 380.96 17.84C376.94 17 372.99 16.39 369.45 16.08C367.66 15.97 366 15.87 364.45 15.92C362.9 15.98 361.5 16.11 360.26 16.31C355.94 16.11 355.45 14.81 353.89 14.1C356.42 14.08 359.39 14.43 360.8 14.23C359.71 14.15 358.48 14.07 357.18 14C355.88 13.91 354.49 13.81 353.06 13.7C350.2 13.6 347.19 13.38 344.39 13.43C342.99 13.44 341.64 13.44 340.39 13.51C339.14 13.59 337.99 13.7 336.98 13.83C334.97 14.07 333.53 14.5 333.03 15.07C327.62 14.7 329.11 14.16 330.12 13.79C330.62 13.61 331 13.47 330.32 13.43C329.64 13.37 327.9 13.44 324.17 13.74L326.15 12.96C318.74 12.47 312.04 13.04 305.79 14.2C299.53 15.35 293.68 16.99 287.81 18.75C276.06 22.25 264.14 26.16 248.08 27.52C250.3 27.3 251.4 27.18 251.92 27.44C233.96 30.52 215.91 35.17 197.63 37.99C179.4 40.9 160.83 41.3 143.41 37.97C140.93 37.64 139.01 37.27 137.4 37.14C135.8 36.99 134.52 36.97 133.36 37.03C132.19 37.08 131.14 37.21 129.98 37.32C128.83 37.4 127.58 37.48 126.01 37.48L124.16 35.32L118.8 35.44L113.43 35.37C111.56 35.17 109.77 34.86 108.04 34.48C106.32 34.06 104.66 33.53 103.03 32.98C99.77 31.86 96.62 30.58 93.4 29.14C90.17 27.73 86.81 26.41 83.11 25.08C79.4 23.8 75.31 22.73 70.6 21.86L72.54 23.8C66.12 21.5 51.86 17.32 53.42 16.38C52.69 16.34 50.88 16.78 48.6 15.23L48.74 14.27C43.31 12.83 37.9 11.24 32.48 9.70001C20.65 4.15001 35.76 7.01001 18.24 -0.379988C11.57 -2.72999 -1.42999 -5.61999 0.780009 -3.99999C3.40001 -2.84999 7.29001 -0.629989 7.12001 0.330011L0.950007 -1.71999C-1.20999 0.400012 -6.93999 1.10001 7.02001 9.07001L17.95 11.76L20.76 14.37L12.06 10.88C16.48 14.1 20.04 14.34 23.83 15.03C24.39 16.03 25.65 17.09 27.6 18.17L38.78 19.72C39.63 21.22 33.41 19.95 40.06 23.19C45.32 23.85 36.33 19.16 44.58 21.41C49.14 24.47 47.29 24.95 53.58 26.06C54.17 27.03 52.76 27.02 50.3 26.47C53.09 27.01 56.61 28.18 59.84 29.16C63.07 30.14 66.04 30.83 67.64 30.6C68.84 31.42 70.57 32.18 72.47 32.9C74.39 33.58 76.47 34.21 78.37 34.81C80.26 35.41 81.96 35.99 83.11 36.57C84.26 37.14 84.87 37.68 84.55 38.28C85.49 38.22 88.03 38.39 90.95 38.74C92.41 38.91 93.96 39.15 95.47 39.37C96.99 39.58 98.45 39.83 99.71 40.12C94.73 40.51 99.42 41.73 104.98 43.18C110.57 44.5 117.04 45.94 115.48 47.36C117.34 47.06 119.89 46.99 122.81 47.24C124.27 47.35 125.84 47.52 127.47 47.73C129.1 47.96 130.83 48.07 132.58 48.28C139.59 49.14 147.35 49.8 153.64 49.38C152.93 49.58 151.52 50 150.43 49.74C153.94 50.11 156.22 50.38 158.17 50.79C160.13 51.16 161.78 51.63 164.06 51.9C165.01 49.5 176 48.99 181.74 47.02C186.09 47.81 184.87 48.6 182.87 49.44C180.88 50.31 178.09 51.08 179.53 52.11C179.39 51.64 180.27 51.24 181.59 50.86C182.91 50.46 184.7 50.09 186.4 49.73C189.79 48.98 192.84 48.23 191.3 47.6C194.65 47.97 196.07 47.9 197.11 48.02C198.15 48.12 198.81 48.37 200.62 49.09C201.34 46.02 206.63 47.72 211.68 45.01C221.23 44.74 214.59 47.33 224.61 44.46C227.11 44.4 226.16 45.09 224.58 45.8C222.99 46.5 220.77 47.19 220.77 47.19L220.82 47.22ZM458.85 39.73V39.76C456.72 40.08 454.88 40.24 453.71 40.39C454.78 40.25 456.27 40.12 458.84 39.73H458.85ZM479.42 36.08C476.94 36.58 473.85 37.21 470.56 37.83C469.73 37.39 470.41 36.66 472.46 36.31C471.42 36.9 476.29 36.31 479.42 36.09V36.08ZM435.99 28.87C439.01 28.84 440.02 29.11 440.43 29.48C439.71 29.48 438.93 29.49 438.05 29.5C437.18 29.49 436.21 29.47 435.11 29.46C435.02 29.52 434.83 29.58 434.74 29.65C435.05 29.35 435.4 29.06 435.99 28.88V28.87Z" fill="#EEFFFF"/>
<path d="M430.32 30.6001C429.87 30.5901 429.62 30.6501 429.04 30.5801C429.65 30.8301 430.23 30.9901 430.83 31.1601C431.23 31.0201 431.63 30.8801 431.97 30.7501C431.41 30.7001 430.83 30.6501 430.31 30.6101L430.32 30.6001Z" fill="#EEFFFF"/>
<path d="M756.72 22.8701L756.61 22.4501L754.94 23.1301L756.72 22.8701Z" fill="#EEFFFF"/>
<path d="M1864.09 40.91C1863.59 40.95 1863.09 41 1862.66 41.07C1859.32 41.59 1861.59 41.33 1864.09 40.91Z" fill="#EEFFFF"/>
<path d="M2040.53 26.0701C2038.67 26.4901 2036.84 26.9101 2034.9 27.2201C2038.05 27.1501 2040.5 27.0401 2040.53 26.0701Z" fill="#EEFFFF"/>
<path d="M1668.16 50.98C1668.16 50.98 1668.16 50.97 1668.19 50.96C1667.8 50.82 1667.46 50.69 1667.07 50.55L1668.16 50.98Z" fill="#EEFFFF"/>
<path d="M2026.68 27.7C2029.84 27.84 2032.47 27.61 2034.9 27.22C2032.32 27.27 2029.27 27.28 2026.68 27.7Z" fill="#EEFFFF"/>
<path d="M1617.21 27.2501L1618.88 29.0801C1620.68 28.8201 1621.78 28.2601 1621.67 27.7501C1621.61 27.5001 1621.25 27.2701 1620.53 27.1401C1619.81 27.0401 1618.72 27.0501 1617.21 27.2501Z" fill="#EEFFFF"/>
<path d="M1415.74 25.0401C1413.8 23.6001 1408.35 21.6301 1404.69 21.6901C1409.13 22.9201 1413.41 24.7301 1415.74 25.0401Z" fill="#EEFFFF"/>
<path d="M809.37 3.16008L813.53 2.46008L805.69 3.12008L809.37 3.16008Z" fill="#EEFFFF"/>
</g>
<defs>
<clipPath id="clip0_11_66">
<rect width="2761.79" height="157.29" fill="white" transform="translate(-96 -18)"/>
</clipPath>
</defs>
</svg>
