<?xml version="1.0" encoding="UTF-8"?>
<svg id="Layer_2" data-name="Layer 2" xmlns="http://www.w3.org/2000/svg" viewBox="0 0 2761.79 157.29">
  <defs>
    <style>
      .cls-1 {
        fill: #e2ffff;
      }

      .cls-1, .cls-2, .cls-3 {
        stroke-width: 0px;
      }

      .cls-2 {
        fill: #cdefff;
      }

      .cls-3 {
        fill: #eff;
      }
    </style>
  </defs>
  <g id="OceanTopCeiling">
    <g>
      <g>
        <path class="cls-2" d="m73.45,110.5c89-43,283.36-29.69,357-16,128.72,23.94,231.8,60.26,306,50,217-30,308.18-94.11,560.02-28.17,126.23,33.05,225.6,44.1,354.98,27.17,52.08-6.82,138.18-23.33,184-49,166-93,268.6,18.92,405.3,20.27"/>
        <path class="cls-1" d="m74.21,111.79c57.38-27.23,127.16-29.13,189.49-29.07,59.75.06,120.01,4.18,178.73,15.57,78.23,15.18,155.67,39.84,235.14,47.8,33.28,3.33,64.67-.53,97.51-5.96,35.08-5.8,69.92-12.93,104.69-20.37,63.24-13.52,126.56-27.5,191.4-30.15,82.27-3.37,161.66,12.37,241.04,32.31,83.11,20.88,167.75,33.53,253.61,30.4,75.97-2.76,154.81-13.74,227.06-38.11,36.15-12.19,67.83-33.8,104.47-44.78,35.13-10.52,71.92-12.71,108.17-7.6,64.82,9.14,124.46,38.82,188.82,49.99,15.34,2.66,30.82,4.19,46.4,4.43,1.93.03,1.93-2.97,0-3-67.73-1.06-129.38-29.76-194-46.17-31.48-7.99-63.87-12.67-96.4-10.42-37.48,2.6-73.58,14.34-106.76,31.7-66.58,34.85-142.59,48.66-216.82,56.54-88.3,9.37-176.17,4.04-263.02-14.16-45.47-9.52-90.02-22.86-135.68-31.51-37.16-7.04-74.81-11.71-112.63-12.87-63.92-1.96-126.77,7.48-189.18,20.42-33.54,6.95-66.95,14.47-100.56,21.08-36.06,7.09-73.51,15.75-110.33,16.79-34.59.97-69.15-5.21-102.9-12.11-41.27-8.44-82.16-18.66-123.31-27.65-62.04-13.56-123.57-22.18-187.08-24.48-64.3-2.32-131.77-1.54-194.19,15.83-12.07,3.36-23.88,7.55-35.21,12.92-1.74.83-.22,3.41,1.51,2.59h0Z"/>
      </g>
      <g>
        <path class="cls-2" d="m2182.37,87.13c-54.63,75.08-99.16,76.97-189.92,57.36s-179.37-70.59-272-77c-70.26-4.86-202.16,28.55-270.8,44.32-143.75,33.01-294.38,64.21-437.17,27.26-90.43-23.4-172.87-73.19-264.43-91.67-75.9-15.32-156.22-8.02-228.12,20.73-47.71,19.08-91.96,47.39-141.83,59.75-60.33,14.96-202.65,11.62-290.65-23.38C30.93,82.02,59.76,85.82,1.45,68.5"/>
        <path class="cls-1" d="m2181.08,86.37c-18.08,24.6-39.7,48.77-68.95,59.86-26.25,9.95-55.01,8.12-82.23,3.88-81.3-12.66-154.96-48.59-233.7-70.32-33.95-9.37-68.78-15.5-104.09-13.96-31.97,1.39-63.8,6.45-95.23,12.22-68.64,12.6-136.2,30.3-204.39,45.03-88.75,19.17-179.53,34.78-270.67,30.51-45.23-2.12-90-9.47-133.26-22.91-40.36-12.54-79.19-29.34-118.32-45.14-39-15.75-78.6-30.66-119.89-39.19-40.61-8.39-82.5-10.38-123.74-6.03s-79.28,14.43-116.34,30.2c-39.45,16.79-76.7,38.88-117.77,51.75-27.47,8.61-56.2,11.27-84.86,12.2-33.96,1.1-68.05-.46-101.81-4.32-34.88-3.98-69.84-10.4-103.15-21.66-22.59-7.63-42.51-19.09-63.95-28.85-11.8-5.37-24.51-8.88-36.89-12.58-1.85-.55-2.65,2.34-.8,2.89,13.14,3.93,26.83,7.54,39.15,13.7,6.99,3.49,13.58,7.67,20.63,11.05,29.61,14.2,61.02,23.92,93.17,30.39,63.93,12.86,132.17,17.34,197.01,9.13,76.79-9.72,140.18-59.79,214.12-79.51,87.78-23.4,176.15-13.8,260.72,16.87,81.9,29.7,159.31,69.01,246.69,80.64s176.92,1.66,263.49-14.61c73.84-13.88,146.51-32.98,220.01-48.43,68.93-14.49,139.34-28.32,209.38-13.8,83.11,17.22,159.29,57.48,242.72,73.9,26.84,5.28,54.95,9.85,82.27,5.68,24.46-3.73,45.85-15.7,63.7-32.6,11.02-10.43,20.58-22.27,29.54-34.48,1.14-1.56-1.46-3.06-2.59-1.51h0Z"/>
      </g>
      <g>
        <path class="cls-2" d="m103.71,17.32c51.27,35.96,91.34,56.55,153.74,51.18,62.39-5.37,151.42-35.4,213.89-31.03,64.98,4.54,127.75,28.67,192.88,29.7,94.72,1.5,186.95-45.93,280.96-34.2,58.85,7.35,113.14,37.5,172.12,43.73,83.42,8.82,164.6-30.97,248.45-33.72,60.75-1.99,120.57,15.53,181.32,17.21,54.41,1.5,176.97,47.37,231.37,49.32,196,7,201-52,384.79-85.95"/>
        <path class="cls-1" d="m102.96,18.61c26.89,18.79,55.07,36.83,86.95,45.75s62.36,7.26,93.6,2.35c71.37-11.23,141.11-35.24,214.08-24.94,40.55,5.73,80.1,16.84,120.6,22.83,38.06,5.62,75.58,4.57,113.48-1.74,79.11-13.17,157.25-42.09,238.1-24.04,38.49,8.59,74.97,24.18,113.31,33.33,36.94,8.82,74.03,8.68,111.43,2.77,39.82-6.29,78.65-17.52,118.34-24.52,43.58-7.69,86.01-6.58,129.71-.65,19.39,2.63,38.72,5.74,58.15,8.13,17.84,2.2,35.66,2.73,53.53,4.21,26.81,2.22,53.35,9.57,79.29,16.34,54.7,14.29,108.76,32.36,165.74,33.07s111.54-5.31,164.82-23.93c48.96-17.11,95.97-38.08,146.41-50.97,17.58-4.49,35.33-8.28,53.16-11.61,1.9-.35,1.09-3.25-.8-2.89-57.95,10.83-112.6,28.97-167.32,50.45-47.61,18.7-95.18,31.67-146.48,34.85-31.2,1.94-63.68,3.11-94.62-2.15-28.02-4.76-55.55-12.43-82.97-19.79-28.11-7.55-56.2-15.45-84.72-21.3-28.48-5.84-57.26-5.73-86.04-9.27-41.03-5.05-81.84-13.34-123.32-13.56-38.83-.21-76.9,7.91-114.58,16.46-39.38,8.93-79.17,18.57-119.79,18.68s-78.52-11.96-116.6-24.36c-36.56-11.91-73.12-22.44-111.89-22.5-37.76-.05-75.01,7.52-111.73,15.57-39.14,8.58-78.4,18.05-118.55,20.11-42.54,2.19-84.12-6.34-125.5-15.09-36.06-7.62-73.02-15.97-110.1-14.46-33.53,1.36-66.7,8.39-99.46,15.18-33.62,6.96-67.67,15.34-102.1,16.75-34.82,1.42-67.75-7.04-98.3-23.56-15.39-8.32-29.96-18.06-44.29-28.08-1.59-1.11-3.09,1.49-1.51,2.59h0Z"/>
      </g>
      <g>
        <path class="cls-3" d="m2761.17,6.98c1.39-.59.52-1.73-3.38-1.25l-2.67,2.15,6.04-.9Z"/>
        <path class="cls-3" d="m2734.65,4.93c-4.55,1.24-9.76,3.26-6.68,4.9,4.45-2.19,5.6-1.46,10.37-4.03,3.9-.47,6.87.21,6.25.98,1.36-.59,6.11.06,8.14-1.31-5.18-1.22-11.64-.88-18.3.8-1.47-.35-.1-.95.21-1.34Z"/>
        <path class="cls-3" d="m2351.99,25.45l2.48.08c-.68-.09-1.53-.11-2.48-.08Z"/>
        <path class="cls-3" d="m2114.95,38.98c1.8-.16,2.54-.4,2.63-.59-1.67.23-3.04.44-2.63.59Z"/>
        <path class="cls-3" d="m2074.37,39.29c.87,0,1.6,0,2.39-.01-.92-.13-1.84-.17-2.39.01Z"/>
        <path class="cls-3" d="m2351.99,25.45l-6.37-.23c-.41.67,3.27.28,6.37.23Z"/>
        <path class="cls-3" d="m2682.17,12.97c1.32-.18,2.41-.43,3.41-.73-1.08.15-2.13.29-3.22.41-.05.11-.1.21-.19.32Z"/>
        <path class="cls-3" d="m2456.37,17.39l1.92-.12c.55-.26,1.07-.57,1.55-.9l-3.48,1.03Z"/>
        <path class="cls-3" d="m2536.53,12.14c-1.82.04-2.35,1.76-3.01,2.54.98-.76,2.31-1.17,3.89-1.4.01-.32-.25-.69-.88-1.14Z"/>
        <path class="cls-3" d="m2663.82,7.26l2.24-.37c-.58.11-1.57.24-2.24.37Z"/>
        <path class="cls-3" d="m2398.97,20.57c-.15-.24-.45-.44-.76-.56.01.21.31.39.76.56Z"/>
        <path class="cls-3" d="m180.51,56.58c.1-.1.03-.2.08-.29-.51.03-.68.11-.08.29Z"/>
        <path class="cls-3" d="m95.79,15.87l1.22.42c.25-.24.5-.48.62-.76l-1.85.35Z"/>
        <path class="cls-3" d="m2000.2,41.71c.14,0,.19,0,.33.01,1.94-.31.84-.21-.33-.01Z"/>
        <path class="cls-3" d="m1329.32,29.14c7.87-.51-11.69,5.09,0,3.73-1.24-.38,9.63-5.2,0-3.73Z"/>
        <path class="cls-3" d="m2680.08,12.88c-1.08.09-2.18.17-3.28.22,1.5-.04,2.51-.1,3.28-.22Z"/>
        <path class="cls-3" d="m1329.33,32.88h0s1.2-.14,1.2-.14c-.5.06-.78.09-1.21.14Z"/>
        <path class="cls-3" d="m1831.59,68.83c.35.25,1.01.43,1.7.54-.08-.16-.47-.31-1.7-.54Z"/>
        <path class="cls-3" d="m1956.88,47.8l-3.17-.04c1.26.08,2.28.07,3.17.04Z"/>
        <path class="cls-3" d="m1770.32,57.04c-1.58-.72-2.06-1.15-4.36-1.76.18.16.36.29.61.44.88.08,1.99.38,3.76,1.31Z"/>
        <path class="cls-3" d="m1700.74,47.47c.38.1.88.16,1.32.24.69-.08,1.5-.18,2.21-.26l-3.53.02Z"/>
        <path class="cls-3" d="m389.78,47.05c-1.54-.2-2.54-.55-3.35-.93,1.24.99-8.46,3.21,3.35.93Z"/>
        <path class="cls-3" d="m2682.08,12.03c-.38.45-.95.7-2,.85.79-.07,1.54-.15,2.28-.23.19-.26.22-.5-.28-.62Z"/>
        <path class="cls-3" d="m1763.07,68.54c-1.66-.67-3.3-1.29-4.95-1.9-1.65-.64-3.29-1.19-4.93-1.76,2.76,1.02,6.35,2.35,9.87,3.66Z"/>
        <path class="cls-3" d="m874.68,36.77l-2.4.49c.94-.07,1.79-.22,2.4-.49Z"/>
        <path class="cls-3" d="m1723.47,60.03c-1.82-.62-3.78-1-5.82-1.26-.43.13-.92.21-1.2.43l7.02.83Z"/>
        <path class="cls-3" d="m386.41,46.11s.03.01.03.01c0,0,0-.01-.03-.01Z"/>
        <path class="cls-3" d="m316.82,65.22c10.41-2.02,4.44-3.11,6.39-4.79,12.14-3.21,6.02.39,10.44.6,7.53-2.26,12.87-5.6,18.53-6.8.5.26,1.63.14.44.88,3.8-1.78,9.72-3.15,15.77-4.55,6.06-1.42,12.25-2.79,16.7-4.76.73.07,1.11.19,1.31.32-1.71-.82-2.15-1.88-1.99-2.73,4.55-.89,8.25-2.89,10.21-1.74-2.81.42-2.95,1.04-4.18,1.7l4.68-1.41c4.63,1.35-6.41,1.77-6.14,3.33,9.13-2.38,19.82-5.49,27.08-5.46.83.95-3.34,1.45-6.49,1.96-1.58.23-2.9.47-3.22.67-.32.21.36.35,2.78.55-3.69.16-7.4.38-11.11.69,8.86,1.94-6.69.76,1.51,3.03,3.61-.41,6.4-.71,8.79-1.09,2.39-.3,4.38-.67,6.37-.97,1.99-.27,3.98-.62,6.37-.79,1.19-.09,2.49-.18,3.93-.24,1.44-.04,3.03-.02,4.81,0,3.21-1.19-1.09-1.69,2.14-2.83,10.3-.96,14.29.83,17.43,2.33,3.18,1.58,5.54,2.89,13.02,2.94,4.01-.51,6.13-2.86,16.32,1.33-1.4.41-2.8.82-4.18,1.26,6.79,1.94,8.99,1.75,11.23,1.69,2.25-.06,4.49.1,11.63,2.9-2.87.15-11.18-2.37-9.15-1.51,4.46,2.23,6.25,2.38,7.81,2.24,1.56-.14,2.9-.58,6.6.39l1.04,2.37c7.68,1.79,16.1,3.04,24.86,3.35,8.77.23,17.63-.51,26.31-1.76-.88.74-3.84,1.69.35,1.84,22.07-3.65,45.85-10.16,65.84-13.86,2.36-1.18,4.73-2.37,7.11-3.5,1.76-.38,3.42.04,1.6.8,7.79-.96.16-1.18,3.71-2.63,4.37-.99,5.96-.09,3.3.93,3.3-1.03,7.33-2.05,11.77-2.95,4.43-.84,9.27-1.48,14.13-1.7,4.87-.23,9.74.08,14.22.78,4.47.67,8.52,1.91,11.87,3.29l-2.82-.19c5.26,1.71,8.57,1.83,11.8,2.02,3.24.21,6.34.54,11.28,3.01l-2.09-.35c5.99,2.16,12.36,4.21,19.02,5.66,3.32.7,6.76,1.28,10.13,1.59.84.08,1.69.17,2.52.25.84.05,1.67.1,2.5.15,1.67.12,3.31.16,4.95.2,6.53.15,12.8-.1,18.67-.34,5.87-.24,11.35-.49,16.31-.5,1.69-1.48,8-2.13,14.02-2.96,6.02-.83,11.72-1.86,12.2-3.74,14.58-.92,10.66.42,30.84-2.24,5.35-.85,7.51-3.67,14.03-5.19l.48,1.79c2.85-1.15,5.71-2.28,8.58-3.39l5.05,1.48c2.01-.43,4.03-.89,6.04-1.28-2.44.17-5.28-.13-4.99-.72,4.74-1.1,10.63-1.45,15.28-1.2,1.17.03,2.24.16,3.22.26.98.11,1.83.22,2.6.38,1.51.3,2.44.59,2.51.83,7.67-.63,15.35-1.32,23.05-1.91-.51.69-4.38,1.05-7.43,1.56,6.15-1.04,6.71-.58,7.14-.05.43.52.72,1.05,6.35.31-1.5-.45.83-1.08,1.09-1.45,2.8.62,7.39,1,12.46,1.2,2.54.05,5.18.26,7.79.37,2.61.12,5.17.19,7.53.22l-1.89,1.16c2.12.17,4.27.33,6.44.47,1.09.07,2.18.13,3.28.2,1.09.11,2.2.21,3.3.32,4.43.42,8.95.81,13.54,1.19,2.3.15,4.59.52,6.9.78,2.31.29,4.64.59,6.97.88,1.17.15,2.34.3,3.51.46l1.76.24,1.75.3c2.34.42,4.68.84,7.03,1.26-6.62-1.82-4.72-3.72.87-2.91l1.85,2.33c3.8-.53-5.64-1.79,1.97-1.89,3.51.74,4.58,1.58,4.25,2.12-.32.54-2.03.85-4.11.81,2.89.26,5.77.73,8.66,1.1.38.68-1.68.55-2.35,1.17,1.87-.22,5.44,1.05,9.21,2.25,3.78,1.21,7.77,2.48,10.53,2.04l.35.68c4.7,1.1,8.77,2.04,12.45,2.9,3.71.84,7.02,1.57,10.29,2.25,6.52,1.36,12.6,2.63,20.41,4.26.67-1.61,6.67.19,11.64-.34,2.86.68,5.79,1.41,8.8,2.18.75.19,1.51.39,2.27.58.77.17,1.54.34,2.32.51,1.56.33,3.14.67,4.73,1.01,3.2.67,6.48,1.33,9.84,1.95,3.38.49,6.84.91,10.38,1.25,10.02.22,3.04-1.11,7.59-1.64.58,1.66,14.75,2.35,7.33,3.01,8.52.39,13.96.77,19.95.59,3-.04,6.14-.11,9.87-.22,1.86-.06,3.88-.13,6.1-.2,2.23-.17,4.67-.35,7.38-.56-2.36-.58-4.99-.8-3.64-1.35,3.9-.33,8.91.46,8.38,1.21l-1.03.18c12.07-1.61,26.02-1.74,39.41-2.66,13.36-.93,26.07-2.59,35.13-6.16l-1.02.38c6.36-1.99,12.69-3.99,18.97-6.12,8.93-1.89-5.04,2.41,1.75,1.74,20.12-7.65,32.71-8.25,49.12-14.32,3.55.23,8.18-.39,13.43-1.45,1.31-.25,2.66-.54,4.03-.84,1.37-.3,2.81-.67,4.19-.93,1.4-.3,2.82-.6,4.26-.91.72-.16,1.44-.32,2.17-.48.73-.13,1.47-.26,2.21-.39,2.96-.51,5.94-1.12,8.95-1.44,1.5-.18,2.99-.37,4.46-.55,1.48-.13,2.95-.21,4.39-.3,1.44-.08,2.85-.17,4.24-.19,1.39,0,2.74.03,4.05.08,1.31.05,2.57.11,3.78.23,1.21.15,2.37.32,3.46.52l-1-1.09c2.29-.48,3.67-.31,4.89.02,1.22.35,2.28.9,3.95,1.1-.43-.85-4.91-1.22-2.05-1.65,19.45.09,39.52,3.87,59.42,8.83,19.93,4.97,39.82,11.21,59.83,16.42,7.33,1.86,9.74,1,12.56.49,2.83-.52,6.02-.59,15.14,2.55l-5.72.85c7.62,1.01,15.34,2.1,23.08,3.25,1.94.26,3.89.52,5.84.79l2.92.41,2.93.35,5.87.71,5.9.57c1.96.21,3.93.36,5.91.48,1.97.13,3.94.28,5.91.37,3.95.1,7.88.31,11.82.17,1.97-.05,3.92-.05,5.88-.16,1.96-.15,3.91-.29,5.86-.43,1.95-.13,3.86-.41,5.77-.66,1.9-.27,3.81-.5,5.68-.85-1.74.67-1.75,1.22-4.72,1.49,3.3.49,9.22-.19,14.26-1.16,2.51-.51,4.81-1.07,6.48-1.57,1.65-.53,2.68-1,2.66-1.29,4.62-.58,1.23.89,4.16,1.04,6.4-.15,15.3-4.32,18.79-3.41.59.14-1.66.73-2.77,1.03,1.97-.68,6.62-1.32,10.28-1.96,3.65-.58,6.31-1.12,4.29-1.69,1.37-.08,2.71-.2,4.04-.34,1.32-.11,2.63-.24,3.91-.39,1.29-.15,2.55-.31,3.8-.48,1.25-.16,2.48-.27,3.69-.41,4.85-.59,9.43-.85,13.68-.43,1.37-.44,3.21-.59,5.2-.6.5,0,1.01,0,1.52.01.51.03,1.02.09,1.54.13,1.03.11,2.07.22,3.07.32,1.01.11,1.98.2,2.9.27.91.09,1.74.21,2.5.24,1.5.07,2.64-.09,3.18-.68-.29.65.69,1.25,2.39,1.83,1.67.69,4.07,1.37,6.72,1.97,5.3,1.38,11.66,3.12,15.12,3.67-2.44-.03,5.33,2.88,2.4,3,7.35,2.72,14.5,4.98,13.68,3.15,6.37,4.18,13.88,6.21,20.75,7.54,6.9,1.35,12.98,2.02,17.33,4.51,6.57.28,13.23-.23,19.25-1.38,6.06-1.12,11.77-2.65,17.28-4.31,5.51-1.67,10.82-3.49,16.01-5.31,2.58-.91,5.15-1.82,7.71-2.72,2.5-.84,4.98-1.72,7.49-2.46,0,.72-1.4,1.42-3.43,2.25-1.02.41-2.19.83-3.45,1.24-1.29.43-2.66.89-4.01,1.35-5.44,1.81-10.79,3.5-9.94,4.73,4.9-1.74,9.17-3.47,13.14-5.1,1.94-.78,3.81-1.54,5.65-2.28,1.86-.69,3.68-1.39,5.52-2.03,7.38-2.55,14.98-4.58,24.82-5.81,2.57-.19,1.89.21.37.74-1.52.54-3.86,1.26-4.68,1.63,9.69-2.22,19.31-3.29,28.69-4.11,9.39-.85,18.53-1.36,27.52-2.65-.04.25-1.97.65-3.8.97,3.55-.31,8.3-.11,7.82-1.32l-3.45.55c-5.78-1.43,13.92-4.6,14.5-5.58-5.84,3.89,17.88-.22,8.54,4.82,2.33-.38,5.23-1.14,4.65-1.93,3.49.02,4.62.44,1.15,1.59,12.7-1.45,8.1-2.48,19.65-3.17,0,.6-2.32.97-3.48,1.74,5.78-1.52,11.59-3.04,21.37-3.14-.57.39.59.79-2.32.96,16.74-1.21,28.38-4.85,46.82-4.86-5.28,2.92,6.3.47,7.4,2.64l9.85-1.28-4.03-.84c8.66-.5,16.22-2.6,23.7-2.32l-6.38,1.32,16.2-1.43-9.23-.28c8.7-1.69-1.1-2.77,10.46-2.86-2.33.37,8.66-.51,13.25.53,0,0-.03,0-.03,0,4.24-.98,8.61-2,15.04-1.84,1.7.61-1.2,2.56-.09,2.96,4.12-2.13,20.25-1.77,25.48-4.09-1.76.58-1.79,1.76-1.19,1.96l3.46-1.74c4.04.24,4.64.44,4.04,1.41,12.08-.47-3.99-2.6,10.39-2.26-1.12.19-.57.39-2.9.76,14.42-.25,27.73-2.68,40.98-2.75,4.02,2.01-11.51,1.26-6.94,2.89,19.03-1.58,39.3-5.13,57.76-5.74l-3.45-.04c2.38-3.33,13.82.72,23.06-1.35-2.27.38-2.89,1.95-2.3,1.56,12.65-.27,25.77-2.37,44.84-4.55l-2.32.96c7.48.27,19.62-.79,27.68-.91,2.34-.96,6.94-1.11,4.08-2.13,25.04,3.12,47.13-5.41,69.33-2.89-2.63.17-6.23,1.1-4.13.98l18.69-1.91c-1.56-1.29-2.5-.69-6.5-1.52,2.32-.97,7.58-1.93,12.22-2.22-8.37,1.44.2,2.22,3.88,2.77-.63-.39.59-.93.25-1.34,9.92,1.86,1.48-2.89,14.93-2.05l-.67.77c4.98-.68,9.53-1.93,14.93-2.05,2.33,1.46-5.28,1.08-5.55,2.41,7.57-.56,14.77-3.96,21.71-2.78-3.19.64-7.82.94-11.01,1.58,7.57,1.42,8.41.89,13.97.84h-.55s12.87.05,12.87.05l-3.29-.31c9.24-4.76,19.25-1.95,31.86-5.48-12.26,3.35-1.97,1.62-2.82,3.5,3.29.3,8.27.56,6.89,1.16,5.95-1.84,10.14.53,18.53-2.13.41.56,6.46-.34,5.18,1.21,7.82-.94-1.91-.9-1.29-1.68,11.98-2.74,28.55.67,45.79-3.14,14.93-2.05,17.6-4.19,31.46-6.03,4.75.64-3.73,2.37-3.73,2.37,7.63.39,13.32-.12,20.42-1.23-1.42.6.1.94,2.31,1.46,5.72-.51,3.71-2.36,11.32-1.97-1.26.73-2.87,1.88-5.59,2.7,6.72-.95,13.33-2.46,20.29-3.41,1.91.9-4.13,1.8-6.56,2.62,7.83-.94,20.3-2.18,22.64-3.94l-5.07-.26c2.86-.25,1.55,1.29-.55,1.72-6.66,1.68-9.74.04-10.16-.52l4.96-.68c-5.31-3.11-19.96,1.78-30,2.2l4.04-2.75-10.16,2.7c-2.22-.51-3.8-1.81,1.13-2.49-7.25-.79-6.31,1.28-12.56.29-.69-.17-.39-.31.23-.45l-6.98,1.18c1.35-.61-1.27-1.69,3.07-1.59-12.68-.66-20.21,3.12-25.06,1.53l1.04-.22c-17.43,1.92-1.59,1.93-14.58,4.89l-9.08-3.97-1.62,1.93c-1.81.05-5.38.13-4.76-.64-6.64,1.67,1.19.72-2.64,2.15-8.77-1.13-23.89,2.26-26.01-.54-3.04,1.58,8.36.56-.85,2.1-2.82-2.97-10.68,1.2-18.69.25,2.34-1.77,9.91-1.37,1.89-2.33-4.63,3.03-15.48.35-22.14,1.29-.19,2.2-14.49,1.81-25.68,3.22.67-.78-21.19.11-31.67-.04l.29-.38c-1.9,2.32-12.69,2.57-20.51,3.51.23-1.34,1.62-1.94,5.83-2.79l-7.37.47c-1.7.81-3.98,1.33-8.75,1.87l1.76-1.76c-9.81.7-19.65,3.16-32.34,2.84-.62,1.58,10.28,3.65-3.01,5.5-.54-.8-1.11-2.19,2.36-2.74-1.14.18-4.04.94-6.37.73l5.26-1.72c-5.78-.26-2.94,1.35-7.55,1.51.02-1.19-3.45-.63-2.84-1.61,1.17-.19,4.04.24,5.77-.33-5.2.11-11.5-.21-13.62-.97.49.64.09,1.59-3.7,1.98-9.81.69-3.44-1.22-9.2-1.47-2.33.97-8.64.5-8.7,2.28-2.87.17-3.45-.62-4.59-1.03-5.03,1.09-23.71,1.69-17.88,3.21l1.31.04c-.24.05-.53.07-.83.13h.04s-.04,0-.04,0c-16.55,2.79-34.63,1.13-51.11,2.91v-.59c-9.83,1.28-21.93,1.75-28.9,3.46-2.92.18-6.94-.65-5.74-1.44-7.51.91-8.32,1.63-19.26,1.32,7.52-1.5-2.67-.75,7.72-1.24-9.82.09-12.09-.72-22.52,1.55,3.49-1.74-7.48-1.45-12.11-.71l6.92.66c-5.22.54-9.81.69-14.46.85l2.4-2.15c-20.18-1.19-35.91,6.36-51.39,3.24-5.22,1.72,10.94.31,6.29,2.23-9.23.3-19-1.97-21.88-1.8-12.69-.32-11.62,3.64-24.87,3.7,1.73.61,3.43,2.4-6.41,3.68-9.24.31-11.51-2.28-5.71-3.21,2.21-.2,3.29-.04,3.21.21,2.97-.44,6.86-.99,3.16-1.53l-1.16.78c-4.62-.44-17.3.42-14.39-.93-6.93,1.11-2.92,1.35,2.27,1.4-11.89-.3-18.49,1.11-30.7,1.17,1.96.27,3.79,1,1.86,1.11-17.91.22-7.79,1.83-19.88,2.89-6.94-.66,2.32-2.74-9.81-1.08-7.48-.27-1.68-1.79,1.24-2.55-11.02,2.06-20.79.38-27.14.52l5.81-.93c-3.48.56-6.34.72-9.26.9l3.42,1.22c-3.45-.04-6.35.14-6.32-.46-3.49,1.15,2.84,2.2-4.11,3.9-4.62-.44-13.89,1.64-15.58-.15,14.43-.25-1.7-1.8,10.47-2.85-2.34.37-5.2.54-8.66.5-.53-.18.47-.42,1.4-.59-13.87-.84-6.21,2.52-20.49,3.36,1.75-1.18-3.42-1.81-5.74-1.44,5.75-.33,2.85,1.6-2.38,2.74-9.2-.26-9.91,1.23-14.72,1.42l5.5.06c-1.79,1.19-6.38,1.3-12.77,2.05-.6-.79,5.78-.94,3.47-1.16-6.98,2.31-16.25-.86-26.11,1.46-4.69-.2-.66-1.94-4.79-1.96-5.53,1.36-8.6,1.45-11.77,1.53-3.16.1-6.44.18-12.22,1.89,1.83.36,2.87.46,2.46.8-.41.33-2.28.97-6.24,2.5,6.3-1.69,12.67-3.14,19.06-4.4-2.02.64-4.03,1.29-6.03,1.99-2,.67-3.99,1.38-5.97,2.11,5.76-1.09,12.07-2.94,15.59-3.16-5.72,1.97-5.15,1.56-2.22,2.32-4.1-.49-7.99.43-11.97,1.58-3.99,1.11-8.05,2.48-12.73,2.8l-.53-3.51c-3.53.43-6.8,1.17-9.96,2.15-1.59.46-3.14,1.03-4.7,1.61-.78.3-1.56.59-2.34.89-.76.31-1.52.62-2.29.93-6.13,2.48-12.7,5.25-21.25,6.97,1.86-.26,3.72-.54,5.58-.85-.94,1-3.55,1.77-6.59,2.45-3.04.69-6.49,1.27-9.19,2.05.3-1.26-3.2-1.07-5.58-1.51.2.42-2.85.81-6.07,1.15-1.6.1-3.25.29-4.61.54-1.37.18-2.45.51-2.87,1.08-.62-.17-1.23-.31-1.84-.5l-1.82-.61c-1.21-.43-2.4-.76-3.59-1.28-6.58-1.44-10.55-1.82-14.58-2.1-4.01-.33-8.04-.75-14.42-3.36,4.33.23-1.2-2.68,7.68-.43-4.26-1.52-8.03-3.21-8.39-2.47-2.23-1.62-12.51-3.15-16.21-5.66-1.01-.1-1.78.09-2.92.09-1.14,0-2.6-.26-5.11-1.11-.48-.4.2-.55.2-.55-.1.27-2.14-.17-3.64-.34-1.52-.15-2.49-.02-.47,1.24-1.6-.94-3.41-1.83-5.42-2.61-2.03-.7-4.22-1.35-6.52-1.96-4.62-1.01-9.66-1.7-14.64-1.9-1.24-.06-2.49-.18-3.71-.19-1.23,0-2.45-.02-3.65-.02-1.2-.02-2.39-.04-3.55-.06-1.16-.03-2.3.03-3.41.03-2.22.02-4.34-.07-6.3-.14-1.95-.06-3.76-.21-5.37-.48-10.24,1.23-22.31,3.43-31.37,4.96.53-.44-.06-.59,1.67-.74-12.69.89-7.15,4.64-21.55,5.61-7.52-.81,7.37-2.17,2.75-2.2-.64-.89-2.02-1.13-3.88-1.02-1.86.1-4.2.54-6.78,1.07-5.14,1.03-11.24,2.24-16.05,1.46l2.26-.43c-3.67-.29-7.98.28-12.93.96-2.48.26-5.12.57-7.88.78-2.76.11-5.65.17-8.62-.02,0,0,.59-.31.1-.58-2.05.37-4.56.62-7.35.8-2.79.13-5.87.1-9.05.05-3.18-.16-6.46-.32-9.67-.59-3.2-.32-6.34-.57-9.22-.94,3.8-.9,5.31-.01,3.39-1.84-5.14-.6,1.12,2.73-9.19,1.43-3.18-1.42-10.38-3.53-11.02-5.38,3.19.65,6.39,1.17,9.58,1.76-4.5-3-12.37-2.3-17.33-3.77l.84-.77c-14.65-2.91-15.39-.71-31.05-4.67l1.45,1.08c-9.14.17-6.88-3.04-15.86-3.46l-2.03-2.94c-5.81-.84-20.44-2.62-30.79-4.38,6.19-.5,18.38,1.42,26,2.22-2.81-.7-7.62-1.8-12.13-2.66-4.52-.85-8.73-1.45-10.34-1.21,2.34.28,5.34.38,7.52,1.25-7.37.22-16.69-.93-28.06-3.08.71-1.04-.78-1.97-3.54-2.86-1.38-.44-3.1-.83-5.01-1.23-1.91-.4-4.02-.8-6.23-1.13-2.21-.34-4.5-.7-6.75-1.05-2.27-.31-4.5-.64-6.58-1-4.18-.65-7.77-1.39-9.85-2.44-10.48.14-20.83-.09-31.71.34-5.43.23-10.99.62-16.7,1.4-2.87.29-5.73.92-8.66,1.44-.73.14-1.47.28-2.2.42-.73.15-1.43.33-2.16.5-1.44.35-2.89.7-4.35,1.06,9.13,1.49-6.81,1.74-4.46,4.99-5.33,1.59-7.39,2.07-7.93,1.97l-16.79,2.22c-4.12,0,4.88-2.15,4.17-2.81-11.78,2.88-5.31-.18-13.3.96,1.92.85-3.58,2.91-10.34,4.17l9.79-.84c-7.9,3.11-11.63,3.3-15.35,3.45-3.73.16-7.46.33-15.44,3.24l4.92-2.38c-2.06.67-5.04,1.5-8.46,2.38-3.42.86-7.28,1.83-11.14,2.79-3.86.93-7.69,1.97-11.06,2.99-3.37.99-6.26,2.04-8.22,3.14-1.58-.14-3.73-.76-.04-1.71-10.17,1.51-21.36,4.02-32.12,5.55-5.37.91-10.64,1.35-15.55,1.76-4.92.28-9.49.18-13.47-.16l1.55-.93c-1.89.2-3.59.52-5.39.78-1.8.24-3.73.33-6.13-.17.26-.37,1.57-.86-.21-.95-1.02.13-3.59.48-6.54.7-1.48.11-3.05.2-4.57.22-1.52,0-2.98-.14-4.25-.34,1.47-.26,2.93-.46,4.39-.76-5-.55-9.42-.87-13.52-.92-2.05-.04-4.02-.02-5.93.02-1.92.05-3.77-.02-5.61.02-3.68.05-7.27.09-10.99.14-.93,0-1.88.01-2.83-.02-.95-.06-1.91-.11-2.89-.17-1.95-.13-3.97-.31-6.08-.55.22-1.32-3.56-2.7-8.32-4.12-4.75-1.51-10.5-2.9-14.33-3.86l.34-.31c-22.8-5.09-39.42-7.18-61.29-11.02-3.21-1.42-7.67-2.83-12.87-4.23-5.26-1.23-11.26-2.51-17.56-3.65-3.16-.49-6.39-1-9.63-1.5-3.24-.48-6.47-1.09-9.69-1.42-3.21-.39-6.36-.8-9.4-1.24-1.52-.23-3.01-.45-4.47-.67-1.46-.23-2.88-.48-4.27-.64,3.36.69-.73,2.02-4.68,2.03-5.18-.86-14.47.93-13.53-1.44l1.85.16c-.95-.64-2.34-1.18-4.02-1.5-1.68-.31-3.65-.5-5.75-.62-4.22-.24-9-.2-13.19-.33l-1.4,3.14c-2.72-.69-5.66-.97-8.74-1.21-3.08-.23-6.3-.32-9.59-.33-3.29,0-6.64.07-9.99.2-1.71.1-3.46.23-5.17.39-1.7.19-3.4.35-5.05.58-13.24,1.77-24.7,4.47-30.95,3.46-5.04,1.71-11.43,2.91-16.36,4.67l-.05-1.72c-7.15,1.16-12.49,2.03-18.22,3.05-5.73,1.02-11.84,2.21-20.5,3.84l3.35-1.79c-4.91.78-7.8,2.46-10.62,4.14-1.41.84-2.81,1.69-4.42,2.38-1.61.71-3.44,1.28-5.72,1.57-1.01-.73-2.02-1.45-3.02-2.2-8.54.93-17.17.98-25.47.46-4.14-.27-8.23-.61-12.16-1.16-3.97-.51-8.02-1.19-12.19-1.78.36-.3,1.05-.82,3.67-.26-1.88-.48-4.63-1.39-7.69-2.45-3.06-1.05-6.45-2.3-9.59-3.32-6.28-2.09-11.65-3.18-10.64-1.06.23-1.1-4.24-2.58-10.23-3.57-1.49-.24-3.09-.44-4.71-.6-1.63-.12-3.27-.24-4.88-.31-1.61-.01-3.18-.02-4.67-.04-1.48.06-2.87.12-4.13.17l1.65-1.58c-1.08.21-2.03.38-2.87.58-.84.21-1.6.4-2.3.57-1.38.33-2.57.6-3.85.91-2.55.56-5.5.9-11.17,1.78-2.73.05-2.53-1.09,1.14-1.03-2.29,0-3.87.16-5.11.43-1.24.26-2.15.57-3.11.91-1.92.71-4.06,1.4-9.5,1.99l3.81-1.79c-9.17,1.59-8.3,2.11-12.97,4.41-5.48,1.93-16.93,3.87-18.63,2.78-.95,1.21-5.44,3.72-10.71,4.69-.84-.36.94-1.21,1.84-1.64-7.47,1.44-12.76,3.32-17.53,4.9-4.76,1.58-9.01,2.89-14.21,3-.31-.51-1.01-.66-1.87-.67,5.8-.98,11.04-2.15,14.72-2.97,3.68-.82,5.81-1.33,5.39-1.16-.39-1.46-9.74.5-2.86-3.34-3.58,1.47-8.41,3.56-13.54,5.27-5.12,1.7-10.57,2.96-15.15,3.07-.46-.11-.9-.21-1.25-.41l.92-.26c-1.05.02-2.04.12-2.98.26-.94.11-1.84.26-2.71.45-1.45-.02-2.63-.1-3.79-.16-1.16-.06-2.31-.04-3.68-.1-.53-.66-3.14-.8-6.16-1.05-3.03-.18-6.49-.49-8.75-.86.15,1.76-5.86.49-.42,2.78-.72-.24.91-.04,3.99.25.7.02,1.52.08,1.99.03-.09.04-.21.08-.33.12,3.04.28,7,.43,11.53.38-3.65.86-7.63,1.54-12.68.03-1.25.44-2.58.8-3.8,1.11-1.22.31-2.33.58-3.13.69-3.05-1.68-7.53-3.55-11.4-5.29-3.87-1.77-7.16-3.38-7.81-4.31-7.18-1.48-15.63-3.88-23.7-5.53-4.02-.84-7.97-1.45-11.51-1.76-1.79-.11-3.45-.21-5-.16-1.55.06-2.95.19-4.19.39-4.32-.2-4.81-1.5-6.37-2.21,2.53-.02,5.5.33,6.91.13-1.09-.08-2.32-.16-3.62-.23-1.3-.09-2.69-.19-4.12-.3-2.86-.1-5.87-.32-8.67-.27-1.4.01-2.75.01-4,.08-1.25.08-2.4.19-3.41.32-2.01.24-3.45.67-3.95,1.24-5.41-.37-3.92-.91-2.91-1.28.5-.18.88-.32.2-.36-.68-.06-2.42.01-6.15.31l1.98-.78c-7.41-.49-14.11.08-20.36,1.24-6.26,1.15-12.11,2.79-17.98,4.55-11.75,3.5-23.67,7.41-39.73,8.77,2.22-.22,3.32-.34,3.84-.08-17.96,3.08-36.01,7.73-54.29,10.55-18.23,2.91-36.8,3.31-54.22-.02-2.48-.33-4.4-.7-6.01-.83-1.6-.15-2.88-.17-4.04-.11-1.17.05-2.22.18-3.38.29-1.15.08-2.4.16-3.97.16l-1.85-2.16-5.36.12-5.37-.07c-1.87-.2-3.66-.51-5.39-.89-1.72-.42-3.38-.95-5.01-1.5-3.26-1.12-6.41-2.4-9.63-3.84-3.23-1.41-6.59-2.73-10.29-4.06-3.71-1.28-7.8-2.35-12.51-3.22l1.94,1.94c-6.42-2.3-20.68-6.48-19.12-7.42-.73-.04-2.54.4-4.82-1.15l.14-.96c-5.43-1.44-10.84-3.03-16.26-4.57-11.83-5.55,3.28-2.69-14.24-10.08-6.67-2.35-19.67-5.24-17.46-3.62,2.62,1.15,6.51,3.37,6.34,4.33l-6.17-2.05c-2.16,2.12-7.89,2.82,6.07,10.79l10.93,2.69,2.81,2.61-8.7-3.49c4.42,3.22,7.98,3.46,11.77,4.15.56,1,1.82,2.06,3.77,3.14l11.18,1.55c.85,1.5-5.37.23,1.28,3.47,5.26.66-3.73-4.03,4.52-1.78,4.56,3.06,2.71,3.54,9,4.65.59.97-.82.96-3.28.41,2.79.54,6.31,1.71,9.54,2.69,3.23.98,6.2,1.67,7.8,1.44,1.2.82,2.93,1.58,4.83,2.3,1.92.68,4,1.31,5.9,1.91,1.89.6,3.59,1.18,4.74,1.76,1.15.57,1.76,1.11,1.44,1.71.94-.06,3.48.11,6.4.46,1.46.17,3.01.41,4.52.63,1.52.21,2.98.46,4.24.75-4.98.39-.29,1.61,5.27,3.06,5.59,1.32,12.06,2.76,10.5,4.18,1.86-.3,4.41-.37,7.33-.12,1.46.11,3.03.28,4.66.49,1.63.23,3.36.34,5.11.55,7.01.86,14.77,1.52,21.06,1.1-.71.2-2.12.62-3.21.36,3.51.37,5.79.64,7.74,1.05,1.96.37,3.61.84,5.89,1.11.95-2.4,11.94-2.91,17.68-4.88,4.35.79,3.13,1.58,1.13,2.42-1.99.87-4.78,1.64-3.34,2.67-.14-.47.74-.87,2.06-1.25,1.32-.4,3.11-.77,4.81-1.13,3.39-.75,6.44-1.5,4.9-2.13,3.35.37,4.77.3,5.81.42,1.04.1,1.7.35,3.51,1.07.72-3.07,6.01-1.37,11.06-4.08,9.55-.27,2.91,2.32,12.93-.55,2.5-.06,1.55.63-.03,1.34-1.59.7-3.81,1.39-3.81,1.39Zm238.03-7.49s0,.03,0,.03c-2.13.32-3.97.48-5.14.63,1.07-.14,2.56-.27,5.13-.66Zm20.57-3.65c-2.48.5-5.57,1.13-8.86,1.75-.83-.44-.15-1.17,1.9-1.52-1.04.59,3.83,0,6.96-.22Zm-43.43-7.21c3.02-.03,4.03.24,4.44.61-.72,0-1.5.01-2.38.02-.87-.01-1.84-.03-2.94-.04-.09.06-.28.12-.37.19.31-.3.66-.59,1.25-.77Z"/>
        <path class="cls-3" d="m526.32,48.6c-.45-.01-.7.05-1.28-.02.61.25,1.19.41,1.79.58.4-.14.8-.28,1.14-.41-.56-.05-1.14-.1-1.66-.14Z"/>
        <path class="cls-3" d="m2354.91,25.54h-.43c.36.03.69.08.92.17-.29-.06-.29-.12-.48-.17Z"/>
        <polygon class="cls-3" points="852.72 40.87 852.61 40.45 850.94 41.13 852.72 40.87"/>
        <path class="cls-3" d="m2467.64,24.38c.22.13.65.26,1.5.34-.07-.11-.72-.22-1.5-.34Z"/>
        <path class="cls-3" d="m2516.23,21.76l6.9.18c-2.99-.16-5.17-.19-6.9-.18Z"/>
        <path class="cls-3" d="m2553.61,20.29c.46-.32.58-.56.69-.77-.03,0-.05,0-.07,0l-.62.77Z"/>
        <path class="cls-3" d="m1960.09,58.91c-.5.04-1,.09-1.43.16-3.34.52-1.07.26,1.43-.16Z"/>
        <path class="cls-3" d="m2136.53,44.07c-1.86.42-3.69.84-5.63,1.15,3.15-.07,5.6-.18,5.63-1.15Z"/>
        <path class="cls-3" d="m1764.16,68.98s0-.01.03-.02c-.39-.14-.73-.27-1.12-.41l1.09.43Z"/>
        <path class="cls-3" d="m2122.68,45.7c3.16.14,5.79-.09,8.22-.48-2.58.05-5.63.06-8.22.48Z"/>
        <path class="cls-3" d="m2715.47,11.07l1.8-.04c-.04-.11.06-.21.2-.28l-2,.33Z"/>
        <path class="cls-3" d="m2717.47,10.75l1.99-.32c-.92.06-1.71.12-1.99.32Z"/>
        <path class="cls-3" d="m2723.64,9.74l-4.18.68c1.46-.09,3.25-.14,4.18-.68Z"/>
        <path class="cls-3" d="m2666,13.34l-.53.65c.3-.14.49-.36.53-.65Z"/>
        <path class="cls-3" d="m2650.99,14.45c3.59-.08,9.06.75,14.04.06l.44-.51c-2.3,1.05-11.13-.78-14.48.46Z"/>
        <path class="cls-3" d="m2587.88,10.77l12.61-.29c-2.24-.51-5.18-1.21.54-1.72-15.97-.96,3.36,1.25-13.15,2.01Z"/>
        <path class="cls-3" d="m2548.8,12.23c6.74-.72-.13-.94.21-1.33-4.26.86-5.29,1.07-.21,1.33Z"/>
        <path class="cls-3" d="m2266.78,29.63l.59-1.57c-5.2.54-.02.6-.59,1.57Z"/>
        <polygon class="cls-3" points="2213.31 40.88 2218.44 41.52 2220.77 39.96 2213.31 40.88"/>
        <polygon class="cls-3" points="2180.85 31.93 2183.12 31.57 2174.45 32.66 2180.85 31.93"/>
        <path class="cls-3" d="m1713.21,45.25l1.67,1.83c1.8-.26,2.9-.82,2.79-1.33-.06-.25-.42-.48-1.14-.61-.72-.1-1.81-.09-3.32.11Z"/>
        <path class="cls-3" d="m1511.74,43.04c-1.94-1.44-7.39-3.41-11.05-3.35,4.44,1.23,8.72,3.04,11.05,3.35Z"/>
        <polygon class="cls-3" points="905.37 21.16 909.53 20.46 901.69 21.12 905.37 21.16"/>
      </g>
    </g>
  </g>
</svg>