<?xml version="1.0" encoding="UTF-8"?>
<svg id="Layer_2" data-name="Layer 2" xmlns="http://www.w3.org/2000/svg" viewBox="0 0 739 586">
  <defs>
    <style>
      .cls-1 {
        fill: #735100;
      }

      .cls-1, .cls-2, .cls-3, .cls-4, .cls-5, .cls-6, .cls-7, .cls-8, .cls-9 {
        stroke-width: 0px;
      }

      .cls-2 {
        fill: #2e7ae3;
      }

      .cls-3, .cls-10 {
        fill: #f2ffc3;
      }

      .cls-4 {
        fill: #bde4ff;
      }

      .cls-10 {
        stroke: #f2ffc3;
        stroke-miterlimit: 10;
      }

      .cls-5 {
        fill: #f2eaaa;
      }

      .cls-6 {
        fill: #e6dda5;
      }

      .cls-7 {
        fill: #e2ffff;
      }

      .cls-8 {
        fill: #d6b78f;
      }

      .cls-9 {
        fill: #e8cf9b;
      }
    </style>
  </defs>
  <g id="PufferFish">
    <g>
      <g>
        <g>
          <path class="cls-5" d="m248.33,283.45c-13.35-7.28-24.87-17.9-33.21-30.62-.84-1.28-2.2-2.76-3.59-2.14,1.25,10.4-2.76,20.72-7.79,29.9-1.19,2.17-2.47,4.38-2.82,6.83s.45,5.26,2.59,6.51c1.27.74,2.81.84,4.28.89,9.95.36,19.94-.41,29.72-2.31"/>
          <path class="cls-8" d="m249.08,282.16c-7.65-4.19-14.67-9.43-20.85-15.6-3.06-3.05-5.92-6.32-8.52-9.78-1.3-1.73-2.43-3.58-3.73-5.31-1.15-1.54-2.85-2.91-4.87-2.23-.57.19-1.18.78-1.1,1.45.63,5.53-.19,11.02-1.88,16.3s-4.43,10.16-6.95,15.17c-1.97,3.9-3.13,9.43.85,12.57,2.03,1.6,4.72,1.58,7.18,1.64,2.89.07,5.78.05,8.67-.07,6.71-.27,13.4-1.07,20-2.34,1.89-.36,1.09-3.26-.8-2.89-5.39,1.03-10.84,1.74-16.32,2.08-2.72.17-5.45.26-8.18.26-1.37,0-2.73-.02-4.09-.06-1.16-.04-2.39,0-3.51-.39-1.91-.65-2.69-2.62-2.66-4.52.04-2.42,1.36-4.65,2.49-6.71,2.48-4.53,4.72-9.22,6.29-14.16,1.72-5.44,2.57-11.19,1.92-16.88l-1.1,1.45c1.29-.43,2.91,2.97,3.52,3.83,1.17,1.67,2.41,3.31,3.68,4.91,2.61,3.26,5.44,6.35,8.46,9.24,5.99,5.72,12.73,10.65,19.99,14.63,1.69.93,3.21-1.66,1.51-2.59h0Z"/>
        </g>
        <g>
          <path class="cls-5" d="m207.54,275.64c.9,3.9,3.93,7.24,7.72,8.51,1.36.46,2.79.66,4.21.87,7.23,1.03,14.47,2.07,21.7,3.1"/>
          <path class="cls-8" d="m206.09,276.04c.68,2.72,2.19,5.22,4.34,7.04,2.33,1.97,5.02,2.85,8,3.3,7.44,1.11,14.89,2.13,22.34,3.2.81.12,1.6-.2,1.85-1.05.2-.7-.25-1.73-1.05-1.85-6.82-.98-13.65-1.95-20.47-2.93-2.8-.4-5.62-.69-7.99-2.36-2.08-1.47-3.52-3.68-4.13-6.14-.47-1.87-3.36-1.08-2.89.8h0Z"/>
        </g>
        <g>
          <path class="cls-5" d="m211.73,263.6c1.27,4.64,6.48,7.78,10.51,10.42,6.85,4.5,13.92,8.65,21.19,12.43"/>
          <path class="cls-8" d="m210.29,264c1.73,5.85,7.8,9.13,12.58,12.22,6.42,4.15,13.03,7.99,19.81,11.52,1.71.89,3.23-1.7,1.51-2.59-6.36-3.31-12.57-6.89-18.62-10.75-2.5-1.6-5.05-3.16-7.41-4.96-2.13-1.62-4.21-3.6-4.98-6.23-.55-1.85-3.44-1.06-2.89.8h0Z"/>
        </g>
        <g>
          <path class="cls-3" d="m471.22,404.79c3.71,3.35,7.13,7.02,10.21,10.96-5.75-1.96-11.37-4.29-16.82-6.96"/>
          <path class="cls-6" d="m470.16,405.85c3.7,3.36,7.12,7.03,10.21,10.96l1.46-2.51c-5.63-1.93-11.12-4.2-16.46-6.81-1.73-.85-3.25,1.74-1.51,2.59,5.57,2.73,11.31,5.1,17.18,7.11.62.21,1.37-.14,1.69-.69.36-.62.18-1.29-.23-1.82-3.09-3.93-6.5-7.6-10.21-10.96-1.43-1.3-3.55.82-2.12,2.12h0Z"/>
        </g>
        <g>
          <path class="cls-3" d="m427.99,440l5.86,11.78c-3.69-4.41-7.38-8.81-11.07-13.22"/>
          <path class="cls-6" d="m426.69,440.76l5.86,11.78,2.36-1.82c-3.69-4.41-7.38-8.81-11.07-13.22-.52-.62-1.58-.54-2.12,0-.62.62-.52,1.5,0,2.12,3.69,4.41,7.38,8.81,11.07,13.22.47.57,1.43.55,1.97.12.61-.48.73-1.25.39-1.94l-5.86-11.78c-.36-.73-1.39-.93-2.05-.54-.74.43-.9,1.32-.54,2.05h0Z"/>
        </g>
        <g>
          <path class="cls-3" d="m305.44,431.03c.22.2.39-.4.1-.46s-.53.22-.68.47c-2.33,3.74-3.56,8.16-3.49,12.56,5.12-2.02,10.04-4.55,14.67-7.52"/>
          <path class="cls-6" d="m304.68,432.32c1.01.44,2.13.11,2.44-1.03.29-1.07-.46-2.18-1.58-2.23-1.84-.07-2.79,2.52-3.41,3.9-1.51,3.34-2.29,6.96-2.26,10.63,0,.89.97,1.82,1.9,1.45,5.25-2.08,10.28-4.63,15.03-7.68,1.62-1.04.12-3.64-1.51-2.59-4.53,2.9-9.32,5.39-14.32,7.37l1.9,1.45c-.02-2.17.26-4.29.86-6.38.29-1.01.65-2.01,1.09-2.97.36-.77.82-2.04,1.46-2.56l-.66.39h-.08c-.25-.08-.5-.15-.76-.21l.1.06-.54-.54.05.1-.2-.76.13-.44.54-.54-.08.03h1.51l-.09-.04c-.74-.32-1.61-.22-2.05.54-.37.64-.21,1.73.54,2.05h0Z"/>
        </g>
        <g>
          <path class="cls-9" d="m408.28,240.48c2.82-4.96,6.29-9.56,10.3-13.62-1.23,4.97-1.98,10.05-2.24,15.17"/>
          <path class="cls-8" d="m409.58,241.23c2.77-4.86,6.15-9.33,10.07-13.32l-2.51-1.46c-1.25,5.1-2.01,10.32-2.29,15.56-.1,1.93,2.9,1.92,3,0,.26-4.99,1-9.92,2.19-14.77.35-1.43-1.43-2.55-2.51-1.46-4.09,4.17-7.64,8.86-10.54,13.93-.96,1.68,1.63,3.19,2.59,1.51h0Z"/>
        </g>
        <g>
          <path class="cls-3" d="m261.49,387.68c.08.43.79-.14.49-.46s-.82-.15-1.21.05c-2.55,1.34-4.71,3.42-6.14,5.93,4.75,0,9.5.68,14.05,2.03"/>
          <path class="cls-6" d="m260.2,388.44c.79,1.86,3.41.56,3.35-1.11-.04-1.02-.97-1.74-1.95-1.77-.79-.02-1.49.36-2.15.75-2.52,1.47-4.63,3.62-6.09,6.14-.57.98.16,2.26,1.3,2.26,4.63,0,9.21.67,13.65,1.97,1.86.54,2.65-2.35.8-2.89-4.69-1.37-9.57-2.07-14.45-2.08l1.3,2.26c.72-1.24,1.6-2.35,2.66-3.32.48-.44.98-.85,1.52-1.21.31-.21.62-.4.94-.59.03-.02.48-.27.49-.27-.03-.05-.57-.25-.31-.05l-.54-.54.06.1-.2-.76,1.06-1,.76.2-.07-.05.54.54-.04-.1c-.32-.75-1.42-.91-2.05-.54-.77.45-.86,1.3-.54,2.05h0Z"/>
        </g>
        <g>
          <path class="cls-3" d="m485.26,362.76l12.04,9.44c-2.97,1.04-6.17,1.42-9.3,1.1"/>
          <path class="cls-6" d="m484.2,363.82c4.01,3.15,8.03,6.3,12.04,9.44l.66-2.51c-2.88.99-5.87,1.34-8.9,1.05-.81-.08-1.5.74-1.5,1.5,0,.88.69,1.42,1.5,1.5,3.26.31,6.6-.09,9.7-1.15.95-.33,1.62-1.75.66-2.51-4.01-3.15-8.03-6.3-12.04-9.44-.64-.5-1.5-.62-2.12,0-.52.52-.64,1.62,0,2.12h0Z"/>
        </g>
        <g>
          <path class="cls-3" d="m364.09,453.75c.27,6.48,1.41,12.92,3.37,19.11.31-5.87.63-11.75.94-17.62"/>
          <path class="cls-6" d="m362.59,453.75c.3,6.62,1.44,13.18,3.43,19.5.51,1.63,2.86,1.3,2.95-.4.31-5.87.63-11.75.94-17.62.1-1.93-2.9-1.92-3,0-.31,5.87-.63,11.75-.94,17.62l2.95-.4c-1.91-6.07-3.04-12.35-3.32-18.71-.09-1.92-3.09-1.93-3,0h0Z"/>
        </g>
        <path class="cls-10" d="m268.8,251.72c-19.79,9.2-29.28,33.45-31,44.27-3.78,23.7.08,51.36,8.57,70.51,12.64,28.5,38.7,86.5,118.17,91.5s136.05-60.83,124.26-127.92-66.73-94.57-124.26-97.33c-36.39-1.74-73.85,8.78-95.74,18.96Z"/>
        <g>
          <path class="cls-5" d="m489.97,350.92c2.88-.33,5.78-.38,8.67-.16,3.84.29,7.98,1.26,10.39,4.27s1.73,8.5-1.96,9.6c-1.36.4-2.83.16-4.21-.18-6.22-1.54-11.95-4.97-16.24-9.72"/>
          <path class="cls-8" d="m489.97,352.42c3.8-.41,7.82-.54,11.59.23,2.68.55,5.96,1.78,7.02,4.57.71,1.87.51,4.88-1.57,5.83-1.53.7-3.46.05-4.97-.39-1.68-.49-3.31-1.11-4.87-1.88-3.59-1.76-6.78-4.18-9.48-7.13-1.31-1.43-3.42.7-2.12,2.12,2.85,3.12,6.29,5.73,10.09,7.6,1.9.93,3.89,1.71,5.94,2.28s4.31,1.05,6.35.24c3.15-1.24,4.35-4.8,3.89-7.95-.54-3.68-3.43-6.12-6.75-7.41-4.66-1.8-10.23-1.65-15.11-1.12-1.9.21-1.92,3.21,0,3h0Z"/>
        </g>
        <g>
          <path class="cls-5" d="m489.34,354.15c5.27.79,10.4,2.46,15.12,4.91"/>
          <path class="cls-8" d="m488.95,355.6c5.15.79,10.14,2.37,14.77,4.76,1.71.88,3.23-1.7,1.51-2.59-4.86-2.51-10.08-4.24-15.48-5.07-.8-.12-1.61.2-1.85,1.05-.2.71.24,1.72,1.05,1.85h0Z"/>
        </g>
        <path class="cls-9" d="m244.5,276.5c5.5-11.5,16.5-21.5,28.3-28.78,22.52-13.91,57.35-17.7,93.74-15.96,53.79,2.58,105.32,27.77,121.43,85.74,1.96,7.06,6.54,28,2.44,47.72h0c-.71-.15-2.83-1.78-3.4-2.23-.7-.55-.37-.15-1.99-1.51-6.28-5.27-9.51-18.99-29.6-33.8s-59.91-5.19-79.33,6.8-70.58,4-107.19-6.8c-30.43-8.98-27.96-36.74-25.58-46.87.48-2.06.88-3.26.88-3.26"/>
        <g>
          <path class="cls-9" d="m485.87,323.76c3.13-.04,6.26-.09,9.39-.13,14.18-.2,28.36-.4,42.55-.59.36,1.11-1.1,1.87-2.23,2.13-16.76,3.76-33.52,7.51-50.28,11.27"/>
          <path class="cls-8" d="m485.87,325.26c17.31-.24,34.62-.48,51.94-.72l-1.45-1.1c-.06-.31-.61.12-.87.2-.41.14-.86.2-1.28.3-1.13.25-2.26.51-3.38.76-2.1.47-4.19.94-6.29,1.41-4.43.99-8.86,1.99-13.3,2.98-8.78,1.97-17.57,3.94-26.35,5.9-1.88.42-1.09,3.31.8,2.89,9.75-2.18,19.5-4.37,29.25-6.55,4.83-1.08,9.67-2.17,14.5-3.25,2.3-.52,4.77-.84,7-1.6,1.78-.6,3.17-1.84,2.8-3.84-.12-.63-.83-1.11-1.45-1.1-17.31.24-34.62.48-51.94.72-1.93.03-1.93,3.03,0,3h0Z"/>
        </g>
        <g>
          <path class="cls-5" d="m340.47,342.49c-11.14-6.47-25.2-7.66-37.28-3.15-3.09,1.15-6.19,2.78-7.99,5.54s-1.82,6.9.71,9.01c1.71,1.42,4.11,1.63,6.34,1.64,13.9.08,27.77-4.97,38.36-13.96"/>
          <path class="cls-8" d="m341.22,341.2c-6.61-3.79-14.13-5.86-21.74-6.04-3.8-.09-7.62.29-11.32,1.14s-7.31,1.99-10.37,4.03c-2.86,1.91-5.01,4.65-5.33,8.15-.3,3.27,1.3,6.38,4.37,7.68,3.34,1.41,7.53.96,11.05.63,3.8-.35,7.57-1.04,11.24-2.1,8.29-2.38,15.98-6.51,22.57-12.06,1.48-1.25-.65-3.36-2.12-2.12-10.32,8.7-23.8,13.64-37.3,13.52-2.84-.02-6.18-.49-6.76-3.82-.5-2.89,1.22-5.46,3.48-7.07,2.63-1.88,5.86-2.92,8.97-3.71s6.54-1.24,9.87-1.28c7.66-.09,15.25,1.83,21.89,5.64,1.68.96,3.19-1.63,1.51-2.59h0Z"/>
        </g>
        <g>
          <path class="cls-5" d="m338.05,343.24l-11.8.91c-7.02.54-14.15,1.1-20.78,3.46"/>
          <path class="cls-8" d="m338.05,341.74c-5.69.44-11.4.81-17.08,1.35-5.39.51-10.78,1.29-15.9,3.08-1.81.63-1.03,3.53.8,2.89,5.03-1.76,10.28-2.53,15.57-3.01,5.53-.51,11.08-.88,16.62-1.3,1.91-.15,1.93-3.15,0-3h0Z"/>
        </g>
        <g>
          <path class="cls-7" d="m483.29,283.61c.48-.06-.26-.64-.7-.43-3.36,1.59-6.8,3.5-8.69,6.7-2.91,4.93-.99,11.71,3.31,15.48,4.22,3.7,10.72,4.86,15.68,2.23,5.43-2.88,8.03-10.07,5.9-15.84s-8.6-9.51-14.7-8.72"/>
          <path class="cls-7" d="m484.05,284.9l.14-.07c.65-.31.78-1.07.69-1.69-.23-1.64-2.28-1.62-3.4-1.09-1.52.72-3.01,1.51-4.39,2.47-2.65,1.84-4.86,4.32-5.69,7.5-1.56,6.02,1.58,12.53,6.66,15.85s12.68,3.67,17.69-.41c4.52-3.68,6.49-10.43,4.54-15.95-2.31-6.53-9.35-10.77-16.2-9.98-1.9.22-1.92,3.22,0,3,4.67-.54,9.54,1.53,12.15,5.51s2.24,8.95-.29,12.78c-2.75,4.15-7.9,5.51-12.57,4.19s-8.49-5.28-9.26-10.22c-.41-2.64.21-5.34,1.94-7.4.9-1.08,2.01-1.96,3.18-2.71.65-.42,1.33-.81,2.02-1.17.23-.12.46-.24.69-.36.23-.12.46-.23.69-.35.71-.22.49-.51-.66-.87l.69-1.69-.14.07c-1.75.82-.23,3.4,1.51,2.59h0Z"/>
        </g>
        <path class="cls-1" d="m492.56,293.61h-.44c-.21,0-.4.04-.58.13-.19.06-.35.16-.48.31-.15.14-.25.3-.31.48-.09.18-.14.37-.13.58l.05.4c.07.25.2.47.39.66l.3.23c.23.14.49.2.76.2h.44c.21,0,.4-.04.58-.13.19-.06.35-.16.48-.31.15-.14.25-.3.31-.48.09-.18.14-.37.13-.58l-.05-.4c-.07-.25-.2-.47-.39-.66l-.3-.23c-.23-.14-.49-.2-.76-.2h0Z"/>
        <g>
          <path class="cls-7" d="m392.56,284.05c-4.01.86-7.3,4.41-7.85,8.48-.18,1.33-.09,2.69.24,3.99,1.11,4.43,5.2,7.96,9.75,8.39s9.23-2.29,11.11-6.46c1.17-2.6,1.27-5.66.29-8.34-2.05-5.59-9.14-8.72-14.65-6.46"/>
          <path class="cls-7" d="m392.16,282.6c-5.1,1.18-8.96,5.88-9.04,11.13s3.69,10.38,8.81,12.11,10.73-.36,13.89-4.52c3.42-4.51,3.18-11.07-.48-15.36-3.39-3.96-9.4-5.69-14.29-3.77-1.78.7-1,3.6.8,2.89,3.35-1.31,7.21-.62,10,1.64,3.3,2.67,4.39,7.38,2.54,11.24-1.72,3.61-5.9,5.94-9.88,5.41s-7.16-3.54-8.1-7.26c-1.2-4.75,1.84-9.53,6.57-10.62,1.88-.44,1.08-3.33-.8-2.89h0Z"/>
        </g>
        <path class="cls-1" d="m391.4,294.02s0,.02.01.03c0,0,0,0,0,.01,0,0,0,0,0,0,.04.05.08.1.12.15.04.05.08.1.12.15,0,0,.01.01.02.02,0,0,0,0,0,0,.05.04.2.16.16.12,0,0,.1.08.16.12,0,0,.01,0,.02.01.12.06.25.12.38.16,0,0,.01,0,.02,0,.06.01.3.04.2.03-.08-.01.14.02.2.03,0,0,0,0,.01,0,0,0,.01,0,.02,0,.04,0,.36-.05.4-.05,0,0,0,0,0,0,0,0,0,0,.01,0,0,0,.01,0,.02,0,0,0,0,0,0,0,.06-.02.17-.07.18-.08.03-.01.12-.05.18-.08.02,0,.03-.02.04-.03.12-.08.23-.17.34-.26.01-.01.03-.03.04-.04,0,0,.01-.01.02-.02,0,0,0,0,0-.01.08-.1.16-.21.24-.31.02-.03.04-.06.06-.1.03-.06.06-.13.08-.19s.05-.13.08-.19c0,0,0-.02,0-.03,0-.02,0-.03.01-.05.02-.14.04-.28.06-.42,0,0,0-.02,0-.02,0,0,0-.01,0-.02,0-.05-.05-.36-.05-.4,0,0,0,0,0,0,0,0,0,0,0-.01,0,0,0-.02,0-.02-.01-.03-.14-.33-.15-.36,0,0,0,0,0,0,0,0,0,0,0,0-.07-.12-.16-.25-.27-.34-.06-.05-.21-.18-.32-.25,0,0,0,0-.01,0-.06-.03-.21-.09-.18-.08-.02,0-.12-.06-.18-.08,0,0-.02,0-.03,0,0,0-.01,0-.02,0,0,0,0,0,0,0-.13-.02-.28-.04-.41-.05-.21,0-.4.04-.58.13-.19.06-.35.16-.48.31-.15.14-.25.3-.31.48-.09.18-.14.37-.13.58l.05.4c.07.25.2.47.39.66l.3.23c.23.14.49.2.76.2,0,0,0,0,0,0l-.4-.05s.04,0,.06.02l-.36-.15s.02.01.04.02l-.3-.23s.02.02.02.02l-.23-.3s.01.02.02.03l-.15-.36s0,.03.01.04l-.05-.4s0,.04,0,.06l.05-.4s-.01.06-.03.09l.15-.36s-.04.08-.07.12l.23-.3s-.05.06-.09.09l.3-.23s-.04.03-.07.04l.36-.15s-.03.01-.05.01l.4-.05s-.03,0-.04,0l.4.05s-.02,0-.03,0l.36.15s-.02-.01-.03-.02l.3.23s-.02-.02-.03-.03l.23.3s-.02-.03-.03-.05c-.09-.17-.22-.32-.39-.42-.14-.13-.31-.22-.51-.27-.2-.06-.4-.07-.6-.03-.2,0-.39.07-.56.18l-.3.23c-.19.19-.31.41-.39.66l-.05.4c0,.27.07.52.2.76h0Z"/>
        <g>
          <path class="cls-3" d="m433.5,320.5c5-14,23-3,27,3,.47.7.41,2.27,0,3-.42.76-.17,1.75-1,2-4.36,1.3-12.04,2.71-16.59,2.57-2.19-.07-4.78-.58-5.67-2.58"/>
          <path class="cls-8" d="m434.95,320.9c1.09-2.97,3.25-5.27,6.5-5.65s6.49.81,9.29,2.25,5.33,3.2,7.42,5.46c.37.39.75.76.96,1.16.5.92-.03,1.68-.28,2.57-.01.04-.28.73-.07.52.23-.23-.53.09-.53.09-.48.13-.96.26-1.44.37-1.26.31-2.52.58-3.79.83-2.65.51-5.33.91-8.03,1.04-2.04.1-5.34.34-6.43-1.81-.87-1.72-3.46-.21-2.59,1.51,1.3,2.57,4.32,3.23,6.97,3.32,2.86.1,5.75-.31,8.57-.76s5.51-.93,8.13-1.78c1.54-.49,1.72-1.39,2.18-2.77.43-1.31.77-2.54.28-3.92-.54-1.51-2.08-2.86-3.24-3.9-1.44-1.28-3-2.43-4.64-3.43-3.5-2.13-7.64-3.87-11.81-3.8-5.07.08-8.62,3.28-10.33,7.9-.67,1.81,2.23,2.6,2.89.8h0Z"/>
        </g>
        <g>
          <path class="cls-3" d="m442.3,322.51c5.62-.19,11.27.77,16.52,2.79"/>
          <path class="cls-8" d="m442.3,324.01c5.52-.16,10.96.77,16.12,2.74.76.29,1.65-.32,1.85-1.05.23-.84-.29-1.56-1.05-1.85-5.38-2.05-11.16-3.02-16.91-2.85-1.93.06-1.93,3.06,0,3h0Z"/>
        </g>
        <g>
          <path class="cls-9" d="m356.06,246.75c1.11-.72,1.4-2.19,1.59-3.5,2.03-13.84,4.06-27.67,6.08-41.51.17,16.08.33,32.17.5,48.25"/>
          <path class="cls-8" d="m356.82,248.04c1.21-.91,1.84-2.09,2.14-3.57.38-1.9.58-3.85.86-5.77.59-4.04,1.18-8.07,1.77-12.11,1.19-8.15,2.39-16.31,3.58-24.46l-2.95-.4c.17,16.08.33,32.17.5,48.25.02,1.93,3.02,1.93,3,0-.17-16.08-.33-32.17-.5-48.25-.02-1.62-2.69-2.13-2.95-.4-1.12,7.66-2.24,15.32-3.37,22.98-.56,3.79-1.11,7.58-1.67,11.36-.28,1.89-.56,3.79-.83,5.68-.16,1.09-.12,3.34-1.12,4.09-1.52,1.15-.03,3.75,1.51,2.59h0Z"/>
        </g>
        <g>
          <path class="cls-9" d="m422.06,256.04c9.71-14.06,18.64-28.65,26.75-43.68-7.07,15.74-14.17,31.57-18.6,48.25"/>
          <path class="cls-8" d="m423.36,256.8c9.7-14.06,18.63-28.65,26.75-43.68l-2.59-1.51c-7.12,15.84-14.26,31.78-18.75,48.61-.5,1.87,2.39,2.66,2.89.8,4.43-16.58,11.44-32.28,18.45-47.89.77-1.72-1.65-3.25-2.59-1.51-8.12,15.03-17.05,29.62-26.75,43.68-1.1,1.59,1.5,3.09,2.59,1.51h0Z"/>
        </g>
        <g>
          <path class="cls-9" d="m385.26,234.56c2.73-4.8,5.22-9.74,7.46-14.79,1.72-3.89,3.3-7.84,4.87-11.8,2.05-5.15,4.1-10.3,6.15-15.46-3.16,8.39-5.39,17.14-6.63,26.02-.96,6.88-1.36,13.96-3.99,20.38"/>
          <path class="cls-8" d="m386.56,235.31c7.64-13.47,12.92-28.05,18.63-42.4l-2.89-.8c-2.85,7.59-4.95,15.45-6.25,23.45s-1.44,15.65-4.38,22.95c-.72,1.79,2.18,2.57,2.89.8,2.94-7.31,3.14-15.27,4.38-22.95s3.4-15.86,6.25-23.45c.68-1.82-2.19-2.56-2.89-.8-5.62,14.11-10.82,28.44-18.33,41.69-.95,1.68,1.64,3.2,2.59,1.51h0Z"/>
        </g>
        <g>
          <path class="cls-9" d="m324.1,240.71c-1.02-13.31-1.62-26.65-1.8-40,3.57,13.64,6.76,27.39,9.56,41.21"/>
          <path class="cls-8" d="m325.6,240.71c-1.01-13.31-1.61-26.65-1.8-40l-2.95.4c3.56,13.64,6.75,27.39,9.56,41.21.38,1.89,3.28,1.09,2.89-.8-2.81-13.82-6-27.56-9.56-41.21-.43-1.63-2.97-1.3-2.95.4.18,13.35.78,26.69,1.8,40,.15,1.91,3.15,1.93,3,0h0Z"/>
        </g>
        <g>
          <path class="cls-9" d="m278.85,255.28l-10.77-49.3c7.97,15.73,14.87,32,20.64,48.66"/>
          <path class="cls-8" d="m280.3,254.88c-3.59-16.43-7.18-32.87-10.77-49.3l-2.74,1.16c7.9,15.62,14.75,31.76,20.49,48.3.63,1.81,3.53,1.03,2.89-.8-5.82-16.78-12.77-33.17-20.79-49.02-.8-1.58-3.09-.44-2.74,1.16,3.59,16.43,7.18,32.87,10.77,49.3.41,1.89,3.3,1.09,2.89-.8h0Z"/>
        </g>
        <g>
          <path class="cls-9" d="m306.62,268.11c-1.92-15.72-5.1-31.29-9.5-46.51,7.19,15.02,14.37,30.05,21.56,45.07"/>
          <path class="cls-8" d="m308.12,268.11c-1.95-15.86-5.13-31.55-9.55-46.9l-2.74,1.16c7.19,15.02,14.37,30.05,21.56,45.07.83,1.74,3.42.22,2.59-1.51-7.19-15.02-14.37-30.05-21.56-45.07-.74-1.55-3.21-.45-2.74,1.16,4.35,15.09,7.52,30.52,9.44,46.11.23,1.89,3.24,1.91,3,0h0Z"/>
        </g>
        <g>
          <path class="cls-9" d="m458.85,273.65c12.55-8.47,20.41-22.46,32.48-31.6-7.22,14.06-15.04,27.82-23.44,41.21"/>
          <path class="cls-8" d="m459.61,274.95c12.65-8.61,20.39-22.37,32.48-31.6l-2.05-2.05c-7.23,14.06-15.05,27.81-23.44,41.21-1.03,1.64,1.57,3.15,2.59,1.51,8.4-13.4,16.22-27.15,23.44-41.21.61-1.2-.76-3.04-2.05-2.05-12.09,9.22-19.87,23.01-32.48,31.6-1.59,1.08-.09,3.68,1.51,2.59h0Z"/>
        </g>
        <g>
          <path class="cls-9" d="m378.8,271.33c-.6-14.97-.17-29.98,1.28-44.89,3.52,14.74,7.04,29.48,10.56,44.22"/>
          <path class="cls-8" d="m380.3,271.33c-.59-14.97-.16-29.98,1.28-44.89l-2.95.4c3.52,14.74,7.04,29.48,10.56,44.22.45,1.88,3.34,1.08,2.89-.8-3.52-14.74-7.04-29.48-10.56-44.22-.42-1.75-2.79-1.19-2.95.4-1.45,14.92-1.88,29.92-1.28,44.89.08,1.92,3.08,1.93,3,0h0Z"/>
        </g>
        <g>
          <path class="cls-9" d="m434.16,284.13c6.55-10.65,13.09-21.3,19.64-31.95-2,12.62-4.67,25.13-8,37.46"/>
          <path class="cls-8" d="m435.45,284.89c6.55-10.65,13.09-21.3,19.64-31.95l-2.74-1.16c-2.01,12.62-4.68,25.12-8,37.46-.5,1.87,2.39,2.66,2.89.8,3.32-12.34,5.99-24.84,8-37.46.26-1.61-1.8-2.69-2.74-1.16-6.55,10.65-13.09,21.3-19.64,31.95-1.01,1.65,1.58,3.16,2.59,1.51h0Z"/>
        </g>
        <g>
          <path class="cls-9" d="m349.7,288.15c-4.95-9.22-9.08-18.89-12.32-28.84,6.65,7.14,13.03,14.53,19.11,22.16"/>
          <path class="cls-8" d="m350.99,287.4c-4.88-9.13-8.95-18.65-12.17-28.49l-2.51,1.46c6.65,7.14,13.02,14.54,19.11,22.16,1.2,1.51,3.31-.63,2.12-2.12-6.09-7.63-12.46-15.02-19.11-22.16-1-1.08-2.97.04-2.51,1.46,3.3,10.08,7.47,19.85,12.47,29.2.91,1.7,3.5.19,2.59-1.51h0Z"/>
        </g>
        <g>
          <path class="cls-9" d="m328.68,303.07c-10.89-2.68-21.9-4.89-32.98-6.62,1.72,3.72,5.36,6.11,8.83,8.31,5.4,3.43,10.81,6.86,16.21,10.29"/>
          <path class="cls-8" d="m329.08,301.62c-10.9-2.68-21.9-4.89-32.98-6.62-1.31-.21-2.3.96-1.69,2.2,2.13,4.39,6.43,6.99,10.4,9.51,5.06,3.21,10.12,6.42,15.17,9.63,1.63,1.04,3.14-1.56,1.51-2.59-4.78-3.03-9.56-6.07-14.34-9.1-3.8-2.41-8.11-4.74-10.16-8.96l-1.69,2.2c11.08,1.74,22.09,3.95,32.98,6.62,1.87.46,2.67-2.43.8-2.89h0Z"/>
        </g>
        <g>
          <path class="cls-9" d="m276.22,274.27c-14.82-9.73-29.84-19.18-45.03-28.32.81,3.54,3.47,6.31,6.05,8.87,9,8.93,18.31,17.56,27.89,25.86"/>
          <path class="cls-8" d="m276.98,272.98c-14.83-9.73-29.84-19.17-45.03-28.32-1.15-.69-2.51.45-2.2,1.69.89,3.58,3.31,6.4,5.86,8.96,3.02,3.04,6.11,6.01,9.21,8.96,6.28,5.97,12.7,11.8,19.25,17.48,1.45,1.26,3.58-.85,2.12-2.12-6.3-5.47-12.49-11.07-18.55-16.81-3.03-2.87-6.03-5.77-8.99-8.71-2.49-2.47-5.13-5.03-6-8.55l-2.2,1.69c15.19,9.15,30.21,18.59,45.03,28.32,1.62,1.06,3.12-1.53,1.51-2.59h0Z"/>
        </g>
        <g>
          <path class="cls-9" d="m279.11,303.03c-17.8-1.06-35.66-1.32-53.48-.79,12.79,1.91,24.92,6.97,37.61,9.42,4.73.92,9.54,1.47,14.36,1.65"/>
          <path class="cls-8" d="m279.11,301.53c-17.81-1.05-35.65-1.32-53.48-.79-1.61.05-2.14,2.68-.4,2.95,8.8,1.34,17.27,4.11,25.81,6.52s17.5,4.23,26.56,4.6c1.93.08,1.93-2.92,0-3-8.96-.36-17.61-2.17-26.21-4.62-8.39-2.38-16.72-5.08-25.36-6.4l-.4,2.95c17.83-.53,35.68-.27,53.48.79,1.93.11,1.92-2.89,0-3h0Z"/>
        </g>
        <g>
          <path class="cls-3" d="m249.99,330.8c-11.71-.54-23.46-.31-35.14.71,14.86,5.78,31.05,8.12,46.94,6.8-.6.33-1.21.66-1.81.99"/>
          <path class="cls-6" d="m249.99,329.3c-11.72-.53-23.46-.29-35.14.71-1.72.15-1.99,2.33-.4,2.95,15.02,5.8,31.3,8.15,47.34,6.85l-.76-2.8c-.6.33-1.21.66-1.81.99-1.69.93-.18,3.52,1.51,2.59.6-.33,1.21-.66,1.81-.99,1.25-.69.75-2.92-.76-2.8-15.82,1.28-31.74-1.03-46.54-6.74l-.4,2.95c11.69-1.01,23.43-1.25,35.14-.71,1.93.09,1.93-2.91,0-3h0Z"/>
        </g>
        <g>
          <path class="cls-3" d="m258.3,353.11c-10.89,8.95-22.68,16.8-35.14,23.39,14.55-1.37,28.63-7.37,39.71-16.9"/>
          <path class="cls-6" d="m257.24,352.05c-10.8,8.86-22.49,16.61-34.84,23.16-1.26.67-.74,2.94.76,2.8,15.02-1.46,29.3-7.53,40.77-17.34,1.47-1.26-.66-3.37-2.12-2.12-10.82,9.26-24.47,15.08-38.65,16.46l.76,2.8c12.58-6.67,24.44-14.6,35.44-23.63,1.49-1.23-.64-3.34-2.12-2.12h0Z"/>
        </g>
        <g>
          <path class="cls-3" d="m292.39,408.26c-4.29,6.52-8.58,13.04-12.86,19.55-4.16,6.33-8.42,12.89-9.7,20.35,1.94-.93,3.47-2.53,4.95-4.1,11.11-11.75,22.23-23.51,33.34-35.26"/>
          <path class="cls-6" d="m291.1,407.51c-4.53,6.88-9.07,13.76-13.58,20.65-3.96,6.05-7.83,12.39-9.13,19.61-.23,1.3.99,2.31,2.2,1.69,3.74-1.9,6.51-5.66,9.34-8.65,3.23-3.42,6.46-6.84,9.7-10.25,6.52-6.9,13.04-13.79,19.56-20.69,1.33-1.4-.79-3.53-2.12-2.12-6.41,6.78-12.81,13.55-19.22,20.33-3.18,3.36-6.35,6.72-9.53,10.07-1.58,1.67-3.15,3.34-4.73,5-1.36,1.44-2.72,2.81-4.51,3.72l2.2,1.69c1.28-7.13,5.15-13.3,9.07-19.26,4.44-6.77,8.9-13.52,13.34-20.28,1.06-1.62-1.53-3.12-2.59-1.51h0Z"/>
        </g>
        <g>
          <path class="cls-3" d="m329.41,435.32c.42-.13-.02-.85-.42-.7s-.53.66-.59,1.09c-1.5,10.19-3,20.39-4.49,30.58-.6,4.09-1.17,8.44.48,12.23,4.12-10.73,9.09-21.14,14.83-31.09,2.44-4.23,5.08-8.56,5.55-13.42"/>
          <path class="cls-6" d="m330.17,436.61c1.42-1.07.96-3.4-.98-3.5-2.2-.12-2.31,2.67-2.53,4.18-.71,4.85-1.43,9.7-2.14,14.55s-1.41,9.52-2.1,14.28c-.62,4.26-1.18,8.71.51,12.81.57,1.39,2.34,1.45,2.89,0,3.06-7.92,6.57-15.67,10.52-23.19,1.91-3.63,4-7.16,5.99-10.75s3.49-7.02,3.92-10.98c.21-1.92-2.79-1.9-3,0-.43,3.91-2.34,7.43-4.26,10.79-2.02,3.52-4.02,7.05-5.89,10.66-3.81,7.36-7.19,14.93-10.18,22.66h2.89c-1.31-3.16-1.14-6.53-.7-9.86.48-3.65,1.06-7.29,1.6-10.94s1.06-7.23,1.59-10.85c.27-1.81.53-3.62.8-5.43.14-.99.29-1.97.43-2.96.07-.49.14-.99.22-1.48l.07-.49c.27-.84-.31-1.27-1.73-1.3l.69-.9-.14.11c-1.52,1.15-.03,3.76,1.51,2.59h0Z"/>
        </g>
        <g>
          <path class="cls-3" d="m389.28,435.95c-.02-.65.38-1.29.97-1.57,9.95,11.26,14.04,26.98,24.81,37.46.75.73,1.62,1.47,2.66,1.53-5.66-14.02-11.33-28.04-16.99-42.06"/>
          <path class="cls-6" d="m390.78,435.95c0-.15.08-.24.22-.27l-1.82-.23c5.42,6.19,9.05,13.64,13,20.8,1.95,3.54,4,7.04,6.38,10.31,1.18,1.62,2.44,3.19,3.79,4.67s2.87,3.31,4.95,3.6c.98.14,2.33-.65,1.85-1.85-5.66-14.02-11.33-28.04-16.99-42.06-.71-1.77-3.62-1-2.89.8,5.66,14.02,11.33,28.04,16.99,42.06l1.85-1.85c-1.79-.25-3.28-2.4-4.41-3.7-1.28-1.47-2.46-3.02-3.56-4.62-2.26-3.29-4.22-6.77-6.13-10.27-3.79-6.95-7.46-14.03-12.71-20.02-.43-.49-1.27-.56-1.82-.23-1.09.65-1.62,1.61-1.71,2.86-.14,1.93,2.86,1.92,3,0h0Z"/>
        </g>
        <g>
          <path class="cls-3" d="m431.75,417.4c14.65,9.03,29.3,18.05,43.95,27.08-8.97-9.54-17.94-19.07-26.91-28.61-3.04-3.23-6.17-6.53-10.14-8.52"/>
          <path class="cls-6" d="m431,418.69c14.65,9.03,29.3,18.05,43.95,27.08,1.48.91,2.97-1.13,1.82-2.36-6.3-6.7-12.6-13.4-18.91-20.1-3.06-3.25-6.1-6.53-9.19-9.76-2.75-2.89-5.69-5.66-9.26-7.5-1.71-.88-3.23,1.71-1.51,2.59,3.49,1.8,6.27,4.52,8.95,7.35,3.09,3.26,6.16,6.54,9.23,9.81,6.19,6.58,12.38,13.16,18.57,19.74l1.82-2.36c-14.65-9.03-29.3-18.05-43.95-27.08-1.65-1.02-3.16,1.58-1.51,2.59h0Z"/>
        </g>
        <g>
          <path class="cls-3" d="m460.68,391.92c15.81.89,30.62,10.94,46.34,8.98-10.73-5.33-21.46-10.66-32.19-15.99-3.64-1.81-7.44-3.66-11.5-3.71"/>
          <path class="cls-6" d="m460.68,393.42c15.82.97,30.18,10.88,46.34,8.98,1.32-.16,2.24-2.06.76-2.8-7.52-3.74-15.05-7.48-22.57-11.21-3.68-1.83-7.34-3.68-11.04-5.48-3.43-1.66-6.97-3.1-10.84-3.21-1.93-.06-1.93,2.94,0,3,3.7.11,7.08,1.69,10.34,3.3,3.64,1.8,7.27,3.61,10.91,5.42,7.23,3.59,14.45,7.18,21.68,10.77l.76-2.8c-16.06,1.89-30.54-8.01-46.34-8.98-1.93-.12-1.92,2.88,0,3h0Z"/>
        </g>
        <g>
          <path class="cls-3" d="m317.51,370.35c-7.11,8.82-14.48,18.19-16.26,29.38,10.84-7.82,21.26-16.21,31.23-25.12"/>
          <path class="cls-6" d="m316.45,369.29c-7.19,8.91-14.72,18.42-16.64,30.04-.19,1.13,1.03,2.54,2.2,1.69,10.94-7.91,21.47-16.37,31.53-25.36,1.44-1.29-.68-3.4-2.12-2.12-9.87,8.82-20.19,17.13-30.92,24.89l2.2,1.69c1.84-11.11,8.99-20.18,15.87-28.71,1.2-1.49-.91-3.62-2.12-2.12h0Z"/>
        </g>
        <g>
          <path class="cls-3" d="m357.89,384.6c1.48,12.1,2.95,24.19,4.43,36.29.45,3.68.96,7.52,3.09,10.55,3.84-15.73,5.82-31.91,5.9-48.11"/>
          <path class="cls-6" d="m356.39,384.6c1.03,8.42,2.05,16.84,3.08,25.26.5,4.09.97,8.18,1.5,12.26.46,3.53,1.11,7.08,3.14,10.08.69,1.01,2.42.97,2.74-.36,3.85-15.87,5.85-32.17,5.95-48.5.01-1.93-2.99-1.93-3,0-.1,16.08-2.06,32.08-5.85,47.71l2.74-.36c-1.97-2.91-2.46-6.38-2.88-9.79-.49-4-.98-8.01-1.47-12.01-.99-8.09-1.97-16.18-2.96-24.27-.23-1.89-3.23-1.92-3,0h0Z"/>
        </g>
        <g>
          <path class="cls-3" d="m390.2,387.81c7.36,9.61,14.97,19.01,22.83,28.22,1,1.17,2.51,2.47,3.9,1.79-2.86-11.96-5.72-23.93-8.59-35.89"/>
          <path class="cls-6" d="m388.9,388.57c4.49,5.86,9.07,11.66,13.75,17.38,2.35,2.87,4.72,5.73,7.12,8.56,1.78,2.1,4.26,5.98,7.55,4.75.78-.29,1.25-1,1.05-1.85-2.86-11.96-5.72-23.93-8.59-35.89-.45-1.88-3.34-1.08-2.89.8,2.86,11.96,5.72,23.93,8.59,35.89l1.05-1.85c-1.24.46-2.37-1.32-3.06-2.14-1.1-1.29-2.19-2.58-3.28-3.88-2.13-2.53-4.23-5.08-6.32-7.65-4.2-5.15-8.32-10.37-12.36-15.65-1.16-1.51-3.77-.02-2.59,1.51h0Z"/>
        </g>
        <g>
          <path class="cls-3" d="m431.43,363.17c8.32,4.38,17.22,7.65,26.39,9.7-5.91-9.35-13.38-17.7-22.01-24.62"/>
          <path class="cls-6" d="m430.67,364.46c8.45,4.42,17.44,7.75,26.75,9.85,1.22.27,2.43-1.05,1.69-2.2-6.01-9.46-13.52-17.9-22.24-24.92-1.49-1.2-3.63.91-2.12,2.12,8.53,6.87,15.9,15.07,21.77,24.32l1.69-2.2c-9.06-2.05-17.8-5.24-26.03-9.55-1.71-.89-3.23,1.69-1.51,2.59h0Z"/>
        </g>
        <g>
          <path class="cls-3" d="m390.84,346.34c8,6.53,9.7,10.42,17.03,17.68,2.22,2.2,4.73,4.33,7.77,5.06-5.12-10.84-6.14-16.58-11.19-28.77"/>
          <path class="cls-6" d="m389.78,347.4c4.29,3.53,7.88,7.58,11.51,11.76,1.95,2.24,3.96,4.44,6.1,6.49,2.26,2.16,4.78,4.07,7.85,4.87,1.35.35,2.24-1.05,1.69-2.2-4.33-9.21-7.16-19.01-11.04-28.41-.73-1.76-3.63-.99-2.89.8,3.98,9.64,6.9,19.68,11.34,29.13l1.69-2.2c-2.92-.76-5.18-2.75-7.28-4.84s-3.94-4.12-5.8-6.28c-3.46-4.01-6.95-7.86-11.06-11.23-1.48-1.22-3.62.89-2.12,2.12h0Z"/>
        </g>
        <g>
          <path class="cls-3" d="m347.02,345.94c-.69,4.85-.62,9.8.22,14.63,5.19-2.93,9.35-7.64,11.62-13.15"/>
          <path class="cls-6" d="m345.57,345.54c-.72,5.15-.66,10.3.22,15.42.17.98,1.43,1.34,2.2.9,5.56-3.18,9.85-8.15,12.31-14.05.31-.75-.34-1.65-1.05-1.85-.86-.24-1.53.3-1.85,1.05-2.15,5.15-6.09,9.49-10.93,12.26l2.2.9c-.78-4.55-.86-9.26-.22-13.83.11-.8-.2-1.61-1.05-1.85-.7-.19-1.73.24-1.85,1.05h0Z"/>
        </g>
        <g>
          <path class="cls-9" d="m367.96,318.05c-4.79-3.79-9.83-7.24-15.09-10.34-.78,5.36,1.43,11.05,5.61,14.49"/>
          <path class="cls-8" d="m369.02,316.99c-4.89-3.86-10.02-7.4-15.39-10.57-.74-.44-2.07-.08-2.2.9-.81,5.93,1.36,12.08,6,15.95.62.52,1.51.61,2.12,0,.53-.53.62-1.6,0-2.12-3.74-3.13-5.9-8.14-5.23-13.03l-2.2.9c5.14,3.04,10.09,6.4,14.78,10.1.64.5,1.5.62,2.12,0,.52-.52.64-1.62,0-2.12h0Z"/>
        </g>
        <g>
          <path class="cls-3" d="m281.3,363.98c-3.79,5.84-8.02,11.39-12.65,16.59,3.53.44,6.88-1.52,9.9-3.4,4.25-2.64,8.49-5.27,12.74-7.91"/>
          <path class="cls-6" d="m280,363.22c-3.73,5.73-7.88,11.17-12.41,16.29-.91,1.03-.24,2.43,1.06,2.56,4.31.43,8.09-2.01,11.59-4.18,3.93-2.44,7.87-4.88,11.8-7.33,1.64-1.02.13-3.61-1.51-2.59-3.68,2.29-7.37,4.57-11.05,6.86-3.27,2.03-6.77,4.64-10.83,4.24l1.06,2.56c4.7-5.31,9.01-10.96,12.88-16.9,1.06-1.62-1.54-3.13-2.59-1.51h0Z"/>
        </g>
        <path class="cls-2" d="m126.05,295.72c-5.3.41-10.85,2.1-14.17,6.53-2.81,3.76-3.51,9.08-.69,13.03,4.49,6.28,13.34,5.98,19.21,10.29,9.6,7.05-1.32,19.96-2.66,28.29-1.58,9.81,6.03,17.68,15.13,19.88,11.98,2.9,23.36-4.56,32.11-11.88,1.48-1.24-.65-3.35-2.12-2.12-7.36,6.16-16.78,12.68-26.91,11.53-7.9-.9-16.12-7.08-15.42-15.72.44-5.36,3.64-10.02,5.35-15.01,1.55-4.52,2.19-9.96-.61-14.15-4.04-6.05-11.93-6.54-17.87-9.72-3.64-1.95-5.95-5.35-4.66-9.6,1.73-5.71,7.9-7.92,13.31-8.33,1.91-.15,1.93-3.15,0-3h0Z"/>
        <path class="cls-2" d="m344.88,159.03c3.61-7.07,11.89-11.26,19.71-9.33,3.77.93,7.17,3.1,9.66,6.08,1.22,1.47,2.13,3.15,2.84,4.91.67,1.65,1.28,3.37,2.33,4.83,2.31,3.19,6.08,3.84,9.48,2.01s5.76-5.16,9.21-6.93c6.62-3.41,15.12-.48,20.27,4.29,7.19,6.66,9.77,16.86,12.16,26,.49,1.87,3.38,1.07,2.89-.8-2.3-8.79-4.81-17.9-10.75-25.01-5.1-6.1-13.4-9.98-21.4-8.64-4.03.67-7,2.96-10,5.58-2.52,2.2-6.57,5.65-9.37,1.86-1.15-1.57-1.72-3.53-2.48-5.3s-1.88-3.53-3.18-5.05c-2.64-3.09-6.26-5.4-10.16-6.52-9.23-2.66-19.46,2.01-23.8,10.52-.88,1.72,1.71,3.24,2.59,1.51h0Z"/>
        <path class="cls-2" d="m523.42,426.6c2.42,1.06,3.56,3.81,3.03,6.36-.63,3.01-3.51,4.03-6.27,4.22-3.12.22-6.27-.21-9.37.38-3.29.62-5.81,2.78-6.82,6s-.57,6.91-1.38,10.29c-.72,3.03-2,6.03-3.96,8.48-1.78,2.22-4.25,4.07-7.16,4.35-1.95.19-3.77-.41-5.65-.83s-3.8-.56-5.7-.06c-3.76,1.01-6.87,4.05-8.53,7.5-2.13,4.44-2.33,9.44-2.47,14.27-.05,1.93,2.95,1.93,3,0,.12-4.37.18-9.1,2.22-13.08,1.56-3.04,4.51-5.91,8.11-6.03,2.14-.07,4.18.8,6.28,1.11,1.64.24,3.31.18,4.92-.26,3-.82,5.52-2.84,7.41-5.26,2.04-2.62,3.46-5.7,4.29-8.91.42-1.63.68-3.31.8-4.99.13-1.88.11-3.79.65-5.61.99-3.4,4.03-4.2,7.21-4.29s6.54.33,9.65-.65c3.44-1.09,5.7-3.86,5.86-7.49.15-3.27-1.55-6.73-4.62-8.09-1.75-.77-3.28,1.81-1.51,2.59h0Z"/>
        <path class="cls-4" d="m448.8,502.03c1.42,5.34,6.06,9.46,11.4,10.65s10.06-.78,13.99-4.22c3.58-3.13,6.27-7.1,9.48-10.58s6.91-6.25,11.83-5.67c3.45.4,6.69,1.7,10.22,1.13,2.48-.4,4.73-1.65,6.55-3.37,3.96-3.72,6-9.33,7.05-14.53s1.5-11.14,4-16.16c1.2-2.4,2.87-4.53,5.21-5.89,2.52-1.46,5.48-1.9,8.3-2.41,3.06-.55,6.28-1.16,8.88-2.97s4.21-4.41,4.89-7.42c1.44-6.35-.68-13.05,1.35-19.3.6-1.84-2.3-2.63-2.89-.8-1.76,5.43-.6,11.14-.99,16.71-.17,2.44-.74,4.97-2.39,6.86-1.85,2.12-4.52,2.98-7.19,3.56-5.31,1.14-10.81,1.6-14.77,5.79-3.75,3.97-5.19,9.52-6.17,14.74s-1.57,10.38-4.05,15.11c-1.14,2.18-2.65,4.31-4.73,5.69-2.31,1.53-4.88,1.81-7.58,1.33-3.1-.55-6.1-1.47-9.28-.98-2.14.33-4.18,1.24-5.95,2.49-3.67,2.59-6.38,6.24-9.24,9.64-3.1,3.67-6.84,7.9-11.9,8.56-5.72.74-11.67-3.17-13.15-8.74-.49-1.86-3.39-1.07-2.89.8h0Z"/>
        <path class="cls-4" d="m303.68,137.63c7.7-7.41,16.31-13.84,25.63-19.08,4.3-2.42,8.74-4.8,13.56-5.99,4.18-1.03,9.07-1.14,12.46,1.94,2.89,2.63,4.3,6.48,6.78,9.45,2.9,3.47,7.2,4.7,11.49,3.14,4.54-1.65,7.85-5.4,12.3-7.15,1.82-.72,3.99-1.26,5.92-.66,2.25.7,3.01,2.81,3.79,4.82s1.77,3.92,3.61,5.24c1.6,1.16,3.57,1.66,5.51,1.81,4.79.36,9.01-1.75,13.37-3.38,3.98-1.49,8.55-2.42,12.2.36,2.32,1.76,3.7,4.54,4.74,7.2,2.48,6.37,3.56,13.57,7.71,19.17,2.44,3.3,5.81,5.49,9.75,6.61,4.33,1.23,8.89,1.29,13.35,1.68s9.03,1.24,12.98,3.7c3.7,2.31,6.68,5.65,8.92,9.37,5.55,9.23,6.08,20.23,5.57,30.72-.14,2.85-.36,5.7-.57,8.55-.15,1.93,2.85,1.92,3,0,.86-11.3,1.78-23.24-2.22-34.09-3.13-8.49-9.19-16.26-17.91-19.42-4.45-1.62-9.28-1.79-13.95-2.14-4.4-.34-9.07-.78-12.86-3.24-6.07-3.92-7.62-12.03-9.71-18.42s-4.92-12.91-11.91-14.27c-5.66-1.1-10.63,1.91-15.8,3.65-3.45,1.16-8.49,1.96-11.29-1.03-1.64-1.76-1.89-4.38-3.13-6.39-1.08-1.75-2.77-3.05-4.79-3.5-4.43-.99-8.94,1.28-12.45,3.77s-8.69,6.61-13.23,3.84c-3.25-1.98-4.71-6.13-6.91-9.07-2.77-3.73-6.67-5.8-11.34-5.9s-9.39,1.51-13.61,3.49c-9.75,4.57-18.86,10.72-27.06,17.68-2.06,1.75-4.06,3.57-6.01,5.44-1.39,1.34.73,3.46,2.12,2.12h0Z"/>
        <path class="cls-4" d="m80.32,281.45c-4.12,5.82-7.41,12.2-9.76,18.94-1.15,3.28-2.13,6.67-2.74,10.1-.51,2.85-.37,5.87,1.82,8,3.06,2.99,7.92,2.88,11.83,3.75,1.72.38,3.67.92,4.82,2.37,1.94,2.44.45,5.97-.08,8.65s-.53,5.27.76,7.7c1.02,1.92,2.67,3.39,4.39,4.67,3.49,2.59,8.18,4.37,10.67,8.1,3.29,4.92-.19,10.78-1.87,15.64-.99,2.85-1.6,5.8-1.13,8.81.44,2.78,1.84,5.29,3.67,7.39,4.4,5.07,10.81,7.37,16.91,9.66,3.16,1.19,6.33,2.45,9.17,4.31,1.43.94,2.74,2.04,3.86,3.33.43.49,2.15,2.67,1.21,3.31-1.58,1.09-.08,3.69,1.51,2.59,2.56-1.76,1.74-5.04.1-7.16-1.81-2.34-4.19-4.18-6.75-5.62-5.34-3.01-11.43-4.32-16.83-7.18-4.79-2.54-9.94-6.69-10.04-12.6s4.19-11.23,4.55-17.26c.32-5.37-3.17-9.09-7.33-11.88-3.3-2.21-8.18-4.23-9.76-8.19-1.11-2.78.1-5.73.62-8.5s.42-5.71-1.56-7.96c-2.91-3.31-7.99-3.3-11.97-4.12-1.89-.39-4.15-.93-5.24-2.69-.95-1.55-.61-3.47-.26-5.15.41-2,.92-3.98,1.5-5.93,2.29-7.72,5.88-14.98,10.53-21.55,1.12-1.58-1.48-3.08-2.59-1.51h0Z"/>
        <path class="cls-4" d="m241.14,475.8c-2.27,4.04-1.55,8.92.89,12.72,2.82,4.4,7.54,6.8,12.51,7.94,5.41,1.24,10.97,1.1,16.44,1.84,2.74.37,5.52.97,8.03,2.14,2.13.99,4.04,2.38,5.84,3.89,3.37,2.84,6.48,6.15,10.36,8.31s8.33,2.54,12.57.87c4.12-1.62,8.11-4.99,12.67-5.19s7.62,3.31,10.21,6.56c1.57,1.97,3.05,4.02,4.83,5.82,1.94,1.96,4.26,3.57,6.77,4.7,5.09,2.3,10.83,2.85,16.23,1.37,1.86-.51,1.07-3.4-.8-2.89-4.54,1.24-9.43.88-13.76-.99s-7.25-5.13-10.09-8.75c-2.51-3.21-5.16-6.6-9.09-8.1-4.3-1.64-8.59-.03-12.46,1.96s-7.74,4.43-12.16,3.42c-3.95-.9-7.1-3.81-10.04-6.43-3.35-2.99-6.7-5.99-10.92-7.7-4.97-2.02-10.44-2.24-15.72-2.63s-11.94-1.02-16.36-4.78c-3.47-2.96-5.8-8.26-3.39-12.55.95-1.69-1.64-3.2-2.59-1.51h0Z"/>
        <path class="cls-4" d="m172.44,198.91c.32-3.84,3.38-7.21,7.15-7.96,2.26-.44,4.6-.04,6.82-.8,1.67-.57,3.12-1.57,4.44-2.73,2.5-2.2,4.51-5.31,7.62-6.71,2.15-.97,4.54-.59,6.78-.19,2.66.48,5.32.97,7.98,1.45,5.98,1.09,11.95,2.17,17.93,3.26,1.89.34,2.7-2.55.8-2.89-5.73-1.04-11.47-2.09-17.2-3.13-2.83-.51-5.65-1.03-8.48-1.54-2.57-.46-5.25-.92-7.81-.14-3.72,1.12-6.14,4.32-8.81,6.92-1.25,1.21-2.64,2.41-4.34,2.91-2.45.73-5.09.18-7.55.97-4.65,1.48-7.93,5.76-8.33,10.58-.16,1.92,2.84,1.91,3,0h0Z"/>
        <path class="cls-4" d="m535.82,250.08c8.3.72,17.26,3.1,24.21,7.85,3.02,2.07,5.21,4.88,6.08,8.47.78,3.25.58,6.68.35,9.99-.45,6.54-1.4,13.91,2.76,19.54,1.94,2.62,4.57,4.51,6.96,6.68s4.38,4.73,3.95,8.17c-.3,2.42-1.52,4.67-2.61,6.82-1.22,2.41-2.44,4.82-3.66,7.23-2.4,4.75-4.8,9.49-7.2,14.24-.87,1.72,1.72,3.24,2.59,1.51,2.25-4.45,4.51-8.91,6.76-13.36s4.73-8.52,6.33-13.03c1.31-3.69,1.06-7.54-1.29-10.73-2.01-2.72-4.83-4.63-7.26-6.93s-4.03-5.16-4.53-8.59-.11-7.25.16-10.83.45-7.15-.23-10.68-2.61-6.99-5.46-9.44c-3.58-3.08-8.08-5.04-12.49-6.62-4.97-1.78-10.15-2.85-15.41-3.31-1.92-.17-1.91,2.83,0,3h0Z"/>
      </g>
      <g>
        <circle class="cls-7" cx="578" cy="509" r="25"/>
        <circle class="cls-7" cx="313.5" cy="560.5" r="25.5"/>
        <circle class="cls-7" cx="184.5" cy="414.5" r="15.5"/>
        <circle class="cls-7" cx="112.5" cy="434.5" r="14.5"/>
        <circle class="cls-7" cx="115.5" cy="243.5" r="27.5"/>
        <circle class="cls-7" cx="18.5" cy="257.5" r="18.5"/>
        <circle class="cls-7" cx="50.5" cy="354.5" r="13.5"/>
        <circle class="cls-7" cx="49.5" cy="114.5" r="28.5"/>
        <circle class="cls-7" cx="667.5" cy="260.5" r="8.5"/>
        <circle class="cls-7" cx="660.5" cy="331.5" r="11.5"/>
        <circle class="cls-7" cx="720" cy="378" r="19"/>
        <circle class="cls-7" cx="598" cy="379" r="17"/>
        <circle class="cls-7" cx="630" cy="456" r="14"/>
        <circle class="cls-7" cx="555" cy="458" r="11"/>
        <circle class="cls-7" cx="643" cy="176" r="10"/>
        <circle class="cls-7" cx="55" cy="13" r="13"/>
      </g>
    </g>
  </g>
</svg>