<?xml version="1.0" encoding="UTF-8"?>
<svg xmlns="http://www.w3.org/2000/svg" xmlns:xlink="http://www.w3.org/1999/xlink" viewBox="0 0 748.05 476.75">
  <defs>
    <style>
      .cls-1 {
        fill: #667ba2;
      }

      .cls-1, .cls-2, .cls-3, .cls-4, .cls-5, .cls-6, .cls-7, .cls-8, .cls-9, .cls-10, .cls-11, .cls-12, .cls-13, .cls-14, .cls-15, .cls-16, .cls-17, .cls-18, .cls-19, .cls-20, .cls-21 {
        stroke-width: 0px;
      }

      .cls-2 {
        fill: #ffbc17;
      }

      .cls-3 {
        fill: url(#radial-gradient-8);
      }

      .cls-4 {
        fill: #f1ae17;
      }

      .cls-22 {
        isolation: isolate;
      }

      .cls-23 {
        mix-blend-mode: soft-light;
      }

      .cls-23, .cls-24 {
        opacity: .58;
      }

      .cls-5 {
        fill: url(#radial-gradient-13);
      }

      .cls-6 {
        fill: url(#radial-gradient-12);
      }

      .cls-7 {
        fill: #7590b4;
      }

      .cls-8 {
        fill: #fff;
      }

      .cls-9 {
        fill: #b9eeff;
      }

      .cls-10 {
        fill: #ff9317;
      }

      .cls-11 {
        fill: url(#radial-gradient-2);
      }

      .cls-12 {
        fill: url(#radial-gradient-7);
      }

      .cls-13 {
        fill: url(#radial-gradient-5);
      }

      .cls-14 {
        fill: url(#radial-gradient);
      }

      .cls-15 {
        fill: url(#radial-gradient-14);
      }

      .cls-16 {
        fill: url(#radial-gradient-10);
      }

      .cls-17 {
        fill: url(#radial-gradient-6);
      }

      .cls-18 {
        fill: url(#radial-gradient-9);
      }

      .cls-19 {
        fill: url(#radial-gradient-3);
      }

      .cls-20 {
        fill: url(#radial-gradient-11);
      }

      .cls-21 {
        fill: url(#radial-gradient-4);
      }
    </style>
    <radialGradient id="radial-gradient" cx="588.57" cy="247.4" fx="588.57" fy="247.4" r="228.16" gradientUnits="userSpaceOnUse">
      <stop offset=".12" stop-color="#a0cdf4"/>
      <stop offset=".61" stop-color="#7586ac"/>
      <stop offset=".61" stop-color="#7586ac"/>
    </radialGradient>
    <radialGradient id="radial-gradient-2" cx="544.13" cy="-9.17" fx="544.13" fy="-9.17" r="477.29" gradientTransform="translate(211.42 -251.07) rotate(40.97)" gradientUnits="userSpaceOnUse">
      <stop offset=".12" stop-color="#a0cdf4"/>
      <stop offset=".63" stop-color="#7c8eaf"/>
    </radialGradient>
    <radialGradient id="radial-gradient-3" cx="74.23" cy="216.73" fx="74.23" fy="216.73" r="249.85" gradientUnits="userSpaceOnUse">
      <stop offset=".12" stop-color="#a0cdf4"/>
      <stop offset=".63" stop-color="#7c8eaf"/>
    </radialGradient>
    <radialGradient id="radial-gradient-4" cx="250.49" cy="137.31" fx="250.49" fy="137.31" r="328.16" gradientTransform="translate(-27.68 77.97) rotate(-22.46)" xlink:href="#radial-gradient-2"/>
    <radialGradient id="radial-gradient-5" cx="264.01" cy="202.73" fx="264.01" fy="202.73" r="319.14" gradientTransform="matrix(1,0,0,1,0,0)" xlink:href="#radial-gradient-2"/>
    <radialGradient id="radial-gradient-6" cx="215.57" cy="200.73" fx="215.57" fy="200.73" r="276.73" gradientTransform="translate(658.28 185.59) rotate(117.16) scale(1 1.93)" xlink:href="#radial-gradient-3"/>
    <radialGradient id="radial-gradient-7" cx="562.23" cy="336.73" fx="562.23" fy="336.73" r="214.97" gradientTransform="matrix(1,0,0,1,0,0)" xlink:href="#radial-gradient-2"/>
    <radialGradient id="radial-gradient-8" cx="451.57" cy="38.17" fx="451.57" fy="38.17" r="477.21" gradientTransform="matrix(1,0,0,1,0,0)" xlink:href="#radial-gradient-2"/>
    <radialGradient id="radial-gradient-9" cx="451.57" cy="38.07" fx="451.57" fy="38.07" r="477.29" gradientTransform="matrix(1,0,0,1,0,0)" xlink:href="#radial-gradient-2"/>
    <radialGradient id="radial-gradient-10" cx="525.25" cy="327.78" fx="525.25" fy="327.78" r="28.33" gradientTransform="translate(-7.27 11.99) rotate(-1.3)" gradientUnits="userSpaceOnUse">
      <stop offset=".12" stop-color="#fff"/>
      <stop offset=".63" stop-color="#b9eeff"/>
    </radialGradient>
    <radialGradient id="radial-gradient-11" cx="563.97" cy="313.66" fx="563.97" fy="313.66" r="61.12" gradientUnits="userSpaceOnUse">
      <stop offset=".12" stop-color="#eda700"/>
      <stop offset=".62" stop-color="#fedc47"/>
      <stop offset=".63" stop-color="#ffdd48"/>
    </radialGradient>
    <radialGradient id="radial-gradient-12" cx="604.23" cy="190.73" fx="604.23" fy="190.73" r="96.27" gradientUnits="userSpaceOnUse">
      <stop offset=".37" stop-color="#ffdd48"/>
      <stop offset=".38" stop-color="#fedc47"/>
      <stop offset=".88" stop-color="#eda700"/>
    </radialGradient>
    <radialGradient id="radial-gradient-13" cx="458.72" cy="251.27" fx="458.72" fy="251.27" r="37.16" gradientTransform="translate(-17.46 37.29) rotate(-4.23)" gradientUnits="userSpaceOnUse">
      <stop offset=".12" stop-color="#46779a"/>
      <stop offset=".54" stop-color="#0c2f7a"/>
      <stop offset=".63" stop-color="#002073"/>
    </radialGradient>
    <radialGradient id="radial-gradient-14" cx="450.22" cy="294.36" fx="450.22" fy="294.36" r="37.16" gradientTransform="translate(97.03 135.81) rotate(-16.38) scale(.92 .8) skewX(1.24)" xlink:href="#radial-gradient-13"/>
  </defs>
  <g class="cls-22">
    <g id="Layer_2" data-name="Layer 2">
      <g id="AnteaterSnorkeler">
        <g>
          <path class="cls-14" d="m411.63,306.15c14.01-.78,27.95,2.27,41.73,5.31,26.34,5.81,52.7,11.63,78.61,19.59,26.28,8.08,37.94,11.95,59.3,29.29,7.51,6.1,11.68,13.69,11.24,23.9-.29,6.75-3.36,9.13-4.79,10.55-3.22,3.18-12.89,4.3-16.13,3.64-50.09-10.21-70.35-24.75-120.84-22.6-14.2.61-29.89,2.59-41.22-7.31"/>
          <path class="cls-11" d="m495.64,173.7c6.77-11.37,2.65-24.9-6.27-29.42-8.42-4.27-22.04-2.88-27.31,4.83-4.55,6.66-2.2,18.86,1.86,26.43"/>
          <path class="cls-19" d="m259.05,268.18c-13.97-.46-39.23,8.44-52.12,14.03-40.41,17.52-82.92,29.83-126.24,36.57-22.71,3.53-47.54,6.45-63.81,23.21-4.75,4.89-8.7,11.82-6.85,18.48,2.02,7.26,9.81,10.81,16.8,13.01,27.55,8.67,56.91,11.15,85.45,7.22,25.02-3.45,49.88-11.77,74.98-8.92,10.68,1.21,21.03,4.42,31.32,7.61,17.29,5.37,34.73,10.8,50.61,19.68"/>
          <path class="cls-21" d="m273.43,274.3c-18.35-12.97-23.71-26.96-27.46-35.21-14.4-31.69-23.22-55.29-43.87-74.92-21.55-20.47-48.46-34.63-70.04-55.07-16.12-15.27-29.02-33.91-37.62-54.37-7.3-17.35-11.39-37.57-3.68-54.73-21.91,7.18-42.68,17.82-61.31,31.41,9.91,3.95,20.64,5.83,31.31,5.5-27.86,15.77-46.72,46.39-48.26,78.37,12.06-4.57,24.68-7.67,37.48-9.2C20.55,128.23-2.84,150.31.28,187.02c1.7,19.93,11.01,41.45,29.78,48.35,12.38,4.55,26.26,1.76,38.63-2.82,12.13-4.49,46.98-38.01,52.22-49.83-12.36,16.15-5.58,1.94-18.86,17.34-13.29,15.4-21.56,31.57-16.57,51.29,2.35,9.3,10.29,17.62,18.83,22s25.25,4.06,41.73-1.36c6.63-2.18,10.53-6.59,18.48-15.29-1.95,4.71-1.95,8.71-1.95,13.71,0,8.68,5.42,20.01,13.1,24.05,10.48,5.51,30.59-6.92,30.91-18.75,0,0,12.72,7.03,12.72,7.03,1.49,3.24,6.32,2.37,6.77-1.13l47.36-7.29Z"/>
          <path class="cls-13" d="m273.64,412.16c2.4,1.21,5.78,2.37,5.78,2.37,25.1,8.27,45.99,10.66,65.05,10.78,22.67.15,49.18-2.9,66.45-12,27.42-14.45,36.08-20.53,53.15-44.59,9.44-13.3,17.17-26.55,2.57-47.88-6.34-9.27-14.24-14.35-21.08-18.75-21.27-13.69-42.47-15.06-50.56-15.49-19.31-1.02-23.06,3.79-54.01,3.48-5.98-.06-13.69-.32-23.19-2.82-10.67-2.81-16.26-6.5-23.47-9.8,0,0-18.69-8.55-40.42-8.93-17.57-.3-49.51,10.55-59.19,31.03-17.78,37.66,49.15,97.56,78.91,112.6Z"/>
          <path class="cls-17" d="m216.56,289.18c-5.98,6.34-14.86,10.55-23.11,12.96-25.7,7.51-53.34-6.07-76.38-20.03-23.04-13.96-43.51-32.31-67.34-44.79-7.27-3.81-16.07-7.04-23.32-3.18-7.82,4.15-10.14,14.78-9.1,23.81,2.38,20.55,16.92,37.29,32.27,50.59,64.6,55.98,139.14,66.38,224.06,103.62"/>
          <path class="cls-12" d="m407.78,338.7c13.14-5.99,28.43-.55,39.83,9.08,11.4,9.63,19.93,22.99,29.27,35.21,21.81,28.52,48.89,51.64,78.91,67.35,5.1,2.67,11.32,7.51,9.63,13.66-1,3.64-4.42,5.5-7.55,6.74-23.95,9.52-50.75,7.19-74.39-3.3-23.64-10.49-39.04-45.53-89.75-68.58"/>
          <path class="cls-3" d="m634.61,338.38c-6.33-3.34-12.72-5.2-19.57-7.27-34.05-10.31-66.27,3.92-99.63,21.09-28.36,14.6-65.76,20.42-99.27,4.52-22.17-10.52-39.59-29.09-50.09-51.83-15.08-32.67-11.78-71.19,9.02-100.56,24.42-34.47,62.55-43.05,96.33-43.5,33.13-.44,76.56,17.28,126.46,55.79,74.71,57.65,105.77,92.94,124.76,119.56,10.39,14.56,24.29,36.13,25.33,46.74.98,10.01-5.05,21.81-12.44,23.11-4.39.77-8.81-2.25-12.95-6.47-32.29-32.94-69.83-52.83-86.19-60.27l-1.74-.91Z"/>
          <path class="cls-18" d="m400.54,181.62c-2.34-13.02-14.33-20.54-24.03-18.1-9.16,2.3-18.53,12.28-17.46,21.55.93,8.01,10.71,15.68,18.74,18.74"/>
          <path class="cls-10" d="m557.04,337.61c1.16-5.16-.66-10.62-3.7-14.94-3.04-4.32-7.22-7.7-11.33-11.01-5.54-4.47-11.42-9.09-18.44-10.27-9.55-1.6-19.26,3.8-25.12,11.5-5.86,7.7-8.51,17.36-10.23,26.89-.35,1.95-.67,3.99-.08,5.88,1.33,4.25,6.39,5.86,10.75,6.76,13.51,2.78,27.19,4.74,40.93,5.88,2.95.24,5.98.44,8.82-.41,5.44-1.63,9.15-6.92,10.51-12.44l-2.1-7.83Z"/>
          <path class="cls-16" d="m547.58,335.49c.84-3.72-.48-7.66-2.67-10.78s-5.2-5.55-8.17-7.94c-4-3.22-8.24-6.55-13.3-7.4-6.89-1.15-13.89,2.74-18.12,8.29s-6.13,12.52-7.38,19.39c-.25,1.4-.48,2.88-.06,4.24.96,3.06,4.61,4.22,7.75,4.87,9.74,2,19.6,3.42,29.52,4.24,2.13.18,4.32.32,6.36-.3,3.92-1.18,6.6-4.99,7.58-8.97l-1.51-5.65Z"/>
          <g>
            <path class="cls-2" d="m532.45,328.58c.37-3.01-.09-6.57-2.64-8.22-1.98-1.28-4.69-.94-6.67.34s-3.3,3.36-4.26,5.51c-1.98,4.42-2.63,9.56-1.07,14.14.21.63.49,1.27,1.01,1.69.49.39,1.13.52,1.75.64,1.75.34,3.6.68,5.29.11,2.58-.86,4.06-3.56,4.81-6.18.83-2.93,1.05-6.03.63-9.05"/>
            <path class="cls-4" d="m533.95,328.58c.46-4.05-.69-9.21-5.26-10.31-4.99-1.21-9,2.69-10.96,6.86-2.15,4.58-3.01,9.93-1.6,14.87.32,1.12.73,2.31,1.63,3.1s2.09.98,3.22,1.18c2.55.45,5.14.52,7.3-1.1,4.47-3.35,5.17-10.51,4.5-15.61-.11-.81-.61-1.49-1.5-1.5-.73,0-1.6.7-1.5,1.5.49,3.77.25,8.16-1.78,11.48-.89,1.47-2.19,2.48-3.96,2.54-1.04.03-2.07-.15-3.09-.36-.93-.19-1.38-.36-1.71-1.28-1.34-3.7-.94-7.86.34-11.51,1.09-3.12,3.18-7.03,6.88-7.36,4.23-.38,4.83,4.36,4.47,7.51-.09.81.76,1.49,1.5,1.5.89,0,1.41-.7,1.5-1.5h0Z"/>
          </g>
          <path class="cls-20" d="m596.44,328.01c-3.2-.4-8.43-.45-11.64-.15-4.16.38-8.69.96-16.23,1.54-16.13,1.24-20.02.75-23.94-.51-4.6-1.48-7.21-5.11-16.74-6.06-5.89-.59-7.81,8.5-8.17,14.41-.04.57-.06,1.19.24,1.68.33.54.98.79,1.58,1,9.37,3.28,32.78,10.11,42.7,9.76,8.39-.3,9.08-.49,16.26-4.84,3.07-1.86,5.53-4.54,8.1-7.03,2.88-2.79,7.73-7.04,10.97-9.41l-3.13-.39Z"/>
          <path class="cls-6" d="m618.31,232.68c1.8-.2,2.75-7.18,3.33-8.89,6.95-20.4,9.02-37.45,5.98-58.79-.23-1.63-.5-3.29-.25-4.93.91-6.02,7.81-8.81,13.67-10.48,1.38-.39,2.99-.75,4.15.1.61.44.96,1.14,1.3,1.82,2.72,5.48,5.49,11.07,6.35,17.12.63,4.43.22,8.93-.32,13.37-2.7,21.96-8.77,43.5-17.93,63.63"/>
          <path class="cls-8" d="m446.78,276.66c2.42,2.76,6.15-.8,9.79-1.26,4.57-.58,7.54-1.88,11-1,3.7.94,6.26,1.25,10,2,5,1,7.72,1.98,10.22-5.02s3.29-14.5,3.8-21.92c.23-3.29.4-6.63-.33-9.84-1.06-4.69-3.96-8.77-7.28-12.25-5.16-5.41-11.65-9.78-18.97-11.31-2.82-.59-5.72-.75-8.61-.71-4.51.06-10.54,3.27-14.14,5.99s-7.3,7.92-7.33,12.43c0,0-2.22,6.43,1.31,18.86,3.33,11.77,3.75,16.29,10.54,24.03Z"/>
          <path class="cls-5" d="m488.05,268.96c-.59-7.98-1.9-10.11-8.04-16.42-2.81-2.89-6.55-5.21-10.59-5.1-3.26.09-6.27,1.75-8.83,3.76-5.78,4.54-9.97,11.27-10.76,18.57-.79,7.3,1.67,8.29,8.97,7.47,2.76-.31,3.23-.56,5.22-.99,3.45-.76,7.02.28,9.59.5,8.05.7,11.72,3.12,14.19-5.16"/>
          <path class="cls-7" d="m439.21,283.21c8.5-4.38,18.08-5.64,27.54-5.78,2.4-.03,4.81-.04,7.21.09,2.58.14,4.95.71,7.37,1.59,4.99,1.81,9.95,3.69,14.93,5.54,1.81.67,2.59-2.23.8-2.89-4.06-1.51-8.12-3.01-12.18-4.52-1.93-.72-3.86-1.51-5.87-2.02s-3.98-.67-5.99-.74c-7.71-.26-15.57.04-23.11,1.73-4.24.95-8.34,2.41-12.21,4.41-1.72.89-.2,3.47,1.51,2.59h0Z"/>
          <path class="cls-1" d="m735.87,389.66c-3.54-3.16-6.59-6.8-9.07-10.84-.42-.69-1.34-.95-2.05-.54s-.96,1.36-.54,2.05c2.61,4.25,5.82,8.13,9.54,11.45.6.54,1.53.6,2.12,0,.55-.55.61-1.58,0-2.12h0Z"/>
          <path class="cls-1" d="m745.18,385.57c-1.95-5.06-4.17-10.01-6.65-14.82-.88-1.72-3.47-.2-2.59,1.51,2.36,4.59,4.49,9.29,6.35,14.11.29.76,1.01,1.28,1.85,1.05.72-.2,1.34-1.09,1.05-1.85h0Z"/>
          <path class="cls-8" d="m592.68,251.81c-1.15,2.86-5.31,1.52-8.46,2.43-3.94,1.14-6.79,1.2-9.38,3.03-2.76,1.96-4.78,3.06-7.64,4.89-3.82,2.45-5.76,4.1-9.96-.2-4.2-4.3-7.14-9.54-9.83-14.82-1.19-2.34-1.35-4.74-1.73-7.35-.56-3.81-.41-7.81,1.26-11.5,2.6-5.75,6.63-11.19,12.2-14.82,2.15-1.4,4.49-2.51,6.88-3.47,3.74-1.5,8.26-1.14,12.13-.37s7.48,2.94,8.99,6.22c0,0,6,4.32,6.89,14.67.85,9.8,1.88,13.27-1.36,21.29Z"/>
          <path class="cls-15" d="m594.08,248.48c-1.95-6.07-3.5-7.46-10.13-11.12-3.03-1.67-6.8-2.72-10.39-1.82-2.9.73-5.3,2.63-7.24,4.7-4.36,4.69-6.92,10.76-6.32,16.59.59,5.83,2.97,6.1,9.37,3.99,2.42-.8,2.79-1.08,4.49-1.82,2.96-1.28,6.34-1.2,8.68-1.55,7.33-1.08,11.05.06,11.79-6.87"/>
          <path class="cls-7" d="m598.08,257.33c-7.24-.86-14.55,0-21.68,1.36-3.57.68-7.06,1.4-10.38,2.91s-6.77,3.19-10.16,4.78c-1.75.82-.22,3.41,1.51,2.59,3.25-1.53,6.49-3.07,9.74-4.58s6.62-2.15,10.08-2.81c6.88-1.31,13.9-2.08,20.88-1.25,1.91.23,1.9-2.77,0-3h0Z"/>
          <g class="cls-24">
            <path class="cls-9" d="m468.36,299.04c-15.29-.14-20.49.48-29.74-9.48s-14.13-23.11-18.33-36.03c-3.11-9.55-5.98-19.2-7.65-29.1-.2-1.19-.37-2.51.26-3.55.61-1.02,1.96-1.21,2.92-1.92,12.26-9.06,21.55-9.53,34.32-14.3,6.71-2.5,17.44-5.01,24.44-6.53,6.6-1.43,13.35-1.95,20.08-2.4,18.05-1.21,36.13-3.92,54.22-4.14,14.99-.18,29.15-1.99,43.71,1.61.97.24,1.99.52,2.68,1.24.72.74.96,1.81,1.17,2.82,3.17,15.51,5.4,35.41,4.65,51.21-.33,6.9-1.36,14.49-6.53,19.08-3.2,2.84-7.48,4.05-11.61,5.18-13.06,3.57-26.81,7.16-39.97,3.97-4.1-.99-8.08-2.64-12.29-2.96-10.36-.79-19.41,6.36-27.76,12.55s-14.86,10.59-26.65,11.4l-7.93,1.32Z"/>
          </g>
          <g class="cls-23">
            <path class="cls-8" d="m564.79,191.38c-6.7,22.25-9.98,45.12-12.2,68.2-.44,4.58-.8,9.16-1.13,13.75-.12,1.62,1.46,3,3,3,1.72,0,2.88-1.38,3-3,1.48-20.6,3.63-41.26,8.15-61.43,1.42-6.37,3.09-12.68,4.97-18.92,1.12-3.71-4.67-5.29-5.79-1.6h0Z"/>
          </g>
          <g class="cls-23">
            <path class="cls-8" d="m535.89,198.01c-4.68,16.98-7.77,34.39-9.38,51.93-.44,4.81-.75,9.64-.94,14.46s4.27,9.21,9,9c5.04-.23,8.8-3.95,9-9,.36-8.86,1.13-17.69,2.31-26.48l-.32,2.39c1.72-12.67,4.3-25.2,7.69-37.52,1.25-4.53-1.55-9.99-6.29-11.07s-9.73,1.43-11.07,6.29h0Z"/>
          </g>
          <path class="cls-10" d="m468.36,293.04c-3.51-.03-7.04.01-10.55-.17-.67-.04-1.33-.08-2-.14-.32-.03-.63-.06-.95-.1-1.22-.13,1.48.24.29.04s-2.44-.46-3.63-.84c-.27-.09-.53-.19-.8-.28-.1-.03-.4-.12-.45-.17-.1-.11,1.4.64.87.37-.55-.28-1.12-.52-1.67-.83s-1.12-.66-1.66-1.02c-.26-.18-.52-.37-.78-.55-.34-.24-.75-.7.54.43-.15-.13-.3-.24-.45-.36-1.25-1.02-2.41-2.14-3.53-3.3-.64-.66-1.26-1.34-1.87-2.04-.32-.37-.64-.74-.95-1.12-.18-.21-.35-.43-.53-.65-.32-.39-.46-1.02.04.06-.38-.82-1.19-1.62-1.7-2.37-.59-.86-1.15-1.74-1.7-2.62-1.1-1.78-2.11-3.61-3.05-5.48s-1.77-3.66-2.58-5.53c-.43-.98.04.13.11.27-.12-.24-.22-.53-.32-.78-.19-.46-.37-.91-.55-1.37-.39-.98-.77-1.97-1.14-2.96-3.14-8.45-5.88-17.12-8.16-25.85-.6-2.31-1.16-4.64-1.66-6.97-.23-1.09-.46-2.18-.66-3.28-.1-.55-.2-1.1-.3-1.65-.06-.31-.11-.63-.16-.94-.16-.92.15.23.05.38-.05.07,0-.81-.01-.81.2.01-.45,1.62-.39,1.51-.23.42-.56.69-.89,1.02-.59.58-.34.23-.07.13.92-.34,1.72-.92,2.51-1.48,1.81-1.3,3.68-2.5,5.62-3.58,1.68-.94,3.41-1.77,5.17-2.55.73-.33-1.12.45-.38.16.18-.07.35-.14.52-.21.46-.18.93-.36,1.39-.54.86-.32,1.73-.63,2.61-.92,3.49-1.17,7.04-2.15,10.55-3.24s7.25-2.55,10.93-3.69,7.54-2.14,11.34-3.06,7.41-1.79,11.16-2.48c1.18-.22,2.37-.41,3.56-.58.24-.03.48-.08.72-.1-.2.01-1.3.16-.16.03.64-.08,1.28-.15,1.91-.22,2.4-.26,4.8-.46,7.21-.64,19.44-1.41,38.81-4.02,58.32-4.35,9.34-.16,18.69-.93,28.03-.43,1.09.06,2.17.13,3.26.23.54.05,1.09.1,1.63.16.31.03.62.07.93.11.16.02.31.04.47.06.45.06.31.04-.43-.06.92-.16,2.35.36,3.27.54,1.18.22,2.35.47,3.51.76.36.09.96.38,1.33.37-.72.03-1-.52-.42-.13-.34-.23-.62-.46-.88-.78-.14-.18-.62-1.51-.46-.85.04.19.11.38.16.56.15.57.25,1.15.36,1.73.38,1.93.74,3.87,1.08,5.81.36,2.09.7,4.19,1,6.29.07.5.15,1,.22,1.5.04.29.08.57.12.86.1.69-.07-.5-.07-.51.11,1.16.3,2.32.44,3.49.51,4.31.92,8.64,1.2,12.97s.42,8.4.4,12.6c-.01,2-.06,4.01-.16,6.01-.04.87-.1,1.75-.18,2.62-.04.5-.09,1-.15,1.51-.02.19-.05.38-.07.56-.08.77.22-1.38.03-.28-.32,1.85-.69,3.67-1.3,5.44-.08.23-.62,1.6-.23.65.37-.9-.18.35-.31.6-.19.37-.4.74-.62,1.1-.17.27-1.05,1.46-.44.73.65-.78-.29.33-.45.51-.33.36-.69.69-1.05,1.03-.81.76.84-.54-.07.08-.51.35-1.02.68-1.56.98-.42.23-.85.43-1.28.66-.37.19-.92.22.3-.11-.19.05-.39.16-.58.23-.97.38-1.96.7-2.96,1-4.42,1.33-8.91,2.49-13.41,3.53-2.32.54-4.65,1.02-7,1.42-.55.09-1.09.18-1.64.26-.2.03-.5.12-.7.1,1.04.11.66-.08.19-.03-1.17.13-2.34.26-3.51.34-2.33.17-4.67.21-7.01.08-1.09-.06-2.17-.17-3.25-.28-.88-.1,1.08.19.21.02-.23-.04-.46-.07-.69-.11-.69-.12-1.39-.26-2.07-.41-4.76-1.07-9.23-2.82-14.12-3.3-8.97-.88-17.53,3.55-24.66,8.53-6.07,4.24-11.74,9.22-18.45,12.45-.36.17-.73.34-1.1.51-.9.41.39-.17.48-.2-.21.06-.45.18-.65.26-.83.32-1.67.62-2.52.88-1.82.56-3.68.98-5.56,1.27-.2.03-.4.05-.6.09,1.47-.29.73-.09.36-.06-.5.05-.99.1-1.49.14-.83.07-1.66.17-2.48.3-.89.14-1.77.29-2.65.44l-5.04.84c-3.1.52-5.12,4.52-4.19,7.38,1.09,3.36,4.05,4.75,7.38,4.19l5.5-.92c.79-.13,1.58-.26,2.36-.39.18-.03-1.85.21-.66.14.56-.04,1.13-.11,1.69-.18,1.47-.18,2.94-.37,4.39-.64,7.63-1.44,14.36-5.24,20.57-9.75,3.43-2.49,6.77-5.1,10.29-7.46,1.79-1.19,3.62-2.32,5.53-3.31.42-.22.85-.43,1.28-.64.25-.12.49-.22.74-.34.66-.31.04-.29-.32.13.23-.26.97-.38,1.32-.5.57-.2,1.14-.39,1.71-.55.9-.26,1.8-.44,2.71-.62,1.05-.2-.28.06-.41.05.23.02.55-.06.79-.08.53-.04,1.07-.06,1.6-.06s1.08.02,1.63.06c.16.01.82.14.9.09-.05.03-1.15-.2-.48-.05,1.18.26,2.35.48,3.52.8,2.26.61,4.48,1.36,6.76,1.91,2.72.66,5.51,1.05,8.3,1.28,10.03.83,20.17-1.37,29.82-3.9,4.73-1.24,9.51-2.4,13.95-4.49,4.19-1.97,7.78-5.4,9.86-9.55,3.91-7.78,4-16.97,3.91-25.5-.1-9.03-.89-18.05-2.08-27-.62-4.66-1.33-9.32-2.19-13.94-.44-2.39-.77-4.84-1.87-7.03-1.5-3-4.51-4.39-7.61-5.12-9.78-2.31-19.85-2.45-29.84-2.12s-19.89.42-29.8,1.13c-10.12.72-20.21,1.88-30.31,2.77s-20.71,1.19-30.86,3.38c-7.63,1.65-15.33,3.39-22.72,5.95-3.77,1.31-7.52,2.61-11.34,3.74s-7.34,2.16-10.9,3.56c-4.28,1.68-8.39,3.67-12.23,6.21-.91.61-1.78,1.28-2.69,1.89-.72.48-1.55.77-2.27,1.24-3.69,2.38-4.34,6.36-3.75,10.39,1.41,9.64,4.31,19.1,7.3,28.35,2.8,8.69,5.82,17.4,10.1,25.49,3.92,7.41,9.1,14.49,15.77,19.64,2.59,2,5.38,3.54,8.52,4.54s6.23,1.27,9.36,1.43c3.51.18,7.03.14,10.55.17,3.14.03,6.14-2.78,6-6s-2.64-5.97-6-6Z"/>
        </g>
      </g>
    </g>
  </g>
</svg>