<?xml version="1.0" encoding="UTF-8"?>
<svg id="Layer_2" data-name="Layer 2" xmlns="http://www.w3.org/2000/svg" xmlns:xlink="http://www.w3.org/1999/xlink" viewBox="0 0 2043.8 714.25">
  <defs>
    <style>
      .cls-1 {
        fill: url(#linear-gradient);
      }

      .cls-1, .cls-2, .cls-3, .cls-4, .cls-5, .cls-6, .cls-7, .cls-8, .cls-9, .cls-10, .cls-11, .cls-12, .cls-13, .cls-14, .cls-15 {
        stroke-width: 0px;
      }

      .cls-2 {
        fill: #ae3542;
      }

      .cls-3 {
        fill: #68be5e;
      }

      .cls-4 {
        fill: #6591b1;
      }

      .cls-5 {
        fill: #95142d;
      }

      .cls-6 {
        fill: #e117ff;
      }

      .cls-7 {
        fill: #c900be;
      }

      .cls-8 {
        fill: #c33746;
      }

      .cls-9 {
        fill: #a41b2d;
      }

      .cls-10 {
        fill: #d04346;
      }

      .cls-11 {
        fill: #5aa32d;
      }

      .cls-12 {
        fill: #8ec0de;
      }

      .cls-13 {
        fill: #c2ab64;
      }

      .cls-14 {
        fill: #d85050;
      }

      .cls-15 {
        fill: #ccbf7f;
      }
    </style>
    <linearGradient id="linear-gradient" x1="1031" y1="716.69" x2="1031" y2="-49.27" gradientUnits="userSpaceOnUse">
      <stop offset=".29" stop-color="#709db9"/>
      <stop offset=".31" stop-color="#719ebb"/>
      <stop offset=".81" stop-color="#89c3f3"/>
    </linearGradient>
  </defs>
  <g id="OceanMiddleFloor">
    <g>
      <path class="cls-1" d="m1990.85,22.63c-1.97,14.5,4.45,28.68,6.79,43.13,2.23,13.74-1.39,30.79-13.73,36.29-1.19.53-2.54.57-3.8.24-40.65-10.89-87.75,18.68-95.12,60.26-1.9,10.73-1.57,22.1-6.19,31.97-13.15,28.07-55.95,27.45-77.3,48.58-2.86,2.83-7.72,1.87-9.25-1.85-14.35-34.87-61-51.06-98.98-42.06-41.35,9.79-74.15,40.29-104.89,69.64-11.08,10.58-22.94,22.82-23.38,38.13-.34,11.7,6.25,22.73,6.18,34.43-.22,36.11-59.79,55.43-53.07,89.56.3,1.55-.02,3.15-.91,4.45-21.55,31.43-63,47.98-100.25,39.72-23.97-5.32-28.55-31.39-71.4-10.28-16.89,8.32-31.75,25.79-41.88,42.49-20.27,33.41-11.91,34.16-9.08,52.01,1.76,11.08,5.42,24.78-2.59,32.91-14.81,15.05-37.93,16.82-59.04,16.43-53.77-.99-110.31-16.31-159.56,5.27-8.23,3.61-16.13,8.22-24.89,10.16-10.88,2.41-22.21.52-33.12-1.77-31.44-6.6-62.44-16.55-94.53-18.12-28.6-1.39-59.17,5.05-80.53,23.52-2.92,2.53-7.38,1.42-8.97-2.1-5.57-12.3-24.16-18.47-39.32-19.78-47.25-4.07-95.17-.07-141.1,11.73-2.78.72-5.69-.71-6.75-3.38-10.42-26.37-36.15-46.24-64.41-49.21-28.99-3.05-59.06,11.86-74.42,36.58-.96,1.54-2.6,2.52-4.4,2.65-26.98,1.99-53.96,3.98-80.94,5.97-4.66.34-7.74-4.75-5.27-8.72,5.01-8.03,10.02-16.07,15.03-24.1.72-1.16,1.01-2.53.8-3.88-3.3-21.79-6.59-43.57-9.89-65.36-.5-3.29-3.7-5.46-6.94-4.72-51.32,11.83-99.78,35.92-140.18,69.72-10.19,8.53-21.31,18.22-34.59,17.85-17.49-.49-29.83-19.37-29.73-36.86.06-10.83,3.53-21.11,8.23-30.97,1.35-2.82,4.58-3.92,7.36-2.81.94.37,1.89.74,2.87.96,4.44,1.01,10.04,2.64,20.23-1.28,22.63-8.71,36.79-31.17,36.05-55.4-.62-20.06-8.25-36.47-28.55-39.66-15.66-2.46-31.48,1.43-45.82,8.54-4.9,2.43-10.11-2.67-7.72-7.59l1.26-2.6c1.7-3.51-.53-7.65-4.4-8.15-25.91-3.37-48.15-24.23-58.91-48.54-11.87-26.83-12.42-57.15-11.48-86.47,1.18-37,4.28-75.06-7.53-110.14-11.15-33.14-39.98-63.25-74.31-65.05-3.3-.17-6.08,2.4-6.08,5.7v597.91c0,3.15,2.56,5.71,5.71,5.71h1969.69c3.15,0,5.71-2.56,5.71-5.71V5.98c0-2.62-1.78-4.9-4.32-5.55-11.51-2.93-24.64,9.34-26.39,22.19Zm-371.41,552.61c-3.24.18-7.72.6-12.2,1.17-5.27.67-8.55-5.62-4.94-9.51,2.19-2.36,4.25-4.29,5.74-5.02,4.78-2.34,9.18-5.4,12.51-9.54,5.34-6.64,9.98-14.06,14.4-21.28,5.35-8.74,10.79-17.73,12.7-27.8,2.03-10.73-.12-21.78.15-32.7.27-10.92,3.91-23,13.53-28.17,16.58-8.91,39.01,7.99,55.11-1.76,10.48-6.34,13.25-21.52,24.1-27.22,9.03-4.74,19.09-1.05,28.04,4.88,3.85,2.55,8.94-.35,8.82-4.96-.67-26.14,12.16-52.18,30.41-71.44,10.18-10.74,22.72-20.18,37.34-22.44,14.62-2.26,31.36,4.56,36.73,18.34,1.54,3.95-4.93,6.08-5.04,10.28-.29,11.88,4.05,23.41,11.7,32.51,1.86,2.21,39.01,3.96,41.27,2.05,10.59-8.94,28.23-44.41,34.19-52.17,6.19-8.05-.5,11.91-1.27,63.41-.01.76.13,1.51.41,2.21,6.07,15.13,6.37,73.4.54,86.74-8.22,18.79-13.6,23.52-17.71,40.84q-3.56,15.03-13.77,14.78c-5.74-.14-27.95-15.06-40.21-20.32-13.04-5.59-29.29,5.34-35.41,9.45-10,6.73-9.81,22.55-9.42,34.77.16,4.9-5.49,7.66-9.31,4.6-10.59-8.46-25.4-11.78-38.41-7.72-.65.2-1.28.42-1.92.66-24.68,9.21-42.15,57.44-64.47,43.44-.19-.12-.39-.24-.58-.36-7.19-4.47-17.43-11.32-27.29-15.77-7.77-3.5-15.92-5.59-20.29-6.79h0c-8.95-2.95-18.26-4.64-27.68-5.04-14.72-.63-30.49-.52-37.74-.12Z"/>
      <g id="Shadows">
        <g>
          <path class="cls-4" d="m1776.23,417.45c10.92-21.57,16.57-45.78,16.31-69.96-20.71,5.11-39.78,16.69-53.85,32.72-1.02,1.16-2.04,2.37-3.41,3.09-4.62,2.46-10.51-1.64-15.43.16,1.01,6.42,2.02,12.85,3.03,19.27.22,1.38.41,2.88-.29,4.08-.63,1.07-1.82,1.65-2.97,2.13-6.46,2.71-13.44,4.19-20.44,4.34-6.4.14-12.82-.82-19.2-.2s-13.02,3.19-16.42,8.62c6.09,5.16,10.85,11.73,16.78,17.09,5.93,5.35,13.7,9.57,21.6,8.41,7.42-1.09,13.29-6.57,19.03-11.41,8.34-7.03,17.42-13.18,27.03-18.33,4.53-2.42,9.65-4.68,14.64-3.48,6.1,1.47,7.58,5.88,13.39,3.52"/>
          <path class="cls-4" d="m1777.52,418.2c8.57-16.99,13.94-35.49,15.8-54.42.53-5.41.76-10.85.71-16.29,0-.99-.95-1.68-1.9-1.45-10.87,2.7-21.3,7.13-30.81,13.05-4.8,2.99-9.38,6.37-13.65,10.08-2.04,1.77-4.01,3.61-5.91,5.53-2.01,2.03-3.78,4.36-5.87,6.3-2.23,2.07-5.05,1.69-7.82,1.18s-5.79-1.13-8.62-.17c-.83.28-1.18,1-1.05,1.85.96,6.1,1.92,12.2,2.87,18.31.18,1.17.66,2.79,0,3.89s-2.26,1.53-3.34,1.95c-2.7,1.05-5.47,1.9-8.3,2.52-5.83,1.29-11.68,1.38-17.62,1.09-5.62-.27-11.35-.6-16.86.77-5.15,1.28-9.98,4.02-12.9,8.56-.34.52-.25,1.4.23,1.82,7.02,6,12.29,13.81,19.64,19.46,6.87,5.28,15.72,8.54,24.23,5.38s14.39-10,21.21-15.21c3.79-2.9,7.72-5.62,11.76-8.16s8.31-5.12,12.72-7.11c2.42-1.09,5.05-1.97,7.73-1.97,2.28,0,4.41.75,6.38,1.86,1.51.84,2.95,1.85,4.62,2.36,1.89.57,3.85.29,5.67-.41s1.01-3.59-.8-2.89c-1.49.58-2.92.86-4.45.28-1.35-.5-2.54-1.4-3.8-2.08-3.84-2.09-7.97-2.6-12.2-1.47-4.45,1.19-8.55,3.62-12.51,5.91s-8.02,4.89-11.86,7.6-7.4,5.46-10.91,8.43c-3.21,2.7-6.35,5.53-9.93,7.75s-7.48,3.61-11.71,3.39-8.2-1.94-11.71-4.18c-8.63-5.51-14.24-14.46-21.94-21.05l.23,1.82c6.31-9.79,19.98-8.07,29.88-7.73,6.05.21,12.06-.31,17.93-1.86,2.8-.74,5.59-1.67,8.22-2.87s3.89-3.2,3.65-6.02c-.29-3.45-1.04-6.91-1.58-10.33s-1.11-7.07-1.66-10.6l-1.05,1.85c4.85-1.64,9.9,2.03,14.79.14,2.66-1.03,4.33-3.41,6.19-5.43s3.82-4,5.85-5.89c8.22-7.63,17.68-13.9,27.88-18.55,5.78-2.64,11.81-4.71,17.97-6.24l-1.9-1.45c.17,18.62-3.13,37.2-9.69,54.63-1.87,4.97-4.02,9.83-6.41,14.57-.87,1.72,1.72,3.24,2.59,1.51h0Z"/>
        </g>
        <g>
          <path class="cls-4" d="m1782.95,267.3c-.78,28.9-.21,57.84,1.72,86.68.13,1.92.36,4.04,1.79,5.32,1.32,1.19,3.31,1.29,5.05.95,7.29-1.42,11.71-8.67,15.22-15.22,4.56-8.51,9.11-17.02,13.67-25.53,1.78-3.33,3.63-6.99,2.96-10.71-.47-2.6-2.1-4.81-3.51-7.05-3.95-6.27-6.42-13.43-7.61-20.74-1.88-11.52-.96-24.33-8.01-33.63-6.81-8.97-20.05-13.06-23.19-23.87-2.76,5.65-3.7,12.18-2.63,18.39,1.99,11.52,10.6,22.69,6.85,33.76"/>
          <path class="cls-4" d="m1781.45,267.3c-.53,20.07-.43,40.15.33,60.21.19,5.04.42,10.07.7,15.1.13,2.47.28,4.95.43,7.42.14,2.23.14,4.53.59,6.72.37,1.79,1.31,3.5,2.96,4.38,1.78.96,3.87.92,5.79.49,3.46-.77,6.48-2.89,8.86-5.46,2.54-2.75,4.51-5.99,6.3-9.26,2.36-4.31,4.65-8.67,6.97-13s4.79-8.95,7.19-13.42c2.1-3.93,4.3-8.33,3.05-12.9-.55-2.01-1.68-3.8-2.79-5.54-1.19-1.85-2.3-3.74-3.27-5.72-2-4.08-3.4-8.44-4.34-12.88-1.71-8.11-1.53-16.5-3.36-24.59-.87-3.85-2.24-7.65-4.42-10.95-1.9-2.87-4.35-5.27-7.01-7.43-5.07-4.12-11.32-7.55-14.97-13.14-.86-1.32-1.53-2.73-1.98-4.24-.35-1.15-2.16-1.58-2.74-.36-3.22,6.72-4.07,14.26-2.37,21.52,1.6,6.82,4.99,13.08,6.6,19.89.88,3.69,1.03,7.44-.16,11.09-.6,1.84,2.3,2.63,2.89.8,4.46-13.7-7.4-26.07-7.23-39.62.05-4.21,1.03-8.37,2.85-12.17l-2.74-.36c1.9,6.3,6.91,10.52,11.98,14.34,5.35,4.03,10.88,7.88,13.92,14.06,3.44,7,3.69,15.12,4.49,22.73.88,8.37,2.68,16.5,6.59,24.01.98,1.87,2.12,3.63,3.24,5.41s2.13,3.58,2.19,5.68c.07,2.31-.83,4.55-1.83,6.58s-2.19,4.15-3.3,6.22c-4.35,8.12-8.49,16.41-13.11,24.38-1.76,3.04-3.74,6.01-6.4,8.34-1.23,1.08-2.66,2.01-4.2,2.58s-3.78,1.17-5.33.22-1.56-3.14-1.66-4.72c-.16-2.39-.31-4.78-.45-7.17-.28-4.78-.52-9.57-.73-14.35-.83-19.23-1.06-38.48-.69-57.73.05-2.4.1-4.79.17-7.18.05-1.93-2.95-1.93-3,0h0Z"/>
        </g>
        <g>
          <path class="cls-4" d="m1630.54,458.13c6.46,10.34,9.07,23.04,7.21,35.09-1.44,9.29-5.37,17.98-9.27,26.53-8.18,17.96-16.37,35.92-24.55,53.88,9.18-8.24,20.64-13.79,29.17-22.7,9.42-9.83,14.58-23.11,16.84-36.54,2.26-13.43,1.82-27.14,1.38-40.75-.21-6.49-.42-12.99-.64-19.48-.32-9.91-1.47-21.39-9.76-26.85-5.16,9.65-10.31,19.3-15.47,28.95"/>
          <path class="cls-4" d="m1629.24,458.88c3.82,6.17,6.32,13.14,7.21,20.34s.06,14.92-2.14,22.11c-2.35,7.66-5.88,14.91-9.19,22.18-3.54,7.77-7.08,15.55-10.62,23.32-3.95,8.68-7.91,17.36-11.86,26.03-.7,1.53,1.03,3,2.36,1.82,8.29-7.39,18.26-12.58,26.47-20.07s13.43-16.78,16.79-26.97c3.71-11.27,4.8-23.22,4.92-35.02.14-12.93-.54-25.89-.99-38.81-.35-9.93-1.49-21.73-10.49-27.8-.65-.44-1.69-.14-2.05.54-5.16,9.65-10.31,19.3-15.47,28.95-.91,1.7,1.68,3.22,2.59,1.51,5.16-9.65,10.31-19.3,15.47-28.95l-2.05.54c7.56,5.1,8.58,15.46,8.95,23.79.53,12.17,1,24.39,1.06,36.58.1,21.7-2.86,45.71-19.01,61.79-8.48,8.44-19.38,13.86-28.29,21.8l2.36,1.82c7.25-15.92,14.51-31.85,21.76-47.77,3.41-7.48,7.06-14.92,9.65-22.73,2.44-7.34,3.67-15.02,3.01-22.76-.71-8.41-3.37-16.58-7.81-23.76-1.01-1.64-3.61-.13-2.59,1.51h0Z"/>
        </g>
        <g>
          <path class="cls-4" d="m1817.26,566.97c5.11,5.68,8.87,12.57,10.86,19.95,1.5,5.54,2.03,11.37,4.2,16.68,3.66,9,11.84,16.2,13.04,25.84,9.89-14.91,20.32-29.47,31.26-43.64-11.09.58-23.16-2.61-29.86-11.45-1.61-2.13-2.89-4.54-4.9-6.3-1.78-1.56-4.01-2.49-6.21-3.35-6.33-2.48-12.8-4.6-19.37-6.36,1.26,4.27,3.64,8.19,6.84,11.28"/>
          <path class="cls-4" d="m1816.2,568.03c3.03,3.39,5.56,7.2,7.53,11.3,2.06,4.31,3.26,8.85,4.21,13.52s1.88,9.18,3.95,13.44c1.81,3.73,4.24,7.11,6.48,10.59,2.48,3.84,4.88,7.96,5.5,12.57.19,1.44,1.91,2.09,2.8.76,9.9-14.91,20.33-29.47,31.26-43.64.7-.91-.25-2.31-1.3-2.26-8.02.39-16.44-1.05-23.17-5.65-1.65-1.12-3.14-2.45-4.47-3.95-1.45-1.63-2.54-3.52-3.85-5.26-1.4-1.84-3.04-3.35-5.09-4.44s-4.41-1.94-6.65-2.77c-5.48-2.05-11.06-3.82-16.71-5.35-1.08-.29-2.18.74-1.85,1.85,1.38,4.53,3.84,8.63,7.23,11.95,1.38,1.35,3.5-.77,2.12-2.12-3.02-2.96-5.22-6.57-6.46-10.62l-1.85,1.85c5.04,1.36,10.02,2.92,14.93,4.69,2.4.87,4.86,1.7,7.16,2.84,2.09,1.03,3.71,2.44,5.07,4.33s2.53,3.77,4.07,5.46c1.35,1.48,2.89,2.79,4.53,3.94,3.31,2.32,7.13,3.92,11.03,4.93,4.54,1.17,9.27,1.56,13.95,1.34l-1.3-2.26c-10.93,14.17-21.36,28.73-31.26,43.64l2.8.76c-1.18-8.79-7.27-15.3-11.4-22.79-2.33-4.23-3.45-8.79-4.4-13.49s-2.08-9.35-4.03-13.8c-2.16-4.92-5.13-9.44-8.7-13.45-1.29-1.44-3.4.68-2.12,2.12h0Z"/>
        </g>
        <g>
          <path class="cls-4" d="m1988.03,259.22c-11.09,35.68-20.21,71.97-27.32,108.65-1.16,6.01-2.28,12.17-1.41,18.23.88,6.2,3.78,11.91,6.64,17.49,6.85,13.38,13.7,26.76,20.55,40.15,11.79-26.1,14.21-55.33,16.19-83.91,1.71-24.66,3.21-49.33,4.5-74.01.15-2.78.26-5.68-.9-8.21-1.05-2.29-3.04-3.99-4.96-5.62-4.91-4.15-9.83-8.3-14.74-12.46"/>
          <path class="cls-4" d="m1986.58,258.82c-7.61,24.51-14.31,49.31-20.05,74.32-2.85,12.41-5.59,24.89-7.85,37.42-1.11,6.15-1.77,12.41-.33,18.56,1.33,5.69,4.1,10.93,6.74,16.1,6.7,13.09,13.4,26.18,20.1,39.26.48.94,2.13,1.02,2.59,0,10.21-22.72,13.51-47.61,15.48-72.23,2.14-26.71,3.64-53.48,5.08-80.23.19-3.57.68-7.28.33-10.85-.32-3.29-1.7-5.96-4.06-8.26-2.54-2.47-5.4-4.66-8.11-6.94-2.96-2.5-5.92-5-8.88-7.51-1.47-1.24-3.6.87-2.12,2.12,5.02,4.24,10.05,8.46,15.05,12.71,2.07,1.76,4.15,3.61,4.85,6.34.77,3,.26,6.35.1,9.4-.7,13.25-1.46,26.5-2.29,39.74-.81,13.06-1.64,26.12-2.62,39.17-.9,12.09-2.02,24.18-4.08,36.13-2.3,13.33-5.77,26.52-11.32,38.88h2.59c-5.87-11.47-11.74-22.94-17.61-34.41-2.74-5.36-5.81-10.69-7.8-16.39s-2.2-11.82-1.28-17.93,2.29-12.29,3.55-18.4,2.62-12.4,4.02-18.58c2.78-12.28,5.78-24.51,9.01-36.68,3.65-13.74,7.58-27.4,11.8-40.97.57-1.85-2.32-2.64-2.89-.8h0Z"/>
        </g>
        <g>
          <path class="cls-4" d="m1933.77,178.45c18.72,39.54,48.68,73.68,85.47,97.37,12.11-10.36,18.25-26.02,22.48-41.38,6.66-24.19-43.21-18.06-42.5-30.84.06-1.06.11-2.17-.08-3.15-.16-.81-.46-1.43-.76-2.02-2.21-4.4-4.42-8.81-6.63-13.21-1.65-3.28,6.26-53.62-2.47-57.49-6.22-2.76-1.04-22.11-6.96-25.46-6.2-3.51-12.62-8.63-18.85-12.08-3.57-1.97-13.57-3.97-23.03-3.58,3.92,32.23,2.88,62.39-8.68,92.73"/>
          <path class="cls-4" d="m1932.47,179.2c7.36,15.51,16.42,30.16,26.94,43.72s22.49,25.99,35.67,36.98c7.44,6.2,15.25,11.95,23.39,17.2.59.38,1.33.19,1.82-.23,10.44-9,16.51-21.78,20.67-34.68,1.43-4.42,3.39-9.26,2.69-13.99-.44-2.96-2.04-5.6-4.26-7.58-5.14-4.58-12.41-6.37-18.91-8-3.4-.85-6.82-1.62-10.18-2.58-2.7-.77-5.19-1.5-7.48-3.02-.54-.36-.54-.34-1.06-.86s-.35-.32-.69-.88c-.05-.09-.1-.19-.15-.28-.13-.27.01.05-.01-.03-.08-.24-.14-.47-.19-.72-.02-.08.02.28,0-.03,0-.11-.01-.22-.01-.33,0-.71.08-1.41.06-2.12-.05-1.86-.71-3.35-1.53-4.98-.92-1.84-1.84-3.67-2.76-5.51s-1.92-3.82-2.87-5.73c-.11-.22-.22-.44-.33-.66-.01-.03-.32-.75-.16-.3.11.31.06.1.02.04-.05-.1-.06-.25-.08-.35.07.47.01.09,0-.12s-.02-.43-.03-.64c-.01-.48,0-.97,0-1.45.03-1.34.11-2.68.19-4.02.23-3.73.54-7.45.81-11.18.62-8.6,1.25-17.28.81-25.9-.17-3.28-.42-6.7-1.44-9.84-.39-1.21-.91-2.39-1.72-3.38-.69-.84-1.8-1.24-2.42-1.85-1.03-1.01-1.39-2.93-1.62-4.41-.33-2.17-.38-4.38-.46-6.57-.15-3.86.07-8.82-2.22-12.16-.51-.75-1.12-1.33-1.88-1.81-1.56-.97-3.15-1.88-4.68-2.88-3.24-2.12-6.4-4.37-9.65-6.47-2.47-1.59-4.94-3.15-7.76-4.05-3.01-.97-6.16-1.52-9.29-1.92-3.73-.48-7.49-.67-11.25-.53-.74.03-1.6.67-1.5,1.5,2.92,24.12,3.16,48.7-2.5,72.45-1.61,6.75-3.66,13.39-6.12,19.88-.69,1.81,2.21,2.59,2.89.8,8.7-22.94,11.66-47.4,10.55-71.82-.32-7.12-.97-14.23-1.82-21.3l-1.5,1.5c6.69-.25,13.78.32,20.16,2.49,2.8.95,5.31,2.74,7.76,4.35,3.17,2.09,6.27,4.29,9.46,6.34,1.91,1.23,4.22,1.95,5.09,3.98.73,1.69.91,3.65,1.04,5.47.33,4.36.05,8.88,1.1,13.15.4,1.63,1.08,3.32,2.39,4.43.49.41,1.04.64,1.57.99.23.15-.2-.18,0,0,.07.07.15.14.22.21s.14.16.21.24c.16.18-.12-.19.07.1.68,1.03.88,1.65,1.23,2.9.38,1.4.62,2.85.78,4.25.93,8.2.38,16.59-.15,24.79-.44,6.89-1.28,13.81-1.36,20.72,0,.87-.03,1.8.16,2.66.13.6.44,1.13.72,1.68.92,1.84,1.84,3.67,2.76,5.51s1.84,3.67,2.76,5.51,1.41,3.06,1.33,5.05c-.05,1.32.02,2.5.64,3.69,1.06,2.05,3.23,3.35,5.26,4.26,2.82,1.26,5.81,2.09,8.8,2.85,6.68,1.71,13.69,2.94,19.95,5.94,5.32,2.55,9.33,6.52,8.26,12.69-.5,2.87-1.51,5.71-2.39,8.47-1.03,3.22-2.16,6.41-3.44,9.54-2.53,6.15-5.73,12.16-9.89,17.38-2.03,2.55-4.29,4.9-6.76,7.02l1.82-.23c-14.26-9.2-27.49-19.96-39.43-32.02-11.94-12.06-22.58-25.39-31.67-39.72-5.12-8.07-9.73-16.45-13.83-25.09-.83-1.74-3.41-.22-2.59,1.51h0Z"/>
        </g>
        <g>
          <path class="cls-4" d="m1746.54,279.92c-4.91-15.8-12.86-30.65-23.29-43.5-4.55,13.38-5.9,27.85-3.89,41.84-5.38-5.86-16.57-4.25-20.08,2.89-1.06,2.16-1.51,4.67-3.05,6.52-2.21,2.65-5.98,3.21-9.14,4.6-7.52,3.32-11.8,12.62-9.42,20.49-9.28-2.73-19.83-.65-27.37,5.41-2.44,1.96-4.59,4.31-7.29,5.89-5.81,3.39-13.04,2.66-19.71,1.82-.13,2.23-.27,4.47-.4,6.7-4.49-.16-8.42,2.99-11.35,6.41-9.06,10.59-12.6,25.64-9.23,39.16,3.37,13.52,13.58,25.14,26.55,30.23,2.34-5.99-2.02-12.24-5.08-17.89-10.06-18.55-6-43.64,9.38-58.08"/>
          <path class="cls-4" d="m1747.99,279.52c-5.02-16.08-13.08-31.07-23.68-44.16-.76-.94-2.18-.3-2.51.66-4.62,13.7-5.91,28.33-3.89,42.64l2.51-1.46c-5.75-6.08-16.69-5.02-21.52,1.68-1.51,2.09-1.91,4.68-3.18,6.88s-3.84,3.17-6.22,4-4.44,1.66-6.37,3.12-3.39,3.11-4.62,5.06c-2.82,4.48-3.77,10.1-2.29,15.21l1.85-1.85c-7.14-2.05-14.84-1.47-21.66,1.46-3.47,1.49-6.47,3.64-9.28,6.14-3.12,2.78-6.13,5.01-10.32,5.78-4.44.82-9.07.22-13.51-.33-.84-.11-1.46.77-1.5,1.5-.13,2.23-.27,4.47-.4,6.7l1.5-1.5c-7.03-.1-12.29,6.01-15.83,11.4-3.71,5.65-6.1,12.17-7.03,18.85-1.83,13.17,2.21,26.34,11.02,36.29,4.76,5.38,10.74,9.55,17.41,12.2.8.32,1.59-.36,1.85-1.05,2.16-5.91-1.15-11.77-3.99-16.81-2.6-4.62-4.6-9.34-5.65-14.56-1.99-9.94-.71-20.63,3.52-29.85,2.43-5.3,5.79-10.09,10.03-14.1,1.41-1.33-.72-3.45-2.12-2.12-15.3,14.47-19.68,38.85-10.67,57.83,2.69,5.66,8.42,12.15,5.98,18.81l1.85-1.05c-10.83-4.31-19.75-13.38-23.94-24.25-4.42-11.48-3.41-24.66,2.42-35.47,1.62-3.01,3.58-5.87,5.94-8.35s5.52-4.83,9.21-4.78c.85.01,1.45-.7,1.5-1.5.13-2.23.27-4.47.4-6.7l-1.5,1.5c7.64.96,15.9,1.59,22.4-3.33,3.08-2.33,5.69-5.17,9.07-7.11,3.17-1.82,6.69-3.01,10.31-3.55,4.07-.61,8.24-.31,12.19.83,1.09.31,2.16-.75,1.85-1.85-1.17-4.03-.55-8.36,1.47-12.01,2.14-3.87,5.42-6.19,9.54-7.63,2.15-.75,4.36-1.5,6.14-2.98,1.87-1.55,2.73-3.74,3.56-5.96.69-1.85,1.52-3.48,3.01-4.81,1.3-1.16,2.93-1.94,4.61-2.38,3.82-1.01,8.1-.21,10.87,2.72,1.14,1.2,2.7-.11,2.51-1.46-1.94-13.76-.55-27.88,3.89-41.04l-2.51.66c10.26,12.67,18.05,27.28,22.91,42.84.57,1.84,3.47,1.05,2.89-.8h0Z"/>
        </g>
        <g>
          <path class="cls-4" d="m1490.48,537.06c7.97,13.36,15.94,26.71,23.91,40.07.56.94,1.24,1.96,2.31,2.17,1.17.22,2.24-.64,3.14-1.42,13.99-12.28,31.31-20.73,49.59-24.21-33.16-23.5-57.27-59.47-66.39-99.08-7.23,26.6-13.27,53.52-18.09,80.65"/>
          <path class="cls-4" d="m1489.18,537.81c4.15,6.96,8.31,13.92,12.46,20.89,2.03,3.41,4.07,6.82,6.1,10.23l3.05,5.11c1,1.68,1.9,3.54,3.13,5.07.89,1.1,2.09,1.81,3.53,1.67,1.78-.17,3.1-1.59,4.39-2.69,2.56-2.19,5.23-4.25,8-6.18,5.63-3.91,11.65-7.27,17.93-10.02,7.06-3.09,14.48-5.35,22.05-6.8,1.38-.27,1.31-2.06.36-2.74-12.83-9.11-24.29-20.11-34.04-32.46-9.7-12.28-17.72-25.98-23.63-40.46-3.35-8.19-6.03-16.64-8.03-25.26-.34-1.46-2.51-1.39-2.89,0-5.64,20.77-10.57,41.74-14.75,62.86-1.17,5.92-2.28,11.85-3.34,17.79-.34,1.89,2.55,2.7,2.89.8,3.77-21.2,8.27-42.26,13.51-63.14,1.47-5.85,3-11.69,4.58-17.51h-2.89c3.61,15.58,9.49,30.61,17.33,44.55,7.83,13.93,17.62,26.79,28.99,38.02,6.43,6.35,13.39,12.17,20.76,17.41l.36-2.74c-12.91,2.48-25.35,7.38-36.49,14.35-2.73,1.71-5.38,3.54-7.94,5.49-1.21.93-2.41,1.87-3.59,2.85-.65.54-1.29,1.08-1.92,1.63-.54.47-1.37,1.42-2.16,1.26-.59-.12-.98-.96-1.26-1.42-.52-.85-1.02-1.71-1.53-2.56l-3.05-5.11-5.85-9.8c-4.49-7.53-8.99-15.06-13.48-22.59-.99-1.66-3.58-.15-2.59,1.51h0Z"/>
        </g>
        <g>
          <path class="cls-4" d="m1416.83,561.63c-2.31-4.76-9.01,1.12-10.39,6.24-5.64,20.82-10.26,41.91-13.86,63.18-1.13,6.69-4.38,15.26-11.14,14.65-3.67-.33-6.34-3.46-9.21-5.79-11.89-9.64-29.71-6.24-43.74-12.35-14.29-6.23-22.42-21.13-29.49-35.02-.62-1.23-1.26-2.49-1.35-3.87-.3-4.6,5.65-7.28,10.14-6.22,4.49,1.06,8.13,4.3,12.4,6.05,14.49,5.96,31.04-8.07,33.24-23.59,2.19-15.52-5.54-30.64-14.14-43.74,27.21-1.42,41.84,36.95,68.92,39.98"/>
          <path class="cls-4" d="m1418.12,560.88c-2.3-4.38-7.19-2.01-9.74.75-1.55,1.67-2.76,3.66-3.4,5.85-.96,3.29-1.77,6.63-2.61,9.96-3.38,13.3-6.35,26.71-8.91,40.19-.64,3.37-1.25,6.75-1.84,10.13-.45,2.56-.84,5.13-1.61,7.62-1.08,3.46-3.19,8.45-7.38,8.84-2.63.24-4.82-1.45-6.69-3.07-2.02-1.74-3.99-3.49-6.3-4.83-4.5-2.61-9.6-3.93-14.69-4.81-10.42-1.8-21.43-2.01-30.62-7.86s-14.95-14.97-19.95-24.09c-1.29-2.34-2.52-4.72-3.74-7.1-1.02-1.99-2.32-4.31-.68-6.34,1.26-1.56,3.45-2.31,5.4-2.39,2.61-.1,5.04,1.14,7.25,2.38,2.47,1.39,4.85,2.93,7.5,3.97,2.17.85,4.51,1.28,6.83,1.33,4.64.08,9.23-1.45,13.14-3.9,8.44-5.28,14.11-14.44,15.05-24.33,1.17-12.32-3.65-24.33-9.65-34.82-1.54-2.7-3.19-5.33-4.9-7.93l-1.3,2.26c10.61-.5,19.54,5.52,27.22,12.21,8.29,7.21,15.74,15.54,25.04,21.51,5.07,3.26,10.65,5.56,16.66,6.26,1.91.22,1.9-2.78,0-3-10.69-1.25-19.46-8.41-27.13-15.41-7.92-7.24-15.47-15.47-25.06-20.55-5.17-2.73-10.86-4.29-16.73-4.02-1.07.05-1.95,1.26-1.3,2.26,6.67,10.19,13.05,21.53,14.15,33.9.48,5.4,0,10.94-2.25,15.92-2,4.43-5.05,8.39-8.86,11.42-3.54,2.82-7.92,4.89-12.48,5.19-2.27.15-4.52-.12-6.69-.84-2.65-.87-4.99-2.44-7.39-3.81-4.4-2.51-9.23-4.18-14.04-1.72-1.85.94-3.45,2.54-4.04,4.57-.78,2.64.49,5.1,1.66,7.39,4.81,9.41,9.96,19.02,17.57,26.5,3.71,3.65,8.01,6.67,12.82,8.68s10.21,3.01,15.48,3.76,10.58,1.3,15.73,2.64c5.19,1.35,9.55,3.65,13.58,7.19,1.97,1.74,4.09,3.56,6.7,4.21,2.14.53,4.42.26,6.34-.84,3.84-2.19,5.78-6.84,6.91-10.9.74-2.66,1.11-5.4,1.59-8.12.59-3.38,1.22-6.75,1.86-10.12,1.29-6.74,2.69-13.46,4.19-20.16s3.1-13.37,4.81-20.02c.79-3.09,1.37-6.41,2.53-9.39.76-1.95,2.18-3.84,3.88-5.07,1.22-.88,2.66-1.55,3.49.05.9,1.71,3.49.2,2.59-1.51h0Z"/>
        </g>
        <g>
          <path class="cls-4" d="m1261.07,642.3c8.31,19.94,7.7,43.41-1.63,62.9,30.31,3.4,61.49-1.41,89.37-13.78-30.87-20.65-61.74-41.29-92.61-61.94-1.19-.79-2.41-1.6-3.81-1.9-4.62-.99-8.58,4.36-8.11,9.06.47,4.7,3.75,8.57,6.89,12.11"/>
          <path class="cls-4" d="m1259.63,642.7c6.32,15.29,7.47,32.5,3.32,48.51-1.18,4.55-2.78,8.98-4.8,13.23-.52,1.09.12,2.13,1.3,2.26,23.84,2.64,48.21.28,71.12-6.84,6.47-2.01,12.81-4.41,19-7.15,1.11-.49.84-2.03,0-2.59-17.37-11.62-34.75-23.24-52.12-34.86-8.72-5.83-17.44-11.67-26.16-17.5-4.36-2.92-8.72-5.83-13.08-8.75-1.83-1.23-3.69-2.65-5.93-2.97-1.67-.24-3.38.14-4.81,1.05-3.49,2.2-5.18,6.55-4.55,10.55.75,4.79,4.09,8.66,7.2,12.17,1.28,1.45,3.4-.68,2.12-2.12-2.61-2.94-5.41-6.11-6.28-10.06-.66-3.02.57-6.69,3.43-8.18,1.57-.82,3.13-.46,4.61.4,2.08,1.2,4.03,2.65,6.02,3.98,4.01,2.68,8.03,5.37,12.04,8.05,16.2,10.83,32.39,21.66,48.59,32.5,9.14,6.11,18.27,12.22,27.41,18.33v-2.59c-21.58,9.54-45.14,14.52-68.72,14.64-6.64.03-13.28-.33-19.89-1.06l1.3,2.26c7.39-15.56,9.47-33.36,6.02-50.22-.97-4.73-2.39-9.36-4.24-13.83-.73-1.76-3.63-.99-2.89.8h0Z"/>
        </g>
        <g>
          <path class="cls-4" d="m958.86,609.1c7.12,20.02,12.61,40.61,16.42,61.51-28.77,4.43-57.67,8.87-86.77,8.9-6.35,0-13.29,0-18.22,3.99-2.11-6.48-2.77-13.42-1.94-20.19.23-1.9.66-3.92,2.08-5.21,1.76-1.59,4.42-1.51,6.78-1.34,15.14,1.09,34.14-.24,40.01-14.24,1.23-2.93,1.76-6.28,3.92-8.62,2.65-2.88,6.92-3.36,10.66-4.52,10.78-3.36,18.67-14.35,18.42-25.63"/>
          <path class="cls-4" d="m957.41,609.5c5.53,15.58,10.1,31.5,13.64,47.65,1.01,4.6,1.93,9.22,2.78,13.86l1.05-1.85c-28.89,4.45-57.86,8.79-87.15,8.84-6.46.01-13.21.26-18.5,4.42l2.51.66c-1.71-5.35-2.47-10.93-2.17-16.55.12-2.19.07-5.38,1.66-7.12s4.3-1.28,6.31-1.15c7.93.54,16.15.48,23.87-1.62,7.1-1.93,13.81-6.01,16.93-12.94.94-2.09,1.44-4.36,2.41-6.43,1.01-2.18,2.61-3.62,4.84-4.51s4.43-1.25,6.63-1.94c2.06-.65,4.05-1.55,5.89-2.68,8.32-5.12,13.77-14.59,13.63-24.4-.03-1.93-3.03-1.93-3,0,.13,8.63-4.57,17.01-11.84,21.62-1.88,1.19-3.89,2.1-6.02,2.73s-4.48,1.1-6.61,1.99-3.95,2.2-5.25,4.14-1.93,4.36-2.72,6.59c-2.62,7.33-9.21,11.33-16.45,13.15-3.92.99-7.95,1.41-11.99,1.54s-8.09-.24-12.15-.33c-2.5-.06-5.15.4-6.84,2.41s-1.98,4.98-2.19,7.57c-.52,6.31.26,12.71,2.18,18.74.37,1.16,1.62,1.36,2.51.66,4.56-3.59,10.88-3.54,16.38-3.55,7.08-.01,14.15-.24,21.22-.69,14.33-.91,28.59-2.65,42.81-4.67,7.98-1.13,15.95-2.36,23.92-3.59.85-.13,1.18-1.13,1.05-1.85-2.97-16.26-6.95-32.34-11.93-48.11-1.42-4.49-2.92-8.96-4.5-13.4-.64-1.81-3.54-1.03-2.89.8h0Z"/>
        </g>
        <g>
          <path class="cls-4" d="m870.23,674.06c1.33,8.37.13,17.12-3.39,24.82-13.55-6.07-28.37-9.29-43.22-9.39-34.1-.23-71.07,15.1-100.51-2.11-4.58-2.68-9.24-7.74-7.19-12.64,18.75-2.56,37.81.38,56.7-.58s39.15-6.94,49.96-22.47c2-2.87,3.88-6.22,7.17-7.4,3.52-1.26,7.38.42,11.11.25s7.72-4.58,5.1-7.24"/>
          <path class="cls-4" d="m868.78,674.45c1.22,7.99.08,16.3-3.24,23.67l2.05-.54c-10.34-4.6-21.28-7.61-32.52-8.9s-21.48-.6-32.17.65-20.96,2.98-31.49,3.99-20.28,1.28-30.2-.74c-5.4-1.1-10.66-2.88-15.53-5.48-4.06-2.17-10.42-6.5-8.31-11.96l-1.45,1.1c22.35-3,44.98,1.74,67.29-1.65,8.78-1.34,17.51-3.9,25.27-8.32,3.82-2.17,7.4-4.82,10.5-7.94,1.54-1.55,2.96-3.22,4.26-4.98s2.39-3.7,3.86-5.34c1.89-2.09,4.04-2.85,6.84-2.64s5.53,1.1,8.26.5c4.02-.89,8.22-5.85,4.83-9.62-1.29-1.44-3.41.69-2.12,2.12,1.08,1.2-.3,2.81-1.28,3.56-1.8,1.39-3.89,1.2-6.03.91-2.4-.32-4.8-.78-7.22-.28-2.13.44-3.96,1.73-5.4,3.32s-2.5,3.34-3.69,5.05-2.5,3.27-3.92,4.76c-2.88,2.99-6.19,5.52-9.77,7.62-16.23,9.53-35.55,9.93-53.82,9.36-12.62-.4-25.29-1.12-37.85.57-.73.1-1.18.41-1.45,1.1-1.85,4.77,1.4,9.43,4.99,12.32,3.93,3.16,8.87,5.26,13.62,6.85,9.74,3.27,20.18,3.88,30.38,3.38,21.58-1.05,42.83-6.83,64.52-5.8,13.11.63,26.11,3.72,38.1,9.06.68.3,1.69.26,2.05-.54,3.68-8.17,4.9-17.12,3.54-25.98-.29-1.9-3.18-1.09-2.89.8h0Z"/>
        </g>
        <g>
          <path class="cls-4" d="m639.76,610.24c8.12,19.01,14.22,42.17,2.67,59.32-13.2,19.61-41.3,20.25-64.89,18.81-15.62-.96-31.24-1.91-46.86-2.87,3.66-14.64,18.89-22.56,30.27-32.47,12.64-11.01,21.51-26.27,24.84-42.71,2.08-10.26,5.08-24,15.55-24.34,2.97-.1,5.82,1.1,8.55,2.28,12.05,5.2,24.06,10.49,36.03,15.85"/>
          <path class="cls-4" d="m638.46,610.99c8.39,19.7,15.63,46.77-2.29,63.61-7.11,6.68-16.66,9.89-26.12,11.44-10.27,1.68-20.79,1.49-31.15.9-16.08-.92-32.16-1.97-48.24-2.95l1.45,1.9c2.64-10.29,11.28-17.23,19.33-23.43,4.3-3.31,8.68-6.55,12.64-10.27,4.2-3.94,7.94-8.38,11.17-13.14s6.05-10.14,8.21-15.63,3.27-10.59,4.46-16.07c.98-4.52,2.1-9.17,4.33-13.25,1.88-3.44,4.77-6.44,8.92-6.62,3.74-.17,7.32,1.8,10.66,3.24,3.69,1.6,7.37,3.2,11.05,4.81,7.44,3.26,14.86,6.55,22.27,9.86,1.75.78,3.27-1.8,1.51-2.59-6.81-3.05-13.63-6.08-20.47-9.07-3.38-1.48-6.76-2.96-10.15-4.43s-6.54-3.08-9.96-4.12c-4.83-1.46-9.81-.53-13.37,3.15-3.21,3.32-4.94,7.87-6.2,12.23-1.46,5.01-2.18,10.19-3.62,15.2-1.67,5.81-4.04,11.4-7.04,16.64s-6.6,10.13-10.76,14.53c-3.91,4.14-8.33,7.68-12.84,11.14-9.41,7.22-19.93,14.9-23.04,27.01-.25.99.47,1.84,1.45,1.9,15.12.93,30.24,1.85,45.36,2.78,10.79.66,21.64.99,32.39-.47,10.09-1.37,20.2-4.47,28.16-11.06,8.69-7.19,13.19-17.87,13.68-29,.61-13.73-3.9-27.29-9.21-39.76-.75-1.77-3.34-.24-2.59,1.51h0Z"/>
        </g>
        <g>
          <path class="cls-4" d="m417.17,593.52c-.18,7.91-6.06,14.8-13.07,18.47-7.01,3.67-15.05,4.73-22.9,5.73-17.85,2.28-35.7,4.55-53.54,6.83,16.05,28.65,47.31,48.16,80.1,49.99,7-22.36,9.88-46,8.45-69.38-6.15-1.97-12.3-3.94-18.45-5.91"/>
          <path class="cls-4" d="m415.67,593.52c-.18,5.38-3.13,10.11-7.08,13.6-4.49,3.96-10.25,6.03-16.02,7.29-6.51,1.43-13.2,2.04-19.8,2.89-7.02.9-14.05,1.79-21.07,2.69-8.01,1.02-16.03,2.04-24.04,3.07-1.1.14-1.91,1.17-1.3,2.26,6.36,11.29,15.03,21.25,25.24,29.22s22.01,14.14,34.54,17.79c7.04,2.05,14.3,3.3,21.62,3.72.67.04,1.26-.5,1.45-1.1,5.46-17.51,8.44-35.78,8.82-54.11.11-5.22,0-10.45-.32-15.66-.04-.69-.44-1.23-1.1-1.45-6.15-1.97-12.3-3.94-18.45-5.91-1.84-.59-2.63,2.31-.8,2.89,6.15,1.97,12.3,3.94,18.45,5.91l-1.1-1.45c1.09,18.13-.37,36.37-4.39,54.08-1.14,5.02-2.48,9.99-4.02,14.9l1.45-1.1c-12.55-.73-24.91-4.05-36.2-9.55-11.32-5.51-21.59-13.12-30.09-22.41-4.82-5.27-9.01-11.07-12.51-17.29l-1.3,2.26c15.04-1.92,30.08-3.84,45.11-5.75,6.86-.88,13.83-1.51,20.59-2.99,6.06-1.33,11.97-3.56,16.77-7.57s8.32-9.8,8.53-16.21c.06-1.93-2.94-1.93-3,0h0Z"/>
        </g>
        <g>
          <path class="cls-4" d="m295.58,602.42c3.84,9.25.87,20.21-5.03,28.31s-14.33,13.92-22.6,19.58c-12.59,8.62-25.53,17.4-40.32,21.17-17.88,4.55-40.2,3.02-50.61,18.26,40.98-2.49,81.91-5.88,122.74-10.18,4.34-.46,9.24-1.24,11.71-4.84,1.97-2.87,1.75-6.67,1.31-10.13-3.16-25.04-13.53-49.13-29.55-68.64"/>
          <path class="cls-4" d="m294.14,602.82c4.17,10.32-.09,21.78-7,29.82-7.42,8.63-17.49,14.82-26.88,21.08s-19.97,12.64-31.32,15.85c-9.14,2.59-18.68,3.24-27.95,5.17-9.76,2.03-19.38,5.74-25.26,14.23-.63.92.2,2.32,1.3,2.26,32.22-1.96,64.41-4.47,96.55-7.55,8.08-.77,16.15-1.58,24.22-2.42,5.58-.58,12.76-1.08,15.58-6.82,1.51-3.06,1.33-6.56.92-9.86s-.96-6.69-1.63-10c-1.37-6.77-3.26-13.44-5.64-19.92-5.31-14.43-12.99-27.89-22.72-39.78-1.22-1.5-3.33.64-2.12,2.12,8.4,10.27,15.27,21.83,20.27,34.12,2.5,6.14,4.55,12.46,6.12,18.9.79,3.22,1.46,6.47,2,9.73s1.16,6.48.99,9.71c-.16,3-1.5,5.43-4.22,6.82s-5.7,1.58-8.57,1.88c-7.74.81-15.48,1.59-23.23,2.34-15.41,1.49-30.83,2.84-46.26,4.07-17.41,1.39-34.84,2.61-52.27,3.67l1.3,2.26c5.19-7.5,13.87-10.75,22.45-12.63,9.38-2.06,19.05-2.69,28.33-5.21,11.49-3.13,21.89-9.2,31.75-15.72,4.88-3.23,9.74-6.51,14.49-9.94s9.22-6.99,13.09-11.27c8.03-8.89,13.36-21.93,8.61-33.69-.71-1.77-3.62-.99-2.89.8h0Z"/>
        </g>
        <g>
          <path class="cls-4" d="m155.28,504.26c-6.04,20.03-23.62,36.12-44.1,40.36,22.31,4.18,45.03,6.19,67.73,6.01-3.2-10.07-6.4-20.14-9.6-30.21-3.62-11.39-7.24-22.79-10.86-34.18"/>
          <path class="cls-4" d="m153.84,503.86c-4.66,15.27-16.03,28.06-30.35,35-4.04,1.96-8.31,3.39-12.7,4.31-1.41.3-1.45,2.62,0,2.89,17.47,3.26,35.18,5.23,52.94,5.86,5.06.18,10.12.24,15.19.21.94,0,1.75-.96,1.45-1.9-5.31-16.72-10.62-33.44-15.94-50.15-1.51-4.75-3.02-9.5-4.53-14.24-.58-1.83-3.48-1.05-2.89.8,5.32,16.75,10.64,33.49,15.96,50.24,1.5,4.72,3,9.44,4.5,14.16l1.45-1.9c-17.58.13-35.18-1.02-52.59-3.52-4.93-.71-9.85-1.52-14.74-2.44v2.89c16.34-3.44,30.85-14.14,39.4-28.44,2.43-4.07,4.37-8.44,5.75-12.97.56-1.85-2.33-2.64-2.89-.8h0Z"/>
        </g>
        <g>
          <path class="cls-4" d="m282.13,455.68c-2.66,18.17-5.9,37.59-18.55,50.91-12.65,13.32-38.15,15.7-47.59-.06,13.7-5.03,27.66-10.2,39.13-19.22,11.48-9.02,20.28-22.69,19.73-37.28"/>
          <path class="cls-4" d="m280.68,455.28c-2.28,15.56-4.77,32.14-14.08,45.28-3.91,5.52-8.96,9.91-15.22,12.55-5.61,2.37-11.95,3.43-18,2.6-6.57-.9-12.59-4.2-16.09-9.94l-.9,2.2c21.67-7.96,45.92-17.44,56.17-39.93,2.58-5.66,4-11.78,3.8-18.01-.06-1.93-3.06-1.93-3,0,.34,10.65-4.37,20.73-11.29,28.64-7.48,8.54-17.37,14.39-27.63,18.99-6.16,2.76-12.51,5.09-18.84,7.42-.88.32-1.44,1.32-.9,2.2,7.12,11.7,22.29,13.75,34.47,9.83,6.55-2.11,12.42-5.86,16.92-11.07,5.45-6.3,9.12-13.87,11.66-21.76,2.95-9.16,4.43-18.71,5.83-28.21.28-1.89-2.61-2.7-2.89-.8h0Z"/>
        </g>
      </g>
      <g id="Highlights">
        <g>
          <path class="cls-12" d="m1576.07,388.56c-20.13,2.86-38.28,16.99-46,35.8-1.11,2.7-2.01,5.81-.84,8.48,1.37,3.13,4.98,4.49,8.23,5.54,5.67,1.83,11.35,3.65,17.02,5.48,6.53,2.1,13.97,5.09,15.92,11.67.63,2.12.6,4.44,1.6,6.4,1.6,3.14,5.33,4.49,8.77,5.28,17.19,3.94,35.94.45,50.57-9.39"/>
          <path class="cls-12" d="m1575.68,387.11c-11.9,1.73-23.1,7.29-31.97,15.38-4.33,3.95-8.12,8.55-11.14,13.58-1.52,2.52-2.83,5.16-3.94,7.89-1.32,3.23-2.23,7.04-.37,10.26,1.45,2.52,4.15,3.91,6.77,4.9,3.45,1.3,7.04,2.31,10.55,3.44s7.02,2.19,10.49,3.4c2.76.96,5.48,2.08,7.91,3.72,2.15,1.44,4.05,3.42,4.87,5.92,1.01,3.07.81,6.25,3.06,8.82,1.92,2.2,4.84,3.32,7.6,4.03,3.21.82,6.53,1.32,9.82,1.61,14.94,1.3,30.3-2.61,42.76-10.94,1.6-1.07.1-3.67-1.51-2.59-10.58,7.07-23.17,10.82-35.89,10.77-3.17-.01-6.34-.24-9.47-.75-2.82-.45-5.87-.95-8.45-2.23-1.16-.58-2.27-1.32-3.03-2.4-.9-1.28-1.12-2.85-1.38-4.36-.49-2.8-1.42-5.23-3.3-7.4-3.5-4.04-8.92-6.03-13.86-7.64-3.57-1.16-7.15-2.3-10.73-3.45-3.2-1.03-6.57-1.86-9.65-3.23-2.74-1.22-4.86-3.12-4.63-6.35.21-3.01,1.8-6.05,3.16-8.69,2.58-5,5.9-9.58,9.82-13.62,8.89-9.15,20.64-15.32,33.28-17.16,1.9-.28,1.09-3.17-.8-2.89h0Z"/>
        </g>
        <g>
          <path class="cls-12" d="m1629.09,334.38c13.86,15.45,41.89,14.39,54.54-2.06,1.22-1.59,2.41-3.36,4.25-4.15,2.17-.93,4.64-.26,6.96.19,8.99,1.77,18.27.07,27.28-1.62,3.17-.6,6.45-1.24,9.06-3.14,2.79-2.03,4.45-5.21,6.48-8,3.28-4.51,7.75-8.15,12.83-10.46,3.93-1.79,8.29-2.83,11.68-5.51,11.54-9.13,6.46-32.02,20.02-37.74"/>
          <path class="cls-12" d="m1628.03,335.44c7.99,8.81,20.46,12.52,32.11,11.11,5.9-.72,11.67-2.63,16.65-5.91,2.42-1.6,4.67-3.49,6.59-5.67,1.09-1.23,1.99-2.61,3.08-3.83,1.41-1.58,2.98-2.12,5.09-1.88s4.23.82,6.38,1.06,4.46.32,6.7.25c4.41-.13,8.79-.77,13.13-1.53,4.01-.7,8.29-1.2,12.02-2.91,3.46-1.6,5.64-4.57,7.7-7.65s4.57-6.07,7.63-8.41,6.61-3.9,10.26-5.31c3.28-1.27,6.54-2.68,9.09-5.18,1.84-1.8,3.26-4.02,4.33-6.35,2.26-4.93,3.25-10.28,4.61-15.49,1.2-4.58,2.7-9.64,6.49-12.77.91-.75,1.96-1.33,3.05-1.8,1.77-.77.24-3.35-1.51-2.59-9.92,4.3-10.74,16.99-13.39,26.02-1.43,4.86-3.54,9.85-7.99,12.68-3.19,2.03-6.9,3-10.32,4.55s-6.53,3.69-9.23,6.26-4.69,5.66-6.86,8.71c-1.04,1.46-2.22,2.88-3.74,3.85-1.61,1.04-3.43,1.61-5.28,2.04-4.18.98-8.48,1.7-12.74,2.27s-8.83.87-13.24.45c-3.83-.37-8.18-2.28-11.86-.38-2.84,1.47-4.42,4.75-6.61,6.98-3.98,4.06-9.08,6.87-14.54,8.41-10.87,3.07-23.62,1.26-32.42-6.13-1.09-.92-2.11-1.91-3.07-2.97-1.3-1.43-3.42.69-2.12,2.12h0Z"/>
        </g>
        <g>
          <path class="cls-12" d="m1643.44,426.8c-9.75,4.31-22.33.72-28.34-8.08-1.32-1.94-2.39-4.13-4.23-5.59-1.79-1.42-4.12-1.99-6.09-3.16-5.28-3.13-7.02-10.97-3.55-16.03"/>
          <path class="cls-12" d="m1642.68,425.51c-7.1,3.07-15.74,1.64-21.86-2.95-1.51-1.14-2.9-2.51-4.03-4.04-1.3-1.76-2.27-3.75-3.74-5.38-2.9-3.23-7.8-3.4-10.29-7.1-2.27-3.37-2.5-7.92-.24-11.34,1.07-1.62-1.53-3.12-2.59-1.51-2.3,3.49-2.57,8.05-1.03,11.89.76,1.92,1.93,3.7,3.51,5.03,1.89,1.6,4.22,2.25,6.35,3.43,2.29,1.27,3.42,3.51,4.82,5.61,1.21,1.83,2.67,3.5,4.35,4.92,3.34,2.81,7.41,4.75,11.7,5.57,4.94.94,9.94.45,14.56-1.54,1.77-.76.24-3.35-1.51-2.59h0Z"/>
        </g>
        <g>
          <path class="cls-12" d="m1567.03,587.72l-31.67,7.68c-13.96,3.39-28.06,6.79-42.42,7.08-8.69.17-18.79-1.67-22.94-9.31,1.6-.8,3.2-1.6,4.8-2.4-5.94-4.76-13.47-7.51-21.08-7.69"/>
          <path class="cls-12" d="m1566.63,586.28c-14.01,3.4-27.99,6.94-42.05,10.15-6.95,1.59-13.95,3-21.04,3.82-6,.69-12.28,1.23-18.28.29-5.5-.86-11.12-3.03-13.97-8.12l-.54,2.05c1.6-.8,3.2-1.6,4.8-2.4.8-.4,1.04-1.77.3-2.36-6.34-5.02-14.05-7.89-22.14-8.13-1.93-.06-1.93,2.94,0,3,7.24.22,14.34,2.75,20.02,7.25l.3-2.36c-1.6.8-3.2,1.6-4.8,2.4-.73.37-.91,1.38-.54,2.05,5.78,10.33,19.72,10.55,30.04,9.77,14.85-1.11,29.32-4.99,43.74-8.48,8.32-2.02,16.63-4.03,24.95-6.05,1.88-.45,1.08-3.35-.8-2.89h0Z"/>
        </g>
        <g>
          <path class="cls-12" d="m1489.13,530.42c-16.87,3.48-33.41,8.6-49.31,15.25-4.85,2.03-10.57,7.04-7.58,11.36.94,1.36,2.54,2.09,4.08,2.69,16.09,6.2,35.14,4.11,49.5-5.45"/>
          <path class="cls-12" d="m1488.73,528.98c-9.37,1.94-18.63,4.37-27.73,7.29-4.52,1.45-8.99,3.02-13.42,4.7-3.96,1.51-8.31,2.83-11.85,5.22-2.7,1.82-5.69,4.61-5.8,8.11-.13,4.19,3.77,6.08,7.14,7.29,7.59,2.72,15.84,3.66,23.86,2.9,9.13-.87,18-3.87,25.66-8.92,1.6-1.06.1-3.66-1.51-2.59-12.46,8.23-28.31,10.85-42.77,7.09-1.76-.46-3.49-1.01-5.19-1.65-1.52-.57-3.36-1.29-4-2.92-1.1-2.82,2.45-5.63,4.45-6.92,3.33-2.16,7.35-3.39,11.04-4.79,4.06-1.54,8.17-2.98,12.3-4.33,9.4-3.05,18.96-5.58,28.64-7.58,1.89-.39,1.09-3.28-.8-2.89h0Z"/>
        </g>
        <g>
          <path class="cls-12" d="m765.1,601.54c-22-2.89-44.88,1.42-64.31,12.12,16.51,6.52,34.95.61,52.62-1.17,34.33-3.46,69.95,10.18,93.2,35.67,2.96-4.77,4.13-10.62,3.22-16.16,25.39,6.03,50.17-12.27,76.22-13.74,8.22-.47,18.32-.16,22.4-7.31,4.03-7.05-1.97-16.41-9.69-18.92s-16.09-.27-23.89,1.96c-23.93,6.85-47.85,13.7-71.78,20.55-4.29,1.23-8.76,2.47-13.16,1.71-5.38-.93-9.77-4.67-14.23-7.82-13.82-9.78-30.9-14.86-47.82-14.24"/>
          <path class="cls-12" d="m765.1,600.04c-17.35-2.24-35.26-.1-51.61,6.12-4.62,1.76-9.12,3.83-13.46,6.21-1.23.67-.77,2.3.36,2.74,10.42,4.04,21.71,3.32,32.56,1.81s21.08-3.53,31.84-3.46c19.41.14,38.7,5.59,55.44,15.37,9.41,5.5,17.96,12.36,25.31,20.39.67.73,1.87.49,2.36-.3,3.17-5.21,4.3-11.31,3.37-17.32l-1.85,1.85c19.82,4.61,38.95-4.75,57.59-10.1,4.77-1.37,9.62-2.55,14.54-3.18,4.39-.56,8.82-.49,13.21-.95,3.87-.4,7.95-1.15,11.2-3.44s5.36-5.99,5.26-10.03-2.11-7.84-4.89-10.67c-3.25-3.31-7.45-5-12.02-5.5-5.56-.61-11.18.59-16.52,2.03-5.68,1.53-11.32,3.22-16.98,4.84-11.56,3.31-23.13,6.62-34.69,9.93-5.74,1.64-11.48,3.29-17.23,4.93-2.84.81-5.68,1.66-8.54,2.43s-5.65,1.37-8.56,1.22c-5.18-.27-9.49-3.56-13.52-6.5s-8.56-5.77-13.24-7.99c-9.24-4.39-19.28-7.02-29.5-7.67-2.56-.16-5.12-.19-7.68-.11-1.93.07-1.93,3.07,0,3,9.99-.34,19.95,1.27,29.33,4.71,4.69,1.72,9.2,3.91,13.46,6.51s7.87,5.77,12.1,8.19c4.62,2.64,9.43,3.35,14.65,2.41,5.61-1.02,11.12-2.96,16.6-4.53,11.09-3.17,22.17-6.35,33.26-9.52s22.02-6.62,33.14-9.42c8.84-2.22,20.01-3.2,25.7,5.5,1.98,3.03,2.98,6.99,1.2,10.36s-5.21,4.94-8.75,5.73c-3.88.86-7.9.89-11.85,1.1-4.74.25-9.43.98-14.06,2.05-9.5,2.2-18.63,5.68-27.94,8.52-8.97,2.74-18.28,4.97-27.72,4.29-2.28-.16-4.54-.52-6.76-1.04-1.2-.28-2.02.72-1.85,1.85.8,5.2-.35,10.53-3.07,15.01l2.36-.3c-13.25-14.47-30.39-25.17-49.04-31.17-9.29-2.99-18.98-4.79-28.73-5.32-10.59-.58-20.94.82-31.38,2.45-12.35,1.93-25.34,3.79-37.33-.86l.36,2.74c15.02-8.22,32.03-12.63,49.15-12.79,4.82-.04,9.63.25,14.41.87,1.91.25,1.89-2.76,0-3h0Z"/>
        </g>
        <g>
          <path class="cls-12" d="m1215.53,631.27c-29.84-.99-59.71-1.2-89.56-.63-1.79.03-3.76.13-5.1,1.33-1.65,1.46-1.72,3.97-1.63,6.17.26,6.92.84,13.83,1.74,20.69.3,2.27.7,4.71,2.3,6.35,1.37,1.4,3.36,1.97,5.27,2.4,21.46,4.86,43.75.18,65.64-2.09,20.44-2.12,41.1-2.13,61.54,0,3.62.38,7.9.57,10.22-2.24,1.31-1.59,1.62-3.78,1.64-5.84.14-11.94-8.15-23.5-19.5-27.19-14.55-4.74-31.74,2.57-45.18-4.75"/>
          <path class="cls-12" d="m1215.53,629.77c-26.86-.89-53.74-1.15-80.61-.78-3.3.05-6.63,0-9.93.18-2.63.14-5.23.93-6.46,3.47s-.82,5.36-.69,7.97c.16,3.29.39,6.58.7,9.87s.63,6.49,1.12,9.71c.4,2.6,1.25,5.18,3.44,6.81s5.21,2.12,7.88,2.62c3.11.58,6.25.99,9.4,1.25,12.99,1.07,26.02-.49,38.91-2.1s26.26-3.03,39.51-3.31c6.74-.14,13.48-.05,20.22.27,3.28.15,6.57.36,9.84.63,3.01.24,6.02.65,9.03.81,2.36.12,4.85-.03,6.98-1.14,2.4-1.25,3.67-3.67,4.04-6.27.7-4.81-.42-9.9-2.35-14.31-4.03-9.24-12.47-15.99-22.39-17.74-10.94-1.94-22.12,1.14-33.02-.95-2.61-.5-5.13-1.33-7.48-2.58-1.7-.91-3.22,1.68-1.51,2.59,9.46,5.05,20.33,3.47,30.61,3.24,5.14-.11,10.37.09,15.28,1.77,4.43,1.51,8.33,4.35,11.38,7.88s5.09,7.64,6.08,12.08c.85,3.81,1.77,10.57-3.04,12.06-2.24.69-4.69.41-6.97.18-3.19-.33-6.38-.61-9.58-.83-6.23-.44-12.48-.68-18.72-.73-12.63-.09-25.24.65-37.79,2.12-12.17,1.42-24.32,3.31-36.59,3.64-6.23.17-12.5-.06-18.66-1.03-2.67-.42-5.73-.74-8.2-1.92s-3.05-3.54-3.41-6.02c-.91-6.23-1.39-12.55-1.69-18.83-.1-2.09-.75-5.57.97-7.21.88-.84,2.23-.94,3.39-.99,1.58-.07,3.17-.07,4.76-.09,25.38-.43,50.76-.29,76.13.41,3.15.09,6.3.18,9.45.29,1.93.06,1.93-2.94,0-3h0Z"/>
        </g>
        <g>
          <path class="cls-12" d="m1931.23,100.44c-16.25,6.7-29.42,20.48-35.4,37.01-2.77,7.66-3.18,17.94,3.77,22.19,2.25,1.38,4.92,1.85,7.33,2.93,8.45,3.79,11.71,15.94,6.29,23.45,1.86,3.7,6.61,5.02,10.72,4.54,13.76-1.61,20.99-17.39,22.34-31.17,1.35-13.78-.24-28.65,6.83-40.55,1.89-3.18,4.37-6.06,5.66-9.53,3.01-8.09-1.91-17.98-9.93-21.15s-17.89.21-22.94,7.21"/>
          <path class="cls-12" d="m1930.83,98.99c-14.75,6.14-27.07,17.7-33.97,32.14-3.13,6.56-5.6,14.15-3.83,21.45.79,3.26,2.6,6.18,5.4,8.08,3.31,2.23,7.58,2.4,10.68,5.01,5.55,4.69,7.04,13.57,2.81,19.58-.31.44-.24,1.07,0,1.51,2.54,4.77,8.46,5.93,13.39,5.09s8.96-3.41,12.18-6.89c6.99-7.55,9.76-18.09,10.51-28.11.91-12.18-.18-25.52,5.99-36.55,1.56-2.8,3.62-5.29,5.11-8.13,1.27-2.42,2.03-5.02,2.06-7.76.06-5.01-2.12-9.98-5.61-13.54-8.88-9.04-23.87-5.9-30.95,3.71-1.15,1.56,1.46,3.05,2.59,1.51,5.57-7.55,17.61-10.6,25.14-4.13,3.37,2.89,5.64,7.16,5.82,11.63.23,5.59-3.37,9.6-6.12,14.1-6.07,9.94-6.19,21.95-6.7,33.22-.44,9.72-1.57,19.43-6.87,27.85-2.52,4-6.07,7.62-10.58,9.29s-10.86,1.91-13.37-2.81v1.51c3.83-5.45,3.62-12.95.43-18.65-1.59-2.84-4.02-5.32-6.97-6.73-3.44-1.64-7.56-2.03-10.05-5.23-4.17-5.37-2.46-13.59-.25-19.38,2.8-7.31,7.1-14.06,12.42-19.78,6.01-6.47,13.37-11.72,21.53-15.12.75-.31,1.27-.99,1.05-1.85-.19-.71-1.1-1.36-1.85-1.05h0Z"/>
        </g>
        <g>
          <path class="cls-12" d="m1928.42,238.92c-12.55-.96-24.94,5.93-32.43,16.04-7.5,10.12-10.52,23.03-10.45,35.62.1,18.47,6.04,38.64-3.69,54.34-2.09,3.38-4.86,6.4-6.27,10.12-1.41,3.72-.98,8.6,2.34,10.78,2.1,1.38,4.77,1.36,7.27,1.68,6.25.81,12.37,4.06,18.54,2.79,7.37-1.52,11.86-8.79,15.51-15.37,7.07-12.72,14.78-25.93,27.24-33.45,4.39-2.65,9.57-4.82,11.87-9.39,5.21-10.35-8.44-22-5.74-33.27,1.15-4.78,5.17-8.8,5.04-13.71-.19-7.04-8.28-10.71-15.03-12.73-7.27-2.17-14.53-4.35-21.8-6.52"/>
          <path class="cls-12" d="m1928.42,237.42c-12.01-.84-23.77,5.08-31.54,14.05-8.42,9.73-12.2,22.65-12.77,35.33-.57,12.82,2.33,25.52,1.73,38.34-.29,6.1-1.49,12.23-4.47,17.62s-7.95,9.81-8.06,16.24c-.04,2.55.72,5.21,2.54,7.06,2.17,2.2,5.23,2.51,8.14,2.81,6.61.69,12.94,4.13,19.7,2.95,5.56-.97,9.71-5.13,12.83-9.57,3.4-4.84,5.98-10.25,9.02-15.32s6.63-10.44,10.78-15.01c2.04-2.24,4.24-4.35,6.63-6.22s4.9-3.31,7.49-4.78c4.67-2.65,9.43-5.95,10.39-11.64.84-4.97-1.19-9.77-3.12-14.24s-4.37-9.32-3.91-14.34c.53-5.71,5.7-9.97,5.33-15.91-.32-5.22-4.42-8.8-8.8-11.02-5.69-2.87-12.14-4.28-18.21-6.09-3.63-1.09-7.27-2.17-10.9-3.26-1.85-.55-2.65,2.34-.8,2.89,6.95,2.08,13.9,4.16,20.85,6.24,4.58,1.37,9.76,3.02,12.97,6.8,1.47,1.72,2.18,3.96,1.82,6.22-.44,2.75-2.05,5.15-3.25,7.6-1.14,2.32-1.97,4.71-2.05,7.32-.07,2.32.4,4.65,1.08,6.86,2.52,8.1,10.8,18.92,2.59,26.33-2.01,1.81-4.46,3.08-6.79,4.4-2.49,1.41-4.87,2.97-7.11,4.76-4.46,3.56-8.23,7.88-11.59,12.47s-6.53,9.9-9.43,15.06c-2.65,4.7-5.12,9.71-9.05,13.5-1.82,1.76-3.97,3.17-6.44,3.82-3.1.81-6.3.26-9.35-.5s-6.25-1.77-9.48-2.18c-2.54-.32-5.73-.21-7.51-2.4-1.45-1.78-1.61-4.41-1.13-6.57.65-2.92,2.49-5.43,4.19-7.83,3.51-4.94,6.05-10.12,7.2-16.11,2.29-11.93.07-24.12-.66-36.09s.53-24.71,6.43-35.64c5.48-10.15,15-18.17,26.47-20.46,2.72-.54,5.49-.68,8.25-.49,1.93.14,1.92-2.87,0-3h0Z"/>
        </g>
        <g>
          <path class="cls-12" d="m1928.4,240.27c19.71,1.27,39.08,7.54,55.8,18.05.99.62,2.06,1.41,2.17,2.57.08.87-.43,1.68-.93,2.4-3.26,4.72-7.03,9.3-12.08,12.03s-11.64,3.23-16.34-.06-6.25-10.86-2.22-14.95c-4.95-8.35-15-13.38-24.65-12.34"/>
          <path class="cls-12" d="m1928.4,241.77c15.5,1.03,30.79,5.14,44.71,12.05,3.47,1.72,6.87,3.61,10.14,5.68.51.32,1.47.79,1.6,1.46.14.72-.83,1.74-1.19,2.26-1.03,1.47-2.11,2.9-3.29,4.26-4.46,5.17-10.93,9.75-18.13,8.36-3.41-.66-6.31-2.69-7.59-5.98-1.09-2.82-.96-6.19,1.19-8.47.45-.48.58-1.24.23-1.82-5.31-8.8-15.69-14.1-25.94-13.08-1.9.19-1.92,3.19,0,3,9.23-.92,18.55,3.64,23.35,11.6l.23-1.82c-4.81,5.1-2.84,13.68,2.68,17.41,6.88,4.65,15.94,1.96,21.87-2.91,3.22-2.64,5.83-5.97,8.2-9.37,1.13-1.63,1.96-3.51.74-5.34-1.1-1.66-3.24-2.64-4.9-3.62-7.66-4.54-15.84-8.22-24.3-10.98-9.59-3.12-19.57-5.01-29.63-5.68-1.93-.13-1.92,2.87,0,3h0Z"/>
        </g>
        <g>
          <path class="cls-12" d="m1889.28,510.23c-10.92-1.74-22.62,2.82-29.49,11.49-1.1,1.39-2.09,2.88-3.07,4.36-1.14,1.73-2.29,3.45-3.43,5.18,5.1,2.89,10.39,5.45,15.81,7.68,1.48.61,3.34,1.14,4.55.09.91-.79,1.02-2.13,1.43-3.26,1.38-3.85,6.17-5.2,10.26-5.11s8.34,1.02,12.15-.46,6.35-6.94,3.33-9.69c-1.28-1.16-3.11-1.45-4.64-2.25-2.82-1.46-4.41-4.48-6.65-6.73s-6.23-3.61-8.42-1.31"/>
          <path class="cls-12" d="m1889.68,508.78c-7.4-1.13-14.97.27-21.51,3.92-3.17,1.77-6.08,4.07-8.48,6.8-2.95,3.35-5.24,7.29-7.7,10.99-.44.67-.14,1.67.54,2.05,3.45,1.94,6.98,3.75,10.58,5.41,1.56.71,3.13,1.4,4.71,2.06s3.24,1.36,4.95,1.02c1.52-.3,2.55-1.36,3.1-2.77.49-1.27.63-2.56,1.59-3.59,1.78-1.91,4.7-2.48,7.2-2.52,6.13-.11,13.67,2.01,17.64-4.19,1.32-2.06,1.87-4.82.68-7.07-1.48-2.81-4.7-2.83-7.02-4.52-2.75-2-4.18-5.33-7.03-7.24-2.68-1.79-6.4-2.37-8.89.03-1.39,1.34.73,3.46,2.12,2.12,1.73-1.66,4.57-.28,6.05,1.07,1.97,1.8,3.28,4.2,5.34,5.92.98.82,2.05,1.41,3.24,1.89,1.12.45,2.53.77,3.31,1.76,1.24,1.57.22,3.91-.91,5.22-1.81,2.09-4.62,2.41-7.24,2.37-2.88-.04-5.77-.57-8.65-.29-2.36.23-4.77.84-6.71,2.25-.89.65-1.67,1.43-2.25,2.37-.7,1.12-.75,2.46-1.36,3.58-.69,1.29-2.46.47-3.49.06-1.79-.71-3.56-1.51-5.31-2.32-3.45-1.6-6.83-3.34-10.15-5.21l.54,2.05c2.24-3.39,4.33-7.01,6.98-10.1,2.21-2.58,4.85-4.74,7.79-6.43,5.85-3.36,12.83-4.82,19.52-3.8,1.89.29,2.7-2.6.8-2.89h0Z"/>
        </g>
        <g>
          <path class="cls-12" d="m1820.02,563.38c-12.19.92-21.05-12.79-33.2-14.11-9.88-1.08-19.6,8.07-19.11,18-8.8,4.1-17.26,8.91-25.28,14.38-1.21.83-2.46,1.72-3.13,3.03-.74,1.45-.65,3.16-.54,4.78.33,4.81.65,9.62.98,14.44.12,1.78.28,3.67,1.35,5.1,2.12,2.85,6.4,2.41,9.94,2.23s8.17,1.25,8.2,4.8c11.85-12.07,24.87-22.97,38.83-32.52-4.03-.72-3.21-6.91-.71-10.16,6.37-8.27,17.03-13.04,27.44-12.27-10.17-.67-20.16-3.89-28.81-9.28"/>
          <path class="cls-12" d="m1820.02,561.88c-8.91.58-15.92-6.62-23.18-10.66-3.78-2.1-8.05-3.76-12.45-3.52-4.64.26-9.02,2.39-12.32,5.62-3.73,3.64-6.05,8.7-5.86,13.95l.74-1.3c-5.44,2.54-10.76,5.35-15.93,8.42-2.52,1.5-4.99,3.05-7.43,4.67-2.23,1.48-4.91,2.95-5.91,5.58s-.37,5.63-.19,8.3c.22,3.24.44,6.47.66,9.71.17,2.55.21,5.31,1.87,7.41,1.4,1.76,3.5,2.47,5.67,2.71,2.49.27,5-.31,7.47.04,1.77.25,4.47,1.05,4.57,3.22.06,1.26,1.62,2.02,2.56,1.06,11.78-11.97,24.68-22.79,38.53-32.28.99-.68.99-2.45-.36-2.74-2.53-.54-1.74-4.08-1.05-5.81,1.19-2.99,4.09-5.52,6.59-7.42,5.93-4.5,13.37-6.76,20.79-6.25,1.93.13,1.92-2.87,0-3-9.94-.69-19.58-3.84-28.05-9.07-1.65-1.02-3.16,1.58-1.51,2.59,8.93,5.52,19.1,8.75,29.57,9.48v-3c-6.89-.47-13.87,1.32-19.75,4.92-4.99,3.06-10.61,7.83-11.23,14.04-.28,2.8.86,5.77,3.86,6.41l-.36-2.74c-14.06,9.63-27.18,20.6-39.14,32.75l2.56,1.06c-.21-4.4-4.8-6.15-8.61-6.3s-9.64,1.43-10.65-3.74c-.54-2.77-.48-5.75-.67-8.57-.21-3.06-.53-6.13-.61-9.19-.03-1.23.04-2.47.83-3.48s1.92-1.65,2.93-2.33c2.43-1.64,4.89-3.21,7.4-4.73,5.54-3.35,11.25-6.39,17.11-9.13.45-.21.76-.81.74-1.3-.31-8.54,7.3-16.51,15.87-16.59s15.17,6.64,21.99,10.55c3.96,2.27,8.32,3.95,12.95,3.65,1.92-.12,1.93-3.12,0-3h0Z"/>
        </g>
        <g>
          <path class="cls-12" d="m1964.66,526.6c-9.06.24-17.81,5.63-22.1,13.62-.97,1.82-1.76,3.79-3.19,5.27-2.31,2.39-5.82,3.05-9.06,3.83-11.46,2.74-22.2,8.41-30.94,16.31-6.17,5.59-11.3,12.22-16.39,18.81-11.67,15.11-23.34,30.22-35.02,45.32,5.91,3.33,13.54,2.1,19.4-1.34,5.85-3.44,10.32-8.75,14.73-13.91,2.36-2.76,4.85-5.6,8.16-7.1,5.75-2.6,12.81-.68,18.48-3.43,5.64-2.74,8.67-9.52,14.56-11.66,7.18-2.61,15.5,2.77,22.62-.01,10-3.91,8.7-19.18,16.21-26.86,4.98-5.1,13.12-6.02,18.15-11.08,4.39-4.42,5.47-11.77,2.53-17.26-2.94-5.49-9.65-8.67-15.76-7.48,1.01-2.13,2.01-4.27,3.02-6.4-2.15-1.07-4.3-2.14-6.45-3.22"/>
          <path class="cls-12" d="m1964.66,525.1c-9.06.31-17.71,5.23-22.55,12.92-1.27,2.02-2.03,4.48-3.66,6.26s-4,2.48-6.27,3.05c-4.86,1.22-9.57,2.55-14.18,4.55-9.46,4.09-17.84,10.26-24.83,17.81-7.77,8.4-14.46,17.85-21.45,26.9-8.27,10.71-16.54,21.41-24.82,32.12-.56.73-.63,1.85.3,2.36,6.71,3.66,14.94,2.27,21.27-1.56,6.86-4.15,11.46-10.61,16.82-16.36,2.71-2.91,5.68-4.88,9.66-5.49s7.73-.29,11.49-1.25c3.4-.87,6.12-2.91,8.56-5.36,2.27-2.28,4.34-4.91,7.17-6.54,6.38-3.68,14.02.81,20.82.03,6.06-.69,9.8-5.06,12.06-10.39s3.29-10.95,6.5-15.66c3.89-5.69,11.14-6.93,16.61-10.52,5.85-3.83,8.84-10.64,7.4-17.55s-7.35-11.55-14-12.39c-1.66-.21-3.29-.12-4.94.18l1.69,2.2c1.01-2.13,2.01-4.27,3.02-6.4.33-.69.24-1.67-.54-2.05-2.15-1.07-4.3-2.14-6.45-3.22-1.72-.86-3.24,1.73-1.51,2.59,2.15,1.07,4.3,2.14,6.45,3.22l-.54-2.05c-1.01,2.13-2.01,4.27-3.02,6.4-.58,1.23.37,2.45,1.69,2.2,6.04-1.1,12.74,2.52,14.77,8.4,1.03,2.99.95,6.25-.11,9.22s-3.32,5.38-6.05,7.06c-5.42,3.33-12.03,4.75-16.14,9.95-3.42,4.34-4.8,9.8-6.66,14.9-1.69,4.65-4.1,9.56-9.36,10.75-3.29.75-6.77-.07-10.03-.62s-6.76-1.04-10.07-.14c-6.33,1.72-9.23,7.99-14.46,11.33-3.07,1.96-6.7,2.15-10.23,2.36s-7.28.52-10.51,2.29-5.54,4.51-7.85,7.2c-2.44,2.86-4.88,5.72-7.61,8.31-5.21,4.95-12.13,9.05-19.6,7.99-1.7-.24-3.32-.79-4.83-1.61l.3,2.36c7.26-9.39,14.51-18.79,21.77-28.18,6.95-9,13.69-18.24,21.04-26.92,6.74-7.97,14.51-14.74,23.87-19.47,4.39-2.22,9.02-3.95,13.79-5.18,4.56-1.18,9.35-1.91,12.2-6.1,1.48-2.18,2.38-4.68,3.95-6.82,1.45-1.98,3.25-3.76,5.24-5.21,4.02-2.93,8.81-4.67,13.78-4.84,1.93-.07,1.93-3.07,0-3h0Z"/>
        </g>
        <g>
          <path class="cls-12" d="m1745.57,217.36c-8.15-14.1-22.91-24.2-39.01-26.7s-33.22,2.66-45.26,13.64c-16.47,15.01-25.96,41.16-48.04,44.12-5.26.71-10.68-.12-15.87,1.02-14.88,3.27-21.56,20.27-25.82,34.89-2.74,9.4-5.48,18.79-8.22,28.19,7.74,9.01,22.38,8.16,32.82,2.51,10.44-5.65,18.43-14.91,28.11-21.78,30.74-21.77,77.05-18.64,100.79-47.88,1.68-2.07,3.3-4.35,5.7-5.53,3.33-1.64,7.3-.76,10.84.34,7.36,2.29,14.63,5.43,22.34,5.65,7.71.22,16.24-3.45,18.73-10.75,2.8-8.17-3.24-17.13-10.89-21.14-7.65-4.02-16.56-4.58-25.04-6.23-8.48-1.65-17.43-4.97-21.91-12.36"/>
          <path class="cls-12" d="m1746.86,216.61c-10.07-17.27-29.36-28.42-49.4-28.05-10.18.19-20.33,3.15-29,8.5-7.96,4.9-14.05,11.84-19.7,19.17-9.73,12.62-19.91,29.69-37.6,30.91-5.6.39-11.3-.29-16.71,1.59-3.98,1.38-7.51,3.8-10.4,6.84-6.16,6.47-9.69,15.1-12.42,23.48-1.76,5.41-3.26,10.91-4.85,16.37-.88,3.03-1.77,6.05-2.65,9.08-.44,1.51-.88,3.03-1.32,4.54-.36,1.24-1.45,3.22-.64,4.41,1.17,1.72,3.23,3.16,5,4.2s3.91,1.89,6,2.39c4.34,1.05,8.88.94,13.24.09,10.23-2,18.45-8.63,26.13-15.29,4.16-3.61,8.27-7.31,12.79-10.47,3.66-2.56,7.54-4.79,11.55-6.74,16.28-7.94,34.23-11.5,51.26-17.42,8.27-2.88,16.45-6.31,23.8-11.13,3.57-2.34,6.95-5,9.99-8,1.58-1.56,3.07-3.22,4.46-4.95,1.61-2,3.25-4.35,5.76-5.24,2.67-.94,5.62-.27,8.24.49,2.8.82,5.55,1.81,8.32,2.73,5.43,1.8,11.17,3.47,16.95,3.21,8.85-.39,18.39-5.72,19.18-15.37.39-4.73-1.67-9.33-4.58-12.95-3.2-3.97-7.51-6.61-12.26-8.34-10.12-3.69-21.34-3.1-31.26-7.46-4.25-1.87-8.12-4.6-10.6-8.59-1.02-1.64-3.61-.13-2.59,1.51,5.95,9.6,17.64,12.27,28.02,13.96,10.93,1.78,24.3,3.85,29.17,15.4,1.93,4.59,1.37,9.79-2.12,13.46-3.3,3.47-8.24,5.17-12.95,5.39-6.31.28-12.47-1.85-18.36-3.84-5.48-1.85-12.48-4.94-17.99-1.54-2.39,1.47-3.98,3.79-5.74,5.91-1.51,1.82-3.14,3.53-4.86,5.15-3.46,3.24-7.31,6.01-11.39,8.41-8.31,4.89-17.42,8.19-26.58,11.08-18.62,5.88-38.39,10.1-54.95,20.94-9.9,6.48-17.75,15.62-27.82,21.84-8.06,4.98-19.19,7.87-28.14,3.41-2.09-1.04-3.89-2.45-5.43-4.21l.39,1.46c2.96-10.15,5.81-20.35,8.9-30.46,2.23-7.28,4.92-14.6,9.3-20.89,4.37-6.27,10.56-10.61,18.32-11.17,4.86-.35,9.74.1,14.55-.92,3.33-.7,6.54-2,9.47-3.71,6.04-3.53,10.94-8.71,15.32-14.09,4.69-5.75,8.9-11.88,13.61-17.62,5.07-6.19,10.73-11.71,17.77-15.63,7.69-4.29,16.43-6.68,25.23-6.88,16.87-.38,33.45,7.86,43.57,21.35,1.25,1.67,2.39,3.41,3.44,5.21.97,1.67,3.57.16,2.59-1.51h0Z"/>
        </g>
        <g>
          <path class="cls-12" d="m45.88,102.17c14.8,5.66,29.17,12.42,42.97,20.21,2.34,1.32,4.74,2.75,6.2,5,3.51,5.43.25,13.43,4.01,18.69,5.12,7.16,18.1,2.97,23.78,9.7,3.57,4.23,2.11,11.17-2.01,14.87s-10.03,4.71-15.55,4.43c-20.29-1.04-36.53-16.55-50.39-31.41-5.77-6.19-11.92-14.1-9.59-22.24.81-2.81,2.6-5.33,2.99-8.23s-1.57-6.5-4.48-6.13c-1.01.13-.14-1.11-.88-.42"/>
          <path class="cls-12" d="m45.48,103.62c8.96,3.43,17.77,7.27,26.38,11.5,4.29,2.11,8.54,4.32,12.74,6.62,3.46,1.9,8.17,3.78,9.83,7.65,1.43,3.32.87,7.2,1.2,10.71s1.51,6.89,4.45,9.12c4.98,3.77,11.81,2.84,17.46,4.82,2.9,1.02,5.26,3.13,5.73,6.28.5,3.33-.95,6.88-3.38,9.14-5.9,5.49-15.66,4.68-22.86,2.82-15.69-4.05-28.08-15.94-38.91-27.37-2.91-3.07-5.85-6.16-8.19-9.71-2.21-3.36-4.02-7.3-3.59-11.43s3.68-7.5,3.48-11.7c-.08-1.67-.68-3.33-1.75-4.61-.49-.59-1.09-1.1-1.78-1.43-.31-.15-2.23-.88-2.48-.47.04-.07,1.29,1.91.9.53-.11-.39-.35-.73-.7-.93-.77-.46-1.53-.1-2.15.42-1.47,1.26.66,3.37,2.12,2.12l-.02.03-1.16.15.05.02-1.05-1.05c-.1-.52.02.31.06.44.12.35.33.66.62.88.76.57,1.57.15,2.37.48,1.35.55,1.96,2.41,1.97,3.74,0,2.07-1.16,4.06-1.96,5.91-.87,2.01-1.5,4.04-1.58,6.25-.32,8.66,6.51,15.9,12.02,21.76,11.17,11.85,23.88,24.1,39.99,28.61,7.62,2.14,17.03,2.95,24.08-1.36,6.1-3.73,9.6-12.66,4.61-18.72-4.23-5.14-11.69-4.61-17.56-6.06-2.98-.74-5.8-2.14-7.02-5.14-1.42-3.52-.77-7.56-1.22-11.25-.51-4.22-2.45-7.36-5.99-9.73-3.94-2.64-8.33-4.76-12.53-6.95-8.68-4.5-17.56-8.6-26.61-12.3-2.25-.92-4.51-1.81-6.78-2.68-1.8-.69-2.58,2.21-.8,2.89h0Z"/>
        </g>
        <g>
          <path class="cls-12" d="m20.59,310.84c16.44,13.45,17.29,38.45,29.7,55.69,12.6,17.5,34.83,24.4,54.64,32.9,23.58,10.12,45.57,23.93,64.94,40.76-8.07,3.53-16.15,8.19-20.68,15.74s-4.16,18.64,2.89,23.93c2.84,2.13,6.66,3.38,8.16,6.6,2.51,5.4-3.53,10.89-9.14,12.89-9.78,3.49-22.27,2.66-28.56-5.6-7.97-10.44-3.56-28.84-15-35.29-8.35-4.7-18.81,1.06-28.3-.3-10.56-1.52-17.76-11.45-22.13-21.18s-7.49-20.52-15.21-27.89c-12.66-12.09-36.39-14.08-40.41-31.11"/>
          <path class="cls-12" d="m19.53,311.91c9.38,7.76,13.65,19.41,17.73,30.49,2.13,5.8,4.27,11.63,7.08,17.15s6.43,10.64,10.9,14.99c9.31,9.05,21.27,14.65,33.1,19.63,6.22,2.62,12.51,5.07,18.68,7.81,6.87,3.05,13.61,6.42,20.17,10.09,13.15,7.34,25.65,15.86,37.24,25.47,1.48,1.22,2.94,2.46,4.39,3.72l.3-2.36c-9.56,4.2-19.92,10.38-23.3,20.93-1.41,4.41-1.56,9.43.03,13.81.77,2.13,1.91,4.09,3.46,5.75,1.71,1.82,3.9,2.97,6,4.28,1.96,1.22,4.03,2.85,4.03,5.38,0,2.39-1.75,4.43-3.48,5.9-3.76,3.19-9.03,4.48-13.86,4.79s-9.58-.4-13.67-2.83-6.32-6.03-7.73-10.25c-2.65-7.9-2.24-17.15-6.88-24.32-2.56-3.95-6.59-6.43-11.25-7.05-5.63-.75-11.2.9-16.78,1.43-5.35.51-10.26-.41-14.7-3.53-4.19-2.95-7.35-7.22-9.87-11.62-5.5-9.62-7.88-20.81-14.73-29.69-5.59-7.25-13.8-11.25-21.86-15.15-7.01-3.39-15.21-6.96-19.43-13.88-1-1.64-1.69-3.39-2.15-5.26s-3.35-1.08-2.89.8c2.03,8.33,8.83,13.57,16.03,17.45,7.66,4.14,16.19,7.14,22.97,12.74,8.75,7.22,12.02,18.43,16.44,28.44,4.06,9.19,10.5,19.06,20.7,22.03,5.54,1.61,11.25.49,16.81-.35,5.14-.78,10.86-1.34,15.26,2.03,3.23,2.47,4.75,6.41,5.74,10.23,1.1,4.26,1.64,8.63,2.68,12.9s2.58,8.43,5.46,11.77c3.2,3.71,7.87,5.92,12.65,6.73s9.97.45,14.74-.91,10.04-4.28,12.1-9.13c.96-2.26.93-4.74-.24-6.92s-3.39-3.62-5.5-4.88-4.03-2.46-5.45-4.45c-1.32-1.85-2.11-4-2.49-6.23-1.88-11.02,6.38-19.59,15.21-24.64,2.42-1.38,4.93-2.59,7.48-3.71.86-.38.98-1.77.3-2.36-11.35-9.84-23.56-18.68-36.48-26.35s-25.74-13.46-39.23-18.99c-11.91-4.88-24.23-9.88-34.26-18.15-4.9-4.04-9.07-8.82-12.26-14.32s-5.3-10.96-7.42-16.66c-4.14-11.12-7.93-23-16.3-31.78-1.05-1.1-2.16-2.12-3.33-3.09-1.48-1.22-3.61.89-2.12,2.12h0Z"/>
        </g>
        <g>
          <path class="cls-12" d="m114.51,546.96c15.64,8.19,34.75,9.45,51.33,3.38,1.98-.72,4.05-1.56,6.12-1.21,5.79.97,6.22,8.89,7.72,14.57,2.11,8.04,9.11,14.14,16.93,16.99s16.36,2.88,24.65,2.14c5.56-.49,11.47-1.25,16.45,1.27,4.94,2.5,7.88,7.72,12.23,11.14,11.17,8.79,28.29,3.85,40.78,10.64.99.54,2.06,1.35,2.06,2.48,0,1.23-1.26,2.03-2.36,2.57-14.84,7.2-32.02,9.47-48.23,6.38-11.01-2.1-22-6.6-33.05-4.74-8.64,1.46-16.18,6.68-24.62,9.03-8.44,2.35-19.5.41-22.61-7.78-1.3-3.42-.97-7.42-2.89-10.53-5.58-9.04-22.11-1.55-29.12-9.53-5.78-6.58.13-17.38-3.22-25.47-3.43-8.27-15.88-12.27-15.15-21.2,4.73-.06,9.45-.12,14.18-.18"/>
          <path class="cls-12" d="m113.76,548.25c14.23,7.39,31.08,9.32,46.62,5.34,1.91-.49,3.8-1.07,5.66-1.74s3.93-1.66,5.96-1.2c2.63.6,3.74,3.38,4.42,5.71.85,2.89,1.2,5.91,2.12,8.78,1.07,3.31,2.91,6.31,5.26,8.87,5.04,5.52,12.11,8.7,19.39,9.94,4.24.72,8.55.88,12.84.72s8.38-.81,12.59-.85c3.92-.03,7.7.7,10.84,3.17,2.83,2.23,4.98,5.2,7.57,7.68,5.15,4.94,11.81,6.79,18.71,7.68s14.08.92,20.73,3.28c.8.28,1.58.6,2.34.96.7.34,1.76.71,2.24,1.37.83,1.13-2.69,2.29-3.4,2.61-3.78,1.69-7.71,3.05-11.71,4.1-8.14,2.13-16.61,2.9-25,2.29s-17.01-3.36-25.55-5.09c-4.27-.86-8.66-1.45-13.03-1.17-4.1.26-8.02,1.34-11.83,2.84-6.9,2.72-13.7,6.96-21.27,7.44-5.53.35-12.27-1.04-15.26-6.23-1.86-3.23-1.5-7.18-2.89-10.59-1.07-2.62-3.05-4.64-5.64-5.77-5.09-2.22-10.9-1.5-16.29-2.13-2.45-.29-5.05-.87-7.04-2.42-2.46-1.92-3.31-4.92-3.41-7.92-.22-6.64,2.03-13.66-1.47-19.82-2.89-5.1-8.19-8.06-11.87-12.47-1.57-1.89-2.54-4.04-2.37-6.53l-1.5,1.5c4.73-.06,9.45-.12,14.18-.18,1.93-.03,1.93-3.03,0-3-4.73.06-9.45.12-14.18.18-.85.01-1.45.68-1.5,1.5-.4,6.02,4.44,10.12,8.52,13.75,2.19,1.95,4.47,3.96,5.98,6.51,1.74,2.92,1.87,6.3,1.69,9.61-.34,6.39-1.92,14.2,3.69,18.91,4.48,3.75,10.77,3.53,16.28,3.82,2.64.14,5.42.3,7.88,1.34,2.81,1.18,4.26,3.51,4.9,6.42.78,3.53,1.02,7.07,3.26,10.07,1.83,2.44,4.39,4.1,7.23,5.16,6.46,2.4,13.46,1.35,19.73-1.06,7.84-3.01,15.25-7.57,23.84-7.95,9.12-.4,17.88,2.78,26.67,4.67s17.17,2.29,25.77,1.3c8.47-.98,16.74-3.26,24.48-6.85,1.56-.72,3.38-1.51,4.06-3.22s-.26-3.39-1.67-4.42c-2.77-2.02-6.55-3.03-9.86-3.72-7.13-1.49-14.5-1.31-21.61-2.92-3.38-.77-6.64-1.98-9.47-4.01-2.98-2.14-5.19-5.17-7.77-7.73-2.74-2.72-5.91-4.78-9.76-5.5-4.12-.77-8.3-.32-12.44.05-8.59.77-17.73.86-25.81-2.6-6.41-2.74-12.26-7.88-14.33-14.71-1.54-5.07-1.49-12.97-7-15.67-3.85-1.89-7.78.28-11.49,1.45-3.91,1.23-7.94,2.09-12.02,2.51-8.16.85-16.45.14-24.34-2.14-3.88-1.12-7.63-2.62-11.22-4.48-1.71-.89-3.23,1.7-1.51,2.59h0Z"/>
        </g>
        <g>
          <path class="cls-12" d="m276.41,572.55c36.55-31.09,80.26-52.32,123.46-73.22,3.5-1.7,7.2-3.43,11.09-3.22s7.92,3.12,7.93,7.02c0,4.34-4.45,7.05-7.93,9.64-20,14.83-20.86,48.71-43.49,59.1-8.91,4.09-19.18,3.34-28.94,2.51-21.18-1.8-42.36-3.59-63.54-5.39"/>
          <path class="cls-12" d="m277.47,573.61c18.74-15.91,39.46-29.3,60.88-41.29,10.82-6.06,21.82-11.77,32.9-17.32,5.48-2.74,10.98-5.44,16.48-8.13,2.75-1.34,5.5-2.68,8.26-4.01s5.53-2.82,8.4-3.95c2.68-1.06,5.72-1.85,8.54-.9,2,.67,4.07,2.29,4.4,4.5.35,2.35-1.31,4.29-2.94,5.74-1.76,1.56-3.76,2.81-5.59,4.28-6.63,5.32-11.12,12.8-14.91,20.29-7.3,14.43-13.34,33.66-30.5,38.98-5.76,1.79-11.85,1.89-17.83,1.58-6.5-.34-12.98-1.02-19.47-1.57-13.73-1.16-27.47-2.33-41.2-3.49-3.31-.28-6.62-.56-9.93-.84-1.92-.16-1.91,2.84,0,3,14.23,1.21,28.46,2.41,42.69,3.62,6.95.59,13.9,1.18,20.85,1.77,6.29.53,12.64,1.03,18.93.24,5.41-.68,10.64-2.36,15.18-5.44,3.49-2.37,6.44-5.36,8.99-8.69,5.36-7,8.87-15.19,12.65-23.09s7.77-15.82,14.06-21.92c3.37-3.27,8.08-5.41,10.69-9.41,2.96-4.53.58-9.88-4.1-11.96-5.79-2.58-11.8.51-17.01,3.03-5.78,2.8-11.55,5.59-17.31,8.42-11.4,5.59-22.75,11.3-33.94,17.31-22.39,12.03-44.16,25.32-64.06,41.18-2.44,1.95-4.86,3.94-7.24,5.96-1.47,1.25.66,3.36,2.12,2.12h0Z"/>
        </g>
        <g>
          <path class="cls-12" d="m264.01,428.58c-14.4-8.7-33.9-8.02-47.67,1.64,8.67,7.49,15.51,17.07,19.77,27.7.73,1.82,1.43,3.74,2.86,5.08,4.24,3.98,10.95.48,16.11-2.22,8.71-4.56,18.82-6.41,28.59-5.23-4.11-11.11-11.3-21.06-20.55-28.45"/>
          <path class="cls-12" d="m264.76,427.29c-11.59-6.92-26.28-8.16-38.96-3.6-3.62,1.3-7.06,3.05-10.23,5.24-.74.51-1.09,1.68-.3,2.36,8.87,7.71,15.38,17.3,19.83,28.14,1.02,2.48,2.32,4.85,4.85,6.05,2.3,1.09,4.91.96,7.31.32,2.65-.7,5.15-1.94,7.57-3.2,2.71-1.4,5.45-2.66,8.36-3.59,6.61-2.12,13.59-2.76,20.48-1.96.93.11,1.76-1.05,1.45-1.9-4.25-11.37-11.47-21.5-20.94-29.11-1.49-1.2-3.63.91-2.12,2.12,9.05,7.28,16.09,16.9,20.17,27.79l1.45-1.9c-5.97-.69-12.05-.31-17.89,1.11-2.84.69-5.6,1.64-8.28,2.81s-5.1,2.62-7.73,3.77c-2.15.93-4.69,1.87-7.07,1.49-2.67-.43-3.92-2.67-4.85-4.97-2.13-5.24-4.65-10.25-7.85-14.93-3.58-5.23-7.81-10-12.6-14.16l-.3,2.36c13.46-9.36,32.07-10.06,46.15-1.64,1.66.99,3.17-1.6,1.51-2.59h0Z"/>
        </g>
      </g>
      <g id="BottomRockPlants">
        <g>
          <g>
            <path class="cls-14" d="m1329.06,525.69c-15.28-29.8-32.86-60.13-60.92-78.42-1.62-1.06-3.39-2.1-5.32-2.07-3.53.06-5.95,3.58-7.15,6.9-4.48,12.45-.31,26.7,7.5,37.38s18.83,18.5,29.65,26.12c16.53,11.64,33.06,23.29,49.59,34.93"/>
            <path class="cls-2" d="m1269.72,461.34c-.2-2.57-.46-5.3-2.04-7.34-1.57-2.04-4.96-2.88-6.71-.99-.67.72-.99,1.7-1.24,2.65-1.4,5.35-1.31,11.09.27,16.39.8,2.68,3.08,5.78,5.7,4.79,1.94-.73,2.43-3.2,2.63-5.26.46-4.82.93-9.65,1.39-14.47"/>
          </g>
          <g>
            <path class="cls-8" d="m1382.4,505.28c-3-7.81-6.01-15.62-9.01-23.43-9.94-25.85-19.96-52.02-23.39-79.5-1.39-11.14-1.64-22.73,2.19-33.28,3.83-10.55,12.4-19.92,23.4-22.14,12.41-2.51,24.63,4.17,35.53,10.61,3.31,1.95,6.71,3.99,8.96,7.11,3.01,4.17,3.48,9.61,3.61,14.76,1.2,45.38-15.35,89.12-31.66,131.48"/>
            <path class="cls-5" d="m1413.14,371.8c-.62-3.89-3.86-6.84-7.29-8.77-7.24-4.06-15.8-6.91-24.1-7.35-4.57-.24-7.36.65-11.49,2.64s-9.28,7.76-7.91,12.13c1.41,4.5,6.54,6.48,11.04,7.86,6.07,1.87,12.13,3.73,18.2,5.6,4.74,1.46,9.63,2.93,14.56,2.46s10.49-3.18,10.41-8.13c-.17-10.54-7.03-13.85-11.17-15.54"/>
          </g>
          <g>
            <path class="cls-10" d="m1378.01,545.67c-38.13-35.65-70.43-79.67-79.71-130.08-2.5-13.56-2.26-29.8,9.01-38.26,8.6-6.45,20.59-5.98,31.46-5.21,3.41.24,6.9.5,10.05,1.81,5.49,2.29,9.09,7.39,11.94,12.46,23.36,41.63,14.7,92.75,25.63,138.9"/>
            <path class="cls-9" d="m1344.54,381.99c-6.91-2.42-14.3-4.37-21.5-3.04-12.21,2.25-21.46,15.01-19.82,27.31.08.58.18,1.17.43,1.7.47,1,1.42,1.68,2.38,2.22,4.89,2.78,10.9,3.06,16.37,1.78,5.47-1.28,10.5-3.99,15.27-6.96,4.49-2.79,9.07-6.14,10.89-11.1s-.63-11.75-5.85-12.55"/>
          </g>
          <g>
            <path class="cls-14" d="m1384.21,550.8c-5.81-36.19-7.3-73.07-4.44-109.62.56-7.23,1.36-14.64,4.67-21.09,7.69-14.98,28.71-20.39,43.67-12.66,14.96,7.73,22.8,26.16,20.1,42.79-1.19,7.29-4.09,14.16-6.98,20.96-11.86,27.94-23.72,55.87-35.57,83.81"/>
            <path class="cls-2" d="m1428.28,420.24c-2.07-3.23-6.13-4.43-9.84-5.38-4.47-1.15-9.03-1.31-13.64-1.05s-9.37,2.18-11.93,6.01c-3.35,5.01-2.07,12.05,1.5,16.91,3.57,4.86,8.98,7.99,14.31,10.8,4.14,2.19,7.13,3.1,11.75,3.86,3,.5,7.09-.16,9.89-1.36,2.28-.98,4.84-3.13,5.96-5.35,2.78-5.48,2.52-8.05.6-13.89-1.91-5.84-6.56-11.81-12.41-13.71"/>
          </g>
        </g>
        <g>
          <g>
            <path class="cls-8" d="m100.24,259.68c19.79-23.71,41.49-45.82,64.82-66.04,6.88-5.96,14.66-12.06,23.76-12.25,12.78-.26,22.59,11.02,29.24,21.93,7.24,11.89,13.27,25.25,12.64,39.15-.11,2.31-.42,4.7-1.63,6.68-1.46,2.39-4.02,3.86-6.55,5.07-28.23,13.46-63.81,5.51-90.64,21.58-6.52,3.91-13.64,9.37-20.87,7.02-8.44-2.74-10.18-14.27-7.5-22.73"/>
            <path class="cls-5" d="m219.16,242.44c-2.38-18.62-13.94-34.58-25.13-49.65-.81-1.1-1.88-2.31-3.24-2.17-.72.07-1.34.53-1.89,1-6.08,5.11-9.06,13.65-7.5,21.44.78,3.9,2.59,7.51,4.54,10.97,5.59,9.92,13.41,19.66,24.43,22.54,2.47.64,5.33.85,7.35-.71s2.14-5.39-.25-6.27"/>
          </g>
          <g>
            <path class="cls-10" d="m88.97,219.36c3.76,6.71.7,16.84,6.83,21.49,5.01,3.8,12.13.76,17.6-2.34,25.85-14.68,51.71-29.35,77.56-44.03,7.94-4.51,16.84-10.48,17.41-19.59.52-8.47-6.51-15.31-13.1-20.66-11.41-9.26-23.26-17.97-35.51-26.08-4.36-2.89-9.3-5.82-14.46-5-5.3.85-9.13,5.38-12.33,9.69-18.74,25.18-33.51,53.3-43.62,83.02"/>
            <path class="cls-9" d="m190.67,163.72c-9.95-12.47-21.51-24.97-36.9-29.18-3.62-.99-7.98-1.31-10.67,1.32-2.41,2.35-2.52,6.16-2.1,9.5,1.28,10.02,6.11,19.55,13.44,26.49,7.33,6.95,17.1,11.27,27.17,12.02,3.22.24,6.69.05,9.31-1.83,3.75-2.7,4.55-8.18,3.11-12.57s-4.64-7.95-7.75-11.36"/>
          </g>
          <g>
            <path class="cls-10" d="m128.69,380.86c-8.84-6.87-18.63-15.84-17.3-26.96.75-6.3,5.03-11.54,9.13-16.39,16.5-19.5,33.42-39.37,55.39-52.4,1.66-.99,3.47-1.96,5.4-1.85,1.68.1,3.19,1,4.63,1.88,9.13,5.61,18.37,11.31,25.81,19.03s12.99,17.82,13.05,28.54c.03,5.09-1.41,10.56-5.38,13.76-1.85,1.49-4.1,2.38-6.32,3.23-29.02,11.14-58.83,20.22-89.14,27.16"/>
            <path class="cls-9" d="m208.38,339.45c2.42.19,4.73-1.36,6.04-3.4s1.75-4.52,1.95-6.94c.35-4.27-.06-8.78-2.3-12.43-1.59-2.59-3.98-4.58-6.35-6.49-5.77-4.67-11.65-9.22-17.61-13.64-2.6-1.92-5.78-3.93-8.85-2.91-3.36,1.11-4.61,5.18-5.04,8.7-.49,3.99-.56,8.11.6,11.97,1.18,3.92,3.57,7.37,6.32,10.41,6.72,7.42,15.79,12.67,25.57,14.8"/>
          </g>
        </g>
        <g>
          <g>
            <path class="cls-15" d="m573.41,607.54c1.22-7.93-5.34-14.67-11.02-20.34-6.88-6.86-13.37-14.41-17.03-23.4-3.67-9-4.16-19.71.67-28.14,4.59-8,13.26-13.01,17.92-20.97,5.45-9.3,4.42-21.36-.35-31.03-4.77-9.66-12.81-17.31-21.22-24.06,4.94-4.52,13.05-3.72,18.62-.02,5.57,3.7,9.2,9.63,12.65,15.36,2.8,4.66,5.7,9.65,5.55,15.09-.08,2.94-1.07,5.77-2.17,8.49-2.73,6.75-6.28,13.17-10.54,19.07-2.77,3.85-5.94,7.67-6.88,12.32-1.46,7.23,2.83,14.35,7.65,19.94s10.52,10.83,12.81,17.85c4.28,13.13-5.14,26.96-16.24,35.18"/>
            <path class="cls-15" d="m581.98,610.33c12.84-9.83,18.97-27.64,14.91-43.3-3.5-13.5-13.83-25.66-12.33-39.53,1.32-12.12,11.25-21.21,20.25-29.45,8.99-8.24,18.34-18.37,17.85-30.55-.53-13.18-12.7-23.14-25.21-27.29,8.73,1.95,17.89,4.13,24.49,10.17,3.56,3.26,6.12,7.44,8.63,11.56,2.95,4.86,5.94,9.85,7.05,15.42,2.62,13.15-5.56,25.67-11.51,37.69-5.95,12.02-9.11,28.45.94,37.32,5.41,4.78,13.71,6.23,17.55,12.35,3.5,5.58,1.7,13.29-2.63,18.25-4.33,4.96-10.64,7.71-16.89,9.8-11.12,3.72-22.76,5.88-34.47,6.39,2.62-.32,5.25-.64,7.87-.96"/>
            <path class="cls-13" d="m587.19,599.82c3.95,1.34,7.23-1.65,9.49-4.55,1.29-1.66,2.38-3.46,3.67-5.12,1.46-1.89,3.07-3.66,4.67-5.43,5.91-6.56,12.59-14.64,10.67-24.15-1.65-8.2-9.76-12.31-13.74-19.12-4.48-7.67-2.85-17.46.78-25.13,4.64-9.8,12.45-17.62,18.26-26.68,1.05-1.63-1.55-3.13-2.59-1.51-9.31,14.48-24.97,28.31-21.74,47.33.7,4.09,2.53,7.75,5.16,10.94,2.47,3,5.47,5.51,7.86,8.57s3.81,6.97,3.16,11.06c-.71,4.48-3.13,8.51-5.95,11.99-3.23,3.98-6.94,7.54-9.94,11.7-1.9,2.64-4.88,8.6-8.96,7.22-1.83-.62-2.62,2.27-.8,2.89h0Z"/>
            <path class="cls-13" d="m573.58,601.22c.76-9.69,1.37-19.89-3.07-28.86-3.63-7.34-9.97-12.81-14.22-19.73-2.27-3.7-3.69-7.74-3.71-12.12-.02-4.88,1.46-9.69,3.46-14.11,4.04-8.95,10.31-16.82,13.16-26.32,2.53-8.44,1.74-18.95-5.26-25.09-1.45-1.27-3.58.85-2.12,2.12,6.04,5.3,6.71,14.25,4.66,21.57-2.62,9.34-8.83,17.07-12.84,25.79s-5.71,17.78-1.63,26.52c3.4,7.28,9.61,12.71,13.93,19.4,2.81,4.35,4.41,9.17,4.93,14.32.55,5.49.14,11.02-.28,16.5-.15,1.93,2.85,1.92,3,0h0Z"/>
          </g>
          <g>
            <path class="cls-3" d="m1628.23,293.19c-4.6,3.82-11.2-1-15.13-5.5-8.09-9.28-16.73-20.28-14.91-32.45.59-3.99,2.32-7.87,2.01-11.89-.55-7.15-7.6-12.41-14.7-13.41s-14.22,1.22-21.04,3.42c9.12,3.18,15.32,13.2,14.08,22.78-.75,5.78-3.85,11.15-3.92,16.97-.09,7.15,4.6,13.76,10.7,17.49,6.1,3.73,13.42,4.94,20.57,5.16,6.09.18,13.19.14,16.91,4.96,3.08-4.81,2.25-11.75-1.87-15.69-4.21-4.03-11.65-5.85-12.27-11.65-.38-3.56,2.25-6.65,4.63-9.32,5.97-6.7,11.69-14.34,12.59-23.26.9-8.92-4.98-19.06-13.93-19.67,12.42,7.18,24.83,14.35,37.25,21.53,1.54.89,3.14,1.84,4.08,3.34,2.2,3.51-.14,8.13-3.04,11.08-2.91,2.95-6.59,5.57-7.66,9.57-1.23,4.6,1.31,10.15-1.58,13.94-1.39,1.82-3.67,2.65-5.64,3.83-6.42,3.83-9.64,12.31-7.37,19.44-11.18,1.7-22.84.08-33.13-4.6-5.6-2.55-10.83-5.98-16.74-7.73s-12.93-1.45-17.4,2.79c-4.78,4.54-5.91,12.78-12,15.31-4.97,2.07-10.45-.88-15.71-2s-12.67,1.91-11.49,7.16c5.43-3.83,13.13-4.13,18.84-.71s9.09,10.34,8.27,16.94c6.76,1.11,13.65,2.21,20.44,1.26s13.58-4.3,17.03-10.22c2.15-3.69,3.46-8.68,7.57-9.82,3.96-1.1,7.64,2.24,11.55,3.49,5.89,1.88,12.46-1.28,16.4-6.05,3.94-4.77,5.82-10.87,7.61-16.79"/>
            <path class="cls-11" d="m1623.6,305.68c-10.42,3.04-21.04-.75-31.09-3.49-5.16-1.41-10.59-2.86-15.98-2.93-2.59-.03-4.69,1.02-5.79,3.42-.89,1.94-1.31,3.9-2.79,5.52-2.99,3.25-8.11,4.71-12.24,2.86-1.75-.79-3.27,1.8-1.51,2.59,4.01,1.8,8.56,1.5,12.4-.62,1.83-1.01,3.41-2.43,4.61-4.13.65-.92,1.11-1.92,1.5-2.97s.65-2.46,1.58-3.17,2.37-.5,3.46-.42c1.43.11,2.85.29,4.26.52,2.77.46,5.51,1.12,8.22,1.84,5.35,1.42,10.64,3.11,16.08,4.16,6,1.16,12.15,1.45,18.07-.27,1.85-.54,1.06-3.44-.8-2.89h0Z"/>
            <path class="cls-11" d="m1620.92,291.78c-8.54-.61-16.9-3.24-24.25-7.64-3.19-1.91-7.47-4.35-8.76-8.08-.73-2.11-.1-4.28.59-6.31s1.48-4.16,1.87-6.36c.87-4.91.46-9.97-1.24-14.66-.65-1.8-3.55-1.02-2.89.8,1.61,4.45,2.05,9.28,1.07,13.93-.93,4.39-3.82,8.81-2.29,13.4,1.36,4.08,5.23,6.75,8.69,8.97,3.82,2.45,7.94,4.42,12.23,5.91,4.83,1.68,9.88,2.67,14.98,3.04,1.93.14,1.92-2.86,0-3h0Z"/>
            <path class="cls-11" d="m1630.64,287.54c2.09-5.98-6.84-8.73-5.52-14.47.73-3.18,3.39-5.71,5.62-7.92s4.08-4.57,5.15-7.51.9-6.47-1.61-8.71c-1.43-1.28-3.56.83-2.12,2.12,2.73,2.45.88,6.41-.83,8.9-2.2,3.2-5.48,5.46-7.56,8.79s-2.42,6.93-.28,10.2c.92,1.41,2.09,2.61,3.11,3.94.89,1.16,1.67,2.37,1.15,3.85-.64,1.83,2.26,2.61,2.89.8h0Z"/>
          </g>
          <g>
            <path class="cls-6" d="m1734.27,231.67c10.32-6.45,15.19-20.44,11.11-31.9-4-11.22-14.69-18.39-22.52-27.37-13.42-15.4-18.46-37.68-12.98-57.36,2.15-7.71,5.77-14.95,7.72-22.71,1.95-7.76,2-16.55-2.56-23.13-4.56-6.58-14.8-9.43-20.86-4.19,6.31,6.32,7.65,16.28,5.88,25.03-1.77,8.75-6.18,16.7-10.07,24.74-4.99,10.3-9.27,21.26-9.51,32.7-.24,11.44,4.22,23.51,13.69,29.94,6.84,4.65,16.13,6.46,20.43,13.52,4.31,7.07,1.87,16.96,6.76,23.64,4.67,6.38,15.39,9.19,15.23,17.1-.07-2.18-.13-4.36-.2-6.54"/>
            <path class="cls-6" d="m1739.13,230.89c3.79,3.32,9.01-1.61,12.41-5.32,7.46-8.16,18.56-12.07,26.63-19.63,11.05-10.37,15.04-27.6,9.67-41.77-5.41-14.26-19.07-24.95-21.51-40-1.9-11.75,3.52-23.26,6.43-34.8,2.91-11.54,2.15-26.08-7.96-32.36-5.33-3.31-12.06-3.43-18.26-2.48-1.09.17-2.22.38-3.11,1.04-3.72,2.74.2,8.24,2.95,11.96,6.19,8.38,5.16,20.13,1.74,29.97-3.41,9.85-8.9,19-11.02,29.2-2.12,10.2.2,22.44,9.11,27.86,3.18,1.93,6.93,2.83,9.98,4.96,5.55,3.87,7.78,11.04,8.31,17.79,1.51,19.21-8.59,38.88-25.09,48.84"/>
            <path class="cls-6" d="m1742.11,242.77c-3.29-6.86-1.43-15.35,3-21.54s11.03-10.45,17.74-14.03c14.59-7.79,30.49-13.1,46.83-15.64,5.72-.89,11.78-1.55,16.48-4.94,7.83-5.64,9.14-16.57,9.77-26.2.76-11.59,1.37-23.88-4.16-34.1-4.84-8.93-14.39-16.96-12.41-26.93.7-3.53,2.59-7.9-.2-10.16-1.28-1.04-3.09-1.07-4.74-1.06-5.25.06-10.51.11-15.76.17-.87,7.1,5.15,13.41,5.33,20.56.25,9.63-10.05,18.15-7.26,27.38,2.19,7.22,11.32,10.27,14.23,17.23,3.79,9.06-5.27,18.76-14.7,21.48-9.43,2.72-19.73,1.57-28.96,4.91-10.69,3.86-18.64,13.48-22.45,24.2-3.81,10.71-3.88,22.43-2.43,33.7"/>
            <path class="cls-6" d="m1685.08,222.13c-6.05,3.6-13.55-.84-19.14-5.1-7.28-5.56-15.26-12.42-15.36-21.58-.09-7.52,5.31-14.09,6.21-21.55,1.78-14.85-13.66-25.32-20.95-38.38-6.54-11.72-6.19-26.97.88-38.37,3.2-5.17,7.76-9.8,8.85-15.78,1.5-8.15-3.83-15.79-6.32-23.7-2.49-7.91.57-19.45,8.86-19.31,1,.02,2.04.24,2.79.91,1.44,1.26,1.28,3.49,1.27,5.41-.06,10.38,7.33,19.05,13.25,27.58,5.92,8.53,10.71,20,5.4,28.92-3.46,5.81-10.37,8.84-13.98,14.55-5.38,8.49-1.74,19.86,3.91,28.17,5.65,8.31,13.27,15.54,16.55,25.04,5.14,14.88-1.59,31.07-1.36,46.81.06,3.78.59,7.75,2.84,10.8s6.66,4.75,9.97,2.93"/>
            <path class="cls-7" d="m1675.53,221.52c-.64-4.45-3.22-8.19-5.65-11.85-2.66-4.01-4.72-7.99-4.93-12.9-.21-5.04.95-10,1.74-14.94s1.22-10.16.09-15.23c-2.19-9.79-8.7-17.75-14.06-25.96-5.5-8.43-10.53-18.64-7.1-28.83,1.78-5.3,5.11-9.94,6.73-15.3s1.36-11.65-.8-17.02c-.71-1.77-3.62-1-2.89.8,1.96,4.85,2.34,10.19.86,15.23-1.4,4.77-4.19,8.98-6.06,13.56s-2.42,9.54-1.56,14.51,3.15,10.09,5.77,14.61c5,8.63,12.02,16.27,15.27,25.85,1.65,4.86,1.85,9.76,1.19,14.82s-1.89,9.94-2.15,14.99c-.29,5.55,1.04,10.56,3.97,15.27,2.61,4.2,5.96,8.16,6.69,13.2.27,1.9,3.16,1.09,2.89-.8h0Z"/>
            <path class="cls-7" d="m1744.03,227.11c-3.6-16.71-11.55-32.37-22.79-45.24-2.8-3.2-5.8-6.23-8.98-9.04s-6.88-5.37-10.13-8.28c-3.41-3.05-5.84-6.59-6.89-11.09s-.86-9.12-.43-13.64c1.02-10.84,4.25-21.45,9.33-31.07.9-1.71-1.69-3.22-2.59-1.51-4.58,8.65-7.72,18.04-9.15,27.73-1.31,8.84-2.14,19.34,3.34,27.03,2.62,3.68,6.24,6.36,9.76,9.11s6.66,5.55,9.69,8.64c6.11,6.22,11.35,13.25,15.62,20.85,4.79,8.53,8.27,17.74,10.33,27.31.41,1.89,3.3,1.09,2.89-.8h0Z"/>
            <path class="cls-7" d="m1743.92,230.52c5.3-10.47,14.38-18.12,22.18-26.63,7.56-8.24,14.62-18.49,14.74-30.1.1-10.62-5.99-19.64-12.96-27.12-3.57-3.84-7.43-7.39-11.2-11.03-1.95-1.87-4.32-3.82-5.2-6.47s.12-5.52,1.34-7.96c1.45-2.89,3.28-5.57,4.55-8.55s2.03-6.11,2.45-9.32c.89-6.73.25-13.53-.45-20.24-.2-1.9-3.2-1.92-3,0,.61,5.87,1.18,11.8.72,17.7-.23,2.96-.77,5.91-1.71,8.73s-2.32,5.12-3.72,7.58c-2.74,4.81-5.19,10.4-1.76,15.55,1.49,2.24,3.55,4.05,5.48,5.9s3.8,3.61,5.67,5.44c7.12,6.96,14.53,14.89,16.4,25.04,2.09,11.37-4.26,22.11-11.39,30.41-8.37,9.76-18.82,17.9-24.73,29.57-.87,1.72,1.72,3.24,2.59,1.51h0Z"/>
            <path class="cls-7" d="m1744.45,225.38c10.94-17.42,24.8-36.61,46.85-39.21,5.33-.63,10.79-.7,16.02-2.07s9.64-4.21,12.6-8.77,4.76-10.22,5.97-15.51,1.68-10.57.42-15.72c-.67-2.73-1.88-5.3-3.62-7.51-2.03-2.58-5-4.32-6.79-7.08-3.44-5.29-2.27-12.28-1.24-18.11.34-1.89-2.55-2.7-2.89-.8-.96,5.37-1.88,11.15-.25,16.49.81,2.68,2.29,4.98,4.3,6.92s4.26,3.68,5.73,6.17c2.63,4.45,2.86,9.89,2.18,14.9-.71,5.3-2.34,10.74-4.64,15.57-1.21,2.54-2.73,4.93-4.87,6.79-1.91,1.65-4.23,2.76-6.64,3.48-5.09,1.53-10.46,1.61-15.7,2.19s-10.21,1.81-14.98,4.04-8.87,5.15-12.72,8.53c-9.05,7.94-15.95,18.07-22.31,28.2-1.03,1.64,1.56,3.15,2.59,1.51h0Z"/>
          </g>
        </g>
      </g>
    </g>
  </g>
</svg>