<?xml version="1.0" encoding="UTF-8"?>
<svg id="Layer_2" data-name="Layer 2" xmlns="http://www.w3.org/2000/svg" xmlns:xlink="http://www.w3.org/1999/xlink" viewBox="0 0 852.21 374.71">
  <defs>
    <style>
      .cls-1 {
        fill: #2e7ae3;
      }

      .cls-1, .cls-2, .cls-3, .cls-4, .cls-5, .cls-6, .cls-7, .cls-8 {
        stroke-width: 0px;
      }

      .cls-2 {
        fill: #7ab8ff;
      }

      .cls-3 {
        fill: #57a1ff;
      }

      .cls-4 {
        fill: url(#radial-gradient-2);
      }

      .cls-5 {
        fill: url(#radial-gradient);
      }

      .cls-6 {
        fill: #89c4ff;
      }

      .cls-7 {
        fill: #2658cc;
      }

      .cls-8 {
        fill: #1676d9;
      }
    </style>
    <radialGradient id="radial-gradient" cx="364.98" cy="57.34" fx="364.98" fy="57.34" r="191.2" gradientTransform="translate(-.51 58.67) rotate(-8.06)" gradientUnits="userSpaceOnUse">
      <stop offset=".52" stop-color="#96ccff"/>
      <stop offset=".61" stop-color="#8cc5ff"/>
      <stop offset=".78" stop-color="#72b5ff"/>
      <stop offset=".99" stop-color="#479aff"/>
      <stop offset="1" stop-color="#4599ff"/>
    </radialGradient>
    <radialGradient id="radial-gradient-2" cx="461.21" cy="162.76" fx="461.21" fy="162.76" r="168.53" gradientTransform="translate(975.16 -272.03) rotate(93.01) scale(1 3.01)" gradientUnits="userSpaceOnUse">
      <stop offset=".38" stop-color="#96ccff"/>
      <stop offset=".51" stop-color="#91c9ff"/>
      <stop offset=".65" stop-color="#85c1ff"/>
      <stop offset=".8" stop-color="#6fb3ff"/>
      <stop offset=".94" stop-color="#52a1ff"/>
      <stop offset="1" stop-color="#4599ff"/>
    </radialGradient>
  </defs>
  <g id="Dolphin">
    <g>
      <path class="cls-5" d="m516.93,156.41c.75-14.24-7.56-27.73-18.56-36.8-11-9.07-24.49-14.47-37.73-19.73-11.83-4.7-23.94-9.46-36.66-10.02,1.02,14.3,2.04,28.73,0,42.92-2.88,20.01-11.62,41.13-3.21,59.52.81,1.77,1.87,3.57,3.62,4.42,2.04,1,4.47.46,6.67-.1,32.25-8.22,67.22-18.25,86.47-45.4"/>
      <g>
        <path class="cls-1" d="m484.89,346.52c8.77,8.94,18.14,17.29,28.02,24.98,1.5,1.17,3.14,2.37,5.03,2.49,1.75.11,3.4-.73,4.92-1.6,13.8-7.89,24.76-20.63,30.48-35.46"/>
        <path class="cls-4" d="m112.71,164.98c-22.88-3.74-47.71-4.12-70.08,1.94C20.25,172.97.63,188.33,0,211.51c15.17-3.9,25.45,1.55,37.44,9.17,6.24,3.96,15.13,9.06,21.86,12.09,15.34,6.91,33.81,1.62,47.47-8.2,10.14-7.29,23.55-16.96,35.3-29.25,4.68-4.9,36.52.94,53.84,12.81,21.88,14.99,34.91,26.92,50.55,40.93,52.11,46.67,112.8,81.53,181.67,93.85,73.12,13.08,141.77,6.44,200.67-32.48,7.9-5.22,15.15-11.66,24.01-14.98,8.62-3.23,17.98-4.07,27.19-4.17,52.67-.61,88.62-7.65,132.61-20.33,10.11-2.92,23.94-9.6,31.34-17.08,7.41-7.48,11.55-19.26,4.97-27.48-6.16-7.69-17.98-8.25-27.24-4.87-9.26,3.38-20.32,12.13-29.14,16.54-41.05,20.5-77.59,1.68-102.4-31.66-15.15-20.36-32.77-43.06-60.57-55.54-34.26-15.39-89.26-9.91-123.1,6.21-40.23,19.16-76.2,38.64-118.63,52.24-49.62,15.92-103.61,9.39-143-10.38-15.48-7.77-30.78-18.66-46.33-26.3-15.55-7.64-30.54-9.29-49.12-7.09-17.72-23.7-35.79-51.25-42.02-80.17-4.73,22.6-15.72,33.78-15.38,50.82.34,17.04,12.04,32.97,28.81,35.98"/>
        <g>
          <path class="cls-6" d="m464.42,280.92c-18.81,10.89-32.52,30.21-36.59,51.55-2.55,13.39-1.46,27.18-.23,40.76,15.06-2.12,30.28-4.28,44.48-9.74,8.05-3.1,15.7-7.23,22.7-12.28,9.8-7.06,18.56-16.31,22.3-27.79,3.75-11.49,1.51-25.43-7.62-33.34"/>
          <path class="cls-3" d="m463.66,279.63c-11.16,6.5-20.56,15.84-27.3,26.85-7.26,11.87-10.91,25.25-11.49,39.11-.38,9.24.39,18.47,1.22,27.66.1,1.06.88,1.59,1.9,1.45,10.72-1.51,21.47-3.03,31.96-5.76s19.91-6.54,28.89-11.98c15.22-9.22,30.34-23.58,31.42-42.46.53-9.36-2.56-19.15-9.73-25.46-1.44-1.27-3.57.84-2.12,2.12,6.04,5.31,8.88,13.22,8.91,21.14.03,8.53-3.3,16.5-8.32,23.28-5.36,7.25-12.57,13.07-20.16,17.85-8.51,5.36-17.75,9.3-27.42,12-11.2,3.13-22.73,4.75-34.22,6.37l1.9,1.45c-1.38-15.26-2.63-30.96,1.47-45.93,3.29-12.01,9.65-23.13,18.23-32.14,4.83-5.07,10.33-9.43,16.37-12.95,1.67-.97.16-3.57-1.51-2.59h0Z"/>
        </g>
        <path class="cls-8" d="m617.96,234.09c.54-3.67,1.33-7.42,3.07-10.73s4.58-5.84,8-7.66c3.65-1.95,7.64-3.86,11.67-4.85s8.39-.46,12.4.81c2.28.72,4.47,1.66,6.62,2.71,1.04.5,2.06,1.03,3.08,1.57.96.51,2.54,1.05,3.24,1.87l-.44-1.06.04.32.44-1.06-.11.12,1.06-.44.88.54-.23,1.82.09-.11c1.24-1.47-.87-3.6-2.12-2.12l-.09.11c-.42.5-.61,1.23-.23,1.82,1.32,2.09,4.37.19,2.97-1.91-.64-.95-1.99-1.43-2.95-1.95-1.15-.62-2.3-1.23-3.47-1.81-4.61-2.29-9.49-4.24-14.67-4.68s-10.22,1.32-15.06,3.5c-4.38,1.97-8.77,4.08-11.78,7.97-3.2,4.14-4.53,9.33-5.29,14.41-.28,1.89,2.61,2.7,2.89.8h0Z"/>
        <g>
          <path class="cls-7" d="m554.57,156.46c-3.94.96-6.22,4.54-4.67,7.34s6.6,4.25,10.37,2.97c4.99-1.69,5.97-6.78,3.9-10.47-.79-1.42-2.03-2.81-3.96-3.44s-4.6-.2-5.43,1.21"/>
          <path class="cls-8" d="m554.17,155.02c-3.52.91-6.85,4.03-6.16,7.95s4.97,5.44,8.3,5.74c3.62.32,7.6-1.19,9.37-4.52,1.59-2.98,1.19-6.71-.74-9.45-1.36-1.93-3.31-3.3-5.69-3.59-2.09-.26-4.57.29-5.77,2.18-1.04,1.63,1.55,3.14,2.59,1.51.09-.14.2-.23.39-.34.24-.14.37-.18.64-.26.62-.17,1.3-.22,1.96-.12,1.25.19,2.4.97,3.18,1.97,1.43,1.84,1.86,4.1,1.04,6.19-.33.84-1.1,1.79-1.99,2.36-1.1.7-2.37,1.06-3.67,1.1-1.36.05-2.74-.18-3.99-.71-1.02-.44-1.97-1.12-2.44-1.98s-.35-1.86.28-2.85c.74-1.16,2.11-1.93,3.5-2.29,1.87-.48,1.08-3.38-.8-2.89h0Z"/>
        </g>
      </g>
      <circle class="cls-2" cx="557.17" cy="138.4" r="6.64"/>
      <circle class="cls-2" cx="540" cy="105.74" r="9.41"/>
      <circle class="cls-2" cx="562.15" cy="60.34" r="12.73"/>
      <circle class="cls-2" cx="545.54" cy="31.56" r="4.98"/>
      <circle class="cls-2" cx="552.18" cy="6.09" r="6.09"/>
    </g>
  </g>
</svg>