<?xml version="1.0" encoding="UTF-8"?>
<svg id="Layer_2" data-name="Layer 2" xmlns="http://www.w3.org/2000/svg" xmlns:xlink="http://www.w3.org/1999/xlink" viewBox="35 350 1990.12 897.12">
  <defs>
    <style>
      .cls-1 {
        fill: #4e9616;
      }

      .cls-1, .cls-2, .cls-3, .cls-4, .cls-5, .cls-6, .cls-7, .cls-8, .cls-9, .cls-10, .cls-11, .cls-12, .cls-13, .cls-14, .cls-15, .cls-16 {
        stroke-width: 0px;
      }

      .cls-2 {
        fill: #a5d9f4;
      }

      .cls-3 {
        fill: url(#linear-gradient);
      }

      .cls-4 {
        fill: #68be5e;
      }

      .cls-5 {
        fill: #65a952;
      }

      .cls-6 {
        fill: #6591b1;
      }

      .cls-7 {
        fill: #95142d;
      }

      .cls-8 {
        fill: #70a1c7;
      }

      .cls-9 {
        fill: #a2d4f2;
      }

      .cls-10 {
        fill: #95c8e8;
      }

      .cls-11 {
        fill: #c33746;
      }

      .cls-12 {
        fill: #c1f0ff;
      }

      .cls-13 {
        fill: #a41b2d;
      }

      .cls-14 {
        fill: #d04346;
      }

      .cls-15 {
        fill: #5aa32d;
      }

      .cls-16 {
        fill: #9dd4ed;
      }
    </style>
    <linearGradient id="linear-gradient" x1="1056.69" y1="220.3" x2="1056.69" y2="695.73" gradientUnits="userSpaceOnUse">
      <stop offset=".26" stop-color="#f0fc97"/>
      <stop offset=".42" stop-color="#c0e1c1"/>
      <stop offset=".57" stop-color="#98cbe5"/>
      <stop offset=".64" stop-color="#89c3f3"/>
      <stop offset=".97" stop-color="#719ebb"/>
      <stop offset=".98" stop-color="#709db9"/>
    </linearGradient>
  </defs>
  <g id="OceanMiddleCeiling">
    <g>
      <path class="cls-3" d="m31.64,795.34c48.45-41.94,32.77-132.72,87.01-166.84,13.05-8.21,28.59-11.74,41.81-19.67,13.22-7.94,24.45-23.15,20.12-37.95-2.39-8.19-9.17-14.77-10.55-23.19-4.04-24.48,33.1-30.41,57.35-25.2-11.11,23.24,4.35,53.95,28.88,61.82s53.02-5.51,65.72-27.91c11.03-19.45,16.23-48.15,38.35-51.41,15.81-2.32,29.11,11.17,44.16,16.54,48.4,17.28,91.16-50.71,142.33-45.89,15.65,1.47,29.77,9.78,44.95,13.89,31.53,8.52,65-1.55,97.57.84,39.2,2.88,74.64,23.48,112.43,34.26,37.8,10.78,85.21,8.39,107.8-23.77,22.79,7.68,47.33,7.82,71.38,7.87,45.07.1,90.15.21,135.22.31.36,18.36,22.03,27.4,39.83,31.89,21.01,5.29,42.79,10.62,64.11,6.77,21.32-3.85,42.11-19.54,44.62-41.05-8.25-5.22-16.49-10.44-24.74-15.66,28.3,1.89,56.6,3.78,84.9,5.67-26.07,6.02-30.93,44.85-14.16,65.69,16.78,20.84,44.95,27.89,71.06,33.7,22.69,5.05,46.33,10.11,68.94,4.73s43.77-24.51,43.31-47.75c13.31-.89,26.33-5.64,37.08-13.53,3.04,18.01-.97,36.25,42.18,20.54,38.85-17.29,19.22-34.19,5.78-46.56,77.26-6.19,155.4-1.29,231.29,14.51-20.11-.85-25.84,31.5-10.96,45.05,14.89,13.55,37.46,12.82,57.53,11.28,30.45-2.34,60.89-4.67,91.34-7.01-17.27,42.08-19.04,90.31-4.91,133.55,3.28,10.03,7.44,20.21,6.55,30.73-.59,6.97-3.4,13.84-2.4,20.76,1.08,7.51,6.41,13.61,11.51,19.23,28.05,30.95,56.09,61.89,84.14,92.84,10.34,11.41,23.29,23.84,38.55,21.83V316.72H31.64v478.61Z"/>
      <g id="TopRocksPlants">
        <g>
          <path class="cls-5" d="m485.3,481.24c3.14,7.39,12.26,9.67,20.07,11.5,9.46,2.22,18.95,5.22,26.8,10.94,7.85,5.72,13.91,14.57,14.24,24.28.31,9.22-4.43,18.04-4.21,27.26.26,10.78,7.48,20.49,16.63,26.2,9.15,5.71,20,7.97,30.7,9.29-1.82,6.44-9.14,10.03-15.83,9.82-6.69-.22-12.89-3.34-18.84-6.4-4.84-2.49-9.93-5.21-12.66-9.91-1.47-2.54-2.13-5.47-2.63-8.36-1.23-7.18-1.59-14.5-1.08-21.76.33-4.73,1.01-9.64-.63-14.09-2.56-6.92-9.96-10.71-17-12.93s-14.65-3.67-20.28-8.44c-10.55-8.92-9.82-25.63-4.7-38.46"/>
          <path class="cls-5" d="m517.56,493.59c-14.02,8.07-22.43,24.92-20.45,40.97,1.7,13.85,10.35,27.25,7.04,40.81-2.89,11.85-13.94,19.55-23.93,26.54s-20.59,15.8-21.7,27.95c-1.2,13.13,9.56,24.6,21.42,30.36-8.4-3.08-17.2-6.44-22.95-13.29-3.1-3.7-5.1-8.18-7.04-12.6-2.29-5.2-4.6-10.54-4.97-16.21-.88-13.38,8.88-24.72,16.35-35.86,7.48-11.14,12.76-27.01,3.96-37.13-4.74-5.45-12.78-7.97-15.78-14.54-2.73-5.99.05-13.4,4.99-17.75,4.94-4.35,11.56-6.25,18.03-7.5,11.51-2.23,23.33-2.85,35.01-1.81-2.64-.03-5.29-.05-7.93-.08"/>
          <path class="cls-1" d="m511.18,503.41c-3.99-1.96-7.69.66-10.47,3.46-1.53,1.55-2.91,3.24-4.48,4.75-1.67,1.61-3.44,3.11-5.2,4.61-6.56,5.59-14.21,12.82-13.43,22.3.71,8.61,8.48,13.63,11.34,21.29,3.09,8.28.11,17.49-4.51,24.59-5.81,8.9-14.43,15.52-21.26,23.58-1.24,1.47.87,3.6,2.12,2.12,10.98-12.97,28.14-24.48,27.91-43.42-.05-4.11-1.17-8.08-3.27-11.62s-4.71-6.35-6.79-9.72-3.2-7.3-2.15-11.36c1.11-4.29,3.86-7.95,6.97-11.01,3.61-3.55,7.75-6.54,11.3-10.16,1.68-1.71,3.16-3.61,4.98-5.18,1.45-1.25,3.47-2.6,5.41-1.65,1.73.85,3.25-1.74,1.51-2.59h0Z"/>
          <path class="cls-1" d="m487.46,487.66c4.14,8.03,8.57,16.32,16.03,21.76,6.97,5.08,15.71,6.42,23.38,10.06,3.89,1.85,7.42,4.36,9.87,7.96s3.87,7.99,4.66,12.34c1.84,10.12.33,20.58,2.77,30.64,2.15,8.83,8.32,17.93,17.87,19.52,1.89.32,2.7-2.58.8-2.89-8.19-1.37-13.51-8.94-15.54-16.51-2.65-9.9-1.21-20.32-2.81-30.37-1.38-8.71-5.17-16.8-12.89-21.54-7.16-4.39-15.71-5.63-23.08-9.59-9.05-4.86-13.94-14.1-18.48-22.89-.89-1.72-3.48-.2-2.59,1.51h0Z"/>
          <g>
            <path class="cls-4" d="m482.15,497.54c5.77-1.57,9.77,5.57,11.47,11.3,3.5,11.8,6.77,25.4.06,35.72-2.2,3.38-5.38,6.19-6.78,9.97-2.48,6.73,1.75,14.44,7.79,18.31s13.44,4.8,20.56,5.65c-6.97-6.69-8.43-18.38-3.32-26.58,3.08-4.94,8.14-8.54,10.63-13.8,3.06-6.46,1.55-14.43-2.45-20.36-4-5.93-10.15-10.08-16.56-13.25-5.46-2.7-11.94-5.62-13.32-11.55-4.8,3.09-6.93,9.74-4.83,15.05,2.15,5.41,8.16,10.17,6.31,15.69-1.14,3.39-4.81,5.11-8.09,6.55-8.21,3.6-16.59,8.18-21.12,15.92-4.53,7.74-3.4,19.4,4.48,23.69-8.3-11.69-16.61-23.38-24.91-35.07-1.03-1.45-2.09-2.97-2.32-4.74-.54-4.11,3.51-7.34,7.38-8.81,3.87-1.47,8.31-2.32,10.95-5.52,3.03-3.67,3.04-9.77,7.24-12.02,2.02-1.08,4.44-.89,6.72-1.13,7.43-.81,13.89-7.19,14.79-14.61,10.87,3.11,20.8,9.43,28.21,17.97,4.03,4.65,7.36,9.95,12,13.99,4.64,4.04,11.16,6.7,16.98,4.71,6.24-2.13,10.69-9.16,17.28-8.93,5.38.19,9.13,5.14,13.45,8.36s12.31,3.54,13.42-1.73c-6.53,1.23-13.66-1.71-17.43-7.19s-3.96-13.18-.47-18.84c-5.69-3.82-11.49-7.69-18.06-9.65s-14.14-1.74-19.74,2.21c-3.48,2.46-6.76,6.45-10.97,5.78-4.06-.65-6.01-5.21-9.05-7.98-4.58-4.17-11.86-4.02-17.43-1.32s-9.81,7.46-13.91,12.1"/>
            <path class="cls-15" d="m491.4,488.07c10.09,1.46,17.85,8.43,25.35,14.77,3.8,3.21,7.66,6.4,11.91,9,2.27,1.39,5.01,3.18,7.76,2.18,2.35-.86,3.6-3.28,5.72-4.51,4.33-2.52,10.25-1.61,13.54,2.16,1.27,1.46,3.39-.67,2.12-2.12-3.18-3.63-8.23-5.02-12.9-4.19-2.27.4-4.41,1.42-6.15,2.92-.9.77-1.61,1.77-2.56,2.49-1.38,1.04-2.8.31-4.15-.43-9.06-4.96-16.05-12.82-24.5-18.65-4.62-3.18-9.75-5.69-15.34-6.5-1.89-.27-2.7,2.62-.8,2.89h0Z"/>
            <path class="cls-15" d="m488.08,501.79c7.43,4.06,13.92,9.79,18.76,16.76,2.31,3.32,5.8,8.04,4.67,12.32-.52,2-2.05,3.54-3.44,4.98-1.49,1.54-2.92,3.1-4.13,4.88-2.78,4.08-4.36,8.84-4.76,13.75-.16,1.92,2.84,1.91,3,0,.37-4.59,2.02-8.99,4.7-12.73,2.49-3.48,6.7-6.08,7.62-10.51.98-4.69-1.82-9.29-4.29-13.04s-5.24-7.06-8.41-10.08c-3.66-3.48-7.78-6.48-12.21-8.91-1.7-.93-3.21,1.66-1.51,2.59h0Z"/>
            <path class="cls-15" d="m477.7,501.58c-4.54,4.76,2.81,11.25-1.41,15.95-1.89,2.1-4.72,3.22-7.31,4.19-3.06,1.15-5.97,2.39-8.34,4.72-2.52,2.47-3.75,5.72-2.29,9.08.77,1.77,3.35.24,2.59-1.51-1.51-3.46,2.71-6.55,5.3-7.93,3.14-1.67,6.69-2.38,9.69-4.37,2.82-1.87,4.94-4.66,4.71-8.2-.11-1.81-.68-3.53-1.12-5.28-.38-1.48-.89-3.28.3-4.52,1.33-1.4-.79-3.52-2.12-2.12h0Z"/>
          </g>
        </g>
        <g>
          <path class="cls-11" d="m1041.2,487.81c-4.47-6.06-2.52-16.18-9.12-19.98-5.39-3.11-12.14.63-17.24,4.24-24.1,17.08-48.21,34.16-72.31,51.23-7.4,5.24-15.6,12.01-15.18,20.87.4,8.24,8.13,14.05,15.26,18.47,12.34,7.65,25.07,14.73,38.12,21.18,4.64,2.3,9.87,4.57,14.91,3.2,5.17-1.41,8.49-6.22,11.2-10.74,15.89-26.42,27.53-55.23,34.34-85.05"/>
          <path class="cls-7" d="m946.16,552.97c11.24,10.92,24.09,21.69,39.84,24.02,3.71.55,8.07.36,10.46-2.47,2.14-2.54,1.84-6.23,1.05-9.41-2.36-9.53-8.2-18.18-16.23-24.07s-18.22-8.96-28.31-8.55c-3.23.13-6.66.7-9.06,2.82-3.43,3.03-3.63,8.41-1.72,12.49s5.47,7.15,8.93,10.1"/>
          <path class="cls-14" d="m1052.67,474.28c-16.1,26.91-29.98,55.05-41.46,84.06-3.38,8.55-6.58,18-3.57,26.6,4.22,12.07,18.62,17.29,31.55,19.67,14.09,2.59,29.18,3.54,42.47-1.97,2.21-.92,4.42-2.06,5.91-3.88,1.81-2.21,2.34-5.13,2.63-7.93,3.19-31.21-17-61.76-10.78-92.58,1.51-7.49,4.32-16.09-.49-22.04-5.62-6.94-17.43-4.51-24.71.99"/>
          <path class="cls-13" d="m1077.58,591.83c-18.92,4.34-38.48-.87-57.04-6.04-1.35-.38-2.91-.95-3.25-2.27-.18-.7.05-1.44.31-2.13,2.84-7.5,10.08-13.31,18.2-14.59,4.06-.64,8.2-.22,12.25.38,11.6,1.74,23.8,5.63,30.45,14.95,1.49,2.09,2.69,4.7,1.89,7.14-.8,2.45-4.49,3.91-6.18,1.97"/>
          <path class="cls-14" d="m1127.41,476.57c-11.39-.48-24.93.06-31.53,9.53-3.75,5.38-4.1,12.24-4.32,18.68-.87,25.92-1.68,52.4,6.01,76.9.58,1.85,1.28,3.8,2.82,4.98,1.34,1.03,3.1,1.32,4.79,1.57,10.75,1.64,21.63,3.29,32.54,2.18,10.91-1.11,22.01-5.29,29.4-13.55,3.51-3.92,6.16-9.1,5.35-14.18-.38-2.37-1.47-4.53-2.57-6.65-14.32-27.66-30.64-54.24-48.79-79.48"/>
          <path class="cls-13" d="m1159.31,560.89c1.96,1.44,2.65,4.15,2.23,6.59-.42,2.44-1.77,4.65-3.28,6.65-2.66,3.54-6.05,6.76-10.25,8.12-2.98.97-6.14.93-9.24.87-7.56-.17-15.11-.5-22.65-.99-3.28-.21-7.05-.75-8.68-3.55-1.78-3.07.06-7.03,2.15-10.04,2.36-3.41,5.13-6.65,8.64-8.88,3.57-2.26,7.75-3.37,11.9-3.92,10.15-1.34,20.61.54,29.46,5.3"/>
        </g>
      </g>
      <g id="Highlights">
        <g>
          <path class="cls-6" d="m2064.62,734.27c1.11,7.93,2.21,16.03.64,23.88-1.57,7.85-6.35,15.53-13.83,18.38-5.87,2.24-12.39,1.25-18.67,1.45-23.31.76-47.08,18.1-68.11,8.01-.57,7.04,4.47,13.38,10.2,17.51,5.73,4.13,12.42,6.91,17.77,11.53,8.33,7.19,12.48,17.99,19.11,26.77,12.95,17.16,35.38,26.75,44.12,46.4,1.27,2.86,2.58,6.23,5.56,7.18,4.79,1.54,8.44-4.29,10.12-9.03,10.68-30.26,21.51-62.34,15.29-93.82-.83-4.2-1.96-8.36-2.23-12.64-.46-7.26,1.57-14.43,2.43-21.65,1.61-13.58-.94-27.27-3.49-40.71-1.62-8.53-3.79-17.95-10.94-22.88-5.02,18.56-7.53,37.8-7.44,57.03"/>
          <path class="cls-6" d="m2063.17,734.67c1.31,9.42,2.75,19.64-1.07,28.7-1.47,3.49-3.69,6.74-6.65,9.13-3.39,2.75-7.58,3.78-11.87,3.98-4.67.21-9.33-.23-14,.21-4.28.4-8.51,1.24-12.68,2.3-8.36,2.12-16.49,5.08-24.9,7.01-8.84,2.02-18.2,2.68-26.62-1.29-1.06-.5-2.18.1-2.26,1.3-.38,5.75,2.56,11.01,6.48,15.01,4.23,4.31,9.67,7.08,14.8,10.14s9.69,6.8,13.3,11.74c3.42,4.68,6.16,9.8,9.27,14.68,2.94,4.62,6.34,8.86,10.22,12.73s7.81,7.14,11.88,10.51c7.86,6.51,16.14,13.02,21.84,21.62,1.44,2.17,2.69,4.46,3.74,6.85.98,2.22,1.98,4.6,3.89,6.2s4.43,2.09,6.72,1.2,3.9-2.75,5.18-4.73c1.48-2.3,2.37-4.86,3.27-7.43,1.16-3.29,2.3-6.58,3.42-9.88,2.2-6.48,4.29-13,6.14-19.59,3.65-13.03,6.37-26.44,6.77-40,.19-6.74-.22-13.49-1.32-20.14-.54-3.28-1.34-6.51-1.97-9.77-.67-3.47-.92-6.92-.67-10.44.49-6.83,2.3-13.49,2.74-20.34.44-6.95-.13-13.92-1.08-20.81-.92-6.66-2.11-13.31-3.51-19.88-1.1-5.19-2.59-10.55-5.64-14.96-1.45-2.1-3.21-3.88-5.29-5.36-.8-.56-1.97.02-2.2.9-5.04,18.7-7.57,38.06-7.5,57.43,0,1.93,3.01,1.93,3,0-.07-19.12,2.42-38.17,7.39-56.63l-2.2.9c4.21,2.97,6.55,7.72,8.03,12.52,1.73,5.58,2.63,11.43,3.64,17.17,1.17,6.61,2.15,13.26,2.43,19.98.29,6.86-.47,13.48-1.62,20.23-.55,3.25-1.08,6.51-1.25,9.8s.15,6.58.75,9.83,1.38,6.34,1.94,9.54.92,6.37,1.14,9.58c.9,13.13-.8,26.28-3.75,39.07-2.96,12.85-7.15,25.39-11.5,37.83-.93,2.66-1.73,5.42-3.12,7.89-1,1.79-2.4,3.85-4.43,4.56-2.22.77-4.03-.85-5.1-2.64-1.28-2.15-2.09-4.55-3.28-6.75-9.69-18.02-29.61-26.97-42.05-42.67-6.88-8.67-10.87-19.48-19.09-27.11s-21.36-10.67-26.85-21.35c-1.19-2.32-1.75-4.83-1.58-7.43l-2.26,1.3c16.64,7.85,34.68-.19,51.06-4.68,4.42-1.21,8.9-2.28,13.46-2.8,4.84-.55,9.66-.15,14.51-.31s9.21-1.03,13.07-3.68c3.35-2.3,6-5.53,7.85-9.13,5.25-10.2,3.74-21.9,2.22-32.82-.27-1.9-3.16-1.09-2.89.8h0Z"/>
        </g>
        <g>
          <path class="cls-8" d="m1827.25,563.13l-21.65,5.83c-1.4.38-2.86.79-3.89,1.81-3.38,3.35.87,8.99,5.28,10.8,7.87,3.22,17.61,2.97,23.46,9.13,4.09,4.3,5.29,10.88,9.78,14.76,5.39,4.65,13.66,3.78,20.24,1.05s12.52-7.05,19.43-8.77c15.09-3.76,32.63,5.27,45.86-2.9,8.34-5.15,12.58-16.09,21.87-19.2,2.92-.98,6.54-1.37,7.99-4.09,1.06-2,.43-4.42-.03-6.63-3.95-19.24,7.44-38.55,6.55-58.17-.08-1.76-.27-3.56-1.09-5.11-1.01-1.92-2.86-3.25-4.64-4.5-8.17-5.73-16.33-11.45-24.5-17.18-2.84,9.09-2.5,19.15.95,28.03,1.65,4.24,4.03,8.74,2.72,13.1-1.13,3.77-4.69,6.19-8.01,8.3-5.27,3.36-11.17,6.86-17.35,5.93-5.31-.8-11.36-4.62-15.39-1.06-2.06,1.82-2.43,4.84-3.32,7.44-3.19,9.27-13.43,13.77-22.61,17.21-14.48,5.44-31.75,10.59-44.47,1.81"/>
          <path class="cls-8" d="m1826.85,561.69c-6.42,1.73-12.83,3.45-19.25,5.18-2.55.69-5.61,1.14-7.38,3.32-1.38,1.71-1.52,3.94-.74,5.94,1.82,4.7,6.4,6.88,10.93,8.18s9.66,1.95,14.09,4.03c2.16,1.02,4.11,2.38,5.62,4.24s2.64,4.21,3.77,6.4c2.31,4.49,5.08,8.49,10.02,10.27,10.78,3.88,20.93-3.59,30.22-7.86,5.1-2.35,10.34-3.25,15.93-3.11s10.69.97,16.04,1.38c5.07.39,10.32.4,15.21-1.17,4.63-1.49,8.38-4.37,11.66-7.9,3.09-3.33,5.79-7.06,9.24-10.04,1.62-1.41,3.47-2.63,5.5-3.36s4.41-1.1,6.41-2.2c2.21-1.21,3.49-3.32,3.57-5.85.08-2.82-.96-5.65-1.24-8.46-.55-5.66.07-11.35,1.12-16.91,2.13-11.31,5.94-22.43,6.11-34.03.04-2.81.07-5.89-1.15-8.48-1.12-2.38-3.28-3.95-5.37-5.43-5.44-3.83-10.89-7.64-16.33-11.45-2.72-1.91-5.44-3.82-8.17-5.73-.82-.58-1.94.04-2.2.9-1.83,5.97-2.39,12.3-1.62,18.5.39,3.09,1.07,6.13,2.1,9.07s2.52,5.76,3.21,8.83c.64,2.85.15,5.58-1.8,7.79-1.71,1.94-3.94,3.32-6.1,4.69-4.96,3.14-10.66,6.53-16.76,5.22-4.74-1.02-10.62-4.31-15.14-.94-2.21,1.64-3.02,4.22-3.74,6.75-.68,2.39-1.62,4.59-3.16,6.56-2.98,3.81-7.3,6.36-11.62,8.4-4.82,2.27-9.91,4.09-14.98,5.73-11.43,3.71-25.02,6.51-35.68-.74-1.6-1.09-3.1,1.51-1.51,2.59,9.69,6.58,21.9,5.52,32.68,2.63,5.54-1.49,10.98-3.43,16.3-5.58,4.8-1.93,9.54-4.17,13.55-7.49,1.86-1.54,3.51-3.34,4.8-5.38,1.46-2.3,2.13-4.82,2.94-7.38s2.19-4.51,5.02-4.54,5.55,1.18,8.22,1.91c2.84.78,5.64,1,8.54.43,3.13-.62,6.08-2.04,8.83-3.62,4.53-2.59,10.26-5.66,12.24-10.82,1.26-3.28.53-6.81-.64-9.99-1.24-3.38-2.72-6.61-3.55-10.13-1.69-7.16-1.38-14.67.77-21.69l-2.2.9c5.17,3.63,10.34,7.25,15.52,10.88,2.59,1.81,5.17,3.63,7.76,5.44,2.03,1.42,4.54,2.86,5.54,5.25s.79,5.59.69,8.21-.41,5.46-.85,8.16c-.88,5.45-2.24,10.8-3.48,16.17s-2.36,10.63-2.84,16.06c-.24,2.66-.3,5.35-.12,8.02s.79,5.32,1.21,8-.33,4.39-2.78,5.37c-2.01.81-4.16,1.15-6.16,2.02-3.91,1.7-7.01,4.79-9.78,7.94s-5.52,6.76-8.94,9.45c-3.73,2.94-8.31,4.29-13,4.59-10.08.63-20.07-2.45-30.15-1.26-5.4.64-10.25,2.72-15.03,5.21s-9.15,5.01-14.29,6.05c-4.47.9-9.7.64-13.27-2.53s-4.92-7.98-7.47-11.86-6.4-6.42-10.84-7.93-9.12-2.16-13.57-3.65c-2.11-.71-3.95-1.67-5.46-3.34-1.11-1.22-2.42-3.28-1.56-4.96.54-1.06,1.72-1.51,2.78-1.84,1.43-.43,2.88-.79,4.32-1.18l9.14-2.46,9.14-2.46c1.86-.5,1.07-3.4-.8-2.89h0Z"/>
        </g>
        <g>
          <path class="cls-8" d="m1578.23,512.9c5.87,5.54,11.65,12.23,14.99,19.58,1.09,2.4,2.05,4.94,2.06,7.58.02,4.55-3.77,8.69-7.14,11.75-9.21,8.36-22.36,10.41-34.71,11.9-3.54.43-7.18.83-10.64-.03-3.46-.87-6.76-3.29-7.62-6.76,11.79-3.8,23.57-7.6,35.36-11.4.63-.2,1.28-.42,1.77-.86,2.24-1.99-.45-6.34,1.62-8.52,1.15-1.21,3.2-1.04,4.47-2.11,1.4-1.18,1.32-3.32,1.13-5.14-.58-5.41-1.16-10.83-1.74-16.24"/>
          <path class="cls-8" d="m1577.16,513.96c5.07,4.81,9.8,10.09,13.21,16.22,1.65,2.96,3.4,6.41,3.4,9.88,0,3.05-1.92,5.74-3.89,7.9-8.78,9.67-21.67,12.37-34.09,13.95-3.96.5-8.2,1.29-12.16.42-3.1-.68-6.14-2.6-7.03-5.81l-1.05,1.85c11-3.55,22-7.09,33-10.64,2.18-.7,4.88-1.16,5.82-3.54.65-1.65.23-3.4.19-5.1-.02-.73-.02-1.55.6-2.05.73-.59,1.91-.68,2.76-1.03,1.99-.83,2.97-2.54,3.14-4.64.25-2.89-.45-5.99-.76-8.86-.35-3.28-.7-6.56-1.05-9.84-.2-1.9-3.21-1.92-3,0,.58,5.41,1.19,10.82,1.74,16.24.09.9.2,1.85.03,2.75-.21,1.08-.85,1.49-1.84,1.81-1.71.54-3.38,1.11-4.16,2.88-.74,1.68-.35,3.47-.29,5.22.02.59.08,1.35-.31,1.85-.64.82-2.5,1.05-3.43,1.35-5.19,1.67-10.37,3.34-15.56,5.02-5.89,1.9-11.79,3.8-17.68,5.7-.77.25-1.27,1.03-1.05,1.85.86,3.1,3.22,5.53,6.11,6.87,3.54,1.64,7.46,1.66,11.28,1.28,7.12-.71,14.37-1.68,21.25-3.69s12.92-5.09,17.97-9.97c2.49-2.41,4.88-5.21,5.95-8.57,1.15-3.63.05-7.35-1.41-10.72-3.46-7.98-9.32-14.75-15.58-20.69-1.4-1.33-3.53.79-2.12,2.12h0Z"/>
        </g>
        <g>
          <path class="cls-8" d="m1487.83,520.72c-1.33,11.07,4.81,21.7,5.49,32.83,1.02,16.73-10.9,32.26-25.86,39.81-14.96,7.55-32.39,8.45-49.12,7.51-30.74-1.73-61.15-9.25-89.16-22.06,8.72-5.98,20.42-2.34,30.67.24,12.82,3.22,26.14,4.43,39.33,3.57,2.8-10.33,12.98-17.3,23.46-19.48,10.48-2.18,21.32-.46,31.89,1.26,2.79-12.24,6.87-24.18,12.16-35.56,5.19.71,10.67-2.39,12.75-7.2-2.62-7.38-5.23-14.76-7.85-22.14,9.7,4.02,16.44,14.29,16.27,24.79"/>
          <path class="cls-8" d="m1486.33,520.72c-.82,7.33,1.43,14.46,3.31,21.45,1.78,6.63,2.98,13.29,1.52,20.11-2.63,12.32-11.69,22.66-22.49,28.73-12.93,7.26-28.24,8.89-42.82,8.64-15.52-.26-31.05-2.27-46.21-5.58-15.21-3.33-30.13-8.07-44.44-14.21-1.77-.76-3.53-1.54-5.28-2.34v2.59c7.21-4.83,16.3-2.92,24.16-.97,4.5,1.11,8.97,2.3,13.53,3.13,4.83.88,9.71,1.49,14.61,1.83,5.64.39,11.3.39,16.95.03.67-.04,1.26-.44,1.45-1.1,1.92-6.84,7.17-12.02,13.35-15.23,7.48-3.89,16.04-4.55,24.33-4,5.31.36,10.57,1.2,15.82,2.06.77.13,1.65-.19,1.85-1.05,2.78-12.11,6.79-23.92,12.01-35.2l-1.3.74c2.92.35,5.92-.35,8.46-1.83,1.28-.75,2.48-1.71,3.46-2.82.85-.97,2.01-2.35,2.29-3.65.19-.9-.37-1.85-.67-2.68l-1-2.83-2-5.65c-1.39-3.93-2.78-7.85-4.18-11.78l-2.2,1.69c9.28,3.93,15.61,13.39,15.53,23.49-.02,1.93,2.98,1.93,3,0,.09-11.05-6.81-21.76-17.02-26.08-1.07-.45-2.69.32-2.2,1.69,2.62,7.38,5.23,14.76,7.85,22.14l.15-1.16c-2,4.43-6.64,7.03-11.46,6.46-.47-.06-1.1.32-1.3.74-5.33,11.52-9.47,23.55-12.31,35.92l1.85-1.05c-9.85-1.61-19.88-3.2-29.86-1.76-7.75,1.12-15.37,4.43-20.9,10.08-3.01,3.07-5.27,6.8-6.43,10.95l1.45-1.1c-10.2.65-20.47.11-30.53-1.71-8.96-1.62-17.75-5.05-26.91-5.33-4.69-.14-9.38.8-13.32,3.43-.85.57-1.1,2.09,0,2.59,14.55,6.64,29.71,11.9,45.25,15.66s31.53,6.06,47.53,6.74c15.17.65,30.84-.44,44.83-6.81,11.89-5.41,22.11-15.31,26.62-27.72,2.3-6.32,2.71-12.97,1.53-19.58-1.33-7.43-4.38-14.55-4.94-22.11-.14-1.86-.11-3.72.1-5.57s-2.79-1.9-3,0h0Z"/>
        </g>
        <g>
          <path class="cls-8" d="m1237.58,490.07c10.34,7.71,21.66,14.11,33.6,18.99-9.01,16.37-26.02,26.45-42.23,35.75-2.05,1.17-4.12,2.36-6.39,3.02-3.55,1.03-7.33.72-11.02.39-11.38-1.01-22.76-2.01-34.15-3.02,2.15-4.65,7.78-6.31,12.68-7.82,14.29-4.4,27.63-11.84,38.89-21.68,1.13-.99,2.29-2.07,2.79-3.48.52-1.48.25-3.1.1-4.66-.67-6.74.92-13.68,4.47-19.45,1.74,2.34,3.47,4.67,5.21,7.01"/>
          <path class="cls-8" d="m1236.82,491.36c10.48,7.78,21.89,14.18,33.96,19.14l-.9-2.2c-6.25,11.24-16.34,19.51-26.99,26.4-5.4,3.5-10.97,6.84-16.63,9.9-3.37,1.82-6.72,2.54-10.55,2.41s-7.74-.61-11.59-.95c-8.91-.79-17.82-1.57-26.72-2.36l1.3,2.26c2.29-4.71,8.04-5.94,12.6-7.38,5.69-1.8,11.23-4.08,16.54-6.79s10.68-6.02,15.58-9.69c2.38-1.78,4.72-3.62,6.92-5.61,2.37-2.13,3.43-4.43,3.15-7.65-.31-3.5-.4-6.88.32-10.34s2-6.65,3.8-9.63h-2.59c1.74,2.34,3.47,4.67,5.21,7.01,1.14,1.53,3.74.04,2.59-1.51-1.74-2.34-3.47-4.67-5.21-7.01-.66-.89-1.96-1.04-2.59,0-3.2,5.28-4.91,11.44-4.82,17.62.02,1.44.22,2.86.32,4.3.12,1.7-.2,2.99-1.4,4.24-2.05,2.12-4.52,3.96-6.88,5.74-9.68,7.29-20.59,12.94-32.15,16.56-5.21,1.63-11.39,3.3-13.99,8.63-.52,1.07.12,2.15,1.3,2.26,8.25.73,16.5,1.46,24.74,2.19,4.06.36,8.11.8,12.18,1.05,3.81.24,7.54-.03,11.07-1.57,3.17-1.39,6.14-3.3,9.12-5.04,2.76-1.61,5.5-3.25,8.21-4.96,5.58-3.53,11.01-7.35,15.96-11.73,5.45-4.84,10.25-10.43,13.79-16.82.52-.93,0-1.84-.9-2.2-11.81-4.86-22.99-11.23-33.24-18.84-1.55-1.15-3.05,1.45-1.51,2.59h0Z"/>
        </g>
        <g>
          <path class="cls-8" d="m745.48,506.42c7.94-2.15,14.42,6.14,18.86,13.06,8.07,12.59,17.54,24.27,28.19,34.77,2.86,2.82,6.24,5.74,10.27,5.7,2.75-.03,5.27-1.46,7.6-2.92,14.87-9.29,29.58-21.77,47.11-21.4,6.5.14,12.84,2.1,19.33,2.52s13.71-1.08,17.62-6.28c3.61-4.8,3.48-11.44,6.07-16.86,3.62-7.57,13.02-11.84,21.11-9.59-5.07-17.47-10.14-34.94-15.2-52.41-7.83,7.74-15.66,15.48-23.49,23.22.74,7,1.48,13.99,2.22,20.99-10.03,4.39-20.94,6.76-31.89,6.92,1.17,5.68,3.93,11.03,7.87,15.29-22.03.99-44.06,1.98-66.09,2.96-2.82.13-5.79.22-8.29-1.1-3.62-1.91-5.2-6.19-7.88-9.28-6.28-7.25-17.36-7.08-26.92-6.33"/>
          <path class="cls-8" d="m745.88,507.87c6.59-1.67,11.86,4.71,15.22,9.47,2.24,3.17,4.26,6.5,6.49,9.68s4.75,6.57,7.27,9.75c5.1,6.46,10.6,12.61,16.46,18.39,2.57,2.54,5.5,5.22,9.13,6.03,3.92.88,7.46-.84,10.71-2.86,12.32-7.67,24.23-17.77,38.85-20.57,3.81-.73,7.68-.79,11.53-.34,4.34.5,8.6,1.51,12.93,2.02,6.62.77,14.04.06,19.24-4.54,5.65-5,5.07-12.79,8.12-19.12,2.69-5.61,8.71-9.28,14.89-9.44,1.54-.04,3.03.14,4.52.54,1.09.29,2.17-.74,1.85-1.85-5.07-17.47-10.14-34.94-15.2-52.41-.31-1.08-1.7-1.46-2.51-.66-6.6,6.53-13.21,13.05-19.81,19.58l-2.45,2.43c-.77.76-1.67,1.35-1.64,2.52.06,2.26.49,4.58.72,6.83.49,4.64.98,9.27,1.47,13.91l.74-1.3c-9.81,4.27-20.43,6.53-31.13,6.71-1.02.02-1.65.94-1.45,1.9,1.27,5.97,4.15,11.46,8.26,15.96l1.06-2.56c-17.23.77-34.45,1.54-51.68,2.32-4.31.19-8.61.39-12.92.58-3.5.16-7.6.68-10.46-1.81-2.38-2.07-3.72-5.08-5.67-7.51s-4.43-4.18-7.22-5.37c-6.63-2.83-14.18-2.51-21.22-1.96-1.91.15-1.93,3.15,0,3,6.21-.48,12.78-.84,18.76,1.21,2.84.98,5.4,2.63,7.33,4.96s3.32,5.38,5.64,7.56c2.67,2.5,6.1,3.12,9.65,3.05,4.21-.08,8.43-.36,12.64-.55,8.61-.39,17.23-.77,25.84-1.16,9.77-.44,19.55-.88,29.32-1.31,1.32-.06,1.95-1.59,1.06-2.56-3.77-4.13-6.32-9.16-7.49-14.63l-1.45,1.9c11.26-.19,22.32-2.63,32.64-7.12.43-.19.79-.83.74-1.3-.74-7-1.48-13.99-2.22-20.99l-.44,1.06c7.83-7.74,15.66-15.48,23.49-23.22l-2.51-.66c5.07,17.47,10.14,34.94,15.2,52.41l1.85-1.85c-6.25-1.66-12.95.06-17.91,4.12-2.53,2.07-4.39,4.75-5.59,7.78-1.34,3.37-1.84,6.99-2.96,10.43s-2.93,6.1-5.96,7.89c-2.85,1.68-6.21,2.38-9.49,2.51-8.3.33-16.31-2.84-24.62-2.56-15.02.52-27.79,9.72-39.86,17.71-3.13,2.07-6.37,4.63-9.89,5.98-3.9,1.49-7.28-.23-10.22-2.81s-5.81-5.69-8.55-8.65-5.54-6.19-8.16-9.41c-5.18-6.36-9.7-13.1-14.28-19.89-3.48-5.17-8.21-11.35-14.81-12.34-1.56-.23-3.11-.13-4.64.26-1.87.47-1.08,3.37.8,2.89h0Z"/>
        </g>
        <g>
          <path class="cls-8" d="m431.34,528.62c13.77-10.99,20.43-28.55,32.1-41.76,1.94-2.19,4.1-4.33,6.84-5.36,5.65-2.13,11.98.96,17.96.14,7.66-1.05,13.01-8.16,16.04-15.26s4.76-14.94,9.48-21.06c19.45,11.55,38.91,23.1,58.36,34.65-6.87,3.91-15.75,4-22.7.24-2.15-1.17-4.18-2.69-6.57-3.21-4.86-1.04-9.43,2.27-13.62,4.94-11.77,7.5-26.05,11-39.96,9.79-1.6,12.52-10.94,23.15-22.24,28.78-11.3,5.63-24.32,6.88-36.93,6.3"/>
          <path class="cls-8" d="m432.4,529.69c12.9-10.38,19.44-26.03,29.56-38.74,2.44-3.06,5.24-6.84,9.11-8.14,4.17-1.4,8.72.04,12.95.39,4.01.33,7.89-.45,11.27-2.69,3.2-2.12,5.73-5.12,7.72-8.37,5.03-8.22,6.16-18.29,12.04-26.05l-2.05.54c15.16,9,30.32,18,45.49,27,4.29,2.55,8.58,5.1,12.87,7.64v-2.59c-4.81,2.68-10.57,3.47-15.94,2.21-2.69-.63-5.02-1.82-7.38-3.21s-4.82-2.51-7.61-2.36c-5.79.32-10.46,4.63-15.32,7.31s-10.49,4.86-16.11,6.18c-6.47,1.52-13.13,1.98-19.75,1.42-.88-.07-1.4.75-1.5,1.5-1.17,8.75-6.37,16.46-13.05,22.02-7.59,6.32-17.24,9.59-26.92,10.92-5.85.81-11.79.9-17.69.64-1.93-.08-1.93,2.92,0,3,11.08.48,22.5-.35,32.91-4.4,8.95-3.48,16.94-9.36,22.24-17.44,2.92-4.46,4.8-9.46,5.51-14.74l-1.5,1.5c11.9.99,23.99-1.34,34.7-6.61,2.64-1.3,5.13-2.82,7.61-4.4s4.88-3.16,7.7-3.74c3.03-.62,5.46.72,7.98,2.21,2.32,1.37,4.76,2.47,7.39,3.09,6.16,1.45,12.72.56,18.25-2.51,1-.55.95-2.03,0-2.59-15.16-9-30.32-18-45.49-27-4.29-2.55-8.58-5.1-12.87-7.64-.76-.45-1.56-.1-2.05.54-5.28,6.97-6.7,15.74-10.58,23.42-1.7,3.37-3.89,6.56-6.83,8.98-3.13,2.58-6.82,3.55-10.83,3.24-4.25-.32-8.5-1.54-12.76-.62s-7.21,3.98-9.87,7.1c-5.29,6.19-9.54,13.15-13.96,19.96-4.95,7.63-10.21,15.16-17.36,20.91-1.5,1.21.63,3.32,2.12,2.12h0Z"/>
        </g>
        <g>
          <path class="cls-8" d="m348.33,514.31c-8.63-7.74-17.75-14.93-27.29-21.51-.83,8.92-1.66,17.84-2.5,26.76-.29,3.06-.6,6.21-2.01,8.95-5.57,10.79-22.38,7.69-32.23,14.79.16,4.43.31,8.86.47,13.29.04,1.14.07,2.33-.44,3.36-.86,1.73-2.94,2.42-4.83,2.85-19.05,4.28-41.15-2.14-54.59-16.31-.04,9.52,6.03,23.63,13.32,29.75s16.59,9.47,26.01,10.89c12.37,1.87,25.65.41,36.18-6.35,11.55-7.42,22.51-20.23,27.17-33.14,2.56-7.11,4.64-14.54,9.02-20.7s7.76-15.9,15.2-14.63"/>
          <path class="cls-8" d="m349.39,513.25c-8.73-7.82-17.95-15.08-27.59-21.75-1.02-.71-2.16.26-2.26,1.3-.6,6.44-1.2,12.88-1.8,19.33-.29,3.06-.53,6.13-.87,9.19-.29,2.66-.82,5.32-2.3,7.59-2,3.06-5.39,4.72-8.77,5.8-3.91,1.25-7.98,1.91-11.95,2.94-1.93.5-3.84,1.09-5.68,1.85-.88.37-1.74.76-2.57,1.21s-2.12,1.02-2.6,1.83c-.36.62-.18,1.55-.15,2.23.03.74.05,1.48.08,2.22.06,1.64.12,3.28.17,4.92s.12,3.12.17,4.68c.04,1.28.12,2.68-1,3.54-1.7,1.31-4.4,1.52-6.45,1.85-2.39.38-4.81.57-7.23.62-4.85.1-9.69-.42-14.42-1.51-10.63-2.46-20.63-7.74-28.2-15.65-.9-.95-2.56-.22-2.56,1.06.01,5.58,1.64,11.12,3.82,16.22s5.13,10.21,9.26,13.99c9.63,8.82,23.73,12.46,36.51,12.67,6.65.11,13.4-.81,19.65-3.11s11.45-5.85,16.34-10.08c5.16-4.47,9.72-9.66,13.5-15.34,1.85-2.78,3.5-5.69,4.88-8.73s2.43-6.27,3.54-9.44c1.25-3.58,2.54-7.16,4.3-10.53,1.54-2.97,3.56-5.64,5.28-8.51,2.26-3.79,5.48-10.7,10.93-9.88,1.89.29,2.7-2.6.8-2.89-5.13-.78-8.66,2.54-11.37,6.5-1.42,2.08-2.64,4.29-3.97,6.44-1.65,2.67-3.46,5.16-4.84,7.99-2.92,6.01-4.44,12.55-7.17,18.62s-6.41,11.51-10.73,16.44-9.27,9.38-14.82,12.86-11.89,5.5-18.36,6.27c-12.68,1.52-26.71-.91-37.57-7.83-2.68-1.71-5.14-3.68-7.18-6.12s-3.58-5.04-4.96-7.78c-2.73-5.43-4.81-11.62-4.83-17.76l-2.56,1.06c7.42,7.77,17.15,13.16,27.5,15.92,5.18,1.38,10.56,2.12,15.92,2.13,2.69,0,5.38-.18,8.04-.54,2.53-.34,5.28-.69,7.59-1.83,1.27-.63,2.33-1.6,2.88-2.92.69-1.64.48-3.47.42-5.2-.14-3.94-.28-7.88-.42-11.82l-.74,1.3c6.72-4.76,15.43-4.7,22.95-7.49,3.55-1.31,6.81-3.28,8.98-6.45,3.15-4.59,3.01-10.74,3.51-16.06.68-7.27,1.36-14.54,2.03-21.8l-2.26,1.3c9.43,6.52,18.44,13.63,26.99,21.28,1.43,1.28,3.56-.83,2.12-2.12h0Z"/>
        </g>
        <g>
          <path class="cls-8" d="m175.04,560.75c-9.32-1.94-19-2.12-28.39-.53-4.37.74-9,2.06-11.76,5.53-3.32,4.17-2.95,10.05-4.04,15.26-2.55,12.29-13.72,21.25-25.64,25.17-11.92,3.93-24.72,3.82-37.25,4.41-2.37.11-5.5,1.06-5.32,3.43.08,1.01.82,1.84,1.51,2.57,6.18,6.53,12.36,13.05,18.54,19.58,1.37,1.45,2.83,2.96,4.73,3.57,1.88.61,3.93.25,5.87-.11,10.94-2.03,21.99-4.1,32.18-8.58,8.52-3.75,16.23-9.1,23.87-14.41,8.68-6.03,17.36-12.07,26.04-18.1,4.08-2.83,8.41-6,9.94-10.72,1.5-4.62-.04-9.62-1.6-14.23-4.14-12.31-8.38-24.59-12.71-36.84-.88-2.5-1.89-5.16-4.04-6.7s-5.83-1.2-6.77,1.28c-.41,1.07-.22,2.27-.03,3.4,1.27,7.62,2.54,15.25,3.81,22.87"/>
          <path class="cls-8" d="m175.44,559.3c-6.97-1.43-14.12-1.97-21.23-1.48-5.89.4-12.97.96-17.91,4.57s-5.64,9.43-6.38,15.11-2.7,10.57-6.3,14.88c-7.78,9.32-19.5,13.52-31.19,15.15-6.87.95-13.82,1.14-20.73,1.41-2.72.11-5.77-.08-8.22,1.3s-2.97,4.02-1.37,6.24c.98,1.35,2.26,2.51,3.4,3.71,1.26,1.33,2.52,2.66,3.78,3.99,2.57,2.72,5.15,5.44,7.72,8.16,2.33,2.46,4.56,5.29,7.26,7.35s5.74,2.05,8.99,1.47c13.65-2.42,27.28-5.33,39.54-12.07,5.89-3.24,11.43-7.07,16.95-10.9,6.09-4.23,12.19-8.47,18.28-12.7,2.92-2.03,5.85-4.05,8.77-6.09,2.41-1.69,4.84-3.46,6.78-5.69s3.29-4.77,3.71-7.68c.48-3.29-.17-6.61-1.1-9.76-2.07-7.01-4.65-13.9-7.03-20.81s-4.58-13.78-7.19-20.53c-.96-2.47-2.27-5.16-4.71-6.47-1.98-1.06-4.64-1.16-6.57.09-2.85,1.85-2.16,5.2-1.69,8.05.6,3.57,1.19,7.14,1.79,10.71s1.19,7.14,1.79,10.71c.32,1.9,3.21,1.09,2.89-.8-1.14-6.81-2.27-13.63-3.41-20.44-.35-2.09-1.62-5.81,1.55-6.13,2.47-.25,4,1.85,4.95,3.84,1.32,2.77,2.16,5.83,3.18,8.72,1.14,3.26,2.28,6.52,3.41,9.78,2.23,6.45,4.44,12.9,6.62,19.37,1.92,5.69,4.44,12.2.83,17.75-1.46,2.24-3.6,4.01-5.73,5.58-2.59,1.9-5.26,3.69-7.9,5.52-5.56,3.86-11.12,7.73-16.68,11.59s-10.68,7.52-16.24,10.94-10.99,6.15-16.97,8.22-12.48,3.58-18.85,4.84c-3.16.62-6.42,1.49-9.63,1.74-1.52.11-2.87-.1-4.15-.96-1.2-.81-2.19-1.96-3.18-3-4.75-5.02-9.5-10.03-14.25-15.05-1.14-1.21-2.29-2.42-3.43-3.63-.64-.68-2.01-1.79-1.08-2.73.63-.64,1.8-.87,2.66-1,1.49-.22,3.05-.17,4.55-.23,6.36-.25,12.74-.44,19.06-1.2,11.21-1.33,22.23-4.57,30.9-12.1,3.81-3.31,7.02-7.4,9-12.06,1.03-2.42,1.67-4.91,2.05-7.5s.58-5.37,1.27-7.98,1.95-4.81,4.14-6.34,4.83-2.29,7.43-2.82c6.33-1.29,12.93-1.56,19.37-1.1,3.27.23,6.52.7,9.73,1.36,1.88.39,2.69-2.5.8-2.89h0Z"/>
        </g>
        <g>
          <path class="cls-8" d="m70.89,520.95c23.06-2.45,46.72,1.05,68.08,10.08,2,.84,4.25,1.74,6.25.92,1.42-.58,2.37-1.9,3.26-3.15,4.78-6.71,10.38-13.52,18.22-16.04s18.22,1.4,19.59,9.52c8.69-4.9,17.39-9.8,26.08-14.71,2.52-1.42,5.16-2.96,6.55-5.49,1.43-2.6,1.27-5.76,1.07-8.73-.75-11.14-1.5-22.27-2.25-33.41-6.77,3.48-13.23,7.57-19.27,12.21-14.32,10.98-27.97,25.73-45.99,26.73-8.14.45-17.49-1.72-23.56,3.72-1.42,1.27-2.63,2.94-4.46,3.44-3.63.99-6.54-3.19-7.32-6.88s-.95-8-3.95-10.26c-3.17-2.39-7.66-1.13-11.39.23-8.49,3.1-17.02,6.21-24.95,10.53-7.38,4.02-14.23,9.08-22.05,12.15s-17.15,3.89-24.29-.54c16.97,1.55,33.95,3.1,50.92,4.65"/>
          <path class="cls-8" d="m70.89,522.45c18.86-1.97,38.03-.03,56.1,5.74,4.43,1.41,8.66,3.26,13.02,4.86,2.03.75,4.33,1.1,6.32.04,1.78-.95,2.88-2.74,4.03-4.33,4.48-6.2,10.13-13.06,17.95-14.88,6.54-1.53,15.22,1.55,16.55,8.81.18.98,1.42,1.34,2.2.9,4.93-2.78,9.85-5.56,14.78-8.33,2.46-1.39,4.93-2.78,7.39-4.17,2.22-1.25,4.52-2.42,6.64-3.84,1.84-1.23,3.56-2.75,4.55-4.77,1.06-2.16,1.27-4.59,1.2-6.97-.16-5.45-.71-10.91-1.07-16.35-.43-6.4-.86-12.8-1.29-19.2-.08-1.16-1.21-1.84-2.26-1.3-7.06,3.65-13.75,7.93-20.03,12.8-5.46,4.23-10.64,8.8-16.1,13.03s-11.05,8.05-17.38,10.46c-3.03,1.16-6.22,2-9.45,2.32-3.4.34-6.82.13-10.24.07s-6.58.01-9.73.89c-1.55.43-3.09,1.07-4.43,1.96s-2.48,2.12-3.69,3.24c-1.04.95-2.31,1.64-3.69,1-1.27-.59-2.15-1.88-2.76-3.09-1.43-2.8-1.26-6.13-2.29-9.07s-3.31-5.52-6.64-6.06-6.83.63-10.02,1.8c-7.65,2.79-15.33,5.64-22.58,9.38-12.75,6.58-26.42,18.99-41.91,14.67-1.69-.47-3.27-1.17-4.77-2.08l-.76,2.8c16.97,1.55,33.95,3.1,50.92,4.65,1.92.18,1.91-2.83,0-3-16.97-1.55-33.95-3.1-50.92-4.65-1.55-.14-1.95,2.08-.76,2.8,6.3,3.81,13.99,3.95,20.96,2.14,7.64-1.97,14.37-6.32,21.05-10.36,7.06-4.27,14.41-7.74,22.11-10.69,3.72-1.43,7.48-3.03,11.34-4.06,3.14-.84,6.77-.98,8.55,2.24,1.52,2.76,1.32,6.09,2.31,9.03.93,2.77,2.87,5.8,5.87,6.61,3.61.99,5.79-1.86,8.2-3.95s5.72-2.88,8.86-3.11c3.48-.25,6.97,0,10.45.02s6.73-.3,10.01-1.11c6.59-1.61,12.64-4.94,18.18-8.79s11.12-8.63,16.56-13.08c5.98-4.89,12.2-9.41,18.9-13.28,1.78-1.03,3.59-2.01,5.41-2.95l-2.26-1.3c.73,10.8,1.46,21.61,2.19,32.41.15,2.3.44,4.71-.08,6.97s-1.86,3.81-3.68,5.08c-1.93,1.35-4.05,2.42-6.1,3.58-2.39,1.35-4.78,2.7-7.17,4.04-5.29,2.98-10.58,5.96-15.86,8.95l2.2.9c-1.26-6.87-8.04-10.77-14.54-11.32-7.95-.67-14.92,4.22-20.02,9.85-1.42,1.57-2.74,3.23-4.02,4.92-1.19,1.58-2.26,3.7-3.88,4.87-1.96,1.41-4.64-.09-6.56-.89-2.25-.94-4.53-1.82-6.83-2.63-9.12-3.23-18.56-5.48-28.15-6.76-10.9-1.45-21.93-1.62-32.87-.48-1.9.2-1.92,3.2,0,3h0Z"/>
        </g>
        <g>
          <path class="cls-8" d="m65.63,713.95c4.24.46,6.76,5.41,6.25,9.65s-3.11,7.87-5.5,11.41c-4.18,6.2-7.98,12.86-9.44,20.19-1.25,6.28-.72,12.8-1.82,19.1s-4.39,12.87-10.39,15.1c-14.29,5.31-29.33-17.06-42.69-9.72-.18-12.24-.36-24.47-.53-36.71-.04-2.85-.07-5.77.82-8.48,2.39-7.27,10.65-10.94,18.27-11.68,11.03-1.07,23.27,1.85,32.48-4.3,3.75-2.51,6.74-6.41,11.11-7.55s10.07,3.53,7.48,7.23"/>
          <path class="cls-8" d="m65.23,715.4c3.97.54,5.72,5.06,5.07,8.64-.92,5.08-4.72,9.28-7.39,13.54s-5.24,9.18-6.7,14.24c-1.58,5.46-1.58,11.14-1.96,16.76-.53,7.91-3.15,18.89-12.65,20.07-6.75.84-13.27-3.66-18.88-6.75-6.51-3.59-14.19-7.39-21.44-3.51l2.26,1.3c-.15-10-.29-20.01-.44-30.01-.04-2.46-.08-4.92-.11-7.37s-.02-4.71.64-6.97c.95-3.26,3.32-5.81,6.18-7.56,13.69-8.38,31.69,1.24,44.94-8.61,1.73-1.29,3.3-2.77,5-4.11,1.48-1.17,3.3-2.45,5.22-2.72,2.41-.33,7.3,2.16,5.4,5.11-1.05,1.63,1.55,3.13,2.59,1.51,1.99-3.09.05-6.55-2.76-8.29-3.43-2.14-7.21-1.42-10.46.71-3.54,2.31-6.28,5.6-10.17,7.39s-8.38,2.23-12.67,2.33c-8.43.2-17.17-.94-25.17,2.37-3.49,1.45-6.68,3.61-8.9,6.72-2.69,3.77-2.89,8.33-2.83,12.8.17,12.24.36,24.47.53,36.71.02,1.16,1.25,1.83,2.26,1.3,6.37-3.41,13.49.78,19.08,3.88,6.22,3.45,13.16,7.82,20.6,6.68,9.6-1.47,13.62-11.55,14.54-20.08.64-5.93.31-11.96,1.81-17.78,1.38-5.36,3.98-10.3,6.92-14.96s7.39-9.74,7.69-15.76c.22-4.52-2.57-9.79-7.4-10.45-.81-.11-1.6.2-1.85,1.05-.2.7.25,1.74,1.05,1.85h0Z"/>
        </g>
        <g>
          <path class="cls-8" d="m1694.68,513.15c36.87,2.81,74.63,10.39,111.35,14.71,22.15-21.96,52.14-38.89,83.21-41.68-1.21-10.19-2.42-20.38-3.64-30.58-.4-3.38-1.13-7.27-4.11-8.93-1.82-1.01-4.05-.89-6.09-.48-11.42,2.31-19.41,12.22-28.26,19.8-21.88,18.73-54.13,24.45-81.12,14.39,1.84,4-.45,8.92-4.03,11.48s-8.1,3.31-12.46,3.95c-31.54,4.61-63.79,9.3-95.4,13.45,18.25,2.1,35.32,3.35,53.6,5.19"/>
          <path class="cls-8" d="m1694.68,514.65c29.06,2.23,57.79,7.25,86.6,11.42,7.13,1.03,14.27,2.01,21.42,2.89.87.11,1.74.21,2.61.32.94.11,1.37,0,2.06-.64,1.15-1.07,2.26-2.19,3.41-3.26,2.27-2.11,4.6-4.16,6.99-6.13,9.64-7.99,20.26-14.86,31.57-20.24,12.53-5.96,26.05-10.04,39.9-11.31.73-.07,1.6-.64,1.5-1.5-.82-6.9-1.64-13.81-2.46-20.71-.4-3.4-.79-6.81-1.21-10.2-.3-2.37-.69-4.8-1.89-6.9-2.99-5.23-9.36-4.25-14.17-2.45s-9.36,5.05-13.39,8.53-7.85,7.4-11.98,10.87-8.53,6.4-13.23,8.9c-9.39,5-19.82,8.13-30.4,9.17-12.03,1.19-24.23-.24-35.59-4.44-1.38-.51-2.15,1.14-1.69,2.2,1.16,2.71-.06,5.9-1.92,7.98-2.25,2.51-5.55,3.67-8.76,4.39-3.68.82-7.47,1.23-11.2,1.77-4.04.59-8.09,1.18-12.13,1.77-16.34,2.38-32.68,4.72-49.03,6.99-9.18,1.27-18.36,2.51-27.55,3.72-1.91.25-1.94,2.78,0,3,17.84,2.05,35.74,3.4,53.6,5.19,1.92.19,1.91-2.81,0-3-17.86-1.79-35.77-3.15-53.6-5.19v3c17.28-2.27,34.54-4.66,51.78-7.12,8.61-1.23,17.23-2.47,25.84-3.72,4.37-.63,8.73-1.27,13.1-1.91,3.86-.56,7.82-.95,11.59-2s7.21-2.86,9.51-6.06,2.85-6.85,1.36-10.32l-1.69,2.2c19.69,7.28,42.05,6.38,61.34-1.74,9.74-4.1,18.15-10.02,25.85-17.2,3.87-3.61,7.69-7.36,12.07-10.36,2.06-1.41,4.24-2.68,6.57-3.6s5.33-1.93,7.91-1.44c2.82.53,3.85,3.23,4.36,5.74.69,3.36.91,6.85,1.31,10.25.9,7.56,1.8,15.12,2.7,22.69l1.5-1.5c-24.99,2.29-48.62,13.17-68.41,28.32-5.57,4.27-10.87,8.87-15.87,13.81l1.06-.44c-29.07-3.43-57.87-8.72-86.93-12.25-8.12-.99-16.26-1.83-24.42-2.46-1.93-.15-1.92,2.85,0,3h0Z"/>
        </g>
      </g>
      <g>
        <g>
          <path class="cls-2" d="m1345.78,502.29c-9.47-1.42-19.09-1.83-28.65-1.23-2.1.13-4.35.37-5.95,1.74-1.61,1.37-2.21,3.57-2.66,5.63-1.8,8.19-2.65,16.59-2.54,24.98.05,3.81.37,7.83,2.5,10.99,4.88,7.23,16.38,5.87,23.35.63,6.97-5.24,11.55-13.14,18.39-18.55,11.98-9.47,28.52-9.76,43.78-10.43,4.92-.22,10.36-.76,13.66-4.41,1.57-1.74,2.44-3.99,3.28-6.18,2.06-5.41,4.13-10.82,6.19-16.23.54-1.43,1.1-2.93.89-4.45-.7-5.08-7.92-5.24-12.96-4.29-15.43,2.92-31.41,2.95-46.86.08-3.72-.69-7.62-1.54-11.23-.39-3.61,1.15-6.6,5.2-5.14,8.69-6.78-4.43-15.31,1.84-20.91,7.68-3.41,3.55-6.82,7.1-10.23,10.65"/>
          <path class="cls-2" d="m1346.18,500.85c-6.08-.9-12.2-1.44-18.34-1.53-3.08-.05-6.17,0-9.25.17-2.52.13-5.32.18-7.54,1.57-2.09,1.31-3.13,3.57-3.72,5.89-.73,2.86-1.22,5.8-1.65,8.72-.88,6.01-1.31,12.1-1.2,18.17.09,4.78.78,9.95,4.43,13.41,2.91,2.77,6.99,3.83,10.93,3.64s8.24-1.55,11.69-3.81c4.23-2.78,7.58-6.71,10.87-10.5s6.8-7.8,11.14-10.64,8.83-4.5,13.65-5.67,10.03-1.77,15.11-2.13,9.94-.32,14.87-.8c4.62-.44,9.39-1.68,12.3-5.58,1.62-2.17,2.48-4.8,3.43-7.3,1.12-2.94,2.24-5.87,3.36-8.81s2.55-5.71,3.12-8.66c.4-2.09-.02-4.26-1.52-5.83-2.63-2.75-7.22-2.86-10.73-2.47-2.59.28-5.13.86-7.71,1.24-3.04.44-6.1.76-9.16.98-6.08.42-12.18.41-18.26-.04-2.98-.22-5.96-.54-8.92-.98s-5.84-1.08-8.77-1.49c-4.96-.68-10.4,0-13.22,4.65-1.14,1.87-1.51,4.16-.73,6.23l2.2-1.69c-5.62-3.52-12.12-.83-16.94,2.78-2.75,2.05-5.12,4.45-7.49,6.91-2.84,2.96-5.68,5.92-8.52,8.88-1.34,1.39.78,3.52,2.12,2.12,2.5-2.6,5-5.21,7.5-7.81,2.24-2.33,4.43-4.7,6.93-6.75,4.02-3.28,9.86-6.69,14.89-3.54,1.05.66,2.67-.45,2.2-1.69-.72-1.89,0-3.72,1.37-5.12,1.69-1.71,3.97-2.24,6.31-2.24,2.63,0,5.21.62,7.79,1.07,2.81.5,5.65.91,8.49,1.22,10.98,1.23,22.08,1,33-.6,4.03-.59,8.29-1.88,12.38-1.03,1.31.27,2.78.77,3.5,1.98,1.21,2.04-.32,4.73-1.06,6.68-2,5.25-3.94,10.54-6.02,15.77-.89,2.22-2.02,4.4-4.05,5.77-1.72,1.16-3.75,1.74-5.77,2.08-4.47.77-9.14.61-13.67.86s-9.29.64-13.88,1.38c-9.07,1.47-17.83,4.66-24.68,10.96s-11.37,14.81-19.68,18.71c-6.42,3.01-16.07,3.02-18.8-4.88-.77-2.21-.95-4.55-1.01-6.88-.07-2.77-.01-5.55.14-8.32.31-5.67,1.07-11.3,2.28-16.85.45-2.07.95-4.55,2.99-5.63s4.87-.94,7.15-1.03c5.68-.23,11.37-.11,17.03.36,2.78.23,5.55.56,8.3.96,1.89.28,2.7-2.61.8-2.89h0Z"/>
        </g>
        <g>
          <path class="cls-9" d="m1530.71,496.46c1.01.32,1.46-1.33.97-2.27-1.98-3.88-8.53-2.31-10.34,1.65s-.47,8.57.89,12.7c3.9,11.83,7.79,23.66,11.69,35.49.65,1.97,1.58,4.21,3.58,4.73,3.54.92,5.41-4.04,5.63-7.68.38-6.26.76-12.53,1.14-18.79.21-3.46.54-7.21,2.88-9.76,3.68-4.02,10.79-3.39,14.19-7.65,3.66-4.59.11-11.96-5.28-14.29s-11.57-1.21-17.34-.12-12.02,2.04-17.29-.56"/>
          <path class="cls-16" d="m1530.31,497.91c1.33.23,2.47-.38,2.89-1.71s0-2.7-.9-3.76c-1.59-1.89-4.22-2.28-6.53-1.75s-4.5,2.04-5.61,4.14c-1.67,3.17-1.34,6.93-.52,10.29.95,3.86,2.39,7.62,3.63,11.39s2.49,7.57,3.74,11.36,2.6,7.89,3.9,11.83c.96,2.9,1.61,6.6,3.71,8.95,1.82,2.03,4.81,2.28,6.86.46s2.76-4.61,3.06-7.12c.45-3.73.49-7.55.72-11.3s.26-7.72.78-11.51c.41-2.95,1.47-5.61,4.15-7.14,2.41-1.37,5.21-1.89,7.74-2.97s4.76-2.77,5.81-5.39c.94-2.36.7-5.03-.25-7.34-1.16-2.84-3.33-5.37-6.08-6.77-3.42-1.75-7.42-2.05-11.19-1.74-7.77.64-16.49,4.37-24.02.78-1.73-.83-3.26,1.76-1.51,2.59,5.72,2.72,12.01,1.91,18.02.79,5.6-1.04,12.5-2.63,17.76.48,3.47,2.06,6.55,7.31,3.97,11.14-1.25,1.86-3.48,2.72-5.51,3.42-2.2.75-4.51,1.38-6.51,2.59-5.2,3.15-5.41,9.2-5.74,14.64-.21,3.46-.42,6.92-.63,10.39-.18,2.9-.04,6-.79,8.82-.37,1.38-1.32,4.27-3.25,3.87-2.29-.48-2.97-4.77-3.55-6.55-2.18-6.63-4.36-13.25-6.55-19.88-1.25-3.79-2.49-7.57-3.74-11.36-1.09-3.32-2.48-6.87-2.14-10.44.25-2.64,1.67-4.76,4.29-5.47.89-.24,1.92-.32,2.79.05.38.16.72.4.97.72.11.13.19.28.28.42.04.1.05.2.04.31-.11.36.13.32.73-.13-1.89-.33-2.7,2.56-.8,2.89h0Z"/>
        </g>
        <g>
          <path class="cls-12" d="m1657.5,503.72l7.14.88c-13.92-.97-21.48-16.33-26.24-29.44-.79-2.18-1.59-4.47-1.24-6.76.92-6.06,8.46-7.99,14.37-9.66,5.9-1.67,12.6-7.54,9.33-12.73,7.41-1.64,12.39,7.41,13.97,14.84,1.58,7.43,4.18,16.74,11.7,17.77-10.37,3.79-18.6,12.99-21.21,23.72"/>
          <path class="cls-12" d="m1657.5,505.22l7.14.88v-3c-11.19-.88-17.75-11.79-21.87-21.01-1.2-2.68-2.28-5.43-3.24-8.2s-1.6-5.87.54-8.31c3.44-3.93,9.3-4.2,13.84-6.09,5.23-2.18,11.92-8.03,8.25-14.23l-.9,2.2c6.02-1.22,9.72,5.91,11.26,10.59,1.88,5.72,2.31,11.93,5.95,16.97,1.88,2.6,4.44,4.55,7.67,5.05v-2.89c-10.91,4.06-19.43,13.45-22.26,24.77-.47,1.87,2.43,2.67,2.89.8,2.56-10.25,10.23-18.98,20.16-22.67,1.22-.45,1.62-2.64,0-2.89-6.18-.95-8.44-7.79-9.8-13.06-.78-3.02-1.3-6.05-2.49-8.95s-2.79-5.78-5.14-7.92c-2.52-2.3-5.65-3.36-9.04-2.68-.96.19-1.36,1.42-.9,2.2,1.43,2.41.1,4.84-1.7,6.62-2.13,2.11-4.8,3.35-7.65,4.16-4.78,1.35-10.87,2.91-13.5,7.59-1.7,3.03-1.17,6.4-.08,9.54.99,2.85,2.11,5.67,3.33,8.44,2.31,5.25,5.12,10.39,8.96,14.69,4.12,4.62,9.48,7.8,15.72,8.29,1.95.15,1.87-2.77,0-3l-7.14-.88c-1.91-.24-1.89,2.77,0,3h0Z"/>
        </g>
        <g>
          <path class="cls-9" d="m1910.6,480.62c-29.13,3.16-57.79,10.6-84.77,22.02-4.81,2.03-9.83,4.42-12.62,8.83-3.1,4.91-3.1,11.82-7.67,15.4-4.92,3.85-15,5.09-13.04,11.02,13.71,8.67,33.81,4.98,43.54-8,2.05-2.74,3.74-5.87,6.51-7.88,2.96-2.16,6.74-2.74,10.35-3.4,22.44-4.08,43.91-13.38,62.23-26.96-3.31-2.16-5.91-5.4-7.31-9.11"/>
          <path class="cls-16" d="m1910.6,479.12c-21.75,2.38-43.23,7.06-63.97,14.04-5.17,1.74-10.29,3.62-15.36,5.64-4.48,1.78-9.18,3.47-13.26,6.07-3.87,2.46-6.46,5.73-8.05,10.01-1.35,3.64-2.06,8.09-5.21,10.71-2.57,2.14-6.02,3.11-8.94,4.65-2.5,1.31-5.21,3.32-5.05,6.46.04.81.19,1.82.83,2.36.75.64,1.77,1.09,2.64,1.52,1.76.88,3.61,1.61,5.5,2.16,3.77,1.09,7.77,1.51,11.68,1.28,7.89-.46,15.63-3.41,21.58-8.65,1.53-1.34,2.9-2.84,4.13-4.46,1.35-1.77,2.49-3.71,3.93-5.42,1.59-1.89,3.49-3.23,5.84-4.01s4.67-1.11,7.03-1.55c19.91-3.71,39.08-11.53,55.93-22.76,2.04-1.36,4.05-2.77,6.02-4.23.92-.68,1-1.92,0-2.59-2.98-1.99-5.32-4.86-6.62-8.21-.69-1.78-3.6-1.01-2.89.8,1.6,4.12,4.32,7.54,8,10v-2.59c-15.94,11.77-34.15,20.33-53.41,25.01-2.38.58-4.78,1.1-7.19,1.56s-4.64.77-6.89,1.43-4.37,1.66-6.17,3.21c-1.69,1.46-2.99,3.32-4.25,5.14-2.3,3.32-4.84,6.27-8.19,8.58-3.13,2.16-6.61,3.72-10.29,4.69-8.3,2.19-17.4,1.2-24.74-3.38l.69.9c-.81-2.65,2.01-3.99,4-4.98,2.92-1.45,6.09-2.52,8.65-4.58,3.11-2.5,4.3-6.42,5.5-10.06.6-1.84,1.22-3.68,2.22-5.35,1.1-1.83,2.66-3.33,4.4-4.54,3.72-2.57,8.09-4.18,12.26-5.86,4.91-1.98,9.88-3.83,14.89-5.55,9.8-3.36,19.78-6.21,29.88-8.54,11.49-2.65,23.13-4.63,34.85-5.91,1.9-.21,1.92-3.21,0-3h0Z"/>
        </g>
        <g>
          <path class="cls-10" d="m2003.29,657.76c-8.67-4.91-19.14-6.55-28.89-4.53-3.14.65-6.52,1.92-7.96,4.78-1.2,2.38-.74,5.21-.33,7.84,4.03,26.06-.06,53.31-11.55,77.04-1.83,3.78-3.88,7.62-4.04,11.82-.43,11.83,13.2,18.43,24.5,21.95,4.43,1.38,10.37,2.23,12.71-1.77.94-1.61.95-3.57.9-5.43-.24-8.22-1.24-16.58.73-24.56s7.79-15.72,15.92-16.93c5.61-.83,12.6,1.06,16.07-3.42,1.84-2.38,1.79-5.66,1.66-8.67-.46-10.93-.72-22.18,3.05-32.45,3.76-10.27,12.5-19.46,23.38-20.52,2.28-.22,4.68-.1,6.75-1.1,3.88-1.86,5.1-7.09,3.82-11.19-1.28-4.11-4.39-7.34-7.41-10.4-2.99-3.05-6.62-6.33-10.87-5.89-3.85.4-6.61,3.7-9.68,6.05-14.08,10.77-37.03,2.37-50.3,14.12"/>
          <path class="cls-10" d="m2004.05,656.47c-7.13-3.99-15.35-5.95-23.52-5.53-3.75.2-7.78.7-11.19,2.39s-5.26,4.89-5.17,8.71c.05,2.07.49,4.13.77,6.18s.53,4.29.71,6.44c.36,4.28.51,8.58.45,12.87-.12,8.53-1.08,17.04-2.87,25.39s-4.36,16.53-7.75,24.36c-3,6.92-8.05,14.09-5.96,21.98,1.59,6.01,6.67,10.32,11.87,13.29,2.9,1.66,5.98,3,9.11,4.15s6.21,2.19,9.48,2.51c2.98.3,6.34-.2,8.36-2.63,2.61-3.15,1.77-7.89,1.59-11.66-.4-8.33-1.04-17.37,2.84-25.05,1.54-3.05,3.69-5.92,6.51-7.89s5.89-2.7,9.3-2.77,6.82.25,9.97-.93c3.38-1.27,5.35-4.12,5.83-7.65.56-4.11-.06-8.42-.12-12.55-.06-4.41.05-8.84.6-13.22.97-7.71,3.51-15.34,8.6-21.33,2.24-2.62,4.86-4.9,7.89-6.56,3.23-1.77,6.59-2.48,10.23-2.73s6.97-1.23,8.9-4.55c1.61-2.76,1.88-6.29,1-9.33-1.12-3.86-3.79-7.02-6.52-9.87-2.57-2.68-5.29-5.55-8.8-6.97s-7.16-.54-10.18,1.68c-2.79,2.05-5.16,4.52-8.27,6.12-5.87,3.03-12.7,3.57-19.18,4.08s-13.51.84-19.79,3.24c-2.97,1.13-5.67,2.69-8.07,4.78-1.46,1.27.67,3.39,2.12,2.12,4.69-4.09,10.89-5.61,16.93-6.35,6.38-.78,12.83-.86,19.17-1.98,3.09-.55,6.1-1.38,8.97-2.65,3.02-1.35,5.51-3.32,8.01-5.45s5.45-4.15,8.96-2.9,6.04,4.31,8.44,6.86,5.06,5.69,5.61,9.36c.4,2.68-.29,5.97-2.64,7.6-1.54,1.07-3.5,1.14-5.31,1.25s-3.43.3-5.11.72c-3.19.8-6.21,2.28-8.86,4.21-5.49,4-9.56,9.66-12.04,15.95-3.01,7.61-3.69,15.98-3.68,24.09,0,4.06.39,8.14.3,12.2-.07,3.44-1.32,6.36-4.87,7.28-3.03.78-6.26.36-9.35.53-3.27.17-6.38,1.04-9.13,2.84-5.64,3.7-9.2,10.04-10.57,16.53-.89,4.22-1.05,8.56-.96,12.86s.58,8.38.45,12.55c-.24,7.96-9.87,4.85-14.56,3.21-5.66-1.98-11.5-4.58-15.84-8.82-1.95-1.9-3.55-4.18-4.28-6.83-.94-3.38-.24-6.79,1.06-9.98,1.53-3.75,3.5-7.32,5.08-11.06s2.94-7.4,4.16-11.19c4.94-15.42,7.05-31.78,6.16-47.95-.22-4.05-.64-8.09-1.24-12.11-.53-3.57-1.34-7.65,2.24-9.89,2.98-1.87,6.96-2.29,10.39-2.49,3.85-.22,7.71.09,11.47.96s7.37,2.26,10.75,4.15c1.69.94,3.2-1.65,1.51-2.59h0Z"/>
        </g>
        <g>
          <path class="cls-12" d="m218.43,458.85c.57-1.65-3.05-.38-2.03,1.03s3.25.79,4.76-.09c6.13-3.55,11.31-9.38,12.45-16.37s-2.66-14.93-9.41-17.08c-4.22-1.34-8.78-.37-13.07.71-26.49,6.67-53.08,17.4-80.16,13.86-4.66-.61-9.97-1.47-13.59,1.53-2.37,1.97-3.35,5.14-5.34,7.5-6.85,8.15-20.67,2.97-30.19,7.73-3.93,1.97-6.8,5.49-9.56,8.92-11.73,14.6-23.45,29.21-35.18,43.81,9.14,3.11,17.96-4.87,24.53-11.95,11.06-11.92,24.35-24.09,40.61-24.52,4.53-.12,9.13.7,13.55-.31,4.69-1.08,8.66-4.1,12.55-6.94,13.98-10.18,33.36-18.87,47.71-9.21,2.63,1.77,4.94,4.11,7.9,5.28,10.11,4,20.46-7.34,31.28-6.25,1.57,1.6,3.13,3.2,4.7,4.8"/>
          <path class="cls-12" d="m219.87,459.25c.97-3.72-5.16-3.19-5.16.12,0,2.06,2.35,3,4.08,2.81,2.06-.23,3.87-1.45,5.52-2.62,6.89-4.9,12.11-12.84,10.74-21.58-.59-3.76-2.43-7.46-5.26-10.03-3.4-3.08-7.84-4.08-12.34-3.61-5.21.54-10.34,2.19-15.36,3.59s-10.46,2.97-15.7,4.44c-10.24,2.87-20.61,5.57-31.18,6.9-5.27.66-10.6.99-15.91.83-2.63-.08-5.26-.28-7.88-.6-2.22-.28-4.44-.63-6.69-.66s-4.29.26-6.24,1.16-3.46,2.51-4.63,4.33-2.04,3.77-3.55,5.3c-1.2,1.21-2.68,2.09-4.29,2.66-7.26,2.55-15.33.57-22.62,3.14-4.39,1.55-7.7,4.69-10.62,8.21-3.5,4.2-6.86,8.52-10.28,12.78-7.06,8.79-14.11,17.58-21.17,26.36-1.76,2.2-3.53,4.39-5.29,6.59-.71.88-.49,2.13.66,2.51,6.46,2.09,12.79-.78,17.88-4.72,5.41-4.18,9.72-9.56,14.61-14.3,9.36-9.09,20.82-17.53,34.46-17.4,3.88.04,7.76.51,11.62-.17,3.51-.61,6.72-2.33,9.65-4.29,2.75-1.84,5.35-3.89,8.12-5.71s5.8-3.6,8.86-5.11c5.86-2.9,12.3-5.15,18.89-5.35,3.09-.09,6.16.28,9.09,1.27s5.6,2.77,8.11,4.71c2.87,2.21,5.79,4,9.48,4.29,3.12.25,6.24-.58,9.14-1.66,5.99-2.22,11.99-6,18.62-5.41l-1.06-.44c1.57,1.6,3.13,3.2,4.7,4.8,1.35,1.38,3.47-.74,2.12-2.12-1.45-1.49-2.88-3-4.36-4.46-1.12-1.1-2.8-.92-4.29-.79-2.99.25-5.85,1.16-8.62,2.27-5.16,2.06-10.8,5.47-16.57,4.78-3.42-.41-6.02-2.63-8.66-4.64s-5.51-3.57-8.69-4.51c-6.23-1.84-12.93-1.22-19.09.56-6.64,1.92-12.89,5.13-18.68,8.87s-11.47,9.5-18.77,10.19c-4,.38-8.01-.27-12.01-.05-3.32.19-6.62.83-9.77,1.89-6.42,2.16-12.17,5.84-17.4,10.08s-10.08,9.42-14.88,14.41c-4.43,4.61-10.13,10.15-16.88,10.69-1.65.13-3.24-.09-4.81-.6l.66,2.51c6.43-8.01,12.87-16.02,19.3-24.04,3.17-3.94,6.33-7.88,9.5-11.82s5.95-7.67,9.16-11.29c2.63-2.97,5.61-5.4,9.5-6.46,3.39-.92,6.94-1.01,10.43-1.18,6.84-.32,14.05-1.03,18.19-7.21,1.07-1.6,1.85-3.41,3.1-4.89s2.99-2.33,4.93-2.63c4.14-.63,8.5.54,12.62.88,9.46.77,18.97-.12,28.29-1.82s18.97-4.35,28.33-7.01c4.62-1.31,9.24-2.65,13.87-3.9s9.35-2.87,14.12-2.91c3.87-.04,7.36,1.45,9.75,4.55,2.1,2.73,3.15,6.24,3.05,9.66-.12,3.8-1.8,7.47-4.11,10.43-1.17,1.5-2.55,2.86-4.02,4.07s-3.18,2.58-4.98,3.13c-.32.1-.69.21-1.03.18-.45-.05-.41-.27-.45.15.02-.25-.07.24-.06.32,0,.08.09-.59.17-.09,0-.05-.07.75.08-.02l.09-.02c-.5.15-.84-.22-1.01-1.1-.49,1.87,2.41,2.67,2.89.8h0Z"/>
        </g>
        <g>
          <path class="cls-12" d="m233.56,538.7c-2.96.81-5.81-2.3-5.96-5.37s1.51-5.9,3.1-8.52c8.62-14.14,17.24-28.28,25.87-42.42.55-.9,1.14-1.83,2.07-2.32,1.01-.53,2.22-.43,3.35-.31,12.62,1.29,25.24,2.57,37.86,3.86-4.22,10.05-13.46,17.84-24.08,20.29-5.23,1.21-11,1.31-15.28,4.53s-5.02,11.41.09,13.05c-11.65,1.89-22.8,6.84-32,14.24"/>
          <path class="cls-12" d="m233.16,537.26c-2.95.65-4.35-3.18-3.98-5.45.53-3.28,2.81-6.22,4.5-8.99,3.84-6.29,7.67-12.58,11.51-18.88s7.59-12.44,11.38-18.66c.72-1.18,1.44-3.06,2.65-3.8,1.3-.8,3.78-.11,5.22.04,3.61.37,7.21.73,10.82,1.1,8.2.83,16.39,1.67,24.59,2.5l-1.3-2.26c-3.64,8.55-10.83,15.46-19.62,18.57-7.8,2.76-20.53,1.54-23.07,11.67-.99,3.94.18,8.4,4.32,9.85v-2.89c-11.96,1.97-23.2,7.07-32.66,14.63-1.51,1.2.63,3.31,2.12,2.12,9.05-7.23,19.92-11.97,31.34-13.85,1.59-.26,1.26-2.45,0-2.89-2.96-1.04-2.81-4.98-1.83-7.38,1.6-3.93,6.03-5.2,9.83-5.97,4.51-.91,8.93-1.5,13.19-3.34,3.92-1.7,7.53-4.11,10.63-7.04,3.55-3.36,6.43-7.44,8.35-11.94.47-1.1-.08-2.13-1.3-2.26-8.2-.83-16.39-1.67-24.59-2.5-3.93-.4-7.87-.8-11.8-1.2-1.72-.18-3.55-.52-5.2.2s-2.59,2.37-3.51,3.88c-8.45,13.86-16.92,27.7-25.35,41.57-1.96,3.22-4.2,7.18-3,11.08,1,3.25,4.07,5.79,7.56,5.02,1.88-.42,1.09-3.31-.8-2.89h0Z"/>
        </g>
        <g>
          <path class="cls-12" d="m408.37,517.8c-6.31-7.66-12.14-16.07-14.48-25.71s-.59-20.78,6.56-27.66c5.76-5.56,15.54-11.98,11.22-18.72-12.48-1.9-25.98,1.64-34.99,10.48s-12.78,23.08-8.07,34.79c6.05,15.04,23.11,22.22,38.89,25.96"/>
          <path class="cls-12" d="m409.43,516.74c-9.34-11.36-18.29-25.81-13.88-41.09.94-3.27,2.52-6.4,4.8-8.96s4.99-4.59,7.45-6.9c2.28-2.14,4.59-4.53,5.78-7.47.51-1.28.75-2.64.59-4.02-.14-1.19-.63-3.23-1.75-3.88-.71-.41-1.9-.37-2.69-.45-.91-.1-1.82-.16-2.73-.2-1.83-.08-3.66-.05-5.48.1-3.64.29-7.26.99-10.72,2.15-6.8,2.27-13.15,6.27-17.68,11.87-8.7,10.74-10.92,26.34-3.53,38.38,7.02,11.43,20.21,17.36,32.64,20.87,1.61.46,3.23.87,4.86,1.26,1.88.45,2.68-2.44.8-2.89-13.96-3.33-29.97-9.25-36.9-22.87-3.53-6.94-3.7-15.07-1.29-22.4s7.86-14.07,14.83-18.13c7.98-4.65,17.63-6.28,26.74-4.94l-.9-.69c2.65,4.33-1.87,8.57-4.82,11.33-3.84,3.59-8.03,6.71-10.59,11.42-5.5,10.14-4,22.3.79,32.37,2.99,6.29,7.17,11.91,11.57,17.27,1.23,1.49,3.34-.64,2.12-2.12h0Z"/>
        </g>
        <g>
          <path class="cls-12" d="m722.29,494.24c21.25-27.71,52.65-52.9,84.68-66.81-3.25,11.54,4.59,17.99,16.23,20.85,8.23,2.02,17.94-.45,24.61,4.78-7.35,7.36-39.14,16.16-56.37,19.85-8.09,1.73-17.12,3.85-24.38,7.83s-7.82,17.84.42,18.6c-17.79,5.9-27.81,4.88-44.81-5.12"/>
          <path class="cls-12" d="m723.58,495c17.14-22.3,39.02-41.3,63.23-55.57,6.75-3.98,13.73-7.57,20.91-10.7l-2.2-1.69c-.92,3.35-1.17,6.99.03,10.32,1.11,3.07,3.21,5.52,5.81,7.44,6.44,4.75,14.47,5.7,22.21,6.05,4.72.21,9.58.55,13.48,3.52l-.3-2.36c-1.72,1.7-3.96,2.9-6.12,4-3.03,1.54-6.18,2.82-9.36,4.01-7.74,2.91-15.69,5.28-23.67,7.43-7.82,2.1-15.74,3.69-23.6,5.63-4.95,1.22-9.85,2.69-14.51,4.8-3.39,1.53-6.29,3.32-7.96,6.77-2.87,5.9-1.96,15.34,5.96,16.2l-.4-2.95c-7.14,2.35-14.57,4.18-22.14,3.37s-14.89-4.45-21.52-8.33c-1.67-.98-3.18,1.61-1.51,2.59,7.03,4.12,14.51,7.75,22.7,8.7s15.8-.98,23.27-3.44c1.68-.55,1.25-2.77-.4-2.95-5.81-.63-5.04-8.87-2.95-12.49,1.87-3.24,5.52-4.6,8.85-5.9,4.51-1.76,9.2-3,13.91-4.09,15.01-3.46,29.99-6.95,44.46-12.34,3.52-1.31,7.02-2.73,10.38-4.43,2.38-1.21,4.81-2.58,6.73-4.47.76-.74.45-1.79-.3-2.36-6.65-5.06-15.4-3.25-23.1-4.55-5.99-1.01-13.3-3.65-16.39-9.3-1.71-3.13-1.58-6.73-.66-10.09.38-1.38-1.06-2.19-2.2-1.69-12.98,5.66-25.29,12.83-36.82,21.04s-22.88,17.91-32.95,28.36c-5.48,5.69-10.64,11.68-15.45,17.95-.5.65-.09,1.67.54,2.05.77.46,1.56.1,2.05-.54h0Z"/>
        </g>
        <path class="cls-16" d="m577.51,3c1.93,0,1.93-3,0-3s-1.93,3,0,3h0Z"/>
        <g>
          <path class="cls-12" d="m805.3,428.33c8.29-4.91,18.78-3.47,28.13-1.17,17.99,4.42,35.22,11.41,52.38,18.38-18.42,9.69-38.13,11.68-57.33,17.89-4.29,1.39-9.5,1.57-14,1.29-.82-.05.31.81-.29.25-.6-.55-.81-1.38-1-2.17-3.6-15.3-7.44-18-7.48-33.72"/>
          <path class="cls-12" d="m806.05,429.63c8.86-5.13,19.72-2.9,29.07-.5,10.98,2.83,21.69,6.58,32.26,10.66,6.04,2.33,12.03,4.76,18.03,7.2l-.36-2.74c-9.53,4.98-19.82,8.04-30.2,10.65-5.12,1.29-10.26,2.49-15.38,3.81-2.64.68-5.28,1.4-7.89,2.18-2.38.71-4.72,1.55-7.18,1.97-2.85.48-5.79.54-8.67.42-1.1-.04-2.6-.27-2.99,1.11-.23.81.22,1.61.88,2.06,1.49.99,2.88-1.13,1.82-2.36-.99-1.14-1.09-2.94-1.46-4.37-.44-1.67-.91-3.34-1.43-4.99-.83-2.66-1.77-5.28-2.63-7.92-1.89-5.81-2.67-11.63-2.7-17.73,0-1.93-3.01-1.93-3,0,.03,6.46.89,12.67,2.9,18.81.91,2.79,1.9,5.54,2.75,8.35.56,1.85,1.08,3.71,1.54,5.59.42,1.7.74,3.04,1.9,4.39l1.82-2.36c.35.21.53.52.55.93l-.74,1.3c-.52.35-.55.08-.05.15.26.04.56.03.83.04.57.02,1.13.04,1.7.04,1.23.01,2.47-.02,3.7-.1,2.34-.16,4.7-.48,6.97-1.12,4.72-1.34,9.39-2.81,14.16-4.01,9.58-2.43,19.26-4.51,28.64-7.66,5.38-1.81,10.65-3.97,15.68-6.6,1.26-.66.74-2.3-.36-2.74-10.95-4.45-21.91-8.9-33.11-12.69-5.51-1.87-11.08-3.58-16.72-5.04-5.03-1.31-10.14-2.45-15.34-2.75-5.71-.32-11.5.53-16.5,3.43-1.67.97-.16,3.56,1.51,2.59h0Z"/>
        </g>
      </g>
    </g>
  </g>
</svg>