<?xml version="1.0" encoding="UTF-8"?>
<svg id="Layer_2" data-name="Layer 2" xmlns="http://www.w3.org/2000/svg" viewBox="0 0 979.91 513.6">
  <defs>
    <style>
      .cls-1 {
        opacity: .74;
      }

      .cls-2 {
        opacity: .69;
      }

      .cls-3 {
        fill: #9e6c15;
      }

      .cls-3, .cls-4, .cls-5, .cls-6, .cls-7, .cls-8, .cls-9, .cls-10, .cls-11, .cls-12 {
        stroke-width: 0px;
      }

      .cls-4 {
        fill: #a44153;
      }

      .cls-5 {
        fill: #a27828;
      }

      .cls-6 {
        fill: #9a6a12;
      }

      .cls-7 {
        fill: #b93c5e;
      }

      .cls-8 {
        fill: #936319;
      }

      .cls-9 {
        fill: #866330;
      }

      .cls-10 {
        fill: #784000;
      }

      .cls-11 {
        fill: #630;
      }

      .cls-12 {
        fill: #9a6d00;
      }
    </style>
  </defs>
  <g id="Eel">
    <g id="Eel-2" data-name="Eel">
      <path class="cls-5" d="m804.97,388.56c-46.32-92.78-162.08-144.6-262.13-117.35-30.34,8.26-58.88,22.81-89.76,28.77-49.16,9.48-105.7-7.28-132.24-49.74-17.09-27.34-19.96-60.88-28.97-91.84-18.07-62.08-65.87-117.31-128.33-134.03C101.07,7.64,26.55,36.47,0,95.43c15.44,17.64,44.54-6.02,67.22-.11,5.4,1.41,10.43,4.56,16.01,4.57,5.41,0,10.31-2.94,15.25-5.15,32.76-14.66,72.82,3.86,93.84,32.96,21.02,29.1,27.4,65.98,32.35,101.54,4.95,35.55,9.42,72.36,27.55,103.33,25.43,43.44,77.91,69.37,127.86,63.17,62.8-7.8,114.71-60.37,177.98-62.1,50.84-1.39,96.33,30.61,133.48,65.35,37.15,34.73,71.59,74.55,117.9,95.57,52.55,23.85,112.92,20.16,170.48,16"/>
      <path class="cls-3" d="m112.96,51.49c-4.61-3.15-8.35-7.18-13.44-9.77-5.09-2.58-12.44-3.32-16.54.3-4.03,3.55-5.03,7.55-5.92,9.95-.15.4-1.59,5.65-1.65,6.04-.13.84.89,1.46,1.81,1.82,5.55,2.2,12.2,2.39,17.92.51s13.93-5.26,17.47-8.56"/>
      <g>
        <path class="cls-10" d="m86.78,43.88c-6.32,2.19-5.42,11.07-2.41,13.63,3.01,2.56,7.95,1.76,10.74-1.05,2.53-2.55,3.04-5.54,1.72-8.89-1.38-3.5-5.38-4.5-9.22-3.99"/>
        <path class="cls-11" d="m86.38,42.44c-3.36,1.21-5.33,4.06-5.75,7.55-.33,2.79.35,6,2.24,8.15,2.69,3.06,7.57,2.93,10.91,1.16,1.88-1,3.53-2.67,4.42-4.61.95-2.07,1.05-4.35.41-6.53s-2.04-4.15-4.21-5.16-4.5-1.2-6.8-.91c-.8.1-1.5.62-1.5,1.5,0,.73.69,1.6,1.5,1.5,2.87-.36,6.32-.02,7.69,2.73,1.48,2.95.6,6.45-2.13,8.34-2.24,1.56-5.74,2.15-7.86.2-.17-.16-.32-.33-.47-.5.17.2.05.06-.03-.06-.07-.11-.15-.23-.22-.34-.12-.21-.23-.43-.34-.64-.03-.06-.05-.11-.08-.17,0,.02.09.23.03.07-.05-.14-.11-.28-.16-.43-.19-.56-.32-1.13-.42-1.71-.05-.29,0,.14-.02-.16-.01-.14-.03-.28-.04-.42-.02-.31-.03-.62-.02-.93,0-.33.03-.67.07-1,.02-.18,0,.02,0,.04.01-.09.03-.19.05-.28.03-.19.08-.37.12-.56.08-.32.18-.64.3-.95.08-.22-.04.05.1-.23.08-.15.15-.3.23-.44.62-1.09,1.57-1.88,2.75-2.31.76-.27,1.27-1.02,1.05-1.85-.2-.74-1.08-1.32-1.85-1.05h0Z"/>
      </g>
      <path class="cls-6" d="m58.58,68.11c5.96-2.56,12.83-5.79,15.7-12.02,1.68-3.65,1.31-7.75,2.71-11.48,1-2.66,2.76-5.04,5.1-6.67s5.23-2.68,8.1-3.36,5.63-1.17,8.53-.73c3.47.53,5.92,2.93,8.16,5.49,1.72,1.96,3.53,3.96,5.44,5.74,2.51,2.33,5.88,2.94,9.18,3.24,5.26.47,10.54-.41,15.72-1.25,1.9-.31,1.09-3.2-.8-2.89-4.69.77-9.43,1.52-14.19,1.2-2.84-.19-5.93-.59-8.04-2.66-1.9-1.86-3.72-3.84-5.48-5.82-2.25-2.54-4.95-5.04-8.36-5.78-3.04-.65-5.93-.43-8.95.15s-6.04,1.43-8.78,2.86c-2.57,1.34-4.78,3.24-6.44,5.62-2.13,3.06-2.9,6.55-3.37,10.19-.27,2.12-.72,4.15-1.84,6-.95,1.56-2.24,2.88-3.66,4.01-3.04,2.43-6.69,4.05-10.24,5.58-1.77.76-.24,3.34,1.51,2.59h0Z"/>
      <path class="cls-8" d="m91.96,50.74c1.93,0,1.93-3,0-3s-1.93,3,0,3h0Z"/>
      <path class="cls-8" d="m31.62,86.12c-.1-.15-.19-.31-.28-.47-.04-.08-.1-.18-.13-.27l.08.2c-.02-.05-.04-.1-.06-.16-.13-.34-.21-.7-.27-1.06l.05.4c-.05-.39-.05-.77,0-1.16l-.05.4c.03-.19.07-.38.12-.56.02-.08.06-.15.08-.23-.11.4-.08.17-.02.06.08-.16.18-.3.28-.46-.23.36-.15.2-.06.1.05-.06.11-.11.17-.17.1-.09.32-.2-.07.04.06-.04.11-.08.17-.12.12-.08.26-.14.39-.21.1-.06-.4.15-.08.04.06-.02.13-.04.19-.06.15-.04.3-.07.46-.1l-.4.05c.24-.03.48-.03.73,0l-.4-.05c.11.01.21.03.32.06.05.01.1.03.16.05.27.08-.16-.05-.15-.07,0,0,.26.14.28.15.05.03.22.16,0,0s-.04-.03,0,.01c.03.03.06.06.09.09.11.12.08.2-.09-.12.04.07.08.15.13.22.09.14-.14-.39-.07-.18.01.04.03.09.04.13.03.1.05.2.06.31l-.05-.4c.02.21.02.42,0,.63l.05-.4c-.01.1-.03.19-.06.28-.02.08-.15.43-.04.15s-.02.03-.06.1c-.08.15-.32.37.03,0-.06.07-.12.14-.19.2-.05.05-.2.16.03-.01s.08-.06.02-.02c-.05.03-.09.05-.14.08-.18.11.34-.11.19-.08-.1.02-.19.06-.29.07l.4-.05c-.11.01-.22.02-.34,0-.78-.06-1.53.73-1.5,1.5.04.86.66,1.44,1.5,1.5,1.5.11,2.66-1.01,3.17-2.32s.24-2.74-.67-3.72c-1-1.08-2.64-1.35-4.01-.96-1.5.43-2.63,1.56-3.11,3.03-.55,1.67-.13,3.62.8,5.06.43.66,1.35.99,2.05.54.66-.42.99-1.35.54-2.05h0Z"/>
      <g>
        <path class="cls-7" d="m58.62,94.24c6.11-4.69,11.95-9.75,17.47-15.13,2.84,2.15,3.21,6.59,1.4,9.66-1.81,3.07-5.29,4.85-8.8,5.44s-7.1.15-10.64-.29"/>
        <path class="cls-4" d="m59.38,95.53c6.21-4.78,12.15-9.9,17.77-15.37h-2.12c1.58,1.25,2.22,3.14,2.04,5.12-.2,2.16-1.49,4.02-3.23,5.27-4.57,3.29-10.55,2.51-15.79,1.85-.81-.1-1.5.76-1.5,1.5,0,.89.69,1.4,1.5,1.5,6.34.79,13.38,1.31,18.53-3.22,3.98-3.5,5.08-10.55.56-14.14-.64-.51-1.49-.62-2.12,0-5.43,5.29-11.16,10.28-17.17,14.9-.64.49-.99,1.29-.54,2.05.37.63,1.4,1.04,2.05.54h0Z"/>
      </g>
      <path class="cls-12" d="m189.12,52.22c-1.32-3.65-7.21-3.79-9.44-.62-2.23,3.17-1.06,7.87,1.79,10.51,4.62,4.3,13.03,3.33,16.55-1.91s1.25-13.39-4.47-16.05c-2.85-1.33-6.94-.95-8.28,1.9"/>
      <path class="cls-12" d="m227.44,96.11l-3.16-2.12c-1.08,4.14-2.17,8.51-1.02,12.63,1.16,4.12,5.44,7.68,9.53,6.44,3.6-1.09,5.37-5.17,5.83-8.9,1.04-8.3-4.45-18.43-12.79-17.81-1.6.12-3.56,1.73-2.51,2.95"/>
      <path class="cls-12" d="m221.76,71.3c-.93-1.22-1.86-2.45-2.8-3.67-.63,3.4.38,7.27,3.18,9.29s7.41,1.39,8.95-1.71c1.57-3.14-.4-6.82-2.31-9.77-1.05-1.61-2.34-3.37-4.24-3.65s-3.87,2.27-2.46,3.58"/>
      <path class="cls-12" d="m259.3,128.34c-.25-3.25-5.25-4.39-7.48-2s-1.61,6.48.6,8.88c2.21,2.4,5.54,3.42,8.77,3.91,1.83.28,3.8.39,5.43-.5,2.54-1.38,3.33-4.84,2.5-7.61s-2.9-4.97-5-6.96c-2.07-1.95-4.5-3.91-7.34-3.92s-5.68,3.08-4.35,5.6"/>
      <path class="cls-12" d="m255.37,184.98l-2.3-2.35c-1.69,4.69-1.95,10.12.41,14.51,2.36,4.39,7.76,7.28,12.52,5.8,2.46-.77,4.5-2.56,6.04-4.63,3.6-4.84,4.66-11.67,2.03-17.1-2.63-5.43-9.14-8.91-14.99-7.41-5.85,1.49-9.96,8.28-8,13.99"/>
      <path class="cls-12" d="m286.69,203c-1.64,2.95-1.62,7.66,1.6,8.66,3.24,1,5.95-2.99,5.98-6.38s-1.28-6.83-.4-10.11c-2.05-1.02-4.9.27-5.47,2.5"/>
      <path class="cls-12" d="m285.13,252.01c-.59-2.96-4.07-4.75-7.03-4.13s-5.25,3.13-6.35,5.95c-1.48,3.77-1.04,8.31,1.43,11.52,2.47,3.2,6.99,4.79,10.82,3.5,2.97-1,5.21-3.46,6.88-6.11,2.17-3.44,3.61-7.53,3.05-11.56-.56-4.03-3.47-7.89-7.46-8.68s-8.56,2.35-8.51,6.42"/>
      <path class="cls-12" d="m306.14,286.03c3.81-2.39,9.69.73,9.85,5.22s-5.48,8.02-9.45,5.92c-3.97-2.1-4.21-8.76-.4-11.14"/>
      <path class="cls-12" d="m345.35,319.61c-4.34.78-8.77,5.4-6.45,9.15,2.27,3.68,8.81,1.42,9.73-2.8s-2.04-8.39-5.56-10.9"/>
      <path class="cls-12" d="m380,336.82c-1.36-1.73-4.19-1.72-5.95-.39s-2.59,3.57-2.84,5.76c-.43,3.79.76,7.86,3.6,10.4s7.4,3.19,10.57,1.07c3.93-2.63,4.55-8.06,4.69-12.79.09-3.02-.23-6.69-2.93-8.06-3.15-1.59-6.81,1.46-8.08,4.76s-1.35,7.07-3.27,10.02"/>
      <path class="cls-12" d="m442.4,318.51c-4.2-.56-7.45,4.68-6.13,8.7,1.32,4.03,5.64,6.4,9.85,6.92,2.47.31,5.11.07,7.22-1.26,3.65-2.31,4.58-7.98,1.86-11.34-2.72-3.36-8.46-3.63-11.48-.53"/>
      <path class="cls-12" d="m492.34,316.09c-3.79-2.33-8.6,3.89-5.85,7.39,2.75,3.5,9.25,1.67,10.53-2.59.61-2.03.16-4.46-1.48-5.79-1.65-1.33-4.5-1.04-5.49.83"/>
      <path class="cls-12" d="m531.49,299.16c-3.17-.87-6.79,1.85-6.82,5.14,2.55.81,5.7.94,7.55-1.01,1.84-1.94.44-6.16-2.19-5.66"/>
      <path class="cls-12" d="m560.32,301.21c-3.6-1.22-7.54,2.8-6.81,6.53.73,3.73,5.04,6.07,8.77,5.34s6.64-3.93,7.86-7.53c1-2.96.74-6.76-1.84-8.52-2.56-1.75-6.28-.57-8.33,1.75-2.05,2.33-2.86,5.47-3.6,8.48"/>
      <path class="cls-12" d="m628,292.99c-3.19-3.68-10.2,0-10.12,4.88s5.18,8.49,10.05,8.56c4.92.07,9.95-3.05,11.36-7.77,1.41-4.72-1.64-10.5-6.49-11.36s-9.89,4.37-8.29,9.03"/>
      <path class="cls-12" d="m656.44,315.51c-3.22.07-6.4,2.25-7.23,5.36-.83,3.11,1.13,6.81,4.27,7.51s6.64-2.26,6.14-5.44c-.78-4.96-7.82-5.15-12.71-4.01"/>
      <path class="cls-12" d="m681.58,326.73c-1.51-1.28-3.02-2.56-4.52-3.84-2.91,4.28-1.87,10.82,2.34,13.84s10.9,1.76,13.57-2.68.49-11.08-4.36-12.91c-4.85-1.82-10.97,1.94-11.36,7.11"/>
      <path class="cls-12" d="m696.13,362.94c-4.65-.52-7.42,5.6-6.33,10.15,1.85,7.73,10.86,12.78,18.52,10.67s12.8-10.67,11.43-18.5c-1.12-6.42-6.77-12.15-13.29-12.13-6.52.01-12.44,6.98-10.39,13.17"/>
      <path class="cls-12" d="m728.7,336.18c-6.84.13-11.68,9.1-8.03,14.88,3.29,5.22,11.77,5.8,16,1.3s3.36-12.59-1.5-16.39-12.61-2.89-16.75,1.69"/>
      <path class="cls-12" d="m746.77,385.19l-3.65-1.1c-.7,2.69-1.4,5.49-.88,8.22s2.63,5.37,5.41,5.54c3.85.23,6.42-4.14,6.63-7.99.26-4.6-1.84-9.61-6.03-11.53s-10.16.71-10.55,5.3"/>
      <path class="cls-12" d="m773.93,420.25c-.68-1.89-3.55-2.12-5.05-.78s-1.84,3.55-1.73,5.56c.2,3.62,1.73,7.3,4.65,9.45s7.32,2.39,10.09.03c2.94-2.5,3.28-7.1,1.83-10.68-1.44-3.58-4.29-6.38-7.06-9.06-1.16,2.17-2.33,4.35-3.49,6.52"/>
      <path class="cls-12" d="m753.49,358.95c-1.56,2.57-3.18,5.34-3.08,8.34.11,3.01,2.77,6.11,5.71,5.48,3-.64,4.13-4.44,3.76-7.49-.38-3.12-2.12-6.46-5.18-7.18s-6.52,3.08-4.61,5.58"/>
      <path class="cls-12" d="m750.96,419.99c-1.28-2.18-5.29-.97-5.52,1.55-.24,2.52,2.73,4.55,5.16,3.87,2.43-.68,3.93-3.38,3.78-5.91s-1.64-4.81-3.51-6.51c-1.09.26-1.72,1.68-1.18,2.67"/>
      <path class="cls-12" d="m666.99,346.04c.62-1.57-2.34-2.8-3.01-1.25-2.64,1.51.35,6.28,3.19,5.19,2.84-1.09,3.18-5.37,1.24-7.71-.69-.83-1.76-1.53-2.79-1.23s-1.39,2.06-.37,2.41"/>
      <path class="cls-12" d="m622.97,320.11c-1-1.13-2.88-1.34-4.11-.47,0,2.99,3.86,5.42,6.27,3.64,2.41-1.77.25-6.67-2.57-5.68"/>
      <path class="cls-12" d="m588.37,284.6c-3.57.79-3.19,7.13.38,7.88,3.57.75,6.68-4,4.94-7.21-1.24.01-2.49.03-3.73.04-.08,1.34-.15,2.69-.23,4.03"/>
      <path class="cls-12" d="m599.52,301.51c-2.6.14-4.33,3.6-2.89,5.77,3.23,1.11,6.94-2.6,5.83-5.82-.23-.68-.81-1.39-1.52-1.26s-.56,1.55.11,1.28"/>
      <path class="cls-12" d="m543.99,290.74c-.67-1.75-1.33-3.5-2-5.26-3.25-.1-5.08,4.8-2.72,7.04s6.92.58,7.57-2.6-2.47-6.42-5.71-6.19"/>
      <path class="cls-12" d="m461.64,338.97c.99-.97-.89-2.84-1.85-1.85-2.46,1.32.72,5.57,3.2,4.3s2.61-4.92,1.37-7.42"/>
      <path class="cls-12" d="m405.11,336.56l-3.84-2.68c-.9,3.75-.59,7.78.89,11.35,3.43-2.56,5.16-7.22,4.22-11.4"/>
      <path class="cls-12" d="m353.66,350.58c-2.1-.62-4.58.68-5.26,2.77-.67,2.09.58,4.6,2.65,5.32,3.41-2.23,3.65-7.95.43-10.46"/>
      <path class="cls-12" d="m306.82,317.66c-2.82-.8-5.95,2.14-5.34,5,1.17,3,6.1,3.43,7.76.67,1.67-2.76-1-6.92-4.21-6.56"/>
      <path class="cls-12" d="m269.1,289.08l-3.39-.7c-2.67,2.75-.98,8.24,2.77,9.02s7.49-3.57,6.14-7.16c-.71-1.91-4.18-2.73-4.32-.7"/>
      <path class="cls-12" d="m261.54,220.84c-1.93,2.12,1.7,5.98,3.94,4.19s-.74-6.18-3.23-4.76"/>
      <path class="cls-12" d="m297.69,228.02c-1.59,1.19-3.3,2.54-3.69,4.49s1.53,4.3,3.34,3.48c.68-.31,1.14-.96,1.4-1.66,1.42-3.85-4.6-7.68-7.48-4.76"/>
      <path class="cls-12" d="m280.1,167.12c-3.15.02-4.08,5.52-1.11,6.58s5.71-3.81,3.28-5.81c-1.07-.53-2.42.94-1.81,1.96"/>
      <path class="cls-12" d="m236.98,143.37c-2.47,1.08-3.64,4.41-2.4,6.8,3.27,1.76,6.96-4.05,3.97-6.26-1.62.5-2.83,2.08-2.91,3.77"/>
      <path class="cls-12" d="m249.82,98.39c-2.61.89-4.45,3.83-3.79,6.5s3.99,4.43,6.45,3.19,2.86-5.32.53-6.79c-1.59-.38-3.18-.76-4.78-1.14"/>
      <path class="cls-12" d="m205.33,73.05c-1.85,1.1-2.64,3.69-1.71,5.64.93,1.94,3.45,2.95,5.46,2.2,0-3.13-.02-6.27-.02-9.4-2.16-.97-4.84,1.78-3.82,3.92"/>
      <path class="cls-12" d="m160.53,40.82c-.64-1.28-2.39-1.87-3.67-1.23-1.44,1.85-.03,5.09,2.31,5.28,1.08-1.35,2.22-2.93,1.93-4.64s-3-2.69-3.73-1.13"/>
      <path class="cls-12" d="m131.44,29.74c-2.71-.93-5.06,3.64-2.73,5.3,1.56.16,3.1-1.25,3.08-2.82-.02-1.57-1.59-2.94-3.15-2.74"/>
      <path class="cls-12" d="m156.41,56.06c-.77-1.4-2.19-2.44-3.76-2.74-1.59,1.83-2.13,4.52-1.35,6.81,2.51.53,5.19-1.75,5.09-4.3-.1-2.56-2.96-4.61-5.42-3.89"/>
      <path class="cls-12" d="m50.93,56.02l1.39-1.39"/>
      <path class="cls-8" d="m623.07,275.96c1.93,0,1.93-3,0-3s-1.93,3,0,3h0Z"/>
      <g id="EelSpine">
        <g class="cls-2">
          <path class="cls-9" d="m33.95,51.26C60.46,25.07,92.51,11.75,125.54,4.82c33.03-6.93,69.05-3.46,97.79,14.22,16.47,10.14,29.95,24.43,42.49,39.15,33.67,39.53,48.54,100.88,64.74,150.22,9.09,27.68,19.4,59.78,44.36,74.81,13.51,8.13,42.54,8.85,60.71,3.33,24.79-7.53,49.35-13.48,72.84-24.42,59.9-27.9,132.1-25.49,192.01,2.41,59.91,27.89,107.3,79.88,133.82,140.41,3.49,7.96,7.54,16.95,15.77,19.74,4.53,1.54,9.47.82,14.2.08,15.35-2.39,30.7-4.77,46.05-7.16,20.72-3.22,46.45-11.46,48.28-32.35,14.53,9.38,13.1,32.7,1.62,45.64-11.48,12.94-29.12,18.15-45.79,22.75-35.26,9.73-78.08,17.6-104.2-8.01-13.42-13.15-18.75-32.18-26.28-49.4-24.97-57.14-78.85-94.39-139.17-110.2-32.32-8.47-47.32-11.79-81.92-9.79-14.55.84-46.19,8.03-60.26,11.83-9.06,2.45-21.56,6.52-35.11,11.28-21.11,7.41-36.13,18.12-58.37,20.64-16.15,1.83-31.65,1.2-46.91-4.4-17.78-6.52-32.67-19.66-41.2-36.56-8.53-16.91-12.1-35.8-15.72-54.38-9.33-47.99-18.6-99.83-50.02-137.28-27.92-33.27-60.19-57.47-102.98-64.94-42.78-7.47-85.84,1.62-118.58,28.81"/>
          <path class="cls-8" d="m35.01,52.32C64.51,23.47,106.09,6.09,147.19,3.33c21.44-1.44,43.38,1.62,63.05,10.47,20.03,9.01,35.99,24.25,50.3,40.57,26.42,30.14,40.77,67.51,52.99,105.18,5.87,18.08,11.29,36.3,17.25,54.35,5.58,16.9,11.48,34.2,21.52,49.07,8.98,13.3,20.97,23.74,36.99,26.89,17.43,3.43,34.93,1.63,51.81-3.38,21.87-6.49,44.03-12.29,64.92-21.59,19.76-8.8,39.81-15.49,61.28-18.65,42.65-6.27,87.15-.09,126.68,17.02,35.42,15.33,66.78,39.27,92.1,68.3,12.84,14.72,24.14,30.78,33.74,47.8,4.71,8.35,9,16.93,12.88,25.7,3.18,7.2,6.56,15.45,13.7,19.6,8.09,4.71,18.5,1.53,27.1.19,11.81-1.84,23.62-3.66,35.43-5.51,14.82-2.32,31.66-5.92,42.78-16.8,4.82-4.72,7.64-10.58,8.37-17.27l-2.26,1.3c17.15,11.72,9.58,37.05-3.8,48.25-8.3,6.94-18.62,10.98-28.83,14.17-9.87,3.08-19.92,5.74-30.02,7.95-19.06,4.17-39.69,6.92-58.83,1.72-9.87-2.69-18.99-7.71-26.12-15.1-7.72-8.01-12.66-18.15-16.91-28.3-7.75-18.52-15.14-36.43-27.16-52.71-10.95-14.85-24.15-27.88-38.87-38.98-31.88-24.02-69.56-37.24-108.31-45.33-18.89-3.94-38.17-4.86-57.41-3.36-16.75,1.3-33.49,5.39-49.77,9.35-19.37,4.71-38.8,10.75-57.12,18.63-10.07,4.33-19.91,9.3-30.43,12.5-11.7,3.55-24.23,4.62-36.41,3.95-23.02-1.28-44.91-11.49-58.85-30.17-14.14-18.94-18.14-43.65-22.53-66.29-7.93-40.85-15.5-83.59-37.83-119.48-10.72-17.22-25.07-32.62-40.47-45.76-14.63-12.48-31.1-22.75-49.16-29.47-38.54-14.34-83.78-13.14-120.72,5.33-9.17,4.59-17.7,10.26-25.62,16.76-1.49,1.23.64,3.34,2.12,2.12C70.4,23.09,119.13,15.06,163.31,26.34c20.14,5.14,38.82,14.69,55.29,27.32,16.75,12.85,32.41,28.74,44.25,46.26,24.52,36.28,32.4,80.78,40.58,122.96,4.32,22.26,8.22,46.35,21.34,65.44,11.39,16.58,28.94,27.86,48.55,32.05,22.34,4.77,45.37,1.34,66.17-7.55,10.57-4.52,20.89-9.4,31.77-13.18s21.03-7.2,31.74-10.11c35.91-9.73,72.99-16.33,110.06-9.45,39.77,7.38,78.95,20.94,111.64,45.23,16.16,12.01,30.56,26.52,42.01,43.1,5.55,8.04,10.42,16.55,14.52,25.43,4.45,9.65,7.89,19.73,12.35,29.37,8.34,18.05,21.24,32.25,40.74,37.95,18.18,5.32,37.83,3.37,56.15-.22,10.09-1.98,20.06-4.59,29.95-7.43s18.82-5.78,27.3-10.71c14.76-8.58,25.45-23.87,22.49-41.57-1.19-7.12-4.87-13.21-10.84-17.29-1.04-.71-2.14.27-2.26,1.3-1.96,17.82-21.39,25.26-36.53,28.84-9.9,2.34-20.09,3.53-30.13,5.09-5.31.83-10.63,1.65-15.94,2.48-6.4.99-13.29,2.85-19.79,2.38-11.04-.8-15.52-11.74-19.41-20.52s-7.95-16.92-12.53-25.07c-9.22-16.42-20.02-31.96-32.22-46.31-51.26-60.25-127.54-96.51-207.28-90.66-20.2,1.48-40.22,5.61-59.25,12.58-10.36,3.79-20.2,8.8-30.49,12.76-10.83,4.17-21.93,7.59-33.06,10.87-10.28,3.03-20.62,6.69-31.11,8.91-8.89,1.88-18.13,2.36-27.2,1.84-8.31-.48-17.25-1.7-24.75-5.55-8.07-4.14-14.87-10.97-20.22-18.19-11.07-14.93-17.3-32.86-23.09-50.32-5.89-17.77-11.25-35.7-16.99-53.51-11.45-35.53-24.49-72.39-48.47-101.63-12.98-15.83-27.58-31.22-45.21-41.89C206.54,7.13,187.12,1.73,167.51.34s-40.15,1.71-59.49,7.26c-18.53,5.32-36.41,13.12-52.4,23.95-8.14,5.51-15.71,11.78-22.74,18.65-1.38,1.35.74,3.47,2.12,2.12h0Z"/>
        </g>
        <g class="cls-1">
          <path class="cls-8" d="m177.19,28.62c9.38-7.77,21.23-12.39,33.39-13.07,1.92-.11,1.93-3.11,0-3-13.01.73-25.48,5.65-35.51,13.95-1.49,1.23.64,3.34,2.12,2.12h0Z"/>
        </g>
        <g class="cls-1">
          <path class="cls-8" d="m210.38,47.31c-.28-.68,3.57-2.53,4.24-2.92,1.67-.97,3.35-1.91,5.06-2.79,3.61-1.85,7.39-3.39,11.38-4.18,6.58-1.3,14.08-.15,18.93,4.78,1.36,1.38,3.48-.74,2.12-2.12-4.46-4.53-10.9-6.37-17.14-6.11-7.22.29-13.94,3.35-20.13,6.84-1.78,1-3.61,2-5.32,3.12-1.36.9-2.75,2.44-2.03,4.18s3.63.99,2.89-.8h0Z"/>
        </g>
        <g class="cls-1">
          <path class="cls-8" d="m246.67,79.33c6.16-1.92,12.58-3.96,19.12-3.33,5.06.49,10.21,2.86,12.91,7.32,1,1.65,3.59.14,2.59-1.51-3.07-5.07-8.62-7.89-14.37-8.67-7.17-.98-14.28,1.19-21.05,3.3-1.84.57-1.05,3.47.8,2.89h0Z"/>
        </g>
        <g class="cls-1">
          <path class="cls-8" d="m271.58,117.3c3.23.71,6.5.66,9.79.46,2.97-.18,6.05-.51,9.01-.06,4.01.62,9.19,2.92,9.79,7.48.11.81.61,1.49,1.5,1.5.73,0,1.61-.7,1.5-1.5-.72-5.41-5.32-8.75-10.34-10.03-6.73-1.72-13.7.73-20.45-.75-1.88-.41-2.69,2.48-.8,2.89h0Z"/>
        </g>
        <g class="cls-1">
          <path class="cls-8" d="m293.5,166.15c2.83.5,5.67.5,8.53.41,2.7-.08,5.51-.25,8.17.32,3.69.8,8.1,3.25,8.34,7.48.11,1.92,3.11,1.93,3,0-.28-5.03-4.38-8.41-8.88-9.92-5.94-1.98-12.31-.12-18.37-1.19-1.89-.33-2.7,2.56-.8,2.89h0Z"/>
        </g>
        <g class="cls-1">
          <path class="cls-8" d="m302.8,209.46c6.25,1.23,12.1,3.73,17.86,6.37,4.51,2.06,9.74,4.13,12.21,8.74.91,1.7,3.5.19,2.59-1.51-2.66-4.97-7.97-7.38-12.86-9.62-6.13-2.81-12.35-5.56-19-6.86-1.89-.37-2.69,2.52-.8,2.89h0Z"/>
        </g>
        <g class="cls-1">
          <path class="cls-8" d="m312.02,247.34c6.44.18,12.82,1.01,19.08,2.52,3.04.73,6.04,1.62,8.99,2.65,1.29.45,6.31,1.69,5.95,3.79-.33,1.89,2.56,2.7,2.89.8.52-2.98-1.79-4.97-4.3-6.06-3.35-1.46-6.93-2.54-10.46-3.49-7.22-1.94-14.68-3-22.15-3.21-1.93-.05-1.93,2.95,0,3h0Z"/>
        </g>
        <g class="cls-1">
          <path class="cls-8" d="m341.15,300.46c6.05-8.2,14.73-19.17,26.41-16.23,1.87.47,2.67-2.42.8-2.89-5.94-1.49-12.17.34-17.08,3.79-5.19,3.65-8.99,8.77-12.71,13.82-1.15,1.56,1.46,3.05,2.59,1.51h0Z"/>
        </g>
        <g class="cls-1">
          <path class="cls-8" d="m412.34,317.49c-1.16-6.66,1.21-13.67,5.64-18.69,2.19-2.49,4.88-4.55,7.94-5.87,2.74-1.18,7.18-1.31,7.51-5.08.17-1.92-2.83-1.91-3,0-.09.97-2.99,1.35-3.74,1.6-1.65.54-3.24,1.27-4.73,2.15-3,1.79-5.56,4.2-7.64,6.99-4.19,5.62-6.07,12.78-4.87,19.7.33,1.9,3.22,1.09,2.89-.8h0Z"/>
        </g>
        <g class="cls-1">
          <path class="cls-8" d="m462.37,298.85c1.82-5.33,3.71-10.76,7.09-15.34,2.93-3.96,7.31-7.3,12.32-7.88,1.9-.22,1.92-3.22,0-3-5.75.66-10.68,3.97-14.22,8.46-3.93,4.98-6.06,11.03-8.09,16.96-.62,1.83,2.27,2.62,2.89.8h0Z"/>
        </g>
        <g class="cls-1">
          <path class="cls-8" d="m543.48,276.74c2.22-11.1,5.69-26.05,18.77-28.7,1.89-.38,1.09-3.28-.8-2.89-6.07,1.23-11.01,5.54-14.24,10.68-3.79,6.05-5.25,13.2-6.63,20.11-.38,1.89,2.51,2.69,2.89.8h0Z"/>
        </g>
        <g class="cls-1">
          <path class="cls-8" d="m625.82,280.95c2.82-4.28,5.64-8.57,8.46-12.85,2.46-3.73,4.76-8.04,8.4-10.76,6.46-4.84,15.42-3.99,22.97-3.25,1.92.19,1.91-2.81,0-3-6.48-.63-13.43-1.18-19.66,1.13-3.18,1.18-5.96,3.07-8.18,5.65-2.53,2.94-4.53,6.33-6.66,9.56-2.64,4.01-5.28,8.01-7.92,12.02-1.07,1.62,1.53,3.12,2.59,1.51h0Z"/>
        </g>
        <g class="cls-1">
          <path class="cls-8" d="m682.04,298.02c3.87-.8,5.48-4.69,7.6-7.56s5.01-5.37,8.16-7.19c6.35-3.67,14.05-4.87,21.15-2.95,1.87.51,2.66-2.39.8-2.89-7.42-2.01-15.41-.95-22.22,2.56-3.36,1.74-6.45,4.11-8.93,6.98-1.26,1.46-2.29,3.05-3.35,4.66s-2.12,3.1-4.02,3.49-1.09,3.28.8,2.89h0Z"/>
        </g>
        <g class="cls-1">
          <path class="cls-8" d="m730.62,326.01l14.19.36c4.62.12,9.31.04,13.89.67s8.91,2.28,13.16,4c3.61,1.46,7.24,2.92,10.69,4.73,3.91,2.05,7.51,4.55,10.38,7.94,1.25,1.48,3.36-.66,2.12-2.12-5.25-6.2-12.83-9.54-20.18-12.54-4.3-1.76-8.63-3.58-13.2-4.52s-9.6-.98-14.42-1.1c-5.55-.14-11.09-.28-16.64-.42-1.93-.05-1.93,2.95,0,3h0Z"/>
        </g>
        <g class="cls-1">
          <path class="cls-8" d="m777.75,374.4c8.76.31,17.47,1.39,26.03,3.28,6.37,1.41,12.88,3.41,18.17,7.37,2.87,2.14,5.13,4.91,6.55,8.21.76,1.77,3.34.24,2.59-1.51-2.71-6.31-8.43-10.55-14.58-13.21-7.28-3.15-15.23-4.65-23.04-5.75-5.21-.73-10.45-1.2-15.71-1.38-1.93-.07-1.93,2.93,0,3h0Z"/>
        </g>
        <g class="cls-1">
          <path class="cls-8" d="m816.63,443.09c5.67-5.41,12.22-9.84,19.35-13.09,3.53-1.61,7.21-2.91,10.96-3.89,2.39-.63,6.58-1.69,8.14.98.98,1.66,3.57.16,2.59-1.51-1.91-3.26-5.91-3.46-9.26-2.88-4.13.71-8.22,2.26-12.06,3.89-8.09,3.43-15.5,8.33-21.85,14.39-1.4,1.34.72,3.46,2.12,2.12h0Z"/>
        </g>
        <g class="cls-1">
          <path class="cls-8" d="m898.28,453.08c.84-8.01,1.69-16.34,5.35-23.64,1.54-3.09,3.53-5.94,6.08-8.29,1.09-1.01,2.39-2.17,3.77-2.75.54-.23,1.2-.35,1.79-.28.12.01.31.03.42.09.15.09.06-.46.05.13-.03,1.93,2.97,1.93,3,0,.05-2.89-3.09-3.56-5.39-3.03-2.85.67-5.5,3.27-7.4,5.37-4.77,5.27-7.39,12.04-8.81,18.92-.91,4.45-1.39,8.97-1.86,13.48-.2,1.92,2.8,1.9,3,0h0Z"/>
        </g>
        <g class="cls-1">
          <path class="cls-8" d="m941.41,445.99c-.92-8.13-1.33-16.31-1.19-24.49.1-5.83-.09-15.84,7.6-16.96,1.9-.28,1.09-3.17-.8-2.89-3.33.48-6.08,2.93-7.6,5.85-1.84,3.54-2.03,7.62-2.14,11.52-.27,9,.12,18.02,1.13,26.97.22,1.9,3.22,1.92,3,0h0Z"/>
        </g>
        <g class="cls-1">
          <path class="cls-8" d="m149.15,22.04c3.82-8.41,11.09-15.01,19.9-17.87,1.83-.59,1.05-3.49-.8-2.89-9.5,3.08-17.55,10.14-21.69,19.25-.79,1.74,1.79,3.27,2.59,1.51h0Z"/>
        </g>
        <g class="cls-1">
          <path class="cls-8" d="m107.5,17.71c3.14-5.37,8.88-9.12,15.09-9.7.81-.08,1.5-.64,1.5-1.5,0-.75-.69-1.58-1.5-1.5-7.29.68-13.98,4.85-17.68,11.19-.98,1.67,1.62,3.18,2.59,1.51h0Z"/>
        </g>
      </g>
      <path class="cls-3" d="m73.39,65.4c11.58,5.26,25.55,4.06,36.26-2.75,3.05-1.94,5.8-4.31,8.13-7.07,1.24-1.47-.87-3.6-2.12-2.12-9.68,11.46-27.03,15.59-40.76,9.35-1.74-.79-3.27,1.79-1.51,2.59h0Z"/>
    </g>
  </g>
</svg>