<?xml version="1.0" encoding="UTF-8"?>
<svg id="Layer_2" data-name="Layer 2" xmlns="http://www.w3.org/2000/svg" xmlns:xlink="http://www.w3.org/1999/xlink" viewBox="0 0 624.15 421.53">
  <defs>
    <style>
      .cls-1 {
        fill: #3c1146;
      }

      .cls-1, .cls-2, .cls-3, .cls-4, .cls-5, .cls-6, .cls-7, .cls-8, .cls-9, .cls-10, .cls-11, .cls-12, .cls-13, .cls-14 {
        stroke-width: 0px;
      }

      .cls-2 {
        fill: #4b1d5f;
      }

      .cls-3 {
        fill: #f3e3c2;
      }

      .cls-15 {
        opacity: .91;
      }

      .cls-4 {
        fill: #592f60;
      }

      .cls-5 {
        fill: #2d003d;
      }

      .cls-6 {
        fill: #fff;
      }

      .cls-7 {
        fill: #fff7d4;
      }

      .cls-8 {
        fill: #361148;
      }

      .cls-9 {
        fill: url(#radial-gradient-2);
      }

      .cls-10 {
        fill: #5e3868;
      }

      .cls-11 {
        fill: url(#radial-gradient);
      }

      .cls-12 {
        fill: #2c0046;
      }

      .cls-16 {
        opacity: .67;
      }

      .cls-13 {
        fill: #521d5f;
      }

      .cls-14 {
        fill: url(#radial-gradient-3);
      }
    </style>
    <radialGradient id="radial-gradient" cx="87.81" cy="145.41" fx="87.81" fy="145.41" r="440.36" gradientUnits="userSpaceOnUse">
      <stop offset=".16" stop-color="#6b4f6d"/>
      <stop offset=".28" stop-color="#65476b"/>
      <stop offset=".46" stop-color="#553267"/>
      <stop offset=".67" stop-color="#3b0f60"/>
      <stop offset=".7" stop-color="#380b5f"/>
      <stop offset=".88" stop-color="#2b0048"/>
    </radialGradient>
    <radialGradient id="radial-gradient-2" cx="255.93" cy="170.42" fx="255.93" fy="170.42" r="9.61" gradientUnits="userSpaceOnUse">
      <stop offset=".16" stop-color="#2e006a"/>
      <stop offset=".45" stop-color="#1e0058"/>
      <stop offset="1" stop-color="#05003a"/>
    </radialGradient>
    <radialGradient id="radial-gradient-3" cx="100.11" cy="113.53" fx="100.11" fy="113.53" r="141.26" gradientUnits="userSpaceOnUse">
      <stop offset=".21" stop-color="#ebba8d"/>
      <stop offset=".6" stop-color="#6b4f6d"/>
      <stop offset=".69" stop-color="#65476b"/>
      <stop offset=".82" stop-color="#553267"/>
      <stop offset=".98" stop-color="#3b0f60"/>
      <stop offset="1" stop-color="#380b5f"/>
    </radialGradient>
  </defs>
  <g id="Angler">
    <g id="FinalAngler">
      <path class="cls-11" d="m239.65,315.02c-26.83,8.9-43.79,10.36-65,17-19.94,6.24-41.21,6.74-57.06,20.36-3,2.58-5.87,5.79-4.02,10.82,1.14,3.09,3.81,5.31,6.97,6.22,5.09,1.46,6.86,4.1,11.41,1.61-1.93,7.22,2.63,14.92,8.92,18.94s33.67,20.38,50.37,25.05c39.4,11,72.5,8.11,123.09-9.07,30.66-10.41,56.61-30.94,83.74-48.59,21.47-13.97,45.18-26.57,70.16-30.31,18.75-2.81,34.6-15.89,40.25-33.98,8.84-28.29-9.48-60.44-90.42-132.97-19.02-17.04-35.63-37.13-58.21-49.06-24.18-12.77-51.35-24.59-78.25-29.46-25.6-4.63-52.28-2.49-77.33,4.52-34.46,9.65-60.21,38.3-79.77,68.26-12.72,19.49-15.38,60.66-24.85,60.66-6,0-10,10-5,17,3.55,4.97,18.9,6.03,24.67,8.01,53.92,18.5,107.84,37,161.76,55.5-13.07,7.88-27,14.34-41.45,19.25"/>
      <path class="cls-12" d="m371.72,225.72c.69,10.27,1.39,20.59,3.61,30.67,1.12,5.07,2.69,10,4.61,14.82s4.07,9.58,5.91,14.45c6.6,17.47,10.21,39.3-2.23,55.2-3.23,4.13-7.37,7.44-11.7,10.35-2.18,1.46-4.42,2.84-6.67,4.19-.86.52-1.69,1.12-2.68,1.36-.39.1-.87.2-1.28.12-.26-.06-.17.05-.17.01-.12-1.92-3.12-1.93-3,0s1.58,2.97,3.44,3c2.04.04,3.71-1,5.39-2.01,4.29-2.59,8.55-5.27,12.42-8.47,7.69-6.35,12.66-14.94,14.57-24.71,2-10.26.73-20.79-2.15-30.76-3.08-10.68-8.4-20.5-11.66-31.1-3.71-12.02-4.56-24.63-5.4-37.11-.13-1.92-3.13-1.93-3,0h0Z"/>
      <path class="cls-8" d="m355.25,186.78c6.93-1.68,11.3,7.13,12.94,12.43,2.7,8.71,3.75,17.83,3.21,26.92-.12,1.93,2.89,1.92,3,0,.47-7.86-.24-15.78-2.12-23.43-1.5-6.1-3.73-12.67-8.87-16.68-2.6-2.03-5.71-2.92-8.95-2.14-1.88.45-1.08,3.35.8,2.89h0Z"/>
      <path class="cls-4" d="m280.14,193.83c-8.05,5.93-19.11,6.75-28.65,3.79s-17.73-9.31-24.57-16.61c-2.73-2.91-5.4-6.29-5.64-10.27-.2-3.3,1.32-6.43,2.8-9.39,2.75-5.5,5.71-11.23,10.77-14.71-.13,2.92.2,5.87.95,8.7,14.41-6.39,28.58-13.31,42.49-20.73-5.83,6.79-11.05,14.1-15.57,21.82,17.02-2.65,31.05-17.19,48.28-17.26-2.41,8.01-8.39,14.88-16,18.37,5.94,5.72,17.38-1,23.54,4.48-9.14,4.32-18.27,8.65-27.41,12.97,6.19.21,13.13.77,17.17,5.46-5.23,2.23-10.46,4.46-15.69,6.69,1.99,2.06,4.12,3.97,6.39,5.72-7.64,1.82-15.38,3.19-23.18,4.1-3.05.36-7.2-.14-7.66-3.18"/>
      <path class="cls-9" d="m261.15,161.52c-4,0-5.61.46-8.62,2.26s-4.25,4.5-4.92,7.94c-.29,1.46-.24,4.04.47,5.34.56,1.03,2.45,2.87,3.46,3.49,4.36,2.66,9.1,2.68,13.81.72s8.06-7.36,6.79-12.3c-.35-1.37-5.2-6.27-9.99-7.45"/>
      <path class="cls-14" d="m67.57,85.58c7.63-.03,12.96,7.73,12.42,15.34-.55,7.61-6.96,14.06-14.38,15.81s-15.43-.72-21.46-5.39c-14.44-11.19-16.88-33.09-10.08-50.05,6.8-16.96,20.82-29.89,35.14-41.24,6.16-4.88,12.5-9.61,19.53-13.12,25.58-12.76,58.02-7.08,80.71,10.31,22.69,17.39,34.7,45.27,40.7,70.27.52,2.17,1,5,1.36,10.31.47,6.95-2.17,14.4-7.86,18.43s-14.69,3.39-18.64-2.36h0c-.54-.87-1.23-2.48-1.87-4.38-1-3-1.78-5.46-1.46-11.2.4-7.33.8-14.73-.35-21.99-3.49-22.11-21.13-39.93-41.35-49.54-14.43-6.86-31.78-10.15-46.23-3.34-6.39,3.01-11.78,7.8-16.58,12.98-10.61,11.45-18.8,25.14-23.85,39.91-.98,2.87-1.83,6.11-.54,8.86,2.39,5.07,10.38,6.02,15.85,4.82l-1.08-4.43Z"/>
      <g>
        <path class="cls-3" d="m96.18,61.86c1.38-5.53,3.87-10.79,7.28-15.36"/>
        <path class="cls-3" d="m97.62,62.26c1.37-5.43,3.79-10.5,7.13-15,.48-.65.11-1.67-.54-2.05-.76-.45-1.57-.11-2.05.54-3.48,4.69-6.01,10.06-7.43,15.72-.47,1.87,2.42,2.67,2.89.8h0Z"/>
      </g>
      <g>
        <path class="cls-3" d="m124.15,83.76l10-.66"/>
        <path class="cls-3" d="m124.15,85.26l10-.66c.78-.05,1.54-.65,1.5-1.5-.03-.77-.66-1.56-1.5-1.5l-10,.66c-.78.05-1.54.65-1.5,1.5.03.77.66,1.56,1.5,1.5h0Z"/>
      </g>
      <g>
        <path class="cls-3" d="m122.17,123.8c4.01,1.51,7.83,3.56,11.3,6.07"/>
        <path class="cls-3" d="m121.77,125.25c3.89,1.47,7.57,3.49,10.94,5.92.66.47,1.67.11,2.05-.54.44-.76.12-1.58-.54-2.05-3.6-2.59-7.52-4.65-11.66-6.22-.76-.29-1.64.32-1.85,1.05-.23.84.29,1.56,1.05,1.85h0Z"/>
      </g>
      <g>
        <path class="cls-3" d="m89.64,147.77c2.44,4.38,4.14,9.18,5.01,14.12"/>
        <path class="cls-3" d="m88.34,148.52c2.37,4.29,3.99,8.93,4.86,13.76.14.8,1.12,1.25,1.85,1.05.84-.23,1.19-1.04,1.05-1.85-.91-5.07-2.67-9.96-5.16-14.47-.93-1.69-3.53-.18-2.59,1.51h0Z"/>
      </g>
      <g>
        <path class="cls-3" d="m48.06,145.82c-1.31,4.37-3.78,8.38-7.09,11.52"/>
        <path class="cls-3" d="m46.61,145.42c-1.26,4.13-3.57,7.87-6.7,10.86-1.4,1.34.73,3.46,2.12,2.12,3.49-3.34,6.07-7.56,7.47-12.19.56-1.85-2.33-2.64-2.89-.8h0Z"/>
      </g>
      <g>
        <path class="cls-3" d="m26.7,120.05l-19.71,5.1"/>
        <path class="cls-3" d="m26.3,118.6c-6.57,1.7-13.14,3.4-19.71,5.1-1.87.48-1.08,3.38.8,2.89,6.57-1.7,13.14-3.4,19.71-5.1,1.87-.48,1.08-3.38-.8-2.89h0Z"/>
      </g>
      <g>
        <path class="cls-3" d="m20.16,79.75c-6.44-.26-12.82-1.85-18.63-4.65"/>
        <path class="cls-3" d="m20.16,78.25c-6.18-.27-12.29-1.78-17.87-4.45-1.73-.83-3.26,1.76-1.51,2.59,6.08,2.91,12.65,4.56,19.39,4.86,1.93.08,1.93-2.92,0-3h0Z"/>
      </g>
      <g>
        <path class="cls-3" d="m52.5,44.52c-.1-5.95-1.29-11.88-3.51-17.41"/>
        <path class="cls-3" d="m54,44.52c-.12-6.09-1.31-12.14-3.57-17.81-.3-.75-1-1.28-1.85-1.05-.72.2-1.35,1.09-1.05,1.85,2.16,5.43,3.34,11.17,3.46,17.01.04,1.93,3.04,1.93,3,0h0Z"/>
      </g>
      <g>
        <path class="cls-3" d="m72.67,87.47c-5.67-2.83-13.39-.31-16.3,5.31-1.35,2.61-1.72,5.61-1.83,8.55-.12,3.33.08,6.76,1.49,9.78,1.93,4.14,6.02,7.05,10.45,8.18s9.16.61,13.51-.79c3.25-1.05,6.49-2.7,8.4-5.54,1.12-1.68,1.7-3.66,2.17-5.62,1.55-6.49,1.8-14.15-2.81-18.98-4.93-5.16-13.1-4.88-20.2-4.23"/>
        <path class="cls-3" d="m73.42,86.18c-7.04-3.37-16.02-.08-18.97,7.21-1.78,4.4-1.9,10.02-.99,14.64.85,4.34,3.45,7.97,7.15,10.35,3.99,2.57,8.88,3.39,13.55,2.89s9.41-1.88,13.02-4.81,4.8-7.63,5.46-12.04c.62-4.16.68-8.57-.93-12.53-1.79-4.4-5.47-7.4-10.01-8.68s-9.49-1-14.18-.57c-1.91.17-1.93,3.17,0,3,6.54-.59,15.13-1.27,19.74,4.47,2.19,2.73,2.82,6.34,2.78,9.75-.05,3.61-.65,7.77-2.23,11.05-1.77,3.67-5.61,5.44-9.34,6.49-4.12,1.16-8.57,1.48-12.69.15-3.32-1.07-6.35-3.29-8.06-6.36-2.02-3.64-1.97-8.24-1.54-12.27s2.1-7.68,5.79-9.69c3-1.64,6.79-1.95,9.92-.46,1.73.83,3.26-1.76,1.51-2.59h0Z"/>
      </g>
      <g>
        <path class="cls-6" d="m72.75,91.4c-4.32-2.05-10.19-.23-12.41,3.86-1.03,1.9-1.31,4.08-1.39,6.22-.09,2.42.06,4.91,1.13,7.11,1.47,3.01,4.58,5.13,7.95,5.95s6.97.44,10.29-.57c2.48-.76,4.94-1.96,6.39-4.03.86-1.22,1.3-2.66,1.65-4.09,1.18-4.72,1.37-10.28-2.14-13.79-3.75-3.75-9.97-3.55-15.38-3.07"/>
        <path class="cls-7" d="m73.51,90.11c-5.5-2.48-12.63-.23-14.99,5.53-1.34,3.28-1.45,7.49-.71,10.93s2.83,6,5.69,7.72c3.09,1.86,6.82,2.45,10.37,2.09s7.23-1.34,10.04-3.51,3.79-5.46,4.35-8.79c.53-3.13.6-6.46-.61-9.45-3.07-7.58-11.87-7.74-18.81-7.14-1.91.16-1.93,3.17,0,3,4.76-.41,11-.99,14.58,2.9,1.72,1.87,2.24,4.48,2.21,6.95s-.48,5.49-1.6,7.8c-1.24,2.55-3.95,3.76-6.54,4.51-3.04.87-6.33,1.19-9.42.35-2.43-.66-4.79-2.08-6.17-4.23-1.61-2.51-1.63-5.7-1.38-8.57s1.36-5.54,4.01-7.02c2.23-1.25,5.1-1.54,7.46-.48,1.75.79,3.27-1.8,1.51-2.59h0Z"/>
      </g>
      <path class="cls-7" d="m106.81,231.47c-1.56.37-2.45,1.98-3.06,3.46-3.62,8.81-3.79,18.73-2.12,28.11,1.67,9.38,5.1,18.34,8.5,27.23-1.66-10.77-2.12-21.72-1.38-32.59.52-7.63,1.74-15.51,5.97-21.87-2.08-2.27-5.4-3.31-8.41-2.65"/>
      <path class="cls-7" d="m126.34,238.67c-1.73.71-2.23,2.88-2.47,4.73-1.17,8.86-1.93,17.78-2.27,26.71-.38,10.02-.11,20.58,4.93,29.25.21-14.57,1.29-29.43,6.84-42.89,1.38-3.34,3.04-6.62,3.66-10.18.11-.61.18-1.26-.09-1.83-.35-.75-1.2-1.12-1.98-1.4-3.46-1.23-7.12-1.93-10.79-2.05"/>
      <path class="cls-7" d="m157.95,250.73c-2.22-2.56-6.25-4.27-8.95-2.22-1.4,1.06-2.02,2.84-2.43,4.55-.98,4.1-1.1,8.35-1.14,12.56-.11,12.53.45,25.07,1.7,37.55,1.59-4.2.91-8.86,1.15-13.35.37-6.94,2.96-13.54,5.52-20,1.17-2.96,2.34-5.91,3.51-8.87,1.07-2.69,2.25-5.54,4.6-7.23-1.37-1.29-3.5-1.72-5.26-1.05"/>
      <path class="cls-7" d="m174.82,256.89c-2.1.4-3.85,1.93-4.98,3.75s-1.69,3.92-2.17,6c-1.61,7.04-2.32,14.29-2.1,21.51.07,2.37.57,5.22,2.78,6.09-.54-8.26-1.01-16.89,2.31-24.47,1.98-4.51,5.29-8.66,5.49-13.57-.73-.19-1.5-.38-2.21-.14s-1.25,1.12-.87,1.77"/>
      <path class="cls-7" d="m192.53,263.41c-.82-.45-1.9,0-2.47.73s-1.72,5.46-1.91,6.37c-1.01,4.75-.44,8.56,0,11,.13.72.74,2.31,1,3s1,2,2,3c-1-3-3.61-11.17-1.19-14.72.71-1.04,1.76-1.78,2.56-2.75,1.05-1.26,1.65-2.89,1.66-4.52,0-1.25-.45-2.66-1.6-3.15s-2.76.8-2.14,1.88"/>
      <path class="cls-7" d="m209.04,271.18l-.16-1.7c-2.99,5.04-4.12,11.16-3.12,16.93-.03-3.88,1.21-7.75,3.48-10.89.83-1.15,1.83-2.27,2.04-3.67s-.87-3.09-2.27-2.84"/>
      <path class="cls-7" d="m225.81,276.04c-2.25,1.09-2.85,4.55-1.1,6.34.47-2.16.94-4.33,1.41-6.49"/>
      <path class="cls-7" d="m241.95,281.43c.08-.3-.37-.52-.65-.37s-.39.48-.48.78c-.35,1.15-.7,2.31-1.05,3.46.81-1.53,2-2.86,3.42-3.84-.36-.58-1.03-.94-1.71-.93"/>
      <path class="cls-7" d="m250.87,284.95l-.39,1.73c.6.21,1.31.06,1.77-.38"/>
      <path class="cls-7" d="m126.37,346.29c.4,1.49-1.66,2.36-3.2,2.39-8.43.12-16.08-4.83-22.48-10.32-4.61-3.95-8.99-8.43-11.34-14.02-2.39-5.71-2.46-12.11-2.03-18.29.59-8.59,2.07-17.12,4.41-25.41-.33,7.63.03,15.3,1.06,22.87,1.03,7.58,2.82,15.26,7.03,21.65s11.24,11.33,18.89,11.36c2.9,0,5.85-.66,8.66.02,2.82.68,5.47,3.49,4.56,6.24-.32.97-1.04,1.77-1.83,2.43-2.18,1.81-5.1,2.72-7.92,2.46"/>
      <path class="cls-7" d="m145.34,341.38c-5.99,1.82-12.77.81-17.97-2.67-2.8-1.87-5.11-4.37-7.29-6.93-2.42-2.83-4.74-5.8-6.2-9.23-1.39-3.26-1.93-6.82-2.26-10.34-.66-7.11-.48-14.29.53-21.36,2.39,6.49,4.86,12.96,7.41,19.39,1.39,3.5,2.82,7.03,5.07,10.04,2.8,3.75,6.84,6.56,11.34,7.89,3.38,1,6.96,1.17,10.31,2.23,1.83.58,3.66,1.49,4.69,3.11,1.21,1.9.96,4.6-.56,6.25s-4.2,2.11-6.19,1.06"/>
      <path class="cls-7" d="m155.28,339.35c-4.47-.44-8.58-2.85-11.79-6-3.2-3.15-5.6-7.02-7.8-10.94-1.46-2.61-2.87-5.3-3.55-8.21-1.7-7.24,1.22-14.73,1.08-22.16,5.02,6.97,3.95,16.82,8.32,24.21,2.93,4.96,7.95,8.23,12.56,11.67,1.69,1.26,3.39,2.61,4.4,4.46s1.16,4.32-.17,5.95c-.92,1.12-2.68,1.65-3.86.82"/>
      <path class="cls-7" d="m170.8,336.44c-2.61.8-5.4-.53-7.54-2.21-5.76-4.52-8.95-11.72-9.95-18.96s-.02-14.62,1.29-21.82c1.23,2.61,1.76,5.48,2.5,8.26,2.72,10.23,8.39,19.66,16.16,26.85.82.76,1.72,1.58,1.93,2.69.41,2.14-1.86,3.73-3.79,4.72"/>
      <path class="cls-7" d="m188.15,330.76c-3.44.06-7.33-.46-9.36-3.23-.86-1.16-1.27-2.59-1.6-4-2.37-10.03-1.53-20.5-.68-30.76,2.11,10.85,4.53,22.33,12.12,30.37.83.88,1.72,1.72,2.29,2.78s.76,2.42.14,3.45-2.23,1.44-3.08.59"/>
      <path class="cls-7" d="m204.57,325.43c-5.04-2.64-8.91-7.43-10.44-12.91-1.7-6.13-.55-12.72-1.78-18.96,1.5,6.53,4.94,12.6,9.78,17.23,1.29,1.23,2.68,2.37,3.81,3.76,1.6,1.96,2.6,4.33,3.5,6.69.35.92.7,1.9.57,2.87s-.9,1.95-1.89,1.94-1.75-1.39-1.02-2.07"/>
      <path class="cls-7" d="m219.65,319.28c-4.15-2.17-6.26-6.82-8-11.16-2.05-5.11-4.01-10.41-4.02-15.92.22,1.39.54,2.77.94,4.13,2.19,7.34,7.03,13.86,13.42,18.09,1.15.76,2.39,1.48,3.22,2.59s1.16,2.74.36,3.86c-.87,1.21-2.73,1.33-4.02.59s-2.07-2.13-2.57-3.52"/>
      <path class="cls-7" d="m232.92,317.07c-6.04-6.44-10.03-14.78-11.26-23.53,1.56,5.11,4.63,9.74,8.73,13.16,3.58,2.98,8.28,5.61,9.01,10.21.1.61.1,1.27-.23,1.79-.52.82-1.64.96-2.61.99-.87.02-1.79.01-2.55-.42s-1.27-1.42-.88-2.2"/>
      <path class="cls-7" d="m248.58,313.13c-1.75-.34-3.07-1.75-4.15-3.16-3.85-5.04-6.31-11.13-7.01-17.44,1.17,4.01,4.49,6.93,7.49,9.83s5.99,6.38,6.12,10.55c-.91-.21-1.93.12-2.54.83"/>
      <path class="cls-7" d="m261.93,307.63c-3.75-2.36-6.54-6.21-7.61-10.5,1.24,2.1,3.87,2.79,6.12,3.73s4.61,2.94,4.11,5.32c-.91.58-2.01.85-3.09.75"/>
      <g class="cls-15">
        <path class="cls-5" d="m457.07,196.75c-10.08,14.55-10.92,47.77,6.7,67.44,1.68,1.87,2.98,4.09,3.9,6.43,3.48,8.92-2.93,20.06-.37,29.28,2.45,8.81,14.24,10.86,15.35,19.94.12.98-.45,3,.49,2.68,3-1,7.3,5.34,10.89,4.39.72,3.33,1.72,7.04,4.7,8.7,4.14,2.3,10.11-.58,13.69,2.52,2.54,2.2,2.32,6.11,3.26,9.34,1.54,5.33,7.06,9.21,12.6,8.86,2.68-.17,5.35-1.21,7.98-.67,1.42.29,2.71,1.03,3.91,1.84,10.46,7.09,15.66,20.26,26.37,26.96,13.81,8.62,31.7,3.85,47.18-1.17,4.17-1.35,8.91-3.27,10.14-7.47,1.35-4.62-2.36-9.07-5.91-12.31-9.1-8.31-19.21-15.52-30.03-21.42-3.33-1.82-7.19-4.21-7.3-8.01,4.99-2.42,11.43.34,16.28-2.36,4.18-2.32,5.45-8.03,4.16-12.64-1.3-4.61-4.55-8.37-7.71-11.96-10.61-12.08-2.1-13.99-15.15-23.38-6.8-4.89-15.79-10.55-24.02-12.13,4-.88,8.01-1.77,12.01-2.65,1.2-.27,2.5-.59,3.27-1.56,1.82-2.31-.91-5.44-3.41-6.98-10.92-6.7-21.92-10.9-22.92-10.9,0,0,2,0,14-8,7.39-4.92,10-13,10-13,.34-.96,4.31-12.82-2-21-6.03-7.82-17.67-7.34-26-7-7.99.33-35,1-49,7-3.72,1.6-9.39,3.06-17.21.92-2.9-.79-7.32-4.45-9.03-4.9"/>
        <path class="cls-13" d="m454.58,234.05c4.72,6.76,11.73,11.04,19.25,14.09,6.46,2.62,13.25,4.49,20.01,6.16,13.69,3.39,27.53,6.19,41.28,9.33,3.39.77,6.78,1.56,10.15,2.4,1.39.35,2.79.71,4.17,1.09.98.27,1.76.31,2.54-.46s1.08-1.98.75-3.07c-.56-1.84-3.46-1.06-2.89.8.1.12.08.18-.06.18l1.16-.15c-11.91-3.33-24.1-5.72-36.16-8.39-12.32-2.73-24.83-5.25-36.74-9.5-7.95-2.84-15.9-6.91-20.85-14.01-1.1-1.57-3.7-.07-2.59,1.51h0Z"/>
        <path class="cls-13" d="m473.05,267.05c7.48-1.88,14.62,2.91,20.68,6.66,6.54,4.05,13.35,7.57,20.48,10.46s14.06,4.9,21.34,6.57c6.29,1.45,12.65,2.75,18.75,4.89,6.58,2.31,12.73,5.78,17.07,11.36,1.18,1.52,3.29-.61,2.12-2.12-8.22-10.56-22.05-13.6-34.41-16.4-7.32-1.66-14.53-3.53-21.56-6.2-7.44-2.83-14.58-6.4-21.35-10.58-7.12-4.39-15.14-9.74-23.91-7.54-1.87.47-1.08,3.36.8,2.89h0Z"/>
        <path class="cls-13" d="m472.9,281.06c7.56,2.74,15.13,5.48,22.44,8.82s13.5,6.95,19.74,11.34c11.52,8.09,22.54,17.45,36.47,21.05,6.23,1.61,14.29,2.48,18.13,8.36,1.05,1.61,3.65.11,2.59-1.51-3.56-5.46-9.91-7.3-15.9-8.76-3.25-.79-6.48-1.56-9.61-2.75-3.4-1.29-6.65-2.97-9.78-4.83-6.29-3.74-12.1-8.21-18.03-12.48-6.23-4.48-12.67-8.53-19.6-11.85-8.31-3.98-16.99-7.14-25.65-10.28-1.82-.66-2.6,2.24-.8,2.89h0Z"/>
        <path class="cls-13" d="m482.87,301.53c6.55,2.22,12.98,4.8,19.22,7.79,1.13.54,2.52,1.12,3.3,2.16s.3,2.04-.25,3c-1.23,2.12-2.75,4.23-1.89,6.81.77,2.32,3.05,3.75,5.26,4.48,2.52.83,5.22.52,7.78,1.16,2.79.69,3.7,2.64,4.43,5.21.68,2.42,1.44,4.88,3.61,6.39,4.61,3.21,10.25-.58,15.02,1.65.99.46,1.66,1.18,1.86,2.28.25,1.39.18,2.74,1,3.97,1.38,2.07,4.1,2.75,6.46,2.68,2.74-.08,6.17-1.66,8.66.09,1.99,1.4,2.78,4.18,3.71,6.31,1.93,4.41,5.4,7.94,9.74,10.03,4.83,2.32,10.55,3.01,15.69,1.3,1.41-.47,2.85-1.51,4.31-1.75,1.61-.26,2.03,1.86,2.77,2.92,1.81,2.62,4.73,4.16,7.89,4.32,1.93.1,1.92-2.9,0-3-2.97-.15-4.87-1.97-6.21-4.44-.65-1.2-1.5-2.32-2.88-2.71-1.49-.42-2.96.14-4.31.75-4.43,2.03-9.03,2.4-13.68.83s-8.26-4.61-10.29-8.84c-1.1-2.29-1.84-4.78-3.48-6.77-1.89-2.28-4.63-2.97-7.5-2.65-2.38.26-5.16,1.22-7.45.02-1.28-.67-1.25-1.8-1.41-3.09s-.56-2.44-1.42-3.41c-1.59-1.79-4.12-2.41-6.42-2.53-2.66-.14-5.3.68-7.95.36-2.86-.35-3.9-2.33-4.62-4.87s-1.39-4.9-3.49-6.5-5.03-1.85-7.68-2.07c-2.14-.18-4.97-.55-6.25-2.53-1.4-2.16,1.58-4.74,2.2-6.74.98-3.16-1.31-5.56-3.91-6.92-6.67-3.49-13.88-6.2-21-8.61-1.83-.62-2.62,2.28-.8,2.89h0Z"/>
        <path class="cls-13" d="m460.24,222.22c9.32-1.35,18.65-2.71,27.88-4.63,4.82-1.01,9.7-1.41,14.61-1.72,11.81-.75,23.64-.87,35.46-1.29,7.13-.26,15.06-.98,20.96,3.87,1.48,1.22,3.61-.89,2.12-2.12-5.84-4.8-13.3-5.18-20.52-4.85-5.26.24-10.53.34-15.8.49-6.47.18-12.94.39-19.41.74-5.28.29-10.63.58-15.85,1.51-4.66.83-9.29,1.86-13.96,2.64-5.42.9-10.85,1.69-16.28,2.48-1.9.28-1.09,3.17.8,2.89h0Z"/>
        <path class="cls-13" d="m455.68,228.39c8.99,2.14,18.09,4.89,27.34,5.61,6.57.51,13.12-.36,19.69-.22,11.5.24,22.96,1.21,34.46,1.52,7.41.2,14.91-.27,22.22-1.52,1.9-.32,1.09-3.22-.8-2.89-12.13,2.07-24.28,1.38-36.49.75-5.79-.3-11.58-.63-17.38-.8s-11.71.4-17.59.34c-10.4-.1-20.6-3.28-30.65-5.67-1.88-.45-2.68,2.45-.8,2.89h0Z"/>
      </g>
      <g class="cls-16">
        <path class="cls-1" d="m372.9,226.13c7.69-.06,14.31-5.05,21.02-8.81s15.51-6.29,21.74-1.78c2.23,1.62,3.82,3.96,5.28,6.3,4.33,6.96,7.92,14.39,10.67,22.11.6,1.68,1.19,3.42,2.41,4.71,1.12,1.18,2.66,1.87,3.82,3,3.05,2.99,2.51,8.3-.04,11.74s-6.53,5.43-10.37,7.31c1.19,2.63,2.39,5.26,3.58,7.89-8.8,4.32-19.56,2.76-28.3-1.68s-15.85-11.44-22.83-18.32c-2.05-2.02-4.15-4.12-5.26-6.78-1.07-2.57-1.12-5.43-1.16-8.21-.08-6.3-.17-12.6-.25-18.9"/>
        <path class="cls-13" d="m428.81,246.21c-8.02-3.36-16.77-4.97-25.46-4.66-4.5.16-8.89,1.18-13.38,1.46-1.97.13-3.95.09-5.88-.38-.91-.22-1.8-.51-2.63-.93-.47-.24-.93-.5-1.36-.81-.22-.15-.43-.32-.63-.5-.2-.35-.36-.29-.48.17,1.23-1.47-.89-3.61-2.12-2.12-2.52,3.03,2.36,5.68,4.71,6.57,3.42,1.29,7.17,1.22,10.74.79,3.91-.47,7.76-1.16,11.71-1.26s7.7.18,11.49.86c4.29.77,8.48,2.03,12.5,3.71.75.32,1.64-.34,1.85-1.05.25-.86-.3-1.53-1.05-1.85h0Z"/>
        <path class="cls-13" d="m433.44,257.67c-4.51-.11-9.02-.21-13.53-.32s-9.29-.15-13.85-.99-8.62-2.39-12.82-3.91c-4.41-1.59-8.82-3.17-13.24-4.76-1.82-.65-2.6,2.24-.8,2.89,4.49,1.61,8.98,3.23,13.47,4.84s8.57,3.13,13.07,3.91,9.11.89,13.69,1,9.34.22,14.01.33c1.93.05,1.93-2.95,0-3h0Z"/>
        <path class="cls-13" d="m422.82,272.28c-7.27.62-13.86-2.98-19.96-6.48-6.66-3.83-13.24-7.79-19.75-11.87-1.64-1.03-3.15,1.57-1.51,2.59,6.77,4.24,13.61,8.36,20.54,12.32,6.3,3.59,13.22,7.07,20.68,6.44,1.91-.16,1.93-3.16,0-3h0Z"/>
        <path class="cls-13" d="m414.81,221.56c-3.32-.51-6.65-1.15-10-1.49-3.09-.31-5.82.6-8.53,2.02-5.2,2.71-9.84,6.54-15.52,8.25l1.9,1.45c-.06-.49-.11-.99-.17-1.48-.22-1.9-3.22-1.92-3,0,.06.49.11.99.17,1.48.11.93.88,1.75,1.9,1.45,5.39-1.63,9.9-4.99,14.74-7.74,2.53-1.43,5.05-2.67,8.02-2.46,3.23.23,6.48.93,9.68,1.42,1.89.29,2.7-2.6.8-2.89h0Z"/>
        <path class="cls-13" d="m420.43,232.81c-7.28-2.15-14.66-1.62-21.77.85-1.71.59-3.42,1.25-5.18,1.7-1.85.47-3.52.26-5.36-.16s-3.75-.85-5.62-1.3c-1.09-.26-2.89-.58-3.32-1.8-.64-1.81-3.54-1.03-2.89.8,1.2,3.41,5.16,3.84,8.22,4.54,1.94.45,3.91,1.03,5.9,1.2s3.76-.31,5.55-.89c3.81-1.23,7.49-2.74,11.5-3.18s8.21-.04,12.16,1.13c1.86.55,2.65-2.35.8-2.89h0Z"/>
      </g>
    </g>
    <path class="cls-10" d="m112.64,217.7c25.59,7.72,50.72,16.96,75.2,27.69,6.9,3.03,13.76,6.17,20.56,9.43,1.73.83,3.26-1.76,1.51-2.59-24.29-11.62-49.26-21.82-74.76-30.46-7.2-2.44-14.44-4.75-21.71-6.95-1.85-.56-2.64,2.34-.8,2.89h0Z"/>
    <path class="cls-2" d="m145.48,367.7c17.53-4.33,35.06-8.65,52.59-12.98,15.21-3.75,30.53-7.42,44.95-13.67,7.92-3.43,15.42-7.7,22.22-13.03,1.52-1.19-.62-3.3-2.12-2.12-11.99,9.4-26.35,15.09-40.84,19.38-15.87,4.71-32.1,8.3-48.17,12.26-9.81,2.42-19.62,4.84-29.43,7.27-1.87.46-1.08,3.36.8,2.89h0Z"/>
  </g>
</svg>