<?xml version="1.0" encoding="UTF-8"?>
<svg id="Layer_2" data-name="Layer 2" xmlns="http://www.w3.org/2000/svg" viewBox="5 -10 1999.63 195.44">
  <defs>
    <style>
      .cls-1 {
        fill: #8b6d00;
      }

      .cls-1, .cls-2 {
        stroke-width: 0px;
      }

      .cls-2 {
        fill: #734b00;
      }
    </style>
  </defs>
  <g id="OceanBottomFloor">
    <g>
      <path class="cls-2" d="m2038.29,65.37v130.08H4.43V1.94c59.64-13.61,109.06,48.46,168.69,62.11,39.51,9.05,80.57-3.97,121.09-2.82,43.74,1.24,85.21,18.9,128.28,26.56,136.68,24.31,271.58-52.86,410.4-54.24,144.44-1.43,285.93,79.22,427.56,50.84,46-9.22,89.8-29.78,136.62-32.74,49.15-3.11,97.23,13.4,146.14,19.17,79.96,9.44,160.09-9.94,239.98-19.96,64.76-8.12,133.97-9.09,193.64,14.47,18.84,7.44,39.6,7.13,58.84.79,1.29-.43,2.61-.75,3.96-.97"/>
      <path class="cls-1" d="m6.41,49.35l5.2-2.66,2.95-.4c-3.15-8.93-6.31-17.86-9.46-26.8l-2.51,1.46c6.4,7.85,12.79,15.69,19.19,23.54,1.08,1.33,3.23-.39,2.36-1.82-4.74-7.73-7.35-15.65-8.04-24.71l-2.8.76c11.33,18.53,22.66,37.05,33.99,55.58,1.03,1.69,3.34.22,2.59-1.51-8.76-20.16-17.53-40.31-26.29-60.47l-2.36,1.82c16.4,15.76,30.11,33.7,41,53.67.79,1.45,3.39.45,2.74-1.16-6.92-17.04-13.85-34.07-20.77-51.11l-2.51,1.46c18.6,14.91,34.67,32.26,48.06,51.99.92,1.36,3.22.56,2.74-1.16-4.05-14.55-8.1-29.09-12.15-43.64l-2.51,1.46c15.57,14.06,28.3,30.45,38.1,49.01.78,1.48,3.31.46,2.74-1.16-4.32-12.35-8.65-24.69-12.97-37.04l-2.2,1.69c4.1,2.83,8.21,5.65,12.31,8.48,1.07.73,5.83,3.07,6.16,4.24,1.61,5.74-8.03,8.09-9.86,4.07-2.84-6.24,18.32-.96,21.72,1.07,4.15,2.48,7.82,5.96,10.15,10.23.98,1.8,2.04,4.14,2.3,6.21l-1.81,3.21,1.03-7.58c3.14-2.37,11.68.73,15.16,1.58,5.69,1.39,11.37,2.82,17.05,4.24,10.1,2.51,20.18,5.15,30.31,7.53,3.85.91,10.65,2.96,13.69-.99s-.79-10.62-5.74-8.05c-.88.46-.94,1.68-.3,2.36,5.96,6.32,9.24,13.6,9.94,22.29.16,1.94,2.82,1.92,3,0,.62-6.61,1.24-13.23,1.86-19.84l-2.8.76c5.02,8.92,10.04,17.85,15.06,26.77.89,1.57,3.01.44,2.74-1.16-1.67-10.05-3.34-20.1-5.01-30.15l-2.2,1.69c12.79,6.95,22.8,16.63,30.14,29.2.88,1.51,3.1.48,2.74-1.16-2.73-12.51-5.45-25.02-8.18-37.52l-2.74,1.16c6.79,14.62,15.61,27.72,26.53,39.56,1.03,1.11,2.91-.05,2.51-1.46-3.22-11.26-6.43-22.51-9.65-33.77l-2.2,1.69c11.91,8.11,20.72,18.88,26.45,32.09.58,1.33,2.99.69,2.8-.76-1.35-10.08-2.71-20.16-4.06-30.25l-2.26,1.3c10.42,5.45,18.06,13.41,23.11,24.03.66,1.38,2.8.66,2.8-.76-.03-6.37-.07-12.73-.1-19.1,0-.6-.46-1.35-1.1-1.45-8.8-1.38-2.04,13.22,5.91,9.81,3.26-1.4,5.3-5.73,7.22-8.43,2.99-4.23,1.97-3.49,8.53-3.31,7.26.2,5.19-.25,8.94,3.89.81.9,1.1,2.04,2.08,2.75,5.08,3.69,14.47,5.22,20.48,7,8,2.37,16.11,4.36,24.3,5.97,64.13,12.58,128.73-2.89,191.93-13.84,18.46-3.2,36.92-6.4,55.37-9.6,5.09-.88,10.18-1.76,15.28-2.65,3.83-.66,9.54-2.83,13.37-2.32,7.41,1,14.34,17.35,18.25,23.33.43.66,1.34.99,2.05.54,12.97-8.31,21.87-20.4,25.89-35.27l-2.74.36c4.24,9.52,8.47,19.04,12.71,28.56l2.59-1.51c-3.27-6.02-5.13-12.12-5.38-18.96-.39-10.56,3.07-9.24,11.18-7.12,11.62,3.04,22.51,7.89,32.79,14.06,1.2.72,3-.81,2.05-2.05-4.42-5.81-8.84-11.63-13.27-17.44l-2.05,2.05c14.77,10.38,29.54,20.76,44.31,31.14,1.34.94,2.63-.83,2.05-2.05-4.72-9.91-9.44-19.82-14.17-29.73l-2.05,2.05c12.87,9.59,25.73,19.17,38.6,28.76.71.53,2.08,0,2.2-.9,1.36-9.99.01-18.86-4.32-27.98l-2.36,1.82c10.6,8.71,21.2,17.42,31.8,26.13,1.22,1.01,3.35-.28,2.36-1.82-7.25-11.16-14.51-22.32-21.76-33.48l-2.36,1.82c8.28,8.89,16.55,17.78,24.83,26.67l2.12-2.12c-24.87-19.76-56.81-42.99-90.04-28.73-5.72,2.45-10.87,6.04-14.98,10.73-7.97,9.09-12.43,19.61-27.03,16.3-10.18-2.31-19.52-6.21-30-7.75-11.21-1.65-22.19-2.99-32.94-6.75-.63-.22-1.36.15-1.69.69-3.41,5.6-7.3,10.92-8.55,17.47-.72,3.76.26,4.4-3.69,4.2-4.42-.22-11.05-4.47-15.15-6.13-.75-.3-1.66.34-1.85,1.05-1.06,3.98-1.59,9.09-3.4,12.78-2.33,4.78-2.03,3.47-6.63.42-7.14-4.74-14.53-8.99-21.4-14.13l-1.51,2.59c11.4,6.84,23.73,11.23,36.88,13.3,10.49,1.66,24.11,3.66,34.5.93,6.6-1.73,16.3-18.51,4.93-15.84-1.74.41-1.2,2.8.4,2.95,19.37,1.75,37.78,6.78,55.35,15.11,1.07.51,2.69-.35,2.2-1.69-1.42-3.94-2.88-8.28-2.59-12.54l.12-3.32c.77-4.45,3.08-6.51,6.94-6.17,6.07-2.09,14.78-1.34,21.14-1.17,14.22.39,28.06,3.32,41.42,8.13,1.48.53,2.43-1.49,1.46-2.51-7.59-7.97-15.18-15.93-22.77-23.9l-.66,2.51c23.91-3.23,47.57.99,68.93,12.2,1.48.78,3.05-1.11,1.82-2.36-6.62-6.67-13.24-13.33-19.86-20l-1.46,2.51c26.05,8.67,52.09,17.34,78.14,26.02,1.49.5,2.42-1.47,1.46-2.51-7.16-7.71-14.31-15.43-21.47-23.14l-2.12,2.12c9.15,8.66,18.3,17.32,27.44,25.98l2.12-2.12c-8.53-7.36-17.05-14.72-25.58-22.08-1.2-1.04-3.39.33-2.36,1.82,12.2,17.58,36.96,17.43,56.17,15.52.74-.07,1.17-.43,1.45-1.1,1.03-2.53-2.8-5.57-5.21-5.02-5.02,1.15-1.67,7.26.82,9.12,3.8,2.84,9.78,2.95,14.18,3.64,7.72,1.2,15.83,1.82,23.29,4.02,16.77,4.94,33.21,12.21,49.62,18.25,1.24.46,2.36-1.14,1.69-2.2-4.2-6.7-8.39-13.4-12.59-20.1l-1.69,2.2c18.72,5.96,35.91,14.96,51.43,27,1.52,1.18,3.36-.6,2.12-2.12-6.06-7.47-12.11-14.93-18.17-22.4-1.23-1.51-3.29.63-2.12,2.12,11.5,14.73,27.04,24.7,45.2,29.08,1.35.33,2.23-1.03,1.69-2.2-3.17-6.94-6.35-13.87-9.52-20.81l-2.36,1.82c8.87,8.4,39.36,22.69,41.21.97l-2.8.76c5.54,10.89,14.67,27.34,29.46,24.79,9.43-1.62,17.12-10.35,13.09-19.78l-2.36,1.82c7.02,6.24,14.04,12.47,21.05,18.71,1.1.98,2.88.04,2.51-1.46-1.81-7.2-3.61-14.39-5.42-21.59l-2.2,1.69c20.44,12.28,43.7,17.18,67.35,14.1.74-.1,1.17-.42,1.45-1.1,1.96-4.84,3.34-10.86,6.17-15.21,2.37-3.65,1.9-2.32,5.95-.51,4.61,2.06,9.89,3.21,14.95,2.93,7.04-.39,12.61-3.99,10.49-11.58l-2.74,1.16c7.39,12.5,28.08,9.55,31.58-4.59l-2.74.36c4.07,6.12,20.03,23.23,25.83,9.45,2.33-5.54-1.45-15.54-8.42-11.43-1.02.6-.91,1.97,0,2.59,12.31,8.41,24.62,16.81,36.93,25.22,1.04.71,2.65-.48,2.2-1.69-3.65-9.92-7.3-19.84-10.95-29.76l-1.85,1.85c13.53,5.04,24.41,13.76,32.33,25.83,1.09,1.66,3.33.23,2.59-1.51-4.38-10.31-8.77-20.62-13.15-30.92l-2.36,1.82c7.81,8.34,15.61,16.69,23.42,25.03,1.24,1.32,3.03-.36,2.36-1.82-5.53-12.05-11.61-23.82-17.14-35.87l-2.05,2.05c13.43,8.67,27.53,16.22,40.95,24.89,1.02.66,2.72-.46,2.2-1.69-4.25-10.12-9.27-19.89-13.52-30.01l-2.51,1.46c8.37,6.99,17.69,12.68,26.06,19.67,1.2,1,3.44-.34,2.36-1.82-13.63-18.64-35.85-19.23-57.05-20.41-.74-.04-1.59.72-1.5,1.5.62,5.09,1.49,10.06,2.45,15.09.41,2.17,2.41,7.7.22,9.44-.81.64-9.73-2.57-10.76-2.78-15.63-3.2-31.47-3.76-46.65-9.1-.57-.2-1.43.12-1.69.69-1.87,4.09-4.39,7.15-7.03,10.78-3.33,4.58-3.73,5.56-9.72,5.2-10.39-.62-21.54-.79-31.53-3.76-.62-.19-1.38.12-1.69.69-2.44,4.37-5.7,8.2-9.15,11.81-3.64,3.82-2.5,3.22-7.31.62-7.04-3.81-14.65-4.63-22.47-3.43-.8.12-1.24,1.14-1.05,1.85,2.94,10.79,9.57,18.95,19.58,23.96,1.23.62,2.43-.39,2.2-1.69-1.11-6.41-2.21-12.82-3.32-19.23l-1.85,1.85c28.58,5.09,57.41,8.07,86.43,8.89,1.14.03,1.87-1.3,1.3-2.26-2.5-4.17-5-8.34-7.5-12.51-.76-1.27-6.02-7.76-5.62-9.38,1.35-5.55,19.47-5.28,24.6-5.39,18.24-.4,35.82,4.19,51.78,12.94l.36-2.74c-5.76,1.61-5.95-5.71-5.22-8.61,1.61-6.36,6.59-7.31,12.42-5.05,6.97,2.7,11.37,10.46,14.88,16.64l2.36-1.82c-8.01-10.17,9.81-16.95,17.1-15.11,6.49,1.65,12.14,5.64,18.29,8.17s13.96,4.69,19.66.37c8.64-6.54-2.64-17.95-8.04-10.29-.57.81.03,1.95.9,2.2,14.94,4.39,29.85,9.62,45.22,12.17,8.15,1.35,16.25,2.1,23.72,5.86,7.39,3.72,14.52,8.25,21.71,12.33l1.16-2.74c-4.03-6.72-1.81-9.53,6.65-8.45,3.59,2.64,6.02,6.06,7.31,10.25l2.2-1.69c-6.4-2.89,4.34-7.79,5.11-7.98,2.65-.67,5.35-.45,7.82.81,4.39,2.25,7.94,6.32,12.26,8.81,5.25,3.04,10.26,4.27,15.36.52.67-.49.96-1.28.54-2.05-4.41-8.03-8.82-16.06-13.23-24.09l-2.05,2.05c13.85,6.21,27.69,12.42,41.54,18.62,1.54.69,2.97-1.02,1.82-2.36-5.73-6.64-11.47-13.29-17.2-19.93l-1.46,2.51c17.42,4.8,34.84,9.59,52.27,14.39,1.6.44,2.7-1.95,1.16-2.74-11.26-5.76-22.52-11.52-33.78-17.28l-1.51,2.59c19.66,8.3,39.33,16.6,58.99,24.9,1.72.73,3.23-1.58,1.51-2.59-11.85-6.96-23.7-13.93-35.55-20.89l-1.51,2.59c17.98,8.95,34.97,19.49,50.98,31.61,1.4,1.06,2.93-1.16,1.82-2.36-11.69-12.52-23.39-25.05-35.08-37.57l-1.82,2.36c20.78,12.07,41.56,24.14,62.35,36.21,1.46.85,3.06-1.16,1.82-2.36-11.71-11.3-23.42-22.61-35.12-33.91l-2.12,2.12c13.34,11.44,26.69,22.89,40.03,34.33l1.82-2.36c-16.6-9.49-31.21-21.41-43.85-35.76l-1.46,2.51c27.8,11.55,55.6,23.09,83.4,34.64,1.4.58,2.52-1.55,1.46-2.51-14.91-13.44-29.82-26.88-44.73-40.32l-2.12,2.12c14.99,13.19,29.98,26.37,44.97,39.56,1.44,1.27,3.48-.72,2.12-2.12-12.2-12.59-24.39-25.18-36.59-37.76l-1.46,2.51c22.96,4.72,45.04,12.13,66.17,22.29,1.52.73,3-1.05,1.82-2.36-11.17-12.31-22.33-24.62-33.5-36.94l-1.82,2.36c14.55,9.11,29.1,18.22,43.64,27.33,1.25.78,2.87-.79,2.05-2.05-5.01-7.68-10.03-15.37-15.04-23.05l-1.69,2.2c12.04,4.56,24.07,9.12,36.11,13.68,1.25.47,2.33-1.15,1.69-2.2-4.6-7.61-10.57-14.19-15.17-21.8l-2.36,1.82c7.77,6.69,17.01,11.2,24.78,17.89,1.21,1.04,3.39-.33,2.36-1.82-4.72-6.84-10.86-12.43-15.58-19.27l-2.05,2.05c17.7,8.83,36.82,14.26,54.52,23.09,1.31.65,2.83-.69,2.05-2.05l-11.99-21.08-2.36,1.82c.95.86,18.45,16.38,18.25,16.65-.94-.91-1.43-2-1.47-3.26-.97-3.25,1.21-5.07,6.54-5.45,5.09.23,9.96,8.23,12.28,11.85,1.07,1.66,3.35.22,2.59-1.51-2.77-6.36-5.53-12.72-8.3-19.08l-2.05,2.05c18.83,10.12,37.65,20.23,56.48,30.35,1.7.91,3.22-1.68,1.51-2.59-18.83-10.12-37.65-20.23-56.48-30.35-1.42-.76-2.63.72-2.05,2.05,2.77,6.36,5.53,12.72,8.3,19.08l2.59-1.51c-3.55-5.54-18.47-22.12-24.05-9.52-2.44,5.51,2.62,15.69,8.84,10.27.59-.52.57-1.6,0-2.12-6.95-6.34-13.9-12.69-20.86-19.03-1.24-1.13-3.22.3-2.36,1.82,4,7.03,7.99,14.05,11.99,21.08l2.05-2.05c-17.7-8.83-36.82-14.26-54.52-23.09-1.23-.61-2.97.72-2.05,2.05,4.72,6.84,10.86,12.43,15.58,19.27l2.36-1.82c-7.77-6.69-17.01-11.2-24.78-17.89-1.24-1.06-3.28.28-2.36,1.82,4.6,7.61,10.57,14.19,15.17,21.8l1.69-2.2c-12.04-4.56-24.07-9.12-36.11-13.68-1.22-.46-2.38,1.15-1.69,2.2,5.01,7.68,10.03,15.37,15.04,23.05l2.05-2.05c-14.55-9.11-29.1-18.22-43.64-27.33-1.49-.93-2.93,1.13-1.82,2.36,11.17,12.31,22.33,24.62,33.5,36.94l1.82-2.36c-21.35-10.26-43.68-17.82-66.89-22.59-1.44-.3-2.54,1.39-1.46,2.51,12.2,12.59,24.39,25.18,36.59,37.76l2.12-2.12c-14.99-13.19-29.98-26.37-44.97-39.56-1.44-1.27-3.56.82-2.12,2.12l44.73,40.32,1.46-2.51c-27.8-11.55-55.6-23.09-83.4-34.64-1.51-.63-2.34,1.51-1.46,2.51,12.81,14.54,27.63,26.61,44.45,36.23,1.43.82,3.15-1.21,1.82-2.36-13.34-11.44-26.69-22.89-40.03-34.33-1.45-1.24-3.53.76-2.12,2.12,11.71,11.3,23.42,22.61,35.12,33.91l1.82-2.36c-20.78-12.07-41.56-24.14-62.35-36.21-1.49-.87-2.97,1.12-1.82,2.36,11.69,12.52,23.39,25.05,35.08,37.57l1.82-2.36c-16.01-12.13-33-22.66-50.98-31.61-1.71-.85-3.2,1.6-1.51,2.59,11.85,6.96,23.7,13.93,35.55,20.89l1.51-2.59c-19.66-8.3-39.33-16.6-58.99-24.9-1.72-.73-3.28,1.69-1.51,2.59,11.26,5.76,22.52,11.52,33.78,17.28l1.16-2.74c-17.42-4.8-34.84-9.59-52.27-14.39-1.52-.42-2.4,1.41-1.46,2.51,5.73,6.64,11.47,13.29,17.2,19.93l1.82-2.36c-13.85-6.21-27.69-12.42-41.54-18.62-1.32-.59-2.82.65-2.05,2.05,2.92,5.31,7.78,11.39,9.45,17.21,2.78,2.37,2.64,4.05-.42,5.06-1.89,2.29-4.04,2.27-6.45-.07-2.03-1.03-3.89-2.42-5.72-3.74-5.12-3.7-9.2-8.35-15.96-7.29-5.82.91-17.29,9.55-7.68,13.89,1.04.47,2.73-.34,2.2-1.69-2.55-6.53-10.33-18.19-18.68-12.06-4.87,3.57-5.3,12.11,1.04,13.95,1.63.47,2.64-1.9,1.16-2.74-8.47-4.81-17.57-11.9-26.72-15.18-7.55-2.71-16.74-2.62-24.62-4.18-8.59-1.7-16.99-4.54-25.4-7.01-2.44-.72-4.87-1.43-7.31-2.15-5.25-2.83-8.25-.07-9.02,8.26-4.7,1.05-11.44-3-15.37-4.88-9.33-4.46-18.97-10.06-28.82-3.76-6.48,4.15-10.04,11.39-4.92,17.9,1.08,1.37,3.17-.38,2.36-1.82-4.65-8.18-20.03-28.93-30.57-15.8-4.74,5.91-3.23,20.01,6.69,17.23,1.22-.34,1.5-2.11.36-2.74-25.09-13.78-54.01-16.91-81.46-8.78-.92.27-1.4,1.36-.9,2.2,5,8.34,10,16.68,15,25.02l1.3-2.26c-28.75-.82-57.31-3.74-85.63-8.78-1.18-.21-2.05.67-1.85,1.85,1.11,6.41,2.21,12.82,3.32,19.23l2.2-1.69c-5.97-2.98-15.77-9.68-16.46-17.05-1.98-2.49-1.1-3.77,2.64-3.83,1.9-.06,3.77.14,5.62.6,5.76,1.05,10.3,3.35,14.81,7.04.72.59,1.85.61,2.36-.3,2.3-4.12,5.43-7.26,8.37-10.88,3.16-3.89,4.12-4.22,9.46-3.82,10.44.79,21.46.76,31.53,3.76.58.17,1.43-.1,1.69-.69,2.13-4.66,5.13-9.06,8.57-12.89s3.04-3.41,8.34-2.52c3.59.61,7.16,1.73,10.76,2.38,14.52,2.61,29.04,3.49,43.06,8.43.84.3,2.01-.51,1.9-1.45-.66-5.45-1.64-10.78-2.67-16.17-.42-2.19-1.98-7.69-.18-9.41,1.02-.98,8.76.51,10.38.63,15.98,1.21,31.1,4.47,41.07,18.13l2.36-1.82c-8.37-6.99-17.69-12.68-26.06-19.67-1-.83-3.15-.07-2.51,1.46,4.25,10.12,9.27,19.89,13.52,30.01l2.2-1.69c-13.43-8.67-27.53-16.22-40.95-24.89-1.37-.89-2.63.8-2.05,2.05,5.53,12.05,11.61,23.82,17.14,35.87l2.36-1.82c-7.81-8.34-15.61-16.69-23.42-25.03-1.26-1.35-2.97.36-2.36,1.82,4.38,10.31,8.77,20.62,13.15,30.92l2.59-1.51c-8.36-12.74-19.85-21.89-34.13-27.21-1.04-.39-2.22.81-1.85,1.85,3.65,9.92,7.3,19.84,10.95,29.76l2.2-1.69c-12.31-8.41-24.62-16.81-36.93-25.22v2.59c3.38.45,4.91,2.14,4.59,5.07-3.56,5.74-7.21,6.84-10.94,3.31-4.55-2.04-7.32-6.52-9.98-10.52-.68-1.03-2.42-.96-2.74.36-2.85,11.54-20.01,14.16-26.09,3.88-.86-1.45-3.2-.5-2.74,1.16,3.95,14.14-22.3,5.29-27.13,1.6-.85-.65-1.89.11-2.2.9-2.07,5.11-4.52,17.18-10.06,19.61-5.15,2.26-14.32.7-19.8.2-15.25-1.38-29.68-6.46-42.76-14.32-1.15-.69-2.52.45-2.2,1.69,1.81,7.2,3.61,14.39,5.42,21.59l2.51-1.46c-7.02-6.24-14.04-12.47-21.05-18.71-1.34-1.19-3.01.28-2.36,1.82,3.64,8.53-5.61,15.29-12.83,15.54-4.74.16-9.23-2.49-12.58-5.6-5.32-4.92-8.72-11.61-11.96-17.98-.73-1.44-2.68-.6-2.8.76-1.57,18.34-29.6,3.07-36.09-3.09-1.29-1.23-3.05.31-2.36,1.82,3.17,6.94,6.35,13.87,9.52,20.81l1.69-2.2c-17.71-4.27-32.68-13.96-43.88-28.3l-2.12,2.12c6.06,7.47,12.11,14.93,18.17,22.4l2.12-2.12c-15.94-12.37-33.53-21.66-52.75-27.77-1.24-.39-2.38,1.11-1.69,2.2,4.2,6.7,8.39,13.4,12.59,20.1l1.69-2.2c-13.48-4.96-26.95-9.92-40.43-14.87-12.46-4.58-24.81-5.97-37.84-8.23-.98-.12-1.95-.29-2.91-.51-2.57-.28-4.2-2.04-4.87-5.29-1.45-.57-4.37.24-5.89.3-4.88.21-9.77.32-14.65.03-12.24-.73-24.57-3.88-31.92-14.47l-2.36,1.82c8.53,7.36,17.05,14.72,25.58,22.08,1.45,1.25,3.54-.78,2.12-2.12-9.15-8.66-18.3-17.32-27.44-25.98-1.41-1.33-3.43.71-2.12,2.12,7.16,7.71,14.31,15.43,21.47,23.14l1.46-2.51c-26.05-8.67-52.09-17.34-78.14-26.02-1.46-.49-2.48,1.48-1.46,2.51,6.62,6.67,13.24,13.33,19.86,20l1.82-2.36c-22.14-11.62-46.48-15.85-71.25-12.5-1.18.16-1.35,1.78-.66,2.51,7.59,7.97,15.18,15.93,22.77,23.9l1.46-2.51c-22.97-8.27-46.98-10.2-71-5.87-.49.09-.94.58-1.05,1.05-1.92,8.19-1.53,15.67,1.32,23.58l2.2-1.69c-18.03-8.54-37-13.72-56.86-15.52l.4,2.95c3.74-.88-.84,6.51-1.65,7.24-3.38,3.05-7.6,3.05-11.96,3.29-6.55.36-13.21.05-19.73-.62-15.03-1.55-29.27-6-42.25-13.78-1.7-1.02-3.02,1.46-1.51,2.59,9.19,6.88,19.33,12.31,28.53,19.2.79.59,1.98-.04,2.2-.9.97-3.66,2.23-14.9,5.43-16.36,3.43-1.57,14.62,5.05,18.02,6.42.93.38,1.89-.57,1.9-1.45.07-6.16,1.1-10.84,4.08-16.16,3.2-5.7,5.11-5.75,11.57-4.11,10.25,2.6,20.84,3.27,31.21,5.2,15.23,2.82,32.4,14.71,44.95.31,6.09-6.98,9.88-14.36,18.39-19.03,9.2-5.05,20.08-6.55,30.44-5.49,23.14,2.36,42.46,17.84,60,31.78,1.48,1.18,3.47-.67,2.12-2.12-8.28-8.89-16.55-17.78-24.83-26.67-1.15-1.23-3.29.38-2.36,1.82,7.25,11.16,14.51,22.32,21.76,33.48l2.36-1.82c-10.6-8.71-21.2-17.42-31.8-26.13-1.32-1.09-3.11.24-2.36,1.82,2.17,4.57,6.44,14.04,4.6,19.19-1.56,4.37-1.03,2.55-4.32,1.15-2.62-1.11-5.16-3.84-7.42-5.53-8.41-6.27-16.82-12.53-25.24-18.8-1.32-.99-2.62.86-2.05,2.05,4.72,9.91,9.44,19.82,14.17,29.73l2.05-2.05c-14.77-10.38-29.54-20.76-44.31-31.14-1.19-.83-2.96.86-2.05,2.05,4.42,5.81,8.84,11.63,13.27,17.44l2.05-2.05c-14.09-8.46-29.09-14.06-45.31-16.85-.77-.13-1.66.19-1.85,1.05-2.5,11.25-1.04,21.8,4.46,31.92.94,1.73,3.36.21,2.59-1.51-4.24-9.52-8.47-19.04-12.71-28.56-.54-1.22-2.43-.8-2.74.36-2.87,10.61-8.31,20.32-16.64,27.64-6.54,5.75-7.47,3.86-11.87-2.88-3.36-5.14-6.72-10.29-10.08-15.43-.4-.61-1-.81-1.69-.69-35.64,6.18-71.29,12.35-106.93,18.53-36.44,6.32-73.07,13.9-110.13,15.23-18.09.65-36.22-.4-54.07-3.42-15.25-2.58-34.54-5.39-48.29-12.9-6.65-3.63-10.28-14.43-19.67-10.25-3.45,1.54-5.4,5.04-7.47,7.98-1.02,1.6-2.14,3.13-3.36,4.59-2.87.74-5.67.67-8.39-.21-1.51,1.6.07,12.87.08,15.28l2.8-.76c-5.25-11.05-13.34-19.43-24.19-25.1-.89-.46-2.42.09-2.26,1.3,1.35,10.08,2.71,20.16,4.06,30.25l2.8-.76c-5.95-13.71-15.19-24.76-27.53-33.17-1.1-.75-2.55.49-2.2,1.69,3.22,11.26,6.43,22.51,9.65,33.77l2.51-1.46c-10.76-11.65-19.39-24.59-26.07-38.95-.75-1.61-3.09-.43-2.74,1.16,2.73,12.51,5.45,25.02,8.18,37.52l2.74-1.16c-7.57-12.97-18.02-23.11-31.21-30.28-1.23-.67-2.41.43-2.2,1.69,1.67,10.05,3.34,20.1,5.01,30.15l2.74-1.16c-5.02-8.92-10.04-17.85-15.06-26.77-.78-1.39-2.66-.64-2.8.76-.62,6.61-1.24,13.23-1.86,19.84h3c-.34-4.19-1-8.14-2.6-12.08-.99-2.44-2.4-5.64-4.18-7.63-5.2-5.82,3.2,1.49-11.12,1.69-7.08.1-15.82-3.93-22.73-5.65-7.58-1.88-15.16-3.76-22.73-5.65-6.89-1.71-17.23-5.69-23.87-.93-3.48,2.49-4.64,6.12-1.66,9.43,1.83,2.03,6.72,4.07,9.02,1.63,3.35-3.54-1.27-11.95-3.37-15.11-8.52-12.8-26.12-17.62-39.65-10.35-.68.36-.99,1.4-.54,2.05,5.73,8.33,18.21,6.9,22.09-2.35.27-.64-.19-1.35-.69-1.69-7.18-4.94-14.37-9.89-21.55-14.83-1.06-.73-2.63.49-2.2,1.69,4.32,12.35,8.65,24.69,12.97,37.04l2.74-1.16c-9.91-18.78-22.8-35.37-38.57-49.61-1.08-.98-2.92-.04-2.51,1.46,4.05,14.55,8.1,29.09,12.15,43.64l2.74-1.16c-13.52-19.93-29.73-37.53-48.53-52.59-1.01-.81-3.14-.1-2.51,1.46,6.92,17.04,13.85,34.07,20.77,51.11l2.74-1.16c-11.02-20.2-24.88-38.33-41.47-54.27-1.3-1.25-3.01.32-2.36,1.82,8.76,20.16,17.53,40.31,26.29,60.47l2.59-1.51c-11.33-18.53-22.66-37.05-33.99-55.58-.73-1.19-2.91-.79-2.8.76.73,9.57,3.44,18.04,8.45,26.22l2.36-1.82c-6.4-7.85-12.79-15.69-19.19-23.54-.94-1.16-2.99.09-2.51,1.46,3.15,8.93,6.31,17.86,9.46,26.8.58,1.65,2.77,1.28,2.95-.4.63-5.83-5.69-12.15-11.49-8.31-5.69,3.77-2.81,11.69,2.49,13.87,1.79.73,2.56-2.17.8-2.89h0Z"/>
    </g>
  </g>
</svg>