<?xml version="1.0" encoding="UTF-8"?>
<svg id="Layer_2" data-name="Layer 2" xmlns="http://www.w3.org/2000/svg" viewBox="0 0 473.21 340.48">
  <defs>
    <style>
      .cls-1 {
        fill: #3e251b;
      }

      .cls-1, .cls-2, .cls-3, .cls-4, .cls-5, .cls-6, .cls-7, .cls-8, .cls-9, .cls-10, .cls-11 {
        stroke-width: 0px;
      }

      .cls-2 {
        fill: #4d2d1f;
      }

      .cls-3 {
        fill: #3b2008;
      }

      .cls-4 {
        fill: #46281e;
      }

      .cls-5 {
        fill: #fff8ee;
      }

      .cls-6 {
        fill: #311b00;
      }

      .cls-7 {
        fill: #3b2012;
      }

      .cls-8 {
        fill: #d09800;
      }

      .cls-9 {
        fill: #b67e1f;
      }

      .cls-10 {
        fill: #804300;
      }

      .cls-11 {
        fill: #a05e00;
      }
    </style>
  </defs>
  <g id="Treasure">
    <g>
      <g>
        <g>
          <path class="cls-11" d="m132,11.2c11.7-1.19,22-1.29,31.93-1.86.38,2.33.54,4.47.49,5.48-10.83.18-21.14.55-31.15,1.05-.38.02-.8.02-1.11-.22-.32-.26-.4-.7-.46-1.11-.19-1.33.29-3.35.29-3.35"/>
          <path class="cls-11" d="m132,12.7c10.62-1.06,21.28-1.25,31.93-1.86l-1.45-1.1c.26,1.67.49,3.39.44,5.08l1.5-1.5c-6.31.11-12.62.28-18.93.51-3.01.11-6.02.24-9.02.38-.76.04-1.52.07-2.28.11-.72.04-1,.34-1.01-.43s.11-1.55.28-2.3c.43-1.88-2.46-2.68-2.89-.8s-1.05,5.32,1.19,6.32c1.47.65,3.62.15,5.18.08,1.77-.08,3.54-.16,5.3-.23,7.4-.3,14.79-.51,22.19-.64.83-.01,1.47-.68,1.5-1.5.07-1.96-.24-3.95-.54-5.88-.1-.61-.85-1.14-1.45-1.1-10.65.6-21.31.79-31.93,1.86-1.9.19-1.92,3.19,0,3h0Z"/>
        </g>
        <path class="cls-10" d="m133.05,16.68c-.02-.13-.04-.25-.05-.38-.02-.11-.01-.07.02.13,0-.05-.01-.11-.02-.16-.03-.24-.06-.47-.08-.71-.05-.46-.09-.92-.12-1.37-.06-.94-.09-1.89-.08-2.84,0-.78-.69-1.54-1.5-1.5s-1.49.66-1.5,1.5c-.02,2.05.14,4.09.44,6.12.05.35.4.73.69.9.32.19.8.27,1.16.15s.71-.34.9-.69c.2-.38.21-.73.15-1.16h0Z"/>
        <path class="cls-10" d="m166.84,15.28c-.14-1.25-.34-2.49-.57-3.72-.08-.42-.16-.84-.24-1.25-.02-.11-.04-.22-.05-.32-.01-.08-.06-.43-.02-.12s0-.04-.01-.12c-.01-.1-.02-.21-.03-.31-.07-.78-.64-1.54-1.5-1.5-.76.03-1.57.66-1.5,1.5.08.94.25,1.86.43,2.78.09.48.18.97.27,1.45.05.3.1.6.14.9,0,.07.02.13.03.2.03.19-.04-.32,0-.03.02.18.05.37.07.55.05.41.14.76.44,1.06.26.26.69.46,1.06.44.74-.03,1.6-.67,1.5-1.5h0Z"/>
        <path class="cls-10" d="m147.94,12.82c-.24-3.52-.47-7.04-.71-10.56l-1.5,1.5c2.26-.25,4.53-.5,6.79-.75.81-.09,1.5-.63,1.5-1.5,0-.74-.69-1.59-1.5-1.5-2.26.25-4.53.5-6.79.75-.76.08-1.56.62-1.5,1.5.24,3.52.47,7.04.71,10.56.05.81.65,1.5,1.5,1.5.77,0,1.55-.69,1.5-1.5h0Z"/>
        <path class="cls-10" d="m147.83,10.12c1.71-.25,3.42-.5,5.14-.74.35-.05.73-.4.9-.69.19-.32.27-.8.15-1.16s-.34-.71-.69-.9c-.38-.2-.73-.21-1.16-.15-1.71.25-3.42.5-5.14.74-.35.05-.73.4-.9.69-.19.32-.27.8-.15,1.16s.34.71.69.9c.38.2.73.21,1.16.15h0Z"/>
      </g>
      <g>
        <path class="cls-6" d="m25.01,25.26c23.16-2.63,31.94-3.48,56.29-4.64,13.63-.65,27.31-1.71,40.94-2.07,12.62-.34,25.11-1.06,37.71-1.82,13.95-.84,30.65-2.52,44.63-2.73,14.24-.21,32.54-1.28,46.71-2.8,10.45,42.26,20.57,95.56,45.45,131.28,1.13,1.62,2.33,3.48,1.95,5.42-.43,2.2-2.66,3.49-4.66,4.49-46.12,22.97-95.65,43.83-147.12,41.47-12.26-.56-24.42-2.44-36.51-4.58-6.66-1.18-13.35-2.45-19.63-4.96-12.55-5.02-22.63-14.64-32.05-24.33-5.91-6.08-11.76-12.34-16.04-19.66-4.16-7.12-6.73-15.08-8.49-23.13-2.38-10.83-3.35-21.92-4.32-32.96-1.37-15.59-2.74-42.62-4.11-58.21"/>
        <path class="cls-6" d="m25.01,26.76c12.38-1.41,24.75-2.76,37.18-3.59,15.51-1.03,31.06-1.79,46.59-2.58,8.26-.42,16.53-.59,24.8-.94,8.26-.35,16.51-.83,24.76-1.33,14.96-.9,29.9-2.49,44.89-2.81,16.05-.34,32.1-1.12,48.07-2.82l-1.45-1.1c3.9,15.79,7.46,31.66,11.55,47.4s8.94,32.35,15.15,47.92c2.98,7.48,6.29,14.83,10.11,21.92,1.86,3.46,3.85,6.86,5.97,10.17,1.04,1.62,2.14,3.2,3.21,4.8,1.18,1.77,2.16,3.79.34,5.48-1.42,1.32-3.43,2.07-5.14,2.92-2.1,1.04-4.2,2.07-6.3,3.09-4.3,2.09-8.62,4.15-12.96,6.16-8.66,4.01-17.4,7.83-26.28,11.34-17.5,6.93-35.53,12.7-54.05,16.2-18.83,3.56-37.97,4.47-57.03,2.38-9.91-1.09-19.83-2.68-29.6-4.65-4.71-.95-9.4-2.12-13.86-3.93-4.03-1.64-7.83-3.82-11.41-6.28-7.28-5.01-13.62-11.26-19.76-17.58-6.51-6.69-12.91-13.61-17.23-21.96s-6.69-17.84-8.26-27.17-2.37-18.76-3.14-28.18c-1.25-15.3-2.03-30.64-3.13-45.95-.23-3.22-.48-6.44-.76-9.66-.17-1.91-3.17-1.93-3,0,1.35,15.45,2.12,30.95,3.2,46.42.58,8.32,1.26,16.65,2.16,24.95,1.06,9.8,2.51,19.65,5.46,29.08s7.36,17.31,13.48,24.67c5.88,7.07,12.49,13.75,19.33,19.9s13.81,11.2,22.05,14.57c9.17,3.76,19.29,5.09,29.01,6.65s20.24,2.89,30.45,3.21c9.59.3,19.21-.2,28.73-1.37,19.03-2.35,37.63-7.28,55.67-13.7,18.32-6.52,36.09-14.52,53.56-23.04,2.18-1.06,4.35-2.13,6.52-3.21,1.69-.84,3.5-1.69,4.79-3.11,3.27-3.62.55-7.51-1.68-10.8-4.47-6.61-8.34-13.61-11.77-20.81-7.35-15.39-12.74-31.66-17.38-48.04s-8.45-32.85-12.4-49.35c-.89-3.74-1.8-7.48-2.72-11.22-.14-.58-.81-1.17-1.45-1.1-14.36,1.53-28.81,2.39-43.25,2.73-14.85.35-29.61,1.57-44.43,2.56-16.29,1.1-32.59,1.63-48.91,2.32-16.03.68-32.07,1.62-48.08,2.58-13.92.84-27.77,2.29-41.62,3.87-1.9.22-1.92,3.22,0,3h0Z"/>
      </g>
      <g>
        <path class="cls-7" d="m302.21,152.19c-50.5,6.95-82.05,10.48-132.55,17.43-30.34,4.17-63.05,7.97-93.54,7.97l15.24,41.92,131.46,50.39,236.89-50.39,11.43-24.13c-9.85-3.04-38.15-8.16-48.27-10.16-22.66-4.49-35.99-10.03-58.43-15.47-21.13-5.13-42.61-11.38-62.73-18.62"/>
        <path class="cls-7" d="m301.81,150.74c-28,3.85-56.05,7.38-84.08,10.99-29.83,3.84-59.6,8.42-89.53,11.43-17.3,1.74-34.68,2.91-52.08,2.93-.91,0-1.79.97-1.45,1.9,2.54,6.99,5.08,13.97,7.62,20.96,1.75,4.8,3.49,9.61,5.24,14.41.77,2.12,1.34,4.54,2.38,6.55.57,1.09,1.84,1.35,2.94,1.77l6.14,2.35,21.77,8.34c20.09,7.7,40.19,15.4,60.28,23.11l40.11,15.37c1.61.62,2.59.38,4.26.02l12.01-2.55c15.66-3.33,31.33-6.66,46.99-10,21.08-4.48,42.16-8.97,63.24-13.45,20.54-4.37,41.08-8.74,61.62-13.11,14.04-2.99,28.09-5.97,42.13-8.96,2.75-.58,5.65-.96,8.34-1.78,1.37-.41,1.67-1.64,2.25-2.86l6.38-13.48c1.35-2.85,2.7-5.71,4.06-8.56.42-.88.09-1.9-.9-2.2-8.01-2.45-16.35-3.94-24.56-5.57-8.27-1.65-16.58-3.14-24.85-4.82-12.21-2.47-24.13-5.97-36.07-9.48-12.83-3.76-25.85-6.77-38.76-10.27-15.24-4.12-30.34-8.79-45.2-14.12-1.82-.65-2.6,2.24-.8,2.89,13.2,4.74,26.58,8.95,40.08,12.72,13.11,3.66,26.41,6.64,39.49,10.4,11.74,3.38,23.4,7.01,35.33,9.66,8.73,1.94,17.55,3.46,26.32,5.18,9.41,1.84,19.01,3.49,28.2,6.29l-.9-2.2c-3.81,8.04-7.62,16.09-11.43,24.13l.9-.69c-5.06,1.08-10.13,2.15-15.19,3.23l-38.6,8.21c-17.18,3.66-34.37,7.31-51.55,10.97-18.02,3.83-36.04,7.67-54.05,11.5-15.37,3.27-30.74,6.54-46.1,9.81-9.23,1.96-18.47,3.93-27.7,5.89l-2.8.6c-.21.04-.52.05-.71.15-.56.29.59-.82.59.03,0-.44-6.52-2.5-7-2.68-13.38-5.13-26.76-10.26-40.13-15.38-16.94-6.49-33.88-12.99-50.82-19.48-10.64-4.08-21.28-8.15-31.91-12.23-.52-.2-1.05-.4-1.57-.6l1.05,1.05c-4.45-12.23-8.9-24.46-13.34-36.7-.63-1.74-1.27-3.48-1.9-5.22l-1.45,1.9c30.97-.03,61.84-3.63,92.49-7.83,28.27-3.87,56.58-7.47,84.88-11.11,16.38-2.11,32.76-4.27,49.12-6.52,1.9-.26,1.09-3.15-.8-2.89h0Z"/>
      </g>
      <path class="cls-6" d="m300.82,151.27c.06,21.66,1.68,43.27,3.69,64.83.58,6.21,1.19,12.42,1.8,18.63.19,1.9,3.19,1.92,3,0-2.11-21.55-4.24-43.12-5.09-64.76-.25-6.23-.38-12.46-.4-18.7,0-1.93-3-1.93-3,0h0Z"/>
      <path class="cls-4" d="m77.24,179.3c29.46-2.5,58.89-5.36,88.26-8.73,28.99-3.33,57.93-7.13,86.8-11.41,16.33-2.42,32.63-4.99,48.91-7.71,1.9-.32,1.09-3.21-.8-2.89-28.85,4.82-57.77,9.18-86.76,13.04-29.03,3.87-58.12,7.25-87.25,10.17-16.38,1.64-32.77,3.14-49.17,4.53-1.91.16-1.93,3.16,0,3h0Z"/>
      <g>
        <g>
          <path class="cls-8" d="m430.29,205.91c1.67-.56,2.87-2.3,2.81-4.06-2.37-1.3-5.12-1.9-7.82-1.69,2.35-.89,2.94-4.58.98-6.16-2.99-.22-6.14-.41-8.84.9s-4.64,4.69-3.31,7.38c1.09.08,1.63-1.52,1.02-2.43s-1.78-1.22-2.86-1.42c-7.38-1.37-15.13-.73-22.18,1.84-1.03-3.78-5.6-5.41-9.52-5.31s-7.84,1.31-11.71.64c.87-.67,1.74-1.35,2.61-2.02-4.04-5.87-12.06-8.65-18.86-6.54,2.79-.58,6.33-2.17,5.85-4.98-.38-2.23-3.1-3.09-5.36-3.31-8.98-.86-18.23,1.42-25.77,6.36,1.92-.12,3.93-.28,5.56-1.3s2.7-3.21,1.82-4.92c-.86-1.68-3.03-2.1-4.91-2.33-5.04-.62-10.08-1.23-15.12-1.85,2.18.17,4.07-2.35,3.31-4.39-9.36-2.21-19.53-.74-27.88,4.02,2.72-.46,5.25-2,6.9-4.21-8.98-3.39-19.1-3.66-28.24-.74,1.28-1.11,2.56-2.23,3.84-3.34-2.03-3.12-5.51-5.26-9.21-5.66,1.08-.09,1.42-1.7.75-2.56s-1.83-1.12-2.9-1.33c-3.38-.66-6.93-1.31-10.21-.26s-6.09,4.42-5.25,7.76c-4.05-2.04-9.52-2.37-12.68.89s-1.12,10.29,3.41,9.99c-7.7-.3-15.43-.06-23.09.7,3.44-.06,8.28-2.11,6.86-5.24-.83-1.82-3.28-2.07-5.28-2.05-7.04.08-14.08.15-21.12.23,3.44-.54,6.77-1.82,9.68-3.73,1.38-.91,2.8-2.65,1.87-4.01-.57-.83-1.74-.98-2.52-1.61s-.49-2.41.45-2.07c-4.5.22-8.99-.87-13.49-.67s-9.43,2.16-11.09,6.35,2.44,9.98,6.65,8.39c-2.44,2.34-4.88,4.68-7.32,7.02.13-2.89-3.58-4.14-6.46-4.39-3.97-.34-8.5-.28-11.26,2.6-2.76,2.88-1.04,9.2,2.91,8.65-6.54-.5-13.08-1.01-19.62-1.51-3.32-.26-6.9-.45-9.7,1.34-2.8,1.79-3.94,6.41-1.27,8.39-4.03-1.78-8.5-3.42-12.74-2.23s-7.45,6.53-4.95,10.15v53.9h318.08l-2.82-49.16Z"/>
          <path class="cls-8" d="m430.69,207.36c2.36-.95,3.85-2.93,3.92-5.51.01-.51-.29-1.06-.74-1.3-2.67-1.4-5.57-2.07-8.58-1.9l.76,2.8c2.15-.97,3.22-3.48,2.81-5.75-.19-1.07-.81-2.46-1.83-3-1.21-.64-3.42-.39-4.76-.35-2.99.1-6.08.88-8.11,3.22-1.86,2.14-2.47,4.84-1.34,7.47.19.44.83.78,1.3.74,2.13-.16,3.42-2.44,2.46-4.39-1.25-2.56-5.01-2.65-7.44-2.91-6.55-.71-13.24.14-19.44,2.35l1.85,1.05c-1.11-3.58-4.44-5.58-8-6.18-4.78-.81-9.5,1.18-14.27.46l.66,2.51c.87-.67,1.74-1.35,2.61-2.02.48-.37.58-1.33.23-1.82-4.57-6.43-12.94-9.47-20.55-7.23-1.86.55-1.08,3.31.8,2.89,2.93-.65,6.95-2.32,6.99-5.87.04-3.93-4.28-5.15-7.44-5.41-9.08-.76-18.35,1.69-25.99,6.61-1.17.75-.81,2.9.76,2.8,2.87-.19,6.02-.54,7.92-2.96,1.66-2.11,1.73-5.12-.43-6.91s-5.77-1.77-8.5-2.1c-3.89-.48-7.77-.95-11.66-1.43v3c3.23,0,5.66-3.18,4.76-6.29-.14-.49-.54-.93-1.05-1.05-9.85-2.25-20.22-.77-29.04,4.17-1.55.87-.45,3.05,1.16,2.74,3-.58,5.68-2.19,7.56-4.6.72-.92.47-2.09-.66-2.51-9.3-3.44-19.58-3.69-29.04-.74l1.46,2.51c1.28-1.11,2.56-2.23,3.84-3.34.47-.41.59-1.3.23-1.82-2.47-3.63-6.17-5.84-10.51-6.4l.4,2.95c2.48-.57,2.79-3.82,1.1-5.4-1.1-1.03-2.67-1.28-4.1-1.55-1.73-.33-3.5-.63-5.26-.69-3.09-.11-6.14.6-8.5,2.67-2.18,1.91-3.27,4.67-2.7,7.53l2.2-1.69c-4.9-2.37-13-2.96-15.75,2.96-1.98,4.27.38,10.86,5.71,10.71,1.93-.05,1.93-2.93,0-3-7.71-.28-15.42-.05-23.09.7-1.88.18-1.96,3.07,0,3,2.66-.1,5.83-.89,7.6-3.02,1.9-2.29.82-5.46-1.81-6.6-1.42-.62-3.01-.67-4.53-.66-2.28.02-4.55.05-6.83.07-4.66.05-9.32.1-13.98.15l.4,2.95c3.83-.64,8.4-2.1,11.26-4.86,1.14-1.1,2.06-2.73,1.54-4.35-.25-.78-.82-1.41-1.5-1.85-.31-.2-.64-.33-.97-.49-.2-.09-.39-.19-.58-.3-.3-.29-.65-.14-1.06.43l.4-2.95c-7.95.29-18.25-3.26-24.34,3.93-2.29,2.71-2.73,6.22-1.05,9.37,1.51,2.84,4.65,4.76,7.86,3.72l-1.46-2.51c-2.44,2.34-4.88,4.68-7.32,7.02l2.56,1.06c-.05-3.64-3.65-5.27-6.79-5.75-3.64-.55-7.88-.57-11.21,1.2-2.95,1.56-4.48,4.5-3.94,7.81.46,2.79,2.59,5.39,5.64,5.11,1.92-.18,1.94-2.85,0-3-4.43-.34-8.86-.68-13.29-1.02-4.05-.31-8.31-1.03-12.35-.47-3.11.43-5.96,1.93-7.27,4.89-1.1,2.48-.94,5.56,1.27,7.38l1.82-2.36c-4.82-2.12-10.9-4.37-15.92-1.52-3.42,1.94-5.99,6.39-4.44,10.29.11.27.61,1.32.42.45,0,.02,0,.04,0,.06.02.11,0,.24,0,.34,0,.51,0,1.02,0,1.53v51.97c0,.81.69,1.5,1.5,1.5h305.17c4.12,0,8.25.08,12.37,0,.18,0,.36,0,.54,0,.78,0,1.55-.69,1.5-1.5-.82-14.38-1.65-28.75-2.47-43.13-.12-2.01-.23-4.02-.35-6.04s-3.11-1.93-3,0c.82,14.38,1.65,28.75,2.47,43.13.12,2.01.23,4.02.35,6.04l1.5-1.5H127.94c-4.08,0-8.29-.3-12.37,0-.18.01-.36,0-.54,0l1.5,1.5v-53.09c0-.26.03-.54,0-.8-.1-.79-.66-1.37-.81-2.15-.21-1.06.08-2.14.56-3.09,3.09-6.08,10.88-3.51,15.69-1.4,1.41.62,3.25-1.17,1.82-2.36-1.71-1.41-1.15-3.93.23-5.4,2.03-2.17,5.64-2.02,8.36-1.86,6.99.42,13.96,1.07,20.94,1.6v-3c-1.75.16-2.6-1.43-2.74-3-.21-2.35,1.3-3.93,3.42-4.7,2.4-.88,5.16-.8,7.67-.54,1.66.17,4.93.73,4.96,2.89.02,1.31,1.62,1.96,2.56,1.06,2.44-2.34,4.88-4.68,7.32-7.02,1.06-1.01-.02-2.97-1.46-2.51-2.44.8-4.43-1.44-4.97-3.65-.67-2.71,1.15-5.04,3.38-6.35,6.01-3.55,13.41-.88,19.92-1.12,1.6-.06,2.15-2.67.4-2.95-1.47-.23-2.63.58-2.77,2.12-.18,1.82,1.03,2.69,2.5,3.43,2.19,1.11-2.37,3.33-3.31,3.79-2.12,1.04-4.38,1.69-6.7,2.08-1.69.28-1.26,2.96.4,2.95,6.73-.07,13.46-.15,20.19-.22,1.09-.01,5.88-.19,4.84,2.09-.76,1.67-3.91,2.13-5.48,2.19v3c7.68-.75,15.39-.99,23.09-.7v-3c-3.23.09-4.21-4.49-2.82-6.8,2.26-3.75,8.06-2.87,11.34-1.29,1.2.58,2.47-.37,2.2-1.69-.71-3.5,3.02-5.94,6.03-6.32,1.86-.24,3.77-.01,5.6.3.89.15,1.8.3,2.68.52.18.04,1.72.79,1.46.85-1.79.41-1.15,2.75.4,2.95,3.21.41,6.11,2.25,7.92,4.92l.23-1.82c-1.28,1.11-2.56,2.23-3.84,3.34-1.14.99.07,2.94,1.46,2.51,9-2.81,18.61-2.53,27.45.74l-.66-2.51c-1.61,2.06-3.67,3.34-6.24,3.83l1.16,2.74c8.1-4.54,17.67-5.93,26.73-3.87l-1.05-1.05c.36,1.25-.56,2.5-1.86,2.5-1.98,0-1.86,2.77,0,3,5.12.63,10.27,1.12,15.36,1.88,1.65.25,4.29.9,3.22,3.14s-3.88,2.25-5.93,2.38l.76,2.8c5.86-3.78,12.63-6,19.61-6.3,1.62-.07,3.25-.04,4.86.1,1.24.11,2.85.29,3.82,1.16,2.48,2.25-2.69,3.9-4.17,4.23l.8,2.89c6.25-1.84,13.37.5,17.17,5.85l.23-1.82c-.87.67-1.74,1.35-2.61,2.02s-.4,2.35.66,2.51c4.25.63,8.3-.61,12.53-.59,2.95.02,6.68,1.08,7.65,4.21.23.73,1.06,1.33,1.85,1.05,4.06-1.45,8.28-2.31,12.59-2.46,2.12-.08,4.24,0,6.34.25.97.11,1.97.24,2.92.47.58.14.92.31,1.44.59.45.25-.36.27.33.22l1.3.74c-.91-2.11.95-4.45,2.77-5.33,2.47-1.19,5.44-.89,8.08-.7l-1.06-.44c1.26,1.14.83,3.13-.67,3.8-1.36.61-.67,2.88.76,2.8,2.49-.14,4.85.33,7.06,1.49l-.74-1.3c-.03,1.14-.62,2.17-1.71,2.61-1.77.71-1,3.62.8,2.89Z"/>
        </g>
        <g>
          <path class="cls-8" d="m377.87,198.23c4.02-1.44,8.04-2.88,12.06-4.32,1.93-.69,4.08-1.59,4.8-3.51,1.17-3.1-2.38-6.09-5.67-6.47s-6.69.63-9.9-.18c-1.34-2.25,1.5-5.61-.24-7.56-.5-.56-1.26-.81-1.99-1.01-6.82-1.89-14.11-2.07-21.01-.51.96-1.34,2.77-1.65,4.27-2.32s2.91-2.46,2.01-3.84c-.44-.68-1.28-.95-2.05-1.18-6.45-1.86-13.07-3.1-19.76-3.7-5.62-.51-11.86-.36-16.09,3.37,2.79-.03,5.58.46,8.2,1.43-3.09.79-6.44,1.77-8.23,4.4s-.48,7.29,2.7,7.3"/>
          <path class="cls-8" d="m378.26,199.67c4.02-1.44,8.05-2.86,12.06-4.32,2.79-1.02,6.06-2.63,6.13-6.06.06-3.14-2.72-5.5-5.46-6.45-3.7-1.28-7.68.31-11.44-.53l.9.69c-.42-.81-.01-1.91.18-2.73.25-1.06.49-2.16.28-3.25-.56-2.9-3.85-3.42-6.28-3.92-6.31-1.32-12.82-1.24-19.12.14l1.46,2.51c.99-1.23,2.61-1.43,3.97-2.09s2.64-1.95,2.96-3.49c.84-4.04-4.83-4.72-7.53-5.38-3.93-.96-7.92-1.68-11.94-2.2-3.59-.46-7.26-.86-10.88-.55s-7.38,1.42-10.32,3.92c-1.02.87-.17,2.56,1.06,2.56,2.69,0,5.27.47,7.8,1.38v-2.89c-3.81.99-8.77,2.55-9.91,6.86-.9,3.41.92,7.61,4.78,7.79,1.93.09,1.93-2.91,0-3-2.1-.1-2.36-3.25-1.62-4.69,1.34-2.61,4.98-3.41,7.55-4.08,1.52-.39,1.33-2.42,0-2.89-2.76-.99-5.66-1.48-8.6-1.48l1.06,2.56c2.65-2.26,6.16-3,9.56-3.12,3.99-.15,8.03.37,11.96.99,4.26.67,8.49,1.59,12.63,2.79.55.16,1.51.25,1.42.96s-1.22,1.25-1.81,1.5c-1.56.64-3.18,1.06-4.28,2.44-.92,1.15-.09,2.85,1.46,2.51,4.76-1.05,9.69-1.28,14.54-.65,1.15.15,2.3.36,3.44.61.93.2,2.73.35,3.43,1.06.83.84-.18,2.98-.33,3.99-.13.84-.16,1.68.09,2.51.35,1.15,1.02,1.55,2.16,1.74,2.31.38,4.62.06,6.94-.02,2.08-.07,4.09.15,5.68,1.61,1.25,1.14,1.68,2.77.27,3.98-1.77,1.53-4.57,2.07-6.71,2.84l-8.35,2.99c-1.8.65-1.03,3.55.8,2.89h0Z"/>
        </g>
        <path class="cls-9" d="m330.1,172.23c.86,4.68,6.51,4.16,10.03,3.98,4.72-.25,9.43-.5,14.15-.75,1.92-.1,1.93-3.1,0-3-3.98.21-7.96.42-11.94.63-1.86.1-3.73.25-5.6.28-1.49.02-3.43-.18-3.75-1.94-.35-1.9-3.24-1.09-2.89.8h0Z"/>
        <path class="cls-9" d="m295.16,170.39c-3.09-.14-4.97,2.87-5.28,5.62-.17,1.49.2,2.96,1.55,3.8s3.25.83,4.79.97c7.77.71,15.66-.17,23.1-2.49,1.84-.57,1.05-3.47-.8-2.89-5.56,1.73-11.32,2.64-17.15,2.63-1.41,0-2.81-.06-4.22-.16-1.17-.09-2.74-.02-3.84-.47-.89-.37-.42-1.7-.11-2.42.37-.86.95-1.61,1.95-1.57,1.93.09,1.93-2.91,0-3h0Z"/>
        <path class="cls-9" d="m267.71,170.54c-1.85,1.42-3.69,3.23-4.63,5.4-1.03,2.37.76,4.2,2.96,4.77,2.39.62,5.08.66,7.53.6,2.74-.07,5.47-.45,8.13-1.1,1.88-.46,1.08-3.35-.8-2.89-3.99.97-8.12,1.24-12.2.79-.75-.08-1.57-.14-2.29-.42-.4-.16-.67-.21-.57-.59.18-.72.96-1.54,1.43-2.09.59-.68,1.24-1.33,1.96-1.88.64-.49.98-1.29.54-2.05-.37-.63-1.4-1.03-2.05-.54h0Z"/>
        <path class="cls-9" d="m248.45,167.17c3.6.53,7.4,1.1,10.95-.03,3-.95,5.51-2.94,6.68-5.89.3-.75-.33-1.65-1.05-1.85-.85-.23-1.55.29-1.85,1.05-.82,2.07-2.97,3.37-5.03,3.93-2.9.79-6,.32-8.91-.11-.8-.12-1.61.2-1.85,1.05-.19.71.24,1.73,1.05,1.85h0Z"/>
        <path class="cls-9" d="m251.78,168.11c-.71,1.01-1.35,2.07-1.88,3.18-.35.72-.72,1.46-.65,2.28s.54,1.55,1.24,2.02c1.02.69,2.44.82,3.64.82,1.32,0,2.65-.25,3.87-.75.38-.16.68-.32.9-.69.19-.32.27-.8.15-1.16-.23-.7-1.07-1.37-1.85-1.05-.49.2-1,.37-1.52.48-.12.03-.24.05-.36.07-.05,0-.46.09-.09.02-.24.05-.49.05-.73.06-.27.01-.53,0-.8,0-.14,0-.29-.02-.43-.03h-.12c-.17-.03-.16-.03.03,0-.19.03-.47-.08-.66-.13-.09-.02-.18-.06-.27-.08-.28-.08.3.16-.02-.01-.06-.03-.29-.22-.11-.05.1.08.11.09.02,0-.11-.11-.08-.08.07.11-.14-.22.05.33,0,.05l.02.19c0-.17,0-.16-.02.03,0,0,.15-.47.02-.12.04-.12.1-.23.16-.34.11-.24.23-.48.35-.72.48-.93,1.03-1.83,1.64-2.69.45-.64.14-1.7-.54-2.05-.77-.41-1.57-.15-2.05.54h0Z"/>
        <path class="cls-9" d="m235.77,178.67c3.66,2.26,8.68,2.14,12.17-.41.65-.48.98-1.3.54-2.05-.38-.64-1.39-1.02-2.05-.54-.72.53-1.44.91-2.14,1.15-.41.14-.83.25-1.25.33-.11.02-.21.04-.32.06-.26.04.18-.02-.08.01-.24.03-.48.05-.73.05-.93.04-1.54-.03-2.33-.22-.21-.05-.42-.11-.62-.18-.17-.05-.51-.18-.58-.2.08.03-.16-.07-.19-.09-.1-.05-.19-.09-.29-.14-.22-.11-.42-.23-.63-.36-.69-.43-1.65-.15-2.05.54s-.15,1.63.54,2.05h0Z"/>
        <path class="cls-9" d="m209.81,176.31c-4.04,2.29-8.68,2.87-13.26,2.39-2.28-.24-4.53-.77-6.7-1.49-.24-.08-.48-.16-.72-.24-1.14-.4-.01.32-.03.32.13-.05.3-1.16.36-1.34.27-.77.62-1.47,1.46-1.65,1.89-.4,1.09-3.29-.8-2.89-2.52.53-3.96,3.54-4.05,5.94-.07,1.75,1.41,2.23,2.8,2.7s2.94.88,4.44,1.17c6.1,1.19,12.53.79,18.01-2.32,1.68-.95.17-3.55-1.51-2.59h0Z"/>
        <path class="cls-9" d="m186.84,172.73c5.54-.98,10.98-2.47,16.25-4.46.76-.29,1.28-1.01,1.05-1.85-.2-.73-1.08-1.34-1.85-1.05-5.27,1.99-10.7,3.48-16.25,4.46-.8.14-1.25,1.12-1.05,1.85.23.84,1.04,1.19,1.85,1.05h0Z"/>
        <path class="cls-9" d="m177.02,177.94c-1.88.35-3.12,2.21-3.18,4.04-.06,1.97,1.3,3.72,2.97,4.62,1.97,1.07,4.24,1.06,6.42,1.04,2.33-.02,4.66-.03,6.98-.05,1.93-.01,1.93-3.01,0-3-1.76.01-3.52.03-5.27.04s-3.51.19-5.17-.14c-1.06-.21-2.3-.7-2.78-1.75-.36-.79-.02-1.75.83-1.91.8-.15,1.25-1.11,1.05-1.85-.23-.84-1.05-1.2-1.85-1.05h0Z"/>
        <path class="cls-9" d="m158.9,183.73c5.05,2.38,10.96,2.27,15.89-.37,1.7-.91.19-3.5-1.51-2.59-3.92,2.11-8.82,2.28-12.86.37-.73-.35-1.62-.2-2.05.54-.38.65-.2,1.7.54,2.05h0Z"/>
        <path class="cls-9" d="m233.51,179.36c-.32,1.26-2.57,1.34-3.59,1.47-2.24.28-4.49.45-6.74.5s-4.51,0-6.76-.19c-.52-.04-1.69,0-1.85-.63-.17-.67.68-1.68,1.04-2.18,1.12-1.58-1.48-3.08-2.59-1.51-1.41,1.99-2.36,5.07.25,6.59,1.19.69,2.67.71,4,.8,1.55.1,3.1.15,4.65.15,3.09-.01,6.18-.25,9.24-.68,2.18-.31,4.64-1.11,5.24-3.5.47-1.87-2.42-2.67-2.89-.8h0Z"/>
        <path class="cls-9" d="m253.19,181.47c-1.67-1.43-3.89-1.62-5.89-.79-2.14.89-3.49,2.69-4.35,4.78-.43,1.04-.72,2.12-.99,3.21-.29,1.21-.58,2.47.2,3.57.69.98,1.84,1.29,2.98,1.38,1.26.1,2.56.04,3.82-.01,3.02-.13,6.04-.51,9-1.11.79-.16,1.25-1.1,1.05-1.85-.23-.83-1.05-1.21-1.85-1.05-2.57.52-5.17.85-7.79.98-1.28.06-2.57.1-3.85.05-.31-.01-.69-.12-.89-.13-.21-.14-.2-.12.02.08-.02,0-.02-.03,0-.05,0,0,.1-.55.11-.62.45-1.95.93-4.18,2.4-5.64,1-.99,2.86-1.59,3.92-.69.62.53,1.52.6,2.12,0,.54-.54.62-1.59,0-2.12h0Z"/>
        <path class="cls-9" d="m268.06,187.78c2.03-.26,4.11-.02,5.96.89.43.21.84.45,1.24.71-.03-.02.45.35.4.34.1.18.1,0,.01-.55-.03.07-.07.12-.15.15-.4.19-.76.66-1.11.93-.43.33-.87.64-1.32.94-1.63,1.07-3.42,2.08-5.32,2.58-.75.2-1.46.31-2.24.21-.5-.06-1.12-.3-1.4-.69-.47-.65-1.3-.98-2.05-.54-.65.38-1.02,1.39-.54,2.05,2.61,3.6,7.42,2.03,10.7.36,1.93-.99,3.95-2.24,5.48-3.79.9-.92,1.17-2.22.43-3.33-.61-.93-1.74-1.55-2.72-2.02-2.28-1.1-4.84-1.58-7.36-1.25-.8.1-1.5.61-1.5,1.5,0,.73.69,1.6,1.5,1.5h0Z"/>
        <path class="cls-9" d="m232.32,198.11c-.25-.21-.32-.44-.21-.68.12-.1.08-.08-.14.06,0,0-.61.27-.56.25-.67.26-1.35.49-2.04.69-1.34.39-2.72.69-4.11.86-2.82.33-5.68.2-8.45-.39-1.88-.4-2.69,2.49-.8,2.89,3.98.85,8.08.89,12.07.06,1.78-.37,3.81-.84,5.4-1.76s2.31-3.52.34-4.56c-1.7-.91-3.22,1.68-1.51,2.59h0Z"/>
        <path class="cls-9" d="m229.66,187.23c.37.08.73.17,1.09.29s.37.13.68.28c.34.16.66.35.98.56s.34.22.59.44.51.47.75.73c.06.08.07.08,0,0,.06.08.12.17.17.26-.11-.22.02.25-.02-.05-.03-.21.08-.17-.06-.05.14-.11-.2.18-.25.22-.14.12-.28.24-.42.35.18-.14-.19.14-.2.14-1.17.83-2.12,1.25-3.47,1.58-.3.07-.61.13-.92.18-.34.06.09,0-.22.03-.21.02-.42.04-.62.05-.31.01-.63.01-.94,0-.16,0-.31-.02-.47-.03-.1,0-.21-.02-.31-.03.14.02.12.02-.07-.01-.77-.12-1.65.19-1.85,1.05-.16.71.22,1.72,1.05,1.85,3.69.56,7.37-.4,10.26-2.78.83-.68,1.51-1.57,1.49-2.69s-.78-1.98-1.54-2.69c-1.37-1.27-3.07-2.17-4.9-2.55-.77-.16-1.66.22-1.85,1.05-.17.75.23,1.67,1.05,1.85h0Z"/>
        <path class="cls-9" d="m212.78,188.96c.86.11,1.72.52,2.4,1.04.82.62,1.11,1.37,1.66,2.17l.07.26c.21-.32.21-.4,0-.26-.18-.01-.54.27-.73.36-.54.25-1.09.48-1.64.68-1.15.42-2.33.77-3.52,1.03-2.32.5-4.7.65-7.07.49-.53-.04-1.06-.09-1.59-.16s-1.39-.1-1.85-.39c-.65-.41.28-1.54.62-1.97.5-.64.62-1.5,0-2.12-.52-.52-1.62-.64-2.12,0-.81,1.03-1.57,2.14-1.7,3.48s.55,2.63,1.78,3.25,2.71.71,4.04.85,2.78.17,4.17.1c2.85-.16,5.7-.74,8.37-1.76,1.18-.45,2.76-.92,3.63-1.89.97-1.08.61-2.55.03-3.71-1.26-2.54-3.8-4.06-6.54-4.43-.8-.11-1.5.77-1.5,1.5,0,.9.69,1.39,1.5,1.5h0Z"/>
        <path class="cls-9" d="m182.64,186.19c-3.49-.43-7.56.27-10.38,2.48-1.26.99-2.13,2.39-2.02,4.02s1.21,2.89,2.47,3.8c2.96,2.13,7.13,2.99,10.7,3.18s7.54-.46,10.47-2.85c.82-.67,1.55-1.45,2.22-2.26.58-.69,1.4-1.5,1.73-2.34.72-1.84-1.47-3.77-2.97-2.16-1.31,1.41.8,3.54,2.12,2.12l.12-.13-1.06.44-.82-.48-.15-1.16c-.1.68-.93,1.41-1.37,1.92-.5.59-1.03,1.17-1.62,1.67-1.2,1.02-2.64,1.62-4.17,1.96-3.14.68-6.57.3-9.62-.64-1.54-.47-6.94-2.29-4.35-4.61,2.22-1.98,5.89-2.31,8.69-1.96,1.91.24,1.89-2.77,0-3h0Z"/>
        <path class="cls-9" d="m161.92,180.66c-1.76-.46-3.72-.81-5.51-.31-2.12.58-3.25,2.31-3.58,4.4-.3,1.91-.59,4.16.54,5.88,1.31,2.01,3.7,2.25,5.91,2.26,2.73,0,5.47-.48,8.04-1.42.76-.28,1.27-1.02,1.05-1.85-.2-.73-1.08-1.33-1.85-1.05-2.25.82-4.6,1.29-7,1.31-.95,0-2.07.07-2.94-.31-.7-.3-.91-.92-.98-1.49-.11-.91.02-1.84.15-2.64.08-.49.18-.96.38-1.41.11-.24.31-.44.52-.56.34-.2.4-.22.88-.31.18-.03.21-.04.08-.02.11-.01.22-.02.33-.03.23-.01.45-.01.68,0,.82.03,1.61.2,2.51.43,1.87.49,2.67-2.4.8-2.89h0Z"/>
        <path class="cls-9" d="m167.52,200.92c.06.02.57.21.26.08.16.07.32.15.47.24s.3.19.44.29c-.26-.19.16.14.2.19.1.09.19.18.28.28.04.04.37.47.19.21.21.29.39.59.55.91.04.08.08.16.11.24-.06-.13-.07-.15-.03-.05.05.15.1.29.15.44.05.17.08.34.12.52.03.18.03.17,0,0,.01.09.02.17.02.26.02.31.01.61-.02.92.04-.36-.04.18-.06.25-.04.17-.1.34-.16.51.11-.31-.09.17-.12.24-.08.15-.18.29-.27.44-.16.26.15-.14-.08.11-.12.13-.23.26-.35.38s-.25.24-.39.34c.26-.21-.18.11-.23.14-.26.16-.53.31-.81.43.31-.13-.2.06-.25.08-.17.05-.34.1-.51.13-.07.02-.61.08-.25.05-.13.01-.26.02-.39.03-.17,0-.35,0-.52,0-.09,0-.17-.01-.26-.02.18.03.19.02.01,0-.17-.04-.34-.07-.5-.12-.06-.02-.56-.22-.25-.08-.74-.33-1.61-.21-2.05.54-.37.64-.21,1.72.54,2.05,2.73,1.22,6.02.6,8.11-1.58s2.33-5.61.76-8.21c-.89-1.48-2.27-2.6-3.93-3.1-.77-.24-1.63.28-1.85,1.05s.27,1.61,1.05,1.85h0Z"/>
        <path class="cls-9" d="m135.6,195.16c2.79.37,5.61.51,8.43.38,2.42-.11,5.62-.14,6.93-2.61,1.17-2.22.64-5.09-.94-6.96-1.66-1.96-4.5-2.44-6.76-1.3-.72.36-.93,1.38-.54,2.05.43.74,1.33.9,2.05.54,1.21-.61,2.67.03,3.32,1.14.61,1.03.91,3.05-.42,3.66-.68.31-1.5.35-2.24.4-1.08.08-2.16.13-3.23.13-2.21.01-4.41-.14-6.6-.43-.8-.11-1.5.77-1.5,1.5,0,.9.69,1.39,1.5,1.5h0Z"/>
        <path class="cls-9" d="m125.07,191.94c2.38.55,4.67,1.41,6.76,2.67s.25,3.09-1.3,3.78c-2.19.98-4.71,1.29-7.09,1.39-1.28.05-2.55.03-3.83-.01-.7-.03-1.39-.06-2.09-.11-.35-.02-.69-.04-1.04-.06l-.35-.02c-.19-.04-.17.02.06.16l.2.76-.4.6-.76.2.16.02c.81.08,1.5-.75,1.5-1.5,0-.88-.69-1.42-1.5-1.5-1.35-.13-2.29,1.36-1.95,2.58.42,1.52,2.08,1.64,3.37,1.72,3,.19,6.03.33,9.03-.03,2.73-.33,5.78-.93,7.96-2.72,2.03-1.67,2.79-4.97.74-6.95-1.08-1.04-2.62-1.72-3.97-2.31-1.53-.66-3.1-1.19-4.72-1.57-1.88-.43-2.68,2.46-.8,2.89h0Z"/>
        <path class="cls-9" d="m143.13,202.09c1.95.05,4.01.65,5.55,1.88.47.37,1.09.96.94,1.59-.17.69-1.04,1.23-1.62,1.56-3.15,1.79-7.25.77-10.51-.13-1.86-.51-2.66,2.38-.8,2.89,3.56.98,7.66,1.85,11.26.54,1.85-.68,3.81-1.91,4.5-3.85.76-2.15-.7-4.08-2.36-5.26-2.01-1.43-4.5-2.14-6.95-2.21-1.93-.05-1.93,2.95,0,3h0Z"/>
        <path class="cls-9" d="m135.61,202.78c-2.74-.93-6.9-.69-8.58,2.04-.82,1.34-.73,3.24.42,4.36s3.02,1.11,4.55,1.07c1.86-.04,3.72-.32,5.51-.81.76-.21,1.3-1.07,1.05-1.85s-1.03-1.27-1.85-1.05-1.62.39-2.45.53c-.19.03-.22.03-.1.02l-.17.02c-.22.03-.44.05-.67.07-.39.03-.78.06-1.17.07s-.78.01-1.17,0c-.21,0-.42-.01-.63-.03-.07,0-.61-.09-.27-.02-.13-.03-.26-.06-.39-.09-.16-.06-.17-.06,0,0-.08-.04-.15-.08-.22-.13.22.16-.05-.15.1.1-.04-.06-.08-.13-.12-.2.07.18.08.19.03.03-.1-.26-.01.25-.01-.13s-.08.13.01-.14c.02-.08.04-.16.07-.23-.08.17-.08.18,0,.03.03-.05.25-.33.05-.11.11-.13.24-.25.37-.36-.24.21.11-.07.18-.1.13-.08.27-.15.41-.21-.3.14.2-.07.26-.08.33-.1.67-.18,1.01-.23-.23.03.26-.02.32-.03.19-.01.37-.02.56-.02.21,0,.43.01.64.03.49.04-.25-.06.23.03.42.08.83.18,1.24.32.74.25,1.67-.29,1.85-1.05.19-.83-.25-1.58-1.05-1.85h0Z"/>
        <path class="cls-9" d="m150.66,198.92c1.93,0,1.93-3,0-3s-1.93,3,0,3h0Z"/>
        <path class="cls-9" d="m149.16,196.13c-.27.21-.35.24-.69.29-.6.08-1.15.86-1.1,1.45.37,4.48,4.92,6.15,8.86,5.72,4.2-.46,8.24-2.1,11.59-4.68.64-.49.98-1.29.54-2.05-.37-.63-1.41-1.04-2.05-.54-2.64,2.03-5.65,3.45-8.92,4.08-1.56.3-3.32.5-4.84-.08-1.03-.39-2.07-1.29-2.17-2.45l-1.1,1.45c.52-.07.99-.27,1.41-.59.64-.49.98-1.29.54-2.05-.37-.63-1.4-1.03-2.05-.54h0Z"/>
        <path class="cls-9" d="m188.62,202.16c-4.22-1.7-9.41-.25-12.41,3.09-1.37,1.53-3.69,5-1.05,6.44,1.22.67,2.94.79,4.3.86,1.5.07,2.99-.07,4.47-.29,3.35-.48,6.62-1.47,9.99-1.8.81-.08,1.5-.63,1.5-1.5,0-.75-.69-1.58-1.5-1.5-3.1.3-6.1,1.08-9.15,1.64-1.43.26-2.88.46-4.34.47-1.17,0-3.07.07-4.05-.65l.54.54c.14.2.22-.26.3-.42.14-.29.3-.56.47-.83.28-.43.6-.82.96-1.18.78-.79,1.72-1.43,2.75-1.87,2.07-.89,4.33-.95,6.42-.1.75.3,1.65-.33,1.85-1.05.24-.86-.29-1.54-1.05-1.85h0Z"/>
        <path class="cls-9" d="m190.83,204.13c4.27,2.19,9.27,2.19,13.96,1.92,2.25-.13,4.27-.73,5.97-2.26,1.58-1.44,2.63-3.38,3.6-5.26.88-1.71-1.71-3.23-2.59-1.51-.78,1.52-1.58,3.1-2.79,4.33-1.37,1.39-3.02,1.67-4.9,1.74-3.92.13-8.13.3-11.72-1.54-1.71-.88-3.23,1.71-1.51,2.59h0Z"/>
        <path class="cls-9" d="m205.49,212.6c6.92,1.84,13.67-1.47,19.62-4.67,1.7-.92.19-3.51-1.51-2.59-5.2,2.8-11.24,5.99-17.31,4.37-1.87-.5-2.66,2.4-.8,2.89h0Z"/>
        <path class="cls-9" d="m181.31,214.36l.83-1.75-2.74-1.16c-.4,2.51-.35,5.13,2.15,6.5s5.8,1.72,8.65,1.6c6.33-.26,12.21-2.88,18.4-3.94,1.9-.32,1.09-3.22-.8-2.89-5.04.86-9.83,2.81-14.89,3.57-2.35.36-4.81.44-7.15-.06-.98-.21-2.47-.46-3.19-1.21-.66-.7-.43-1.91-.29-2.77.24-1.53-1.95-2.83-2.74-1.16l-.83,1.75c-.82,1.74,1.77,3.26,2.59,1.51h0Z"/>
        <path class="cls-9" d="m151.02,213.93l-.1.02,1.16.15.14.11.39.66v.45c-.14.22-.27.44-.39.66-.05.06-.38.15-.4.19.02-.05.53-.02.59-.02.31,0,.62,0,.94,0,.66.01,1.33.06,1.99.13,1.27.14,2.53.41,3.74.79.92.29,1.85.67,2.51,1.4.22.24.42.61.52.96s.11.65,0,.89l.9-.69c-2.31.62-4.66,1-7.05,1.12-.81.04-1.5.66-1.5,1.5,0,.78.69,1.54,1.5,1.5,2.25-.11,4.51-.41,6.7-.93.55-.13,1.2-.21,1.65-.56.48-.37.69-1.03.78-1.61.16-1.03-.03-2.01-.46-2.96-.85-1.83-2.74-2.85-4.57-3.45-2.08-.68-4.3-1.01-6.48-1.08-1.12-.03-2.63-.2-3.48.7-.5.54-.6,1.32-.3,1.98.38.82,1.17,1.15,2.04.98.8-.16,1.25-1.11,1.05-1.85-.23-.83-1.05-1.2-1.85-1.05h0Z"/>
        <path class="cls-9" d="m172.61,220.94c.84-.13,1.3-.2,2.2-.26.8-.06,1.62-.08,2.42.03-.22-.03.05.01.07.02.1.02.21.04.31.06.18.04.36.09.54.14.46.14.49.15.87.37.12.07.24.15.36.23.07.04.19.18-.01-.01.04.04.09.08.14.12.1.1.21.19.31.3.06.06.11.12.16.18.19.2-.05-.11.03.03.15.25.31.48.44.73.02.04.13.28.05.09-.07-.17,0,.01.01.04.06.17.11.34.15.51.04.15.05.42.04.12,0,.15.02.3.02.46,0,.08-.07.44-.01.25s0-.02-.01.02c-.03.09-.05.18-.07.27-.1.34.09-.1-.05.11-.05.08-.32.43-.09.18-.11.12-.22.24-.35.36s0,0,.03-.01c-.09.07-.19.13-.3.19-.14.09-.29.16-.44.23.21-.1,0,0-.04.02-.09.03-.18.07-.27.1-.37.12-.74.22-1.12.3-1.87.4-3.89.46-5.89.25-.78-.08-1.53.75-1.5,1.5.04.89.66,1.41,1.5,1.5,2.2.24,4.43.11,6.6-.33,1.79-.37,3.7-1.17,4.54-2.91.78-1.62.53-3.49-.35-5.02s-2.42-2.66-4.18-3.12c-2.27-.61-4.63-.27-6.91.08-.78.12-1.28,1.14-1.05,1.85.27.85,1.01,1.17,1.85,1.05h0Z"/>
        <path class="cls-9" d="m205.98,219.8c-2.43-.55-4.98-.01-6.97,1.48s-3.8,4.2-3.1,6.77c.76,2.78,4.37,3.13,6.76,3.33,2.69.23,5.47-.1,8.05-.89,2.98-.92,5.7-2.46,8.04-4.53,1.45-1.28-.68-3.4-2.12-2.12-3.87,3.42-9.15,5.05-14.28,4.51-.6-.06-1.19-.17-1.78-.3-.44-.1-1.3-.2-1.63-.56-.6-.67.28-2.12.7-2.69,1.25-1.68,3.5-2.58,5.54-2.11,1.88.43,2.68-2.47.8-2.89h0Z"/>
        <path class="cls-9" d="m182.65,225.32c2.97-.37,5.84.35,8.25,2.15.45.34,1.05.85,1.44,1.36.33.43.03.15.1.12-.05.02.23-.35.07-.15.2-.25-.03,0-.06.02-.19.11-.6.38-.88.54-1.43.79-3.04,1.32-4.67,1.52-.8.1-1.68.15-2.49.06.27.03-.24-.06-.32-.08-.07-.02-.14-.04-.21-.07-.23-.08.17.09-.03-.02-.06-.03-.12-.07-.18-.1.2.13,0-.01,0-.02.04-.02.1.23.05.05-.05-.17.06.19.06.2-.05-.81-.65-1.5-1.5-1.5-.77,0-1.55.69-1.5,1.5.16,2.41,2.57,3.09,4.61,3.07,2.32-.02,4.59-.57,6.7-1.52,1-.46,2.15-1.01,2.81-1.91.89-1.22.49-2.66-.39-3.75-1.31-1.62-3.23-2.78-5.13-3.55-2.12-.86-4.48-1.2-6.75-.91-.8.1-1.5.62-1.5,1.5,0,.73.69,1.6,1.5,1.5h0Z"/>
        <path class="cls-9" d="m134.34,212.15c-.27,2.41,1.47,4.61,3.59,5.54,2.42,1.07,5.27.9,7.86.78s5.1-.52,7.17-2c1.93-1.38,3.28-3.46,3.29-5.88,0-1.93-2.99-1.93-3,0-.02,3.73-4.54,4.75-7.46,4.88-2.41.11-8.91.72-8.45-3.32.09-.81-.75-1.5-1.5-1.5-.89,0-1.41.69-1.5,1.5h0Z"/>
        <path class="cls-9" d="m162.5,216.93c1.35,3.3,4.82,5.3,8.37,5.02,3.86-.31,7.02-2.89,9.05-6.05,1.05-1.63-1.55-3.13-2.59-1.51-1.41,2.18-3.61,4.18-6.26,4.54-2.12.29-4.82-.69-5.68-2.79-.31-.75-1-1.28-1.85-1.05-.71.19-1.36,1.09-1.05,1.85h0Z"/>
        <path class="cls-9" d="m215.92,218.29c2.52,2.4,6.07,3.11,9.43,2.5,3.57-.65,6.66-2.92,9.19-5.41,1.38-1.36-.74-3.48-2.12-2.12-2.08,2.05-4.5,3.87-7.39,4.54-2.41.55-5.16.11-6.99-1.63-1.4-1.33-3.52.79-2.12,2.12h0Z"/>
        <path class="cls-9" d="m235.13,205.74c4.87,3.72,12.2,3.21,16.68-.88,1.43-1.3-.7-3.42-2.12-2.12-3.57,3.25-9.26,3.3-13.04.41-.64-.49-1.68-.1-2.05.54-.45.77-.11,1.56.54,2.05h0Z"/>
        <path class="cls-9" d="m258.07,197.73c-2.75-1.41-6.29-.27-7.72,2.5s-.13,6.41,2.43,8.13c3.1,2.08,7.9,1.39,11.23.31,3.59-1.16,6.86-3.67,10.73-3.79.52-.02,1.05-.27,1.3-.74.81-1.54.58-3.27-.5-4.63-1.17-1.48-3.02-2.01-4.79-2.39-1.88-.41-2.69,2.48-.8,2.89.92.2,4.39.9,3.49,2.61l1.3-.74c-2.88.09-5.44,1.23-8.01,2.43-2.79,1.3-5.57,2.29-8.68,2.31-2.35.01-5.08-.77-5.31-3.54-.16-1.92,1.99-3.69,3.81-2.75,1.72.88,3.23-1.71,1.51-2.59h0Z"/>
        <path class="cls-9" d="m281.74,182.73c-.98-1.49-2.8-1.13-3.77.19-1.12,1.53-1.32,4.06-1.32,5.89,0,1.97.37,3.78,2.38,4.56s4.21,1.01,6.31,1.1c4.22.17,8.51-.57,12.6-1.52,3.4-.79,7.38-3.26,6.32-7.36-1.21-4.71-6.63-4.99-10.55-4.56-1.9.21-1.92,3.21,0,3,2.28-.25,7.22-.82,7.7,2.52s-5.3,3.75-7.33,4.13c-3.46.65-7.04,1.07-10.56.65-.84-.1-1.68-.27-2.51-.48-.94-.24-1.29-.33-1.36-1.36-.06-.91,0-1.85.16-2.75.08-.44.18-.89.31-1.32l.13-.43c.34-.58-.03-.83-1.12-.74,1.06,1.61,3.65.11,2.59-1.51h0Z"/>
        <path class="cls-9" d="m313.96,179.24c-3.64-.67-7.33,2.79-6.25,6.54,1,3.46,5.01,4.53,8.19,4.61,5.56.13,21.92-1.87,18.17-11.06-1.95-4.78-7.32-5.35-11.81-4.68-.81.12-1.24,1.13-1.05,1.85.23.86,1.05,1.17,1.85,1.05,3.02-.45,7.93-.19,8.48,3.73.5,3.55-5.35,4.67-7.76,5.24-3.37.79-7.6,1.55-10.97.38-1.05-.37-2.28-1.15-2.29-2.4s1.36-2.58,2.64-2.35c1.89.35,2.7-2.54.8-2.89h0Z"/>
        <path class="cls-9" d="m362.25,173.41c-3.01-1.49-5.6.66-7.09,3.17-.74,1.24-1.48,2.56-1.2,4.06.26,1.4,1.28,2.49,2.49,3.17,2.84,1.6,6.42,1.25,9.53.95,3.54-.35,7.05-.92,10.52-1.71,1.88-.43,1.09-3.32-.8-2.89-2.42.55-4.86,1.01-7.32,1.33s-4.97.65-7.43.48c-1.21-.08-4.64-.61-3.93-2.53.42-1.14,2.1-4.23,3.72-3.43,1.72.86,3.25-1.73,1.51-2.59h0Z"/>
        <path class="cls-9" d="m373.83,182.77c-3.27-.28-6.4,1.75-8.58,4.04-1.06,1.11-1.77,2.66-.91,4.12.69,1.19,2.09,1.68,3.36,1.94,7.42,1.49,15.16,1.16,22.45-.81,1.86-.5,1.07-3.4-.8-2.89-5.48,1.48-11.15,1.96-16.8,1.41-1.36-.13-2.72-.33-4.06-.6-.38-.08-.95-.13-1.28-.36-.42-.3-.23-.26.16-.68,1.63-1.76,3.98-3.37,6.46-3.16,1.92.16,1.91-2.84,0-3h0Z"/>
        <path class="cls-9" d="m367.45,192.55c-1.46,1.67-4.43,3.99-3.05,6.48,1.09,1.96,3.82,2.22,5.79,2.46,5.12.63,10.28-.21,15.02-2.21.75-.32.91-1.42.54-2.05-.45-.77-1.3-.85-2.05-.54-3.51,1.48-7.36,2.14-11.17,1.99-1.58-.06-3.52-.1-4.98-.77-.18-.08-.45-.2-.55-.38-.05-.08,0,.21.03.12.06-.16.21-.3.32-.43.71-.87,1.49-1.7,2.23-2.55,1.26-1.45-.85-3.58-2.12-2.12h0Z"/>
        <path class="cls-9" d="m409.84,199.98c1.12.75.65,2.6-.09,3.45-1.37,1.56-3.92,1.59-5.82,1.51-2.53-.11-5.04-.58-7.45-1.35-1.1-.35-2.3-.7-3.28-1.33-.29-.18-.53-.39-.69-.69-.03-.06.07-.2.06-.21l.05-.07c.19-.11.05-.13-.44-.04.75.33,1.6.21,2.05-.54.38-.63.2-1.73-.54-2.05-2.67-1.18-5.09,1.8-3.84,4.32.57,1.14,1.68,1.88,2.82,2.38,1.42.63,2.9,1.13,4.4,1.53,4.57,1.21,12.98,2.68,15.7-2.61,1.21-2.36.87-5.34-1.42-6.88-1.61-1.08-3.11,1.52-1.51,2.59h0Z"/>
        <path class="cls-9" d="m426.92,198.93c.05.58-.82.91-1.29,1.11-.95.42-1.96.73-2.97,1-2.16.56-4.42.79-6.65.62-1.46-.11-2.98-.7-2.74-2.44s2.02-2.69,3.56-3.13c1.85-.53,1.06-3.43-.8-2.89-2.64.76-5.23,2.53-5.69,5.43s1.4,5.36,4.31,5.87,6.2.15,9.09-.64c2.29-.63,6.45-1.82,6.18-4.93-.07-.81-.64-1.5-1.5-1.5-.76,0-1.57.69-1.5,1.5h0Z"/>
        <path class="cls-9" d="m371.87,203.18c-1-1.88-3.46-2.18-5.22-1.26-2.15,1.12-2.65,3.7-2.92,5.88s0,4.77,2.3,5.88,4.92.7,7.24.34c3.02-.48,5.93-1.47,8.81-2.47,1.81-.63,1.03-3.52-.8-2.89-2.4.83-4.81,1.65-7.29,2.19-1.23.26-2.47.44-3.72.49-.87.03-1.89.1-2.72-.25s-.95-1.09-.93-1.9c.02-.96.15-1.96.4-2.89.17-.63.46-1.46,1.06-1.76.29-.14.66-.18.9-.13.21.05.21.09.31.28.91,1.71,3.5.19,2.59-1.51h0Z"/>
        <path class="cls-9" d="m350.12,180.88c-3.81-.27-7.89,1.94-9.44,5.5-.89,2.03-.21,4.19,1.8,5.19,1.81.9,3.96.91,5.93.98,2.71.1,5.43-.02,8.12-.32.8-.09,1.5-.62,1.5-1.5,0-.74-.69-1.59-1.5-1.5-2.46.28-4.93.4-7.41.34-1.2-.03-2.41-.06-3.6-.21-.62-.08-1.46-.23-1.99-.65-.12-.1-.23-.17-.27-.37-.07-.35.11-.7.27-1.01.43-.78,1.01-1.46,1.71-2.01,1.39-1.09,3.12-1.57,4.87-1.45.81.06,1.5-.73,1.5-1.5,0-.86-.69-1.44-1.5-1.5h0Z"/>
        <path class="cls-9" d="m293.99,193c-.69,1.32-1.34,2.88-1,4.4s1.52,2.41,2.97,2.74c3.47.79,7.11.22,10.37-1.09,1.57-.63,3.1-1.37,4.71-1.86.76-.23,1.52-.4,2.31-.47s1.57-.07,2.27-.46c1.31-.73,1.95-2.61.8-3.78s-3.08-.61-3.53.88c-.57,1.85,2.33,2.64,2.89.8.03-.1-1.66-.48-1.81-.48-.21,0-.42.02-.62.04-.54.04-1.07.11-1.6.21-.91.17-1.79.44-2.65.76-1.86.69-3.64,1.6-5.54,2.17s-4.09.79-6.14.5c-.48-.07-1.34-.08-1.51-.62-.21-.65.38-1.67.68-2.22.9-1.71-1.69-3.23-2.59-1.51h0Z"/>
        <path class="cls-9" d="m280.5,194.88c-3.63-.61-6.71,1.79-7.69,5.23-.89,3.11-.2,6.81,3.48,7.35,6.77.99,13.87-1.43,19.07-5.73,1.49-1.23-.64-3.34-2.12-2.12-3.8,3.14-8.68,4.93-13.6,5.04-1.04.02-2.45.15-3.44-.25-.85-.35-.8-1.48-.73-2.25.18-2.12,1.74-4.78,4.24-4.36,1.89.32,2.7-2.57.8-2.89h0Z"/>
        <path class="cls-9" d="m307.97,198.79c-2.8.3-4.17,3.47-2.88,5.92,1.46,2.76,5.1,3.03,7.85,2.93,6.57-.25,12.89-3.01,17.58-7.61,1.38-1.35-.74-3.48-2.12-2.12-3.35,3.29-7.59,5.48-12.2,6.37-2.06.39-4.45.66-6.51.18-.76-.18-1.8-.53-2.04-1.37-.12-.41.06-1.26.31-1.28,1.9-.21,1.92-3.21,0-3h0Z"/>
        <path class="cls-9" d="m331.56,187.7c-.18.55-.49.32.24.36.38.02.76.07,1.13.12.89.12,1.78.3,2.65.51,1.7.41,3.47.93,5.03,1.73.5.26,1.3.65,1.53,1.2.25.59-.19.81-.67,1.16-1.33.98-2.83,1.8-4.36,2.43-2.85,1.16-6.12,1.83-9.2,1.52-1.12-.11-2.37-.42-3.27-1.12-.62-.48-1.53-1.88-.53-2.45,1.68-.95.17-3.54-1.51-2.59-3.31,1.86-1.79,6.23.87,7.84,2.88,1.74,6.61,1.53,9.79.99,3.69-.62,7.33-2.16,10.3-4.46,1.5-1.16,2.28-2.95,1.27-4.72-.94-1.65-2.71-2.47-4.39-3.15-2.15-.87-4.4-1.47-6.69-1.8-1.87-.27-4.32-.63-5.07,1.62-.61,1.84,2.29,2.62,2.89.8h0Z"/>
        <path class="cls-9" d="m348.59,193.91c-2.8-1.56-6.48-1.85-9.2.07-2.46,1.75-3.85,5.07-2.78,7.99s4.11,4.67,7.14,5.03c1.88.22,3.78-.03,5.63-.39s3.62-.71,5.36-1.29c3.49-1.18,6.91-3.6,7.59-7.46.34-1.89-2.55-2.7-2.89-.8-.56,3.15-3.43,4.77-6.26,5.6-1.7.5-3.47.87-5.21,1.17-1.64.28-3.39.43-5.02-.03-2.53-.71-4.57-3.03-3.26-5.69,1.39-2.83,4.92-3.02,7.41-1.62,1.69.94,3.2-1.65,1.51-2.59h0Z"/>
        <path class="cls-9" d="m324.86,206.38c.26.07.22.03-.11-.11-.06-.08-.06-.07,0,.02,0,0,.1.29.13.39.1.36.16.73.28,1.09.31.95.9,1.8,1.68,2.43,1.72,1.4,3.9,1.79,6.05,1.43s4.53-1.47,6.45-2.64,3.53-3.36,2.62-5.65c-.3-.75-1-1.28-1.85-1.05-.72.2-1.35,1.09-1.05,1.85.61,1.53-1.46,2.41-2.53,2.94-1.65.82-3.43,1.73-5.32,1.69-1.18-.02-2.69-.6-3.15-1.79-.23-.58-.28-1.22-.52-1.81-.34-.83-.96-1.51-1.87-1.7-1.88-.4-2.69,2.49-.8,2.89h0Z"/>
        <path class="cls-9" d="m312.11,209.79c1.53,0,3.01.19,4.49.6s2.69,1.17,4.08,1.79c.5.23-.01-.09.18-.11-.15.02-.51.37-.66.45-.62.35-1.26.66-1.93.91-1.36.51-2.79.86-4.22,1.07-2.92.43-5.9.34-8.84.22-.34-.01-.69,0-1.02-.04-.13-.02-.48-.15-.58-.13-.18.03.3,1.07-.07,1,.05,0,.45-.22.53-.25.98-.42,1.96-.9,2.19-2.05.39-1.88-2.5-2.69-2.89-.8.04-.21.45-.26,0-.09-.12.05-.25.1-.37.16-.56.24-1.11.45-1.54.9-.96,1.01-.82,2.56.23,3.43,1.11.92,2.67.85,4.03.9,1.61.06,3.21.1,4.82.04,3.11-.1,6.26-.52,9.15-1.71,1.33-.55,2.97-1.21,3.76-2.5s.28-2.83-.88-3.72c-2.85-2.19-6.93-3.07-10.45-3.07-1.93,0-1.93,3,0,3h0Z"/>
        <path class="cls-9" d="m284.42,207.96c.64,2.45,2.87,3.9,5.27,4.29,2.87.47,5.92.25,8.82.29,2.63.03,5.38.13,7.83-1,2.25-1.04,3.8-3.01,4.08-5.49.21-1.92-2.79-1.9-3,0-.18,1.65-1.84,2.71-3.29,3.12-1.95.55-4.05.38-6.05.36-2.17-.03-4.35.01-6.52-.09-1.64-.08-3.76-.44-4.24-2.28s-3.38-1.07-2.89.8h0Z"/>
        <path class="cls-9" d="m260.96,185.53c.51-.03,1.02-.03,1.53.02.06,0,.13.01.19.02-.24-.03-.28-.04-.11-.01.12.03.25.05.37.08s.24.06.35.1c.27.09.07.08-.02-.02.06.07.23.11.31.16.34.21-.14-.16.04.01.07.07.15.18.23.24-.15-.2-.18-.23-.09-.1.03.05.06.1.08.15-.09-.23-.11-.27-.05-.12.02.06.04.13.06.19.03.17.03.14,0-.09,0,.07,0,.14,0,.21-.01.17,0,.14.02-.1-.01.07-.03.13-.05.2-.02.07-.04.13-.07.2.08-.18.09-.22.04-.12-.07.1-.13.22-.19.32-.09.13-.08.12.04-.04-.05.06-.09.12-.14.17-.2.23-.43.43-.66.64-.13.1-.12.1.03-.02-.06.05-.12.09-.19.14-.12.09-.25.17-.38.25-.28.18-.56.34-.84.5s-.6.31-.9.46c-.16.07-.16.07-.01,0-.08.03-.17.07-.25.1-.17.06-.33.12-.5.16s-.34.09-.51.12c-.09.02-.17.03-.26.04.18-.02.19-.03.01-.01-.17,0-.34.02-.52,0-.09,0-.17,0-.26-.02.18.03.18.03,0,0-.77-.14-1.65.21-1.85,1.05-.17.73.22,1.7,1.05,1.85,1.6.29,3.07-.04,4.54-.69,1.18-.52,2.36-1.24,3.3-2.13,1.05-1.01,1.71-2.33,1.48-3.8-.19-1.24-1.13-2.18-2.25-2.65s-2.37-.56-3.56-.49c-.78.04-1.54.66-1.5,1.5.03.78.66,1.55,1.5,1.5h0Z"/>
        <path class="cls-9" d="m267.32,210.19c-2.92-.31-5.95,1.31-7.29,3.93-.75,1.47-.91,3.22.25,4.54.95,1.08,2.36,1.55,3.74,1.82,6.82,1.34,13.98.13,20.03-3.28,1.68-.95.17-3.54-1.51-2.59-4.47,2.52-9.58,3.69-14.7,3.36-1.01-.06-5.64-.18-5.38-1.84.33-2.14,3.01-3.14,4.87-2.95s1.9-2.8,0-3h0Z"/>
        <path class="cls-9" d="m236.47,212.94c3.16-.34,6.38-.88,9.56-.88,1.36,0,2.77.15,4.01.75.78.38,2.05,1.25,1.91,2.29s-2.11,1.42-2.9,1.67c-1.61.5-3.24.92-4.89,1.25-3.29.66-6.64.93-10,.88-1.93-.03-1.93,2.97,0,3,3.2.05,6.4-.21,9.55-.76,2.9-.5,6.12-1.12,8.77-2.46s3.14-4.23,1.44-6.49-4.58-3-7.26-3.1c-3.38-.13-6.83.51-10.19.87-.81.09-1.5.63-1.5,1.5,0,.74.69,1.59,1.5,1.5h0Z"/>
        <path class="cls-9" d="m225.63,225.73c.07-.07.34-.3.28-.26s.23-.16.31-.22c.28-.18.57-.34.87-.48-.23.11.17-.06.23-.09.16-.05.32-.1.48-.15s.32-.08.49-.11c.07-.01.14-.03.21-.04.44-.09-.16.01.1-.01.33-.03.67-.05,1-.04.14,0,.29,0,.43.02.1,0,.19.02.29.03.25.02-.21-.04.03,0,.33.06.66.13.98.22.16.05.32.1.48.16.07.02.13.05.2.08.15.06-.14-.08.1.05.27.14.55.28.81.45.14.09.28.18.41.28-.2-.15.18.17.24.22.12.11.24.23.35.35.05.05.33.39.18.19.21.27.45.59.49.92,0-.02-.05-.05-.03-.09.06-.13,0,0-.01-.01.02,0-.14.13-.07.08-.38.25-.76.46-1.16.67-.86.46-1.74.89-2.63,1.29-2.01.91-4.1,1.64-6.23,2.24-1.85.53-1.07,3.42.8,2.89,2.34-.66,4.63-1.51,6.85-2.5,1.08-.48,2.15-1.01,3.19-1.58.98-.54,1.94-1.3,2.19-2.44.49-2.16-1.54-4.21-3.24-5.23-1.5-.9-3.32-1.35-5.07-1.3-2.1.07-4.11.83-5.66,2.27-.59.55-.56,1.56,0,2.12.59.59,1.53.55,2.12,0h0Z"/>
        <path class="cls-9" d="m214.76,229.68c.87,1.05,2.14,1.33,3.43,1.49.98.12,2.36.07,2.58,1.29.52,2.9-4.4,4.24-6.41,4.61-1.6.29-3.24.34-4.86.34s-3.42.14-4.95-.28c-.67-.19-1.26-.56-1.8-.98-.32-.25-1.69-1.2-1.63-1.64-.02.17-.11.08.23-.07.37-.17.76-.46,1.11-.68.86-.53,1.73-1.05,2.59-1.58,1.65-1,.14-3.6-1.51-2.59-.8.49-1.61.98-2.41,1.47-.74.45-1.66.88-2.26,1.52-1.17,1.24-.83,2.92.14,4.15s2.43,2.37,3.87,2.99c1.65.7,3.53.64,5.3.68,3.42.09,6.98-.04,10.19-1.36,2.82-1.16,5.83-3.46,5.39-6.88-.22-1.69-1.29-3-2.9-3.55-1.17-.4-3.12-.02-3.96-1.04-1.23-1.49-3.35.65-2.12,2.12h0Z"/>
        <path class="cls-9" d="m255.63,220.16c-3.68-.39-7.5-.71-10.99.77-2.7,1.14-5.75,3.74-5.68,6.96s3.64,4.1,6.32,3.94c3.92-.24,7.84-.84,11.64-1.8,3.33-.84,7.66-1.79,9.34-5.16.86-1.72-1.73-3.24-2.59-1.51-1.35,2.72-5.57,3.32-8.21,3.95-3.6.86-7.47,1.61-11.19,1.56-1.12-.01-2.68-.19-2.2-1.68.45-1.38,1.71-2.44,2.94-3.12,3.22-1.77,7.12-1.27,10.61-.9,1.92.2,1.9-2.8,0-3h0Z"/>
        <path class="cls-9" d="m263.85,222.18s.1.06.14.1c-.18-.14-.22-.17-.13-.1.08.07.15.13.23.2.06.06.12.13.18.19.21.22-.19-.29-.02-.03.11.17.21.34.31.53.13.25-.11-.32-.01-.04.03.08.06.16.08.25s.05.17.07.25c.01.05.07.43.03.14s0,.09,0,.15c0,.09,0,.17,0,.26,0,.08-.03.18-.02.26.04-.25.04-.3.02-.14,0,.04-.02.09-.03.13-.02.1-.05.2-.08.29-.04.12-.18.33.03-.03-.09.15-.16.32-.26.47-.03.05-.07.1-.1.14.14-.17.17-.22.1-.13-.07.08-.14.15-.21.23-.06.06-.13.12-.2.18-.22.2.26-.17.02-.02-.18.11-.35.22-.54.32-.25.14.32-.11.03-.01-.08.03-.17.06-.25.09s-.17.05-.26.07c-.06.01-.12.02-.17.03-.16.03-.12.02.14-.02-.15-.04-.37.02-.53.01-.06,0-.12,0-.18-.01l.22.03c-.09-.05-.25-.05-.35-.08-.76-.2-1.66.25-1.85,1.05s.24,1.63,1.05,1.85c2.29.6,4.98-.55,5.95-2.76s.2-5.05-1.91-6.44c-.66-.43-1.69-.15-2.05.54-.4.75-.16,1.59.54,2.05h0Z"/>
        <path class="cls-9" d="m292.13,214.19c1.47.87,3.07,2.22,3.76,3.84.64,1.51-1.91,2.45-2.91,2.97-3.73,1.96-7.74,3.3-11.88,4.07l1.85,1.85c.64-2.85,3.3-4.85,6.21-4.69,1.93.1,1.92-2.9,0-3-4.18-.23-8.19,2.82-9.11,6.9-.26,1.17.71,2.06,1.85,1.85,4.97-.92,9.95-2.67,14.27-5.3,2.15-1.31,3.55-3.39,2.42-5.91-.97-2.16-2.93-3.96-4.94-5.15-1.66-.99-3.17,1.6-1.51,2.59h0Z"/>
      </g>
      <g>
        <path class="cls-4" d="m87.55,280.48c-4.86-41.76-7.05-60.54-11.91-102.3,32.58,26.12,70.46,45.59,110.65,56.89,4.89,1.37,9.46,3.26,14.37,4.56,3.68.98,1.18,9.69,1.4,13.5,1.69,28.45,3.38,56.89,5.08,85.34-40.8-19.16-79.06-38.32-119.86-57.49"/>
        <path class="cls-4" d="m89.05,280.48c-3-25.82-6.01-51.63-9.02-77.45-.96-8.28-1.93-16.57-2.89-24.85l-2.56,1.06c12.04,9.64,24.77,18.41,38.09,26.19,13.26,7.74,27.09,14.49,41.33,20.22,7.2,2.9,14.5,5.52,21.89,7.87,3.69,1.17,7.43,2.22,11.14,3.32,3.98,1.19,7.86,2.7,11.86,3.85,1.14.33,1.75.25,2.08,1.37.3,1.04.24,2.18.19,3.25-.12,2.46-.64,4.92-.61,7.39.05,4.29.5,8.61.76,12.89s.52,8.82.79,13.22c1.05,17.72,2.11,35.43,3.16,53.15.13,2.16.26,4.32.39,6.49l2.26-1.3c-15.65-7.35-31.23-14.85-46.8-22.38s-30.98-15.04-46.51-22.49c-8.84-4.24-17.69-8.45-26.56-12.62-1.74-.82-3.26,1.77-1.51,2.59,15.65,7.35,31.23,14.85,46.8,22.38,15.5,7.5,30.98,15.04,46.51,22.49,8.84,4.24,17.69,8.45,26.56,12.62.95.45,2.33-.07,2.26-1.3-1.06-17.88-2.13-35.76-3.19-53.65-.53-8.98-1.07-17.97-1.6-26.95-.18-3.11-.33-6.03,0-9.12.26-2.45.69-5.17-.02-7.58-.93-3.14-4.13-3.31-6.85-4.19-3.99-1.29-7.93-2.67-11.97-3.82-7.45-2.14-14.83-4.56-22.1-7.26-14.63-5.42-28.84-11.95-42.49-19.51s-26.71-16.11-39.07-25.6c-1.57-1.2-3.12-2.43-4.66-3.66-.87-.7-2.73-.38-2.56,1.06,3,25.82,6.01,51.63,9.02,77.45.96,8.28,1.93,16.57,2.89,24.85.22,1.9,3.22,1.92,3,0h0Z"/>
      </g>
      <path class="cls-7" d="m88.42,218.71c15.36,10.99,32.06,19.98,49.65,26.84,1.8.7,2.58-2.2.8-2.89-17.34-6.76-33.8-15.71-48.93-26.53-1.57-1.13-3.07,1.48-1.51,2.59h0Z"/>
      <path class="cls-9" d="m160.03,211.5c-4.81-.01-7.49,4.89-9.07,8.79-.87,2.17-1.15,4.9.89,6.51,1.69,1.34,3.94,1.23,5.25-.51.9-1.18-.87-2.91-2.05-2.05-2.65,1.91-4.59,4.65-5.31,7.86-.32,1.43-.58,3.19-.12,4.62.44,1.35,1.76,2.62,3.26,2.02s1.44-3.08-.4-2.95c-3.38.24-6.33,3.13-6.14,6.64s3.45,6.16,6.83,5.92l-.4-2.95c-3.04,1-5.24,4-4.87,7.26s3.11,5.67,6.32,6.04l-.4-2.95c-2.82,1.13-4.49,4.46-3.06,7.33s5.1,3.64,7.63,2c1.31-.85.71-2.66-.76-2.8s-2.67.95-3.01,2.3c-.37,1.49.44,2.9,1.57,3.83,2.51,2.07,6.13,2.84,9.3,2.44.59-.07,1.35-.41,1.45-1.1s.2-1.38.3-2.08h-2.89c.35,2.18,2.71,3.7,4.84,3.05s3.14-2.99,2.45-4.95l-1.85,1.85c1.18.3,2.36.61,3.54.91.83.21,1.57-.27,1.85-1.05.24-.66.12-1.32-.27-1.89-.21-.32-.95-.78-.97-1.13-.08-1.7,3.08-.88,3.84-.69,1.73.42,2.5-1.77,1.16-2.74s-2.41-2.32-2.98-3.85c-.2-.55-.57-1.55-.22-2.1.17-.26.48-.45.59-.24l1.69-2.2c-2.29-.43-2.29-3.27,0-3.69l-1.46-.39.08-1,1.46.39c-1.68-1.89-1.1-5.16,1.03-6.44l-2.26-1.3c.95-.13,1.28-.41.98-.84-.05-.09-.1-.19-.15-.29-.11-.37-.33-.72-.46-1.08-.27-.72-.54-1.51-.52-2.29.02-.73.74-2.16,1.67-1.63,1.08.62,2.63-.42,2.2-1.69-.89-2.65,3.62-2.25,4.97-2.02l-1.1-1.45c-.02,1.32-1.42,2.03-2.57,1.61l.9,2.2c.29-.64.65-1.11,1.35-1.35,1.81-.62,1.04-3.52-.8-2.89-1.39.48-2.52,1.37-3.14,2.73-.42.94-.08,1.84.9,2.2,3.02,1.13,6.32-1.37,6.37-4.5,0-.6-.47-1.34-1.1-1.45-2.21-.36-4.71-.72-6.69.63-1.64,1.12-2.63,3.13-1.98,5.09l2.2-1.69c-1.54-.88-3.34-.54-4.63.64-1.38,1.26-1.75,3.09-1.44,4.89.28,1.61,1,4.08,2.43,5.04s3.61.02,3.59-1.83c-.01-1.12-1.27-1.89-2.26-1.3-2.79,1.68-4.07,5.17-3.23,8.3.37,1.39,1.41,3.64,3.17,3.22,1.87-.45,2.25-2.66,1.12-4-.36-.42-.96-.48-1.46-.39-2.22.41-4.01,2.45-4.01,4.74s1.78,4.33,4,4.74c1.3.24,2.31-.99,1.69-2.2-.67-1.32-2.23-1.82-3.62-1.45-1.47.4-2.38,1.64-2.59,3.11-.49,3.42,2.13,6.75,4.72,8.63l1.16-2.74c-2.3-.56-5.08-.92-6.73,1.18-.62.79-.96,1.78-.87,2.78.05.48.19.94.45,1.35.12.18.28.37.43.53.12.11.24.22.36.33.21.24.23.12.08-.37l1.85-1.05c-1.18-.3-2.36-.61-3.54-.91-1.04-.27-2.24.73-1.85,1.85.47,1.35-1.26,1.8-1.5.31s-2.69-1.45-2.89,0c-.1.69-.2,1.38-.3,2.08l1.45-1.1c-1.69.21-3.35.1-4.97-.46-.76-.26-1.57-.63-2.22-1.12-.19-.14-1.05-1.02-.67-.99l-.76-2.8c-1.07.69-2.7.55-3.38-.65-.61-1.07-.02-2.73,1.13-3.19,1.6-.64,1.32-2.75-.4-2.95-4.06-.48-4.41-6.17-.65-7.41,1.52-.5,1.37-3.07-.4-2.95s-3.61-1.05-3.83-2.92,1.4-3.51,3.14-3.64l-.4-2.95c.51.33.65.34.4.01-.06-.17-.09-.35-.08-.54-.04-.49,0-1.03.05-1.52.11-.87.33-1.74.66-2.55.7-1.76,1.9-3.33,3.44-4.43l-2.05-2.05c-.04.06-.63-.17-.77-.28-.39-.3-.47-.7-.47-1.18-.02-1.44.89-2.98,1.55-4.22,1.07-2.03,2.63-4.59,5.21-4.58,1.93,0,1.93-3,0-3h0Z"/>
      <g>
        <path class="cls-2" d="m202.33,240.44c46.01-9.53,89.15-19.59,135.49-27.32,15.26-2.55,30.51-4.91,45.83-7.08,21.07-2.98,37.2-4.33,58.23-7.6,7.62-1.18,22.91-3.05,29.87-2.81-5.51,37.96-12.93,75.64-22.22,112.86-9.7-15.69-35.66-17.28-47.2-2.89-3.28,4.08-5.51,9.12-9.69,12.27-4.67,3.52-10.84,4.04-16.58,5.18-16.1,3.21-30.68,12.2-46.88,14.84-20.9,3.4-41.82-4.05-62.7-7.63-20.87-3.58-46.37-7.94-59.53,8.66"/>
        <path class="cls-2" d="m202.73,241.88c18.51-3.84,36.99-7.85,55.49-11.78,18.33-3.89,36.68-7.69,55.1-11.13,18.85-3.52,37.78-6.62,56.75-9.46,17.9-2.68,35.85-4.74,53.8-7.05,14.64-1.88,29.26-4.75,44.05-5.32,1.28-.05,2.55-.07,3.83-.03l-1.45-1.9c-4.3,29.6-9.75,59.03-16.35,88.21-1.86,8.24-3.82,16.45-5.87,24.65l2.74-.36c-7.48-11.92-23.55-16.2-36.58-11.92-3.3,1.08-6.37,2.7-9.09,4.86-3.08,2.45-5.28,5.62-7.44,8.88-2.59,3.91-5.33,7.47-9.83,9.25s-9.08,2.1-13.61,3.1c-9.91,2.19-19.18,6.41-28.67,9.86-4.66,1.7-9.4,3.22-14.26,4.21-5.2,1.06-10.51,1.41-15.82,1.25-10.99-.33-21.77-2.76-32.47-5.12-9.26-2.04-18.56-3.85-27.95-5.19-14.92-2.13-32.8-3.58-45.18,6.8-1.48,1.24-2.82,2.64-4.03,4.15s.91,3.63,2.12,2.12c10.12-12.6,27.57-12.43,42.21-10.71,8.79,1.04,17.56,2.61,26.22,4.46,10.45,2.23,20.85,4.8,31.5,5.95,10.26,1.11,20.45.52,30.38-2.36s18.35-6.9,27.65-9.98c4.58-1.52,9.22-2.64,13.97-3.49,4.39-.78,8.98-1.65,12.75-4.19s6.03-6.23,8.45-9.86c2.04-3.06,4.31-5.84,7.39-7.92,10.91-7.38,27.41-6.06,36.67,3.46,1.16,1.19,2.16,2.48,3.04,3.89.66,1.06,2.42.93,2.74-.36,7.24-29.02,13.35-58.33,18.3-87.83,1.4-8.33,2.7-16.67,3.92-25.03.14-.97-.38-1.87-1.45-1.9-6.39-.2-12.86.62-19.19,1.37-7.45.88-14.86,2.11-22.29,3.13-17.76,2.44-35.6,4.29-53.34,6.87-19.02,2.76-38.02,5.78-56.93,9.21-18.56,3.37-37.04,7.12-55.49,11.01-18.53,3.9-37.03,7.93-55.56,11.81-2.34.49-4.67.98-7.01,1.46-1.89.39-1.09,3.28.8,2.89h0Z"/>
      </g>
      <g>
        <path class="cls-4" d="m75.67,179.61c-6.11-1.04-12.19-2.36-18.2-3.95-5.32-1.4-10.66-3.05-15.39-6.05-3.48-2.21-9.11-6.5-12.11-9.43-5.18-5.05-6.4-6.06-11.34-11.39-2.98-3.22-5.95-7.94-8.08-11.88-2.23-4.14-6.03-13.02-6.93-17.72-2.45-12.72-2.68-24.5-1.12-37.38.62-5.12,1.53-10.2,2.43-15.27,1.42-7.99,4.14-14.65,6.95-22.19s7.11-14.64,13.26-19.26c3.5,14.12,8.28,28.25,11.78,42.37,1.88,7.57,6.32,17.94,8.66,25.35,9.21,29.05,21.69,52.34,29.19,81.96"/>
        <path class="cls-4" d="m76.06,178.17c-7.29-1.25-14.56-2.81-21.65-4.9-3.32-.98-6.59-2.14-9.64-3.8-2.39-1.3-4.61-2.9-6.79-4.53-4.47-3.34-8.44-7.18-12.41-11.09-4.23-4.16-8.19-8.45-11.32-13.51-2.84-4.59-5.13-9.48-7.04-14.54-2.16-5.74-3.14-11.67-3.72-17.76-1.37-14.43.29-29.05,3.27-43.19,1.58-7.46,4.34-14.77,7.21-21.82,2.58-6.32,6.41-12.46,11.9-16.65l-2.2-.9c2.7,10.84,6.07,21.5,9.09,32.25,1.37,4.9,2.47,9.88,4.02,14.73,1.42,4.45,3.09,8.82,4.7,13.2,3.43,9.33,6.35,18.83,9.91,28.12s7.47,18.76,11.09,28.18c4.17,10.88,7.96,21.9,10.84,33.2.48,1.87,3.37,1.08,2.89-.8-5.07-19.9-13.12-38.75-20.55-57.84-1.86-4.77-3.67-9.57-5.38-14.4s-3.08-9.41-4.74-14.08-3.31-8.88-4.85-13.35-2.68-9.15-3.92-13.77c-3.27-12.12-7.16-24.07-10.19-36.25-.21-.85-1.43-1.49-2.2-.9-5.12,3.9-8.94,9.13-11.72,14.9-1.43,2.98-2.54,6.09-3.7,9.18-1.26,3.37-2.51,6.75-3.54,10.21-2.11,7.07-3.2,14.51-4.17,21.81S-.23,95.05.12,102.66c.17,3.59.51,7.16,1.01,10.72.43,3.12.9,6.26,1.83,9.28,1.56,5.07,3.68,10.11,6.17,14.8,3.1,5.83,6.93,10.92,11.5,15.66,3.77,3.92,7.67,7.86,11.88,11.31,2.5,2.05,5.09,4.02,7.79,5.82,3.2,2.14,6.69,3.73,10.33,4.97,7.96,2.71,16.37,4.43,24.64,5.85,1.89.32,2.7-2.57.8-2.89h0Z"/>
      </g>
      <g>
        <path class="cls-1" d="m301.42,150.06c-16.05-46.72-32.11-93.44-48.16-140.16-15.28,14.62-22.77,36.63-24.85,58.82-.53,5.67,1.71,14.46,2.91,19.99.99,4.57,8.03,19.51,10.68,23.19,17.38,24.1,30.35,30.8,57.62,36.89"/>
        <path class="cls-1" d="m302.87,149.66c-6.27-18.25-12.54-36.49-18.81-54.74-6.24-18.17-12.49-36.34-18.73-54.5-3.54-10.3-7.08-20.61-10.62-30.91-.37-1.06-1.66-1.48-2.51-.66-10.17,9.79-16.83,22.61-20.81,36.05-2.07,6.97-3.41,14.15-4.22,21.37-.38,3.39-.33,6.6.14,9.98s1.21,6.75,1.96,10.1c.47,2.09.93,4.11,1.68,6.12.89,2.4,1.91,4.75,2.96,7.08,1.93,4.29,3.9,8.76,6.52,12.69,3.39,5.09,7.42,9.93,11.63,14.36,3.68,3.88,7.72,7.41,12.15,10.41,9.12,6.16,19.71,9.56,30.32,12.14,1.57.38,3.14.74,4.71,1.09,1.88.42,2.68-2.47.8-2.89-10.62-2.38-21.35-5.21-30.82-10.74-9.46-5.52-17-13.59-23.55-22.27-2.87-3.8-5.1-7.76-7.18-12.05s-4.15-8.55-5.46-13.05c-.75-2.59-1.24-5.31-1.78-7.95-.66-3.21-1.26-6.46-1.38-9.74s.44-6.73.93-10.02c.53-3.46,1.19-6.91,2.01-10.31,3.2-13.29,8.83-26.31,18-36.6,1.13-1.27,2.31-2.48,3.53-3.66l-2.51-.66c6.27,18.25,12.54,36.49,18.81,54.74s12.49,36.34,18.73,54.5c3.54,10.3,7.08,20.61,10.62,30.91.62,1.82,3.52,1.04,2.89-.8h0Z"/>
      </g>
      <path class="cls-4" d="m26.39,25.55c6.43-.17,12.85-.84,19.26-1.36,7.44-.6,14.89-1.07,22.33-1.61,14.93-1.09,29.86-2.11,44.8-2.93,15.73-.87,31.46-1.72,47.19-2.48,7.53-.36,15.07-.41,22.59-.81,7.92-.43,15.83-.96,23.75-1.42,14.02-.81,27.99-2.31,42-3.24,1.64-.11,3.29-.21,4.93-.3,1.92-.1,1.93-3.1,0-3-14.22.76-28.39,2.25-42.6,3.25-7.39.52-14.79.86-22.18,1.34-7.77.51-15.54.64-23.32.94-15.13.59-30.27,1.55-45.39,2.34s-31.03,1.79-46.53,2.93c-7.8.57-15.59,1.12-23.39,1.67-6.45.45-12.88,1.09-19.33,1.49-1.37.08-2.74.16-4.11.19-1.93.05-1.93,3.05,0,3h0Z"/>
      <path class="cls-4" d="m229.69,262.32c12.02-.18,23.96-2.25,35.77-4.32,11.87-2.08,23.68-4.47,35.46-7.01,23.41-5.05,46.69-10.67,70.12-15.6,13.29-2.79,26.64-5.36,40.06-7.47,1.9-.3,1.09-3.19-.8-2.89-23.65,3.72-47.05,8.86-70.39,14.15s-46.67,10.73-70.23,15.03c-13.18,2.41-26.55,4.9-39.99,5.11-1.93.03-1.93,3.03,0,3h0Z"/>
      <path class="cls-4" d="m400.63,264.28c19.18-3.95,38.36-7.9,57.54-11.84,1.89-.39,1.09-3.28-.8-2.89-19.18,3.95-38.36,7.9-57.54,11.84-1.89.39-1.09,3.28.8,2.89h0Z"/>
      <path class="cls-4" d="m273.31,305.87c24.03-2.57,47.93-6.33,71.58-11.29,6.67-1.4,13.33-2.9,19.96-4.49,1.88-.45,1.08-3.34-.8-2.89-23.21,5.56-46.7,9.97-70.35,13.2-6.79.93-13.59,1.74-20.39,2.47-1.9.2-1.92,3.21,0,3h0Z"/>
      <path class="cls-7" d="m143.06,272.03c11.97,3.88,23.81,8.18,35.48,12.9,1.79.72,2.57-2.18.8-2.89-11.67-4.72-23.5-9.02-35.48-12.9-1.84-.6-2.63,2.3-.8,2.89h0Z"/>
      <path class="cls-7" d="m102.14,278.03c15.51,6.58,31.27,12.55,47.26,17.86,1.84.61,2.62-2.29.8-2.89-15.74-5.22-31.28-11.07-46.55-17.55-.75-.32-1.6-.22-2.05.54-.38.63-.21,1.74.54,2.05h0Z"/>
      <path class="cls-7" d="m21.73,49.69c-11.15,20.9-17.7,46.11-7.95,68.84,2.4,5.58,5.8,10.73,10.2,14.94,1.4,1.33,3.52-.78,2.12-2.12-7.62-7.28-11.85-17.35-13.45-27.64-1.78-11.46,0-23.21,3.64-34.14,2.11-6.35,4.88-12.45,8.03-18.36.91-1.7-1.68-3.22-2.59-1.51h0Z"/>
      <path class="cls-7" d="m46.9,158.61c4.12,2.46,8.59,4.34,13.24,5.53,1.87.48,2.67-2.41.8-2.89-4.42-1.13-8.61-2.89-12.52-5.22-1.66-.99-3.17,1.6-1.51,2.59h0Z"/>
      <path class="cls-7" d="m29.84,88.46c4.88,16.4,10.87,32.45,17.93,48.03.8,1.76,3.38.23,2.59-1.51-6.96-15.34-12.83-31.16-17.63-47.31-.55-1.85-3.45-1.06-2.89.8h0Z"/>
      <path class="cls-3" d="m283.88,129.67c-21.2-6.84-37.25-26.11-40.96-47.95-1.38-8.14-1.23-16.46-1.11-24.68.03-1.93-2.97-1.93-3,0-.11,7.64-.2,15.31.83,22.9.84,6.22,2.53,12.23,5.12,17.96,4.72,10.44,12.27,19.54,21.57,26.21,5.11,3.67,10.77,6.53,16.75,8.46,1.84.59,2.63-2.3.8-2.89h0Z"/>
      <path class="cls-3" d="m246.86,41.27c-.02-4.16,1.53-8.3,4.48-11.27,1.36-1.37-.76-3.5-2.12-2.12-3.49,3.53-5.38,8.45-5.36,13.39,0,1.93,3.01,1.93,3,0h0Z"/>
      <path class="cls-3" d="m257.4,56.25c6.18,19.05,11.8,38.3,18.81,57.07.67,1.79,3.57,1.02,2.89-.8-7.01-18.78-12.63-38.02-18.81-57.07-.59-1.83-3.49-1.05-2.89.8h0Z"/>
      <g>
        <path class="cls-11" d="m335.77,211.78c1.33,2.53,2.7,5.1,4.75,7.09s4.97,3.3,7.77,2.75c3.11-.61,5.34-3.28,7.3-5.78,2.45-3.13,5.04-7.09,3.53-10.77-9.61.06-19.2,1.73-28.26,4.92-.37.13-.76.28-.97.61-.22.35-.17.81-.1,1.22.4,2.63.82,5.3,1.9,7.73s2.96,4.63,5.46,5.52c2.63.93,5.51.32,8.29.07,4.55-.4,9.8-.03,12.94-3.34,2.45-2.58,2.66-6.49,2.74-10.05.11-4.98-.76-8.55-2.68-13.15-7.7.62-25.31,2.72-28.94,5.51,0,0-.25,5.23.52,7.6"/>
        <path class="cls-11" d="m334.47,212.53c1.75,3.31,3.63,6.72,6.82,8.86,2.91,1.95,6.53,2.45,9.69.83s5.26-4.61,7.16-7.32c2.07-2.95,3.76-6.63,2.43-10.24-.23-.62-.75-1.11-1.45-1.1-7.53.06-15.07,1.06-22.35,3.01-1.83.49-3.63,1.04-5.42,1.65-1.43.48-2.85.95-3.08,2.65-.19,1.39.31,3.04.58,4.41.36,1.85.88,3.66,1.7,5.36,1.33,2.74,3.64,5.12,6.62,6,3.16.93,6.53.09,9.73-.11,2.9-.18,5.94-.2,8.69-1.23s4.92-3.11,5.98-5.95c1.21-3.25,1.23-7.19.99-10.61-.26-3.68-1.27-7.15-2.67-10.55-.24-.58-.74-1.16-1.45-1.1-5.76.47-11.51,1.16-17.21,2.13-2.72.46-5.44.97-8.09,1.74-1.58.46-4.9,1.18-5.14,3.15-.31,2.5-.14,5.59.58,7.99.55,1.84,3.45,1.06,2.89-.8-.68-2.27-.58-4.86-.47-7.2l-.74,1.3c1.34-.99,3.08-1.4,4.67-1.82,2.6-.68,5.25-1.17,7.91-1.6,5.17-.85,10.38-1.46,15.6-1.89l-1.45-1.1c2.16,5.25,3.07,10.56,2.44,16.24-.27,2.43-1.04,4.96-3.16,6.4-1.96,1.34-4.48,1.59-6.78,1.75-2.75.19-5.51.54-8.26.67-2.95.14-5.41-.78-7.14-3.25s-2.22-5.26-2.67-8.05c-.05-.29-.1-.59-.14-.88l-.06-.36c.03-.43-.02-.43-.17,0,.62-.3,1.32-.47,1.97-.69,1.5-.49,3.01-.94,4.53-1.35,7.03-1.89,14.27-2.84,21.55-2.91l-1.45-1.1c1.06,2.86-.51,5.61-2.13,7.93s-3.37,4.72-5.76,6.07c-5.98,3.4-10.46-4.12-12.73-8.44-.9-1.71-3.49-.19-2.59,1.51h0Z"/>
      </g>
      <path class="cls-10" d="m334.09,207.76c.76,4.41.7,11.36,5.92,13.1,2.75.92,5.95-.06,8.68-.59,2.43-.47,6.26-.33,7.4-3.06.35-.85.27-1.72.17-2.61-.13-1.05-.26-2.1-.39-3.15-.27-2.16-.54-4.32-.8-6.49-.09-.76-.61-1.57-1.5-1.5-6.06.44-11.97,1.93-18.03,2.4-1.91.15-1.93,3.15,0,3,6.05-.47,11.97-1.96,18.03-2.4l-1.5-1.5c.4,3.21.8,6.43,1.19,9.64.05.4.29,1.19.03,1.55-.2.27-.69.38-.99.47-1.17.33-2.39.42-3.58.62-2.31.39-4.82,1.27-7.19.91-1.94-.29-2.9-2.29-3.31-3.81-.64-2.39-.81-4.93-1.23-7.37-.33-1.9-3.22-1.09-2.89.8h0Z"/>
      <path class="cls-5" d="m251.27,137.54c1.21,10.13,1.89,20.32,2.05,30.52.03,1.93,3.03,1.93,3,0-.16-10.2-.84-20.39-2.05-30.52-.23-1.89-3.23-1.92-3,0h0Z"/>
      <path class="cls-5" d="m246.03,154.99c4.33-1.65,9.04-2.2,13.62-1.44.8.13,1.61-.21,1.85-1.05.2-.72-.24-1.71-1.05-1.85-5.11-.85-10.36-.41-15.22,1.44-.76.29-1.28,1.01-1.05,1.85.2.73,1.08,1.34,1.85,1.05h0Z"/>
      <path class="cls-5" d="m332.9,161.1h1.69c.21,0,.4-.04.58-.13.19-.06.35-.16.48-.31.15-.14.25-.3.31-.48.09-.18.14-.37.13-.58-.02-.39-.14-.79-.44-1.06s-.65-.44-1.06-.44h-1.69c-.21,0-.4.04-.58.13-.19.06-.35.16-.48.31-.15.14-.25.3-.31.48-.09.18-.14.37-.13.58.02.39.14.79.44,1.06s.65.44,1.06.44h0Z"/>
      <path class="cls-5" d="m272.78,190.74c1.93,0,1.93-3,0-3s-1.93,3,0,3h0Z"/>
      <path class="cls-5" d="m188.1,161.1c1.93,0,1.93-3,0-3s-1.93,3,0,3h0Z"/>
      <path class="cls-5" d="m183.87,195.82c1.93,0,1.93-3,0-3s-1.93,3,0,3h0Z"/>
      <path class="cls-5" d="m215.39,196.86c0,3.67,0,7.34,0,11.01,0,1.93,3,1.93,3,0,0-3.67,0-7.34,0-11.01,0-1.93-3-1.93-3,0h0Z"/>
      <path class="cls-5" d="m210.97,204.28h8.47c.78,0,1.54-.69,1.5-1.5s-.66-1.5-1.5-1.5h-8.47c-.78,0-1.54.69-1.5,1.5s.66,1.5,1.5,1.5h0Z"/>
      <path class="cls-5" d="m389.15,148.15c.29,6.12-3.43,12.16-9.1,14.57-1.55.66-.43,3.35,1.16,2.74,2.65-1.02,5.71-.74,7.94,1.12s3.01,4.56,2.66,7.26c-.23,1.73,2.46,1.94,2.95.4,1.49-4.78,4.26-11.72,10.1-12.17l-1.06-2.56c-2.12,1.94-5.34-2.59-6.29-3.99-2.07-3.02-3.85-6.23-5.36-9.57-.8-1.76-3.38-.23-2.59,1.51,1.88,4.14,4.14,8.42,7.08,11.92,2.21,2.63,6.25,5.02,9.28,2.24.92-.84.24-2.66-1.06-2.56-7.43.58-11.04,8.1-12.99,14.38l2.95.4c1.03-7.88-7.01-14.11-14.4-11.27l1.16,2.74c6.58-2.79,10.92-10.11,10.59-17.16-.09-1.92-3.09-1.93-3,0h0Z"/>
      <path class="cls-5" d="m141.99,173.38c-.51,2.03-.93,4.17-2.07,5.96-1.38,2.17-3.79,3.41-6.12,4.31-1.29.5-1.56,2.5,0,2.89,4.15,1.04,7.43,4.25,8.53,8.39.35,1.32,2.04,1.39,2.74.36,3.09-4.51,6.17-9.02,9.26-13.53.84-1.23-.82-2.86-2.05-2.05-1.87,1.23-4.31.33-5.61-1.33-1.77-2.26-1.5-5.55-.95-8.18.4-1.88-2.49-2.69-2.89-.8-.8,3.79-.89,8.27,1.91,11.31,2.25,2.45,6.16,3.49,9.06,1.58l-2.05-2.05c-3.09,4.51-6.17,9.02-9.26,13.53l2.74.36c-1.36-5.11-5.49-9.2-10.63-10.48v2.89c2.95-1.14,5.79-2.64,7.64-5.28,1.47-2.09,2.04-4.65,2.64-7.08.47-1.87-2.43-2.67-2.89-.8h0Z"/>
      <path class="cls-5" d="m294.75,207.46l1.84,11.83c.12.8,1.13,1.24,1.85,1.05.85-.23,1.17-1.04,1.05-1.85l-1.84-11.83c-.12-.8-1.13-1.24-1.85-1.05-.85.23-1.17,1.04-1.05,1.85h0Z"/>
      <path class="cls-5" d="m287.21,215.55c5.63-.72,11.25-1.44,16.88-2.16.8-.1,1.5-.62,1.5-1.5,0-.73-.69-1.6-1.5-1.5-5.63.72-11.25,1.44-16.88,2.16-.8.1-1.5.62-1.5,1.5,0,.73.69,1.6,1.5,1.5h0Z"/>
      <path class="cls-5" d="m344.41,181.55l1.13-1.13c.15-.14.25-.3.31-.48.09-.18.14-.37.13-.58,0-.21-.04-.4-.13-.58-.06-.19-.16-.35-.31-.48l-.3-.23c-.23-.14-.49-.2-.76-.2l-.4.05c-.25.07-.47.2-.66.39l-1.13,1.13c-.15.14-.25.3-.31.48-.09.18-.14.37-.13.58,0,.21.04.4.13.58.06.19.16.35.31.48l.3.23c.23.14.49.2.76.2l.4-.05c.25-.07.47-.2.66-.39h0Z"/>
      <path class="cls-5" d="m184.15,227.15c1.93,0,1.93-3,0-3s-1.93,3,0,3h0Z"/>
      <path class="cls-5" d="m149.38,256.14c-.39-4.89-.79-9.78-1.18-14.67-.07-.81-.64-1.5-1.5-1.5-.76,0-1.57.69-1.5,1.5.39,4.89.79,9.78,1.18,14.67.07.81.64,1.5,1.5,1.5.76,0,1.57-.69,1.5-1.5h0Z"/>
      <path class="cls-5" d="m142.72,251.77l10.13-3.48c.77-.26,1.27-1.03,1.05-1.85-.2-.75-1.08-1.31-1.85-1.05l-10.13,3.48c-.77.26-1.27,1.03-1.05,1.85.2.75,1.08,1.31,1.85,1.05h0Z"/>
    </g>
  </g>
</svg>